<svg id="Layer_1" data-name="Layer 1" xmlns="http://www.w3.org/2000/svg" viewBox="0 0 240.85 240.85"><defs><style>.cls-1,.cls-2,.cls-3,.cls-4,.cls-5,.cls-6,.cls-7,.cls-8{fill:none;stroke:#969;}.cls-1,.cls-8{stroke-miterlimit:10;}.cls-1,.cls-2,.cls-8{stroke-width:3.5px;}.cls-2,.cls-3,.cls-4,.cls-5,.cls-6,.cls-7,.cls-8{stroke-linecap:round;}.cls-2,.cls-3,.cls-4,.cls-5,.cls-6,.cls-7{stroke-linejoin:round;}.cls-3{stroke-width:3px;stroke-dasharray:4.71 4.71;}.cls-4,.cls-5,.cls-6,.cls-7{stroke-width:7px;}.cls-5{stroke-dasharray:0.1 14.9;}.cls-6{stroke-dasharray:0.1 15.02;}.cls-7{stroke-dasharray:0.1 14.63;}</style></defs><title>sponsor a screening</title><circle class="cls-1" cx="120.42" cy="120.42" r="115.78"/><path class="cls-2" d="M91.1,66.38h72.63a2.43,2.43,0,0,1,2.43,2.43v53.55a2.43,2.43,0,0,1-2.43,2.43h-91a2.43,2.43,0,0,1-2.43-2.43V86.9"/><rect class="cls-3" x="107.99" y="84.9" width="20.25" height="20.25" rx="3.29" ry="3.29"/><line class="cls-4" x1="97.92" y1="143.83" x2="97.97" y2="143.83"/><line class="cls-5" x1="112.87" y1="143.83" x2="135.42" y2="143.83"/><line class="cls-4" x1="142.87" y1="143.83" x2="142.92" y2="143.83"/><line class="cls-4" x1="82.62" y1="178.49" x2="82.67" y2="178.49"/><line class="cls-6" x1="97.69" y1="178.49" x2="150.67" y2="178.49"/><line class="cls-4" x1="158.18" y1="178.49" x2="158.23" y2="178.49"/><line class="cls-4" x1="90.97" y1="161.16" x2="91.02" y2="161.16"/><line class="cls-7" x1="105.65" y1="161.16" x2="142.51" y2="161.16"/><line class="cls-4" x1="149.83" y1="161.16" x2="149.88" y2="161.16"/><line class="cls-8" x1="70.31" y1="77.38" x2="70.31" y2="55.38"/><line class="cls-8" x1="59.31" y1="66.38" x2="81.31" y2="66.38"/></svg>