<?xml version="1.0" encoding="utf-8"?>
<!-- Generator: Adobe Illustrator 22.0.1, SVG Export Plug-In . SVG Version: 6.00 Build 0)  -->
<svg version="1.1"
	 id="svg6490" xmlns:cc="http://creativecommons.org/ns#" xmlns:dc="http://purl.org/dc/elements/1.1/" xmlns:rdf="http://www.w3.org/1999/02/22-rdf-syntax-ns#" xmlns:svg="http://www.w3.org/2000/svg"
	 xmlns="http://www.w3.org/2000/svg" xmlns:xlink="http://www.w3.org/1999/xlink" x="0px" y="0px" viewBox="0 0 300 84.8"
	 style="enable-background:new 0 0 300 84.8;" xml:space="preserve">
<style type="text/css">
	.st0{fill:#FFFFFF;}
</style>
<g id="layer1" transform="translate(-347.97009,-319.83099)">
	<g id="g6531" transform="matrix(3.4515714,0,0,3.4515714,-853.07359,-992.02608)">
		<g id="g296" transform="matrix(1.25,0,0,-1.25,367.40011,391.63781)">
			<path id="path298" class="st0" d="M0,0c-0.1-1.5-1.1-3.6-3.2-6.2c-2.1-2.7-3.9-4.1-5.4-4.1c-0.9,0-1.7,0.8-2.3,2.5
				c-0.4,1.5-0.8,3.1-1.3,4.6c-0.5,1.7-1,2.5-1.5,2.5c-0.1,0-0.5-0.2-1.2-0.7l-0.7,0.9c0.8,0.7,1.5,1.3,2.3,2c1,0.9,1.8,1.4,2.3,1.4
				C-9.8,3-9,2.2-8.7,0.4c0.3-1.9,0.5-3.1,0.6-3.6C-7.8-4.7-7.4-5.5-7-5.5C-6.6-5.5-6.1-5-5.5-4c0.7,1,1,1.8,1,2.3
				c0.1,0.9-0.3,1.3-1,1.3c-0.4,0-0.8-0.1-1.2-0.3C-5.9,2-4.4,3.2-2.3,3.1C-0.7,3.1,0.1,2,0,0"/>
		</g>
		<g id="g300" transform="matrix(1.25,0,0,-1.25,375.60136,382.24656)">
			<path id="path302" class="st0" d="M0,0c0-0.6-0.3-1.1-0.9-1.7c-0.6-0.6-1.4-0.9-2.2-0.9c-1.3,0-2,0.6-1.9,1.7
				C-5-0.2-4.7,0.3-4,0.9c0.7,0.6,1.4,0.8,2.3,0.8c0.5,0,0.9-0.2,1.2-0.6C-0.1,0.8,0,0.4,0,0z M3-12.4c-0.7-1.2-1.5-2.3-2.7-3.3
				c-1.6-1.3-3.1-2-4.7-2c-0.7,0-1.3,0.2-1.7,0.7c-0.4,0.5-0.6,1.1-0.5,1.8c0,0.8,0.3,2,0.7,3.6c0.5,1.6,0.7,2.5,0.7,2.6
				c0,0.6-0.2,0.9-0.6,0.9c-0.1,0-0.5-0.2-1.2-0.7L-7.8-8C-7-7.3-6.3-6.7-5.5-6c1,0.9,1.7,1.3,2.2,1.4c0.8,0.1,1.3-0.2,1.7-0.7
				c0.4-0.5,0.5-1.2,0.4-2c-0.3-1.4-0.6-3.2-1-5.4c0-1,0.3-1.5,1.1-1.5c0.3,0,0.9,0.3,1.7,1c0.7,0.6,1.3,1.1,1.7,1.6L3-12.4"/>
		</g>
		<g id="g304" transform="matrix(1.25,0,0,-1.25,406.65886,397.76906)">
			<path id="path306" class="st0" d="M0,0c-0.7-1.2-1.5-2.3-2.7-3.3c-1.6-1.3-3.1-2-4.7-2c-1.5,0-2.2,0.8-2.2,2.5
				c0,0.7,0.2,1.6,0.4,2.7c0.3,1,0.4,1.9,0.4,2.4c0,0.9-0.2,1.3-0.8,1.3c-0.6,0-1.3-0.7-2.2-2.2c-0.9-1.5-1.4-3-1.4-4.4
				c0-1,0.1-1.8,0.3-2.3c-1.6,0-2.8,0.2-3.4,0.8C-16.8-4-17.1-3.1-17-1.9c0,0.7,0.1,1.5,0.3,2.2c0.2,0.7,0.3,1.4,0.3,2
				c0,0.9-0.3,1.3-0.9,1.3c-0.6,0-1.2-0.7-1.9-2c-0.7-1.3-1-2.7-1.1-4.2c0-1.3,0-2.2,0.2-2.7c-1.6,0-2.7,0.3-3.4,1
				c-0.6,0.6-0.8,1.5-0.8,2.8c0,0.6,0.1,1.4,0.3,2.5c0.2,1.1,0.3,1.9,0.3,2.5c0,0.4-0.1,0.6-0.3,0.6c-0.1,0-0.5-0.2-1.2-0.7
				l-0.8,0.9c0.1,0.1,0.8,0.8,2.2,2c1,0.9,1.6,1.4,2,1.4c0.6,0,1.1-0.2,1.5-0.8c0.4-0.5,0.6-1.2,0.6-1.9c0-0.2,0-0.5-0.1-0.7
				c0.3,0.5,0.8,1,1.2,1.4c1.1,0.9,2.3,1.5,3.6,1.6c1.1,0.1,2-0.2,2.4-0.8c0.4-0.5,0.6-1.2,0.6-2.2c0.2,0.1,0.3,0.3,0.5,0.5
				c0.5,0.6,1.1,1.1,1.6,1.5c0.9,0.6,1.8,1,2.7,1C-6,7.6-5.2,7.3-4.7,6.7c0.4-0.5,0.6-1.2,0.6-2.2c0-0.6-0.2-1.6-0.5-2.8
				c-0.3-1.2-0.4-2-0.4-2.1c0-0.5,0-0.8,0.1-1c0.1-0.2,0.4-0.3,0.8-0.3c0.3,0,0.9,0.3,1.7,1c0.7,0.6,1.3,1.1,1.7,1.6L0,0"/>
		</g>
		<g id="g308" transform="matrix(1.25,0,0,-1.25,413.11886,393.16656)">
			<path id="path310" class="st0" d="M0,0c0,0.6-0.2,0.9-0.8,0.9c-0.7,0-1.4-0.5-2.1-1.4C-3.6-1.5-4-2.4-4-3.3c0,0,0-0.2,0-0.5
				c1.1,0.4,2.1,1.1,3,1.9C-0.4-1.1,0-0.5,0,0z M7.9-3.6c-0.7-1.1-2-2.2-4-3.3C1.5-8.4-1-9.1-3.6-9.1c-1.9,0-3.2,0.6-4.1,1.9
				c-0.6,0.9-0.9,1.9-0.8,3.1c0,1.9,0.9,3.7,2.5,5.4C-4.1,3.1-2,4,0.5,4C2.8,4,4,3.1,4.1,1.2c0.1-1.2-0.6-2.4-2-3.7
				C0.7-3.8-1.2-4.7-3.5-5c0.4-0.6,1-0.9,1.9-0.9c1.7,0,3.5,0.4,5.5,1.3C5.3-4,6.4-3.4,7.3-2.8L7.9-3.6"/>
		</g>
		<g id="g312" transform="matrix(1.25,0,0,-1.25,140.41511,688.14656)">
			<g>
				<g id="g314">
					<g id="g320" transform="translate(231.623,234.81)">
						<path id="path322" class="st0" d="M0,0c0,0.6-0.1,1.2-0.3,1.7c-0.2,0.5-0.5,0.8-0.9,0.8c-1.2,0-2.2-0.6-2.9-1.9
							c-0.7-1.1-1-2.2-1-3.4c0-0.6,0.1-1.1,0.3-1.5c0.3-0.5,0.6-0.8,1.1-0.8c1,0,1.9,0.6,2.7,1.9C-0.4-2.2,0-1.1,0,0z M3.9-0.1
							c-0.1-2.1-0.9-4-2.4-5.5S-1.8-8-4-8c-1.8,0-3.2,0.6-4.2,1.8c-0.7,0.9-1.1,2-1.2,3.3c-0.1,2,0.6,3.8,2.2,5.5
							c1.7,1.9,3.8,2.8,6.3,2.8c1.6,0,2.9-0.5,3.7-1.6C3.7,2.7,4,1.4,3.9-0.1"/>
					</g>
				</g>
			</g>
		</g>
	</g>
</g>
</svg>
