<svg id="svg6490" xmlns="http://www.w3.org/2000/svg" viewBox="0 0 300 84.82"><defs><style>.cls-1{fill:#fff;}</style></defs><title>vimeo</title><g id="layer1"><g id="g6531"><g id="g296"><path id="path298" class="cls-1" d="M67.06,39.91q-.44,9.8-13.68,26.83Q39.7,84.55,30.22,84.54q-5.87,0-9.92-10.84-2.7-9.93-5.42-19.86Q11.88,43,8.42,43c-.5,0-2.26,1.06-5.27,3.16L0,42.09q5-4.37,9.79-8.73,6.63-5.73,9.94-6,7.83-.75,9.65,10.71,1.95,12.38,2.71,15.39,2.25,10.26,5,10.26c1.4,0,3.51-2.23,6.33-6.66s4.31-7.82,4.51-10.14q.6-5.74-4.51-5.75a12.57,12.57,0,0,0-5,1.1Q43.37,26,57.32,26.49q10.33.3,9.74,13.42"/></g><g id="g300"><path id="path302" class="cls-1" d="M95.37,7.49C95.27,10,94,12.4,91.6,14.7A13.48,13.48,0,0,1,82,18.59q-8.58,0-8.29-7.49.15-3.9,4.59-7.5A15.34,15.34,0,0,1,88.14,0a6.65,6.65,0,0,1,5.27,2.48A7.05,7.05,0,0,1,95.37,7.49Zm13.11,53.59a50.75,50.75,0,0,1-11.6,14.44q-10.09,8.73-20.19,8.74a8.75,8.75,0,0,1-7.16-3,11.28,11.28,0,0,1-2.33-7.83c.09-3.3,1.12-8.43,3.08-15.35s3-10.64,3-11.14q0-3.91-2.72-3.92c-.6,0-2.31,1.06-5.12,3.16l-3.47-4.07,9.64-8.73q6.48-5.73,9.65-6,5-.45,7.31,2.93c1.55,2.25,2.13,5.17,1.73,8.78q-2,9.15-4.22,23.26c-.1,4.31,1.45,6.46,4.67,6.46q2.11,0,7.53-4.46a63.06,63.06,0,0,0,7.39-7l2.86,3.77"/></g><g id="g304"><path id="path306" class="cls-1" d="M202.57,61.07A50.65,50.65,0,0,1,191,75.52q-10.09,8.73-20.19,8.73-9.79,0-9.49-10.84a54,54,0,0,1,1.88-11.59,55,55,0,0,0,1.88-10.54q.15-5.72-3.48-5.72-3.93,0-9.37,9.34-5.74,9.79-6.19,19c-.21,4.32.22,7.64,1.26,10q-10.52.3-14.72-3.47-3.77-3.31-3.45-11a39.82,39.82,0,0,1,1.48-9.64,38.74,38.74,0,0,0,1.47-8.59q.31-5.57-4.07-5.57-3.78,0-8.15,8.59A43.81,43.81,0,0,0,115,72.07c-.21,5.63.16,9.55,1.08,11.76q-10.35.3-14.69-4.36c-2.41-2.6-3.5-6.56-3.3-11.87a84.38,84.38,0,0,1,1.38-10.89,85,85,0,0,0,1.39-10.89c.2-1.8-.26-2.71-1.36-2.71q-.9,0-5.12,3l-3.62-4.07q.77-.59,9.49-8.73,6.33-5.88,8.59-6a6.67,6.67,0,0,1,6.33,3.24,14.29,14.29,0,0,1,2.41,8.21,13.2,13.2,0,0,1-.3,2.86,27.87,27.87,0,0,1,5.28-6,26.8,26.8,0,0,1,15.51-6.78q7.39-.6,10.55,3.47,2.56,3.31,2.41,9.49l2.27-2a39.45,39.45,0,0,1,6.77-6.47,22.37,22.37,0,0,1,11.6-4.53q7.23-.6,10.4,3.46,2.7,3.3,2.41,9.45a69,69,0,0,1-2,12.23,78.34,78.34,0,0,0-1.88,9.23c-.1,2.11.1,3.56.6,4.36s1.71,1.2,3.62,1.2c1.41,0,3.91-1.49,7.53-4.47a63,63,0,0,0,7.39-7l2.86,3.76"/></g><g id="g308"><path id="path310" class="cls-1" d="M224.87,45.19q.13-4-3.31-4c-3,0-6.07,2.07-9.18,6.22s-4.72,8.12-4.82,11.92a9.54,9.54,0,0,0,0,1.95A33.91,33.91,0,0,0,220.35,53Q224.71,48.18,224.87,45.19Zm34.2,15.73q-4.38,7.23-17.18,14.44-16,9.18-32.39,9.17-12.21,0-17.48-8.13a22.28,22.28,0,0,1-3.62-13.25q.15-12.21,10.85-23.2Q211,27.89,227,27.89q14.76,0,15.67,12,.6,7.66-8.44,15.78Q224.57,64.57,210,67q2.7,3.77,8.13,3.76,10.85,0,23.66-5.52a63.34,63.34,0,0,0,14.47-8l2.86,3.76"/></g><g id="g312"><g id="g314"><g id="g320"><path id="path322" class="cls-1" d="M282.94,50.25a19,19,0,0,0-1.13-7.47c-.86-2.26-2.09-3.4-3.69-3.4q-7.69,0-12.66,8.3a29.29,29.29,0,0,0-4.52,14.49,12.9,12.9,0,0,0,1.36,6.65q1.65,3.32,4.67,3.32,6.78,0,11.6-8A28.57,28.57,0,0,0,282.94,50.25Zm17,.57a35.78,35.78,0,0,1-10.24,23.92,31.82,31.82,0,0,1-24,10.08q-11.9,0-18.08-7.68a24.49,24.49,0,0,1-5-14.28q-.75-12.95,9.35-23.78a35.14,35.14,0,0,1,27.26-12q10.55,0,16,7.07,5.13,6.48,4.67,16.7"/></g></g></g></g></g></svg>