<?xml version="1.0" encoding="utf-8"?>
<!-- Generator: Adobe Illustrator 18.0.0, SVG Export Plug-In . SVG Version: 6.00 Build 0)  -->
<!DOCTYPE svg PUBLIC "-//W3C//DTD SVG 1.1//EN" "http://www.w3.org/Graphics/SVG/1.1/DTD/svg11.dtd">
<svg version="1.1"
	 id="svg2328" sodipodi:version="0.32" inkscape:version="0.45.1" sodipodi:docbase="C:\Documents and Settings\Alex Broersma.D2KY7761\Desktop" sodipodi:docname="aa.svg" inkscape:output_extension="org.inkscape.output.svg.inkscape" xmlns:inkscape="http://www.inkscape.org/namespaces/inkscape" xmlns:sodipodi="http://sodipodi.sourceforge.net/DTD/sodipodi-0.dtd" xmlns:svg="http://www.w3.org/2000/svg" xmlns:rdf="http://www.w3.org/1999/02/22-rdf-syntax-ns#" xmlns:cc="http://web.resource.org/cc/" xmlns:dc="http://purl.org/dc/elements/1.1/"
	 xmlns="http://www.w3.org/2000/svg" xmlns:xlink="http://www.w3.org/1999/xlink" x="0px" y="0px" viewBox="0 0 293 194"
	 enable-background="new 0 0 293 194" xml:space="preserve">
<sodipodi:namedview  inkscape:window-y="-4" inkscape:window-x="-4" inkscape:current-layer="svg2328" inkscape:window-width="1440" inkscape:pageshadow="2" inkscape:pageopacity="0.0" inkscape:window-height="844" id="base" objecttolerance="10.0" bordercolor="#666666" guidetolerance="10.0" pagecolor="#ffffff" inkscape:zoom="4.0618557" inkscape:cy="131.76504" gridtolerance="10.0" borderopacity="1.0" inkscape:cx="219.80302">
	</sodipodi:namedview>
<path id="path6" fill="#FFFFFF" d="M291.3,55.1C277.5-12.1,147.5-16.4,63.7,34.8v5.7C147.4-2.7,266.1-2.5,277,59.4
	c3.6,20.5-7.8,41.8-28.4,54.1v16.1C273.3,120.5,298.6,91.1,291.3,55.1 M138.9,172.7c-57.8,5.4-118.1-3.1-126.5-48.4
	c-4.2-22.3,6-46,19.5-60.8v-7.9C7.6,77-5.6,104,2.1,135.8c9.7,40.9,61.4,64.1,140.3,56.4c31.3-3,72.2-13.1,100.5-28.8v-22.3
	C217.1,156.6,174.5,169.4,138.9,172.7z"/>
<path id="path8" fill="#FFFFFF" d="M238.3,45.3h-15.2v67.8c0,8,3.8,14.9,15.2,16"/>
<path id="path10" fill="#FFFFFF" d="M57.7,70.1H42.6v44.3c0,8,3.8,14.9,15.2,16"/>
<rect id="rect12" x="42.6" y="47.4" fill="#FFFFFF" width="15.2" height="14.4"/>
<path id="path14" fill="#FFFFFF" d="M148.6,129.7c-12.3,0-17.5-8.6-17.5-17V53.8h15v16.3h11.4v12.2h-11.4v29.4
	c0,3.5,1.7,5.4,5.2,5.4h6.1v12.6H148.6"/>
<path id="path16" fill="#FFFFFF" d="M188.4,81.6c-5.1,0-9.1,2.7-10.7,6.3c-1,2.2-1.3,3.8-1.5,6.5h23.2
	C199.1,87.8,196.1,81.6,188.4,81.6 M176.2,104.6c0,7.7,4.8,13.4,13.3,13.4c6.7,0,10-1.9,13.8-5.7l9.3,8.9c-6,5.9-12.2,9.5-23.2,9.5
	c-14.4,0-28.2-7.9-28.2-30.9c0-19.6,12-30.7,27.8-30.7c16,0,25.2,13,25.2,30.1v5.4L176.2,104.6"/>
<path id="path18" fill="#FFFFFF" d="M98.6,82.3c4.4,0,6.2,2.2,6.2,5.7v41.7h15V88c0-8.5-4.5-17.9-17.7-17.9h-31v59.7h15V82.3"/>
<text transform="matrix(1.0217 0 0 1 246.8975 55.2617)" fill="#FFFFFF" font-family="'ArialMT'" font-size="13.8854">®</text>
</svg>
