<?xml version="1.0" encoding="utf-8"?>
<!-- Generator: Adobe Illustrator 18.0.0, SVG Export Plug-In . SVG Version: 6.00 Build 0)  -->
<!DOCTYPE svg PUBLIC "-//W3C//DTD SVG 1.1//EN" "http://www.w3.org/Graphics/SVG/1.1/DTD/svg11.dtd">
<svg version="1.1" id="Layer_1" xmlns="http://www.w3.org/2000/svg" xmlns:xlink="http://www.w3.org/1999/xlink" x="0px" y="0px"
	 viewBox="0 0 296.6 73.3" enable-background="new 0 0 296.6 73.3" xml:space="preserve">
<g>
	<path fill="#6CB344" d="M131.6,22.3h17.2l-18.4,49.3h-16L96.1,22.3h17.1l9.3,32.4L131.6,22.3z"/>
	<g>
		<rect x="227.6" y="0" fill="#6CB344" width="15" height="15"/>
		<path fill="#6CB344" d="M242.6,71.7h-15V22.3h15V71.7z"/>
	</g>
	<g>
		<path fill="#6CB344" d="M220.3,71.7h-15V0h15V71.7z"/>
	</g>
	<g>
		<path fill="#6CB344" d="M0,0.1v16.4h16.4v25c0,9-7.3,16.4-16.4,16.4v15c8.4,0,16.3-3.3,22.2-9.2c5.9-5.9,9.2-13.8,9.2-22.2v-10
			l-15-15L0,0.1z"/>
		<polygon fill="#6CB344" points="31.4,0 14.8,0 31.4,16.6 		"/>
	</g>
	<path fill="#6CB344" d="M296.6,39.4c0-10.5-8.5-19-19-19c-4.9,0-9.3,1.8-12.7,4.9v-3h-15v49.4h15V42.2c0.3-4.4,3.9-7.8,8.3-7.8
		c4.6,0,8.3,3.7,8.3,8.3c0,0,0,29,0,29h15V39.4L296.6,39.4L296.6,39.4z"/>
	<path fill="#6CB344" d="M76.6,22.3v2.9c-3.4-3-7.8-4.8-13.5-4.8c-14.6,0-26.5,11.9-26.5,26.5s11.9,26.5,26.5,26.5
		c5.6,0,10.1-1.8,13.5-4.8v3.1h15V22.3H76.6z M64.2,59.3c-6.9,0-12.5-5.6-12.5-12.5c0-6.9,5.6-12.5,12.5-12.5
		c6.9,0,12.5,5.6,12.5,12.5C76.6,53.7,71,59.3,64.2,59.3z"/>
	<path fill="#6CB344" d="M199.5,52.3c0.4-1.7,0.6-3.5,0.6-5.4c0-14.6-11.9-26.5-26.5-26.5c-14.6,0-26.5,11.9-26.5,26.5
		c0,14.6,11.9,26.5,26.5,26.5c11.2,0,20.7-6.9,24.6-16.7h-16.3c-2.1,2.7-5,4.3-8.3,4.3c-4.8,0-8.9-3.6-10.6-8.7H199.5z M163,41.5
		c1.7-5.1,5.8-8.7,10.6-8.7c4.8,0,8.9,3.6,10.6,8.7H163z"/>
</g>
</svg>
