<?xml version="1.0" encoding="utf-8"?>
<!-- Generator: Adobe Illustrator 18.0.0, SVG Export Plug-In . SVG Version: 6.00 Build 0)  -->
<!DOCTYPE svg PUBLIC "-//W3C//DTD SVG 1.1//EN" "http://www.w3.org/Graphics/SVG/1.1/DTD/svg11.dtd">
<svg version="1.1" id="Layer_1" xmlns="http://www.w3.org/2000/svg" xmlns:xlink="http://www.w3.org/1999/xlink" x="0px" y="0px"
	 viewBox="0 0 614 201" enable-background="new 0 0 614 201" xml:space="preserve">
<path fill="#1F99A6" d="M105.1,5.7H37C17.1,5.7,7.8,15,7.8,34.9v128.5c0,19.9,9.3,29.2,29.2,29.2h68V5.7z"/>
<path id="XMLID_2_" fill="#B0BF36" d="M105.1,5.7H37C17.1,5.7,7.8,15,7.8,34.9v128.5c0,19.9,9.3,29.2,29.2,29.2h68V5.7z"/>
<path fill="#99AF3B" d="M105.1,134.9L7.8,38.3v125.1c0,19.9,9.3,29.2,29.2,29.2h68V134.9z"/>
<g>
	<path fill="#FFFFFF" d="M67.8,127.1V22.7h20.4v103.2c0,30.2-15.9,49.2-52.7,49.2h-8.2v-19.1h7.8C57.1,155.9,67.8,146.3,67.8,127.1z
		"/>
</g>
<path id="XMLID_3_" fill="#1A8693" d="M578.7,5.7H115.1v186.9h463.5c19.9,0,29.2-9.3,29.2-29.2V34.9C607.8,15,598.6,5.7,578.7,5.7z"
	/>
<path fill="#1F99A6" d="M607.8,163.4V34.9c0-6.6-1-12.1-3.1-16.4L115.1,145.9v46.8h463.5C598.6,192.6,607.8,183.4,607.8,163.4z"/>
<g>
	<path fill="#FFFFFF" d="M403.9,20.1c-31.4,0-57.1,16.9-69.3,41.1c-12.2-24.2-37.7-41.1-69.3-41.1c-43.1,0-79.7,34.8-79.7,78.8
		c0,43.9,36.6,78.8,79.7,78.8c31.3,0,56.5-16.8,69.3-41.1c12.7,24.1,37.8,41.1,69.3,41.1c43.1,0,79.6-34.8,79.6-78.8
		C483.6,54.9,447,20.1,403.9,20.1z M265.3,158.4c-33.7,0-58.3-27.2-58.3-59.6c0-32.4,24.6-59.6,58.3-59.6
		c33.7,0,58.3,27.2,58.3,59.6C323.6,131.3,299,158.4,265.3,158.4z M403.9,158.4c-33.7,0-58.3-27.2-58.3-59.6
		c0-32.4,24.6-59.6,58.3-59.6c33.7,0,58.3,27.2,58.3,59.6C462.2,131.3,437.7,158.4,403.9,158.4z"/>
</g>
<g>
	<path fill="#FFFFFF" d="M152.9,120.8V22.7h-20.5v103.2c0,28.7,18.9,49.2,48.3,49.2h19.2v-19.1h-16.1
		C162.4,155.9,152.9,144.3,152.9,120.8z"/>
</g>
<g>
	<path fill="#FFFFFF" d="M543,20.1c-26.1,0-48.7,20.2-48.7,53.1V175h20.4V70.6c0-19.4,12.2-31.4,28.5-31.4
		c16.8,0,29.6,11.3,29.6,29.8c0,18.3-11.2,28.4-27.6,29.4c-8.6,0.5-16.8,0.2-19.9,0.1v18.9c3.4,0.3,12.9,0.8,25.8-0.1
		c24.1-1.9,42.2-20.2,42.2-48.2C593.3,43.1,573.9,20.1,543,20.1z"/>
</g>
</svg>
