<?xml version="1.0" encoding="utf-8"?>
<!-- Generator: Adobe Illustrator 18.0.0, SVG Export Plug-In . SVG Version: 6.00 Build 0)  -->
<!DOCTYPE svg PUBLIC "-//W3C//DTD SVG 1.1//EN" "http://www.w3.org/Graphics/SVG/1.1/DTD/svg11.dtd">
<svg version="1.1" id="Face_Vector_xA0_Image_1_" xmlns="http://www.w3.org/2000/svg" xmlns:xlink="http://www.w3.org/1999/xlink"
	 x="0px" y="0px" viewBox="88.7 44 132.5 216.6" enable-background="new 88.7 44 132.5 216.6" xml:space="preserve">
<g>
	<path fill="#FFFFFF" d="M190.3,65.9c-0.8,0.2-1.1-0.5-1.7-0.7c-0.9-0.4-1.9-0.6-2.7-1c-4-1.9-7.7-4.4-11.3-6.9
		c-1.5-1-3.1-1.8-4.3-2.9c-1.5-1.4-2.7-2.9-4.6-3.7c-2.2-0.1-3.1-1.1-4.3-2.6c-0.5-0.7-1.9-2.2-1.8-3c0.2-0.8,2.2-1.1,3.5-1.1
		c2.7,0,4.5,0.6,6.4,1.7c7.1,4.1,13.9,10.8,19.6,15.8C189.5,63,190.6,64.4,190.3,65.9z"/>
	<path fill="#FFFFFF" d="M217.4,119c-1,0-1.7-0.8-2.3-1.4c-3-3.1-4.6-7.9-6.5-12.2c-0.4-0.8-0.8-1.7-1.3-2.6
		c-0.4-0.8-0.8-1.8-1.3-2.4c-0.6-0.7-1.9-1.3-2.6-1.9c-1.3-1.1-2.6-2.1-3.2-4c-0.7-0.1-1.3-0.2-1.9-0.4
		c-11.9-15.5-26.8-29.3-46.4-37.4c-1.4-0.5-2.6-1.1-3.8-2.1c-1-0.7-2.7-2-2.6-3.3c0.1-1.7,3.1-2.5,4.6-2.6c2.8-0.2,5.8,0.8,8,1.8
		c6.8,2.8,12.7,7.1,17.9,11.2c5.4,4.3,10.6,8.8,15.5,13.6c1.6,1.6,3.5,3.1,4.9,4.8c0.8,1.1,1.6,2.3,2.3,3.5c1.5,2.3,3,4.7,4.3,7.3
		c0.7,1.3,1.1,2.6,1.7,4c0.9,1.9,2.5,3.9,3.7,5.6c1.3,1.9,2.6,3.7,3.8,5.4c1.3,1.8,2.2,4.1,3.1,6.2
		C216.3,114.3,217.6,116.6,217.4,119z"/>
	<path fill="#FFFFFF" d="M176.2,85.5c-0.1,0.9,0.7,1.9,1.1,2.8c0.5,0.8,1,1.8,1.4,2.6c0.7,1,1.7,1.7,2.5,2.7
		c3.9,4.6,7.7,9.5,11.2,14.8c1.4,2.1,2.8,4.4,3.7,6.6c0.8,2,0.9,4.4-1.9,4.3c-1.6-0.1-3.2-0.7-4.4-1.3c-1.3-0.6-2-1.9-3.7-1.6
		c-0.5,0.3-0.4,1.1-0.5,1.4c-0.5,1.6-2.2,3.2-3.7,3.4c-2.5,0.4-3.5-2.5-6-1.9c-1,0.2-1,1.1-1.6,1.7c-1,1.1-2.7,2.7-4.6,2.6
		c-0.8-0.1-3.5-2.1-4.3-0.4c-0.4,0.7,0.1,1.5,0.2,2.4c0.3,2.3,0.2,7.2-1.9,7.6c-1.1,0.2-2.7-1-3.5-1.8c-0.6-0.5-1.5-2.2-2.4-2
		c-1.1,0.3-0.2,2.8-0.5,4c-0.8,3.2-7.3,1.7-9.4,0.5c-0.8-0.5-1-1.4-2.2-1.8c-0.3,0.7,0.5,1.3,0.3,1.9c-0.9,3.4-4.9,0.8-6.4-0.5
		c-1.2-1-2.7-2.3-3.5-3.5c-0.7-0.9-0.8-1.5-1.8-2c-0.7-0.4-1.6-0.4-2.4-0.6c-1.9-0.5-3.7-1.4-5.6-2.2c-1.8-0.7-3.5-1.8-5.3-2.6
		c-1.7-0.8-3.6-1.1-5.3-1.6c-4.6-1.3-8.8-2.7-14.7-2.7c-1.7,0-3.6,0.2-4.3-0.9c-0.8-0.2-1.5-0.4-2.3-0.8c-0.5-0.2-1.6-0.8-1.6-1.4
		c0-0.9,1.5-1.3,2.3-1.6c2.1-0.7,3.9-1,5.8-1.8c1.1-0.5,2-1.3,3.4-1.3c1.4-0.1,2.8,0.1,4.1,0.4c2.2,0.4,4.6,1.6,7,0.5
		c-0.4-0.9-1.4-1.3-2.4-1.7c-1-0.4-2.2-0.5-3.2-0.8c-1.6-0.4-3.2-0.9-4.6-1.6c-0.5-0.2-0.9-0.6-1.3-0.7c-1.1-0.2-2.4-0.1-3.5-0.2
		c-1.1-0.1-2.5,0.1-3.5-0.2c-0.8-0.2-2-1.6-1.8-2.6c0.2-1.7,3.6-1.3,5.6-1.4c1.6-0.1,3.6-0.7,5.1-1.1c0.5-0.2,1-0.5,1.4-0.5
		c1-0.1,2.2,0.2,3.2,0.3c2.1,0.3,4,0.7,5.9,1.3c1.9,0.5,4,1.6,6.4,1.1c-0.2-0.8-1.1-1.1-1.8-1.6c-0.7-0.4-1.4-0.9-2.2-1.1
		c-1.3-0.4-2.8-0.6-4.3-0.9c-3.3-0.8-6.8-1.7-10-2.8c-0.7-0.2-1.3-0.6-1.9-0.7c-1-0.2-2-0.1-3-0.2c-1-0.1-2-0.2-2.9-0.3
		c-1.8-0.2-3.5-0.4-4.7-1.6c0.3-0.9,0.8-1.7,1.6-2.1c1.5-0.8,3.5,0.1,5.4,0c1.3-0.1,2.7-0.6,4-0.9c1.4-0.4,2.6-0.7,3.7-1.1
		c4.4,0.5,8.8,1,13,1.9c2.1,0.4,4.1,1.4,6.7,0.8c-0.1-0.7-0.8-0.8-1.3-1.1c-1.9-0.8-4.7-1.1-7.2-1.6c-3.5-0.7-6.9-1.4-10.4-2.3
		c-1.6-0.5-3.3-0.8-4.6-1.6c-0.7-0.4-1-1.2-1.6-1.4c-1.5-0.7-3.5,0.2-5.1,0.2c-1.3,0.1-2.6-0.2-3.8-0.4c-1.1-0.2-2.4-0.3-3.1-1.1
		c0.4-1,1.6-1.1,2.6-1.4c1-0.3,2.1-0.7,3.1-0.8c2.1-0.2,4.2,0,6.2-0.2c3.6-0.3,7.6-1.6,11.5-1.1c0.9,0.1,1.9,0.2,2.7,0.5
		c0.8,0.2,1.5,0.7,2.3,0.8c1.6,0.3,3.1-0.1,4.2-0.4c-0.7-0.9-2.2-1.2-3.5-1.6c-4.6-1.1-10-1.7-12.9-4.5c-3.3-0.3-7.6,0.4-10.7,0
		c-0.7-0.1-2.5-0.6-2.5-1.4s1.8-1.3,2.7-1.6c1.3-0.4,2.3-0.7,3.5-0.8c2.5-0.2,5-0.1,7.3-0.2c2.3-0.2,4.4-0.7,6.6-0.9
		c3.8-0.4,7.1,0,10,0.9c0.9,0.3,1.7,0.8,2.6,1.1c1.6,0.4,4,0.3,5.3,0.1c-0.5-0.8-1.5-1-2.3-1.3c-0.8-0.3-1.7-0.7-2.6-0.9
		c-3.7-1.1-7.9-1.6-11.8-2.6c-2.7-0.7-5.4-1.1-6.8-2.9c-1.6-0.3-4.3,0.4-6.2,0c-0.7-0.1-2.1-1-2-1.9c0.1-0.9,2-1.4,3.2-1.6
		c3.2-0.5,6-0.2,9.1-0.4c1.5-0.1,2.9-0.4,4.2-0.5c1.5-0.1,3.1,0.2,4.7,0.4c7.6,0.8,14.9,1.9,21.1,4.2c2.5,0.9,4.7,2.4,7.3,2.7
		c-0.2-1-1.3-1.5-2.1-2c-0.8-0.6-1.6-1.3-2.5-1.7c-1.5-0.7-3.3-1.1-5.1-1.7c-4.1-1.4-8.6-2.9-13.4-3.4c-1-0.1-2,0-3.1-0.1
		c-1.7-0.1-4.6-1-5.9-1.8c-0.4-0.2-0.7-0.6-1.1-1.1c-0.8-0.3-3.3-0.7-3.3-1.9c0-1.3,3.2-1.7,4.8-2c2.2-0.4,4.3-0.8,6.2-0.9
		c1-0.1,2.4,0.5,3.8,0.8c3.6,0.9,7.7,1.9,11,2.8c2.6,0.7,5,1.1,7.3,1.9c10.9,3.8,20.7,10.3,28.9,16.9c12.6,10.3,23.1,22.6,32.1,36.7
		c0.5,0.8,1.5,2.1,1.7,2.9c0.8,2.5-0.2,5.9-2.3,6c-1.3,0.1-2.7-1-3.7-1.6c-1.1-0.7-2.4-1.6-2.9-2.6c-0.2-0.4-0.3-0.9-0.5-1.3
		c-1-2.3-2.6-4.6-3.8-6.7c-3.3-5.5-6.7-10.9-11.2-15.2c-0.9-0.8-1.9-1.5-2.9-2.3C178.6,87.7,177.8,86.1,176.2,85.5z M152.5,69.5
		c0.5,0.2,1.1,1.3,1.9,1.6c0.7,0.2,1.9,0.3,2-0.3c0.1-0.5-1.4-1.1-1.9-1.3c-1.1-0.7-2.9-2-3.8-0.4C151.1,69.5,152,69.3,152.5,69.5z
		 M172,97.4c0.7,0.5,1.8,1.7,2.2,2.3c0.3,0.4,0.5,1.1,1,1c0.6-0.1,0.7-1,0.6-1.6c-0.4-0.7-1.1-1.4-2-2.2c-0.8-0.7-2.2-2.3-3.2-1.4
		C170.5,96.8,171.4,97,172,97.4z"/>
	<path fill="#FFFFFF" d="M102.2,124c-2.2-0.1-4.1,0-5.7,0.9c-0.6,0.4-1,1-1.6,1.1c-0.9,0.2-2.2,0-3.2-0.1c-0.9-0.1-2-0.2-2.3-0.8
		c0.5-1.4,2.3-1.7,3.7-2.4c0.6-0.4,1.1-0.8,1.8-1.3c1.4-0.9,4.3-1.9,6.6-1.4c1.6,0.3,3.2,0.8,4.9,1.1c1.7,0.4,3.5,0.7,5.3,0.8
		c0.5,0.7,2.7,1.7,2.3,3.4c-0.2,0.7-1.4,1-2.3,1.1C108.2,126.8,103.3,126.1,102.2,124z"/>
	<path fill="#FFFFFF" d="M219.8,124.4c1.8-0.4,2,4.9,0.2,4.9C218.3,129.2,218.3,124.7,219.8,124.4z"/>
	<path fill="#FFFFFF" d="M190.6,132.1c0.5,1.3,2.6,4.4,1.1,5.9c-1,1-3.6,0.4-4.7-0.2c-1.5-0.8-3.1-3.6-1.7-5.2
		c-0.7-1.1-2.3-1.6-2.2-3.4c0.1-1,1.1-1.4,1.4-1.6c1.3-0.2,2.5,0.4,3.2,1.1C188.9,130,188.1,132.4,190.6,132.1z"/>
	<path fill="#FFFFFF" d="M130.1,132.5c1-0.2,1.3,0.4,1.4,0.8c0.2,1.7-2.5,1.8-2.2,0C129.4,133,129.5,132.7,130.1,132.5z"/>
	<path fill="#FFFFFF" d="M199.9,132.8c1-0.2,1.6,0.4,1.6,1.1c0.1,1.7-2.8,1.7-2.8,0.1C198.7,133.2,199.1,132.8,199.9,132.8z"/>
	<path fill="#FFFFFF" d="M212,145.6c-0.3-2.3-0.8-4.5-1.4-6.5c-0.5-1.3-1.7-3.2-0.7-5c0.7-0.3,2.2,0.8,2.6,1.4
		c0.4,0.8,0.7,3,1.1,4.5c0.4,1.7,1,3.1,1.1,4.4c0.1,1-0.4,2.4-0.9,2.5C212.7,147.1,212.5,145.9,212,145.6z"/>
	<path fill="#FFFFFF" d="M110,137.2c1.3-1.1,4.6-0.4,6.6-1c0.1,0,0.2-0.1,0.3-0.1c1.3,0.3,3.6,1.6,4.5,2.6c1.4,1.6,0.1,2.6-1.6,3.2
		c-0.9,0.3-2.3,0.7-3.2,0.6c-1.6-0.1-3.2-1.3-3.7-2c-0.2-0.4-0.2-0.7-0.3-1.1C111.5,138.8,110.2,138.5,110,137.2z"/>
	<path fill="#FFFFFF" d="M169.6,137.5c0.7-0.2,1.6,0.5,1.9,1.1c0.5,1.4-1.1,3.9-2,4.1c-1,0.2-2-0.8-2.1-1.9
		c-0.1-1.5,1.3-2.6,2.1-3.2C169.5,137.6,169.5,137.6,169.6,137.5z"/>
	<path fill="#FFFFFF" d="M134.1,140.4c0.7-0.1,1.4,0.2,1.4,1.3c0,0.4-0.3,1-0.8,1.1C133.3,143.2,132.5,140.8,134.1,140.4z"/>
	<path fill="#FFFFFF" d="M149.9,194.2c-1.1,0.8-1.6,2.4-3.8,1.9c-1.1-0.2-1.9-1.3-2.5-2.4c-0.5-1.1-1.1-2.6-1.1-3.8
		c0-1.2,0.8-2.6,1.3-3.7c0.2-0.5,0.5-1.1,0.8-1.6c0.4-0.6,0.9-0.9,1.1-1.4c1-2.2,1.6-5.3,2.1-8.3c1.3-8.4,0-16.3-1.3-23.8
		c-0.4-2.3-1.4-5.2-0.2-7c0.5-0.7,1.5-1.2,2.6-1.3c2.3-0.2,3.4,1.3,5.6,1.4c1,0.1,1.8-0.3,2.6-0.2c1.1,0.2,1.8,1.3,2.2,2.2
		c0.5,1.1,0.4,2.4,0.7,3.7c0.2,1.1,1,2.6,1.6,3.8c0.6,1.2,1.2,2.5,1.9,3.5c1.1,1.4,2.4,2.3,3.2,4c0.8,1.6,1.3,3.7,1.3,5.9
		c0,1,0,2.2-0.3,3.2c-0.2,0.7-0.8,1.5-1.1,2.2c-0.6,1.4-1.2,3.3-1.3,5.3c-0.1,1,0.2,2,0.2,3c0,2.3-0.8,5.1-1.6,7
		c-0.8,2.1-2,3.8-2.9,5.6c-0.8,1.4-1.4,3.1-2.2,4.6c-1.7,3.6-3.8,7.7-6.4,10.4c-0.3,0.3-1.6,1.2-1.1,2c0.3,0.6,1,0.4,1.6,0.1
		c0.7-0.4,0.8-0.8,1.1-1.1c2.1-2.5,4-5,5.5-8c1.1-2.2,2.3-3.9,4-5.6c0.5-0.5,1.3-1,1.6-1.6c0.5-0.8,1-2.1,1.1-3.5
		c0.1-1.3-0.2-2.4-0.1-3.5c0.2-1.4,0.5-2.6,1.1-3.7c0.6-1,1.7-1.6,2.1-2.5c1.1-2.3,0.3-5.2,0-7.8c-0.5-4.4-0.2-10.6,4.2-10.7
		c2.5-0.1,4.3,1.9,4.6,4.3c0.3,2.8-0.2,5.9-0.6,8.8c-2.1,16.1-8.5,29.8-17.6,38.9c-1.6,1.6-3.9,4.1-6.7,4c-1.5-0.1-3-1.2-3.5-1.8
		c-0.4-0.5-0.4-1.2-0.7-1.8c-0.4-0.6-1-1.1-1.9-1.1c-1.1-0.1-2.2,1-2.9,1.3c-1,0.4-2,0.8-3.1,1.1c-1.6,0.5-5.9,1.5-6.8-0.2
		c-0.7-1.3,0.4-2.5,1.3-3.2c2.7-1.9,6.1-3.6,7.8-6.4c0.4-0.6,0.7-1.4,1-2.1c1-1.7,2.5-3.7,4.3-4.7c0.5-0.3,1.3-0.4,1.9-0.7
		c1-0.5,2.1-1.7,2.1-2.6C153.1,195.3,151,194.8,149.9,194.2z M155,148.4c-0.1,1.3,0.6,2.6,0.9,4c1.7,6.4,1.6,15.2,0.8,22.4
		c-0.3,3-0.8,5.8-0.8,8.6c0.6-0.1,0.9-0.9,1.1-1.4c0.2-0.6,0.4-1.3,0.5-1.9c2.4-9.3,2.2-22.5-0.7-31c-0.5-0.3-0.8-0.9-1.6-0.9
		C155.2,148.2,155.1,148.3,155,148.4z"/>
	<path fill="#FFFFFF" d="M204.1,144.1c1-0.1,2.6,2.1,3.1,3c1.4,2.3,2,5,1.1,8.4c-0.3,1.2-0.8,2.5-1.8,2.8c-0.6,0.2-1.5-0.1-2.1-0.1
		c-0.8-0.1-1.6,0.1-2.2-0.2c-0.6-0.2-1.3-1.5-1.6-2.3c-1.1-2.7-0.8-7,0.5-9.4C201.7,145.6,203,144.1,204.1,144.1z"/>
	<path fill="#FFFFFF" d="M92.8,145.6c0.5-0.1,1.7,0,2.6,0.4c0.5,0.2,1.4,1.1,1.4,1.4c-0.1,1-1.7,0.4-2.8,0.5
		c-0.7,0.1-1.4,0.4-1.8,0.7c-0.5,0.4-0.5,1.6-1.6,1.4c-0.6-0.1-1-1-0.9-1.9C89.8,146.9,91.2,145.7,92.8,145.6z"/>
	<path fill="#FFFFFF" d="M170.5,146.9c0.9-0.1,1.1,0.5,1.7,0.8c0.8,2,1.7,5,2.9,7c0.7,1.3,2.5,3.4,0.4,4.5c-2-0.4-3.5-0.8-4.6-2.1
		c-1.4-1.7,0-3.9-0.3-6.4c-0.1-1-0.7-1.8-0.6-2.8C170,147.7,170.1,147.1,170.5,146.9z"/>
	<path fill="#FFFFFF" d="M192.5,160c-4.1-1.7-2.8-10.8,1-11.8c0.3-0.1,1-0.1,1.4,0.2c2,0.9,3.5,4.3,3.4,7.3
		C198.4,158.9,196.4,160.7,192.5,160z"/>
	<path fill="#FFFFFF" d="M215.1,153.5c-1-0.9-0.8-4.4,0.6-4.5C217.9,148.8,217.4,153.8,215.1,153.5z"/>
	<path fill="#FFFFFF" d="M181.3,149.4c1.4-0.7,2,0.7,2.6,1.6c1,1.3,2.8,3.2,3.5,4.3c0.5,0.7,1.1,2.2,0.8,3.3
		c-0.5,1.9-3.6,2.5-5.7,1.4c-1.1-0.6-2.2-2.2-2.2-3.3c0-0.8,0.4-1.7,0.5-2.5c0.2-0.8,0.4-1.7,0.4-2.6
		C181.2,150.9,180.7,150.2,181.3,149.4z"/>
	<path fill="#FFFFFF" d="M108.6,155.7c0.4,1.6,0.8,3.2,2.1,4c0.3,0.2,0.8,0.2,1.3,0.4c0.7,0.4,1.4,1.3,1.4,1.9
		c-0.1,0.9-1.9,1.3-2.9,1.3c-1.1-0.1-2.9-0.7-3.8-1.3c-0.5-0.3-0.5-0.7-1-1.1c-1.2-0.9-3.9-1.4-5.7-1.4c-0.8,0-1.7,0.2-2.6,0.5
		c-1.3,0.4-2.7,1.2-3.5,0c-0.3-0.4-0.4-1.6-0.2-2.2c0.3-1,1.7-2.5,2.8-3.1C100,152.7,105.8,153.1,108.6,155.7z"/>
	<path fill="#FFFFFF" d="M130.1,155.2c1.7-0.2,3.1,1.1,2.9,2.7c-0.3,3.5-6.6,2.4-5-1.3C128.2,156,129,155.3,130.1,155.2z"/>
	<path fill="#FFFFFF" d="M117.9,155.6c1.4-0.2,4.2,1.4,4.9,2.9c0.5,1.1,0.4,2.6-0.3,3.4c-0.8,0.9-2.8,0.7-3.4-0.3
		C119.1,159.2,117.8,157.7,117.9,155.6z"/>
	<path fill="#FFFFFF" d="M200,224c-1.3-1.8,0.4-3.2,1.1-4.2c0.9-1.1,1.7-2.5,2.4-3.8c2.8-5.5,4.8-11.6,6.1-19
		c0.3-1.7,0.7-3.4,1.1-5.2c0.4-1.7,1-3.8,0.8-5.5c-0.1-0.7-0.7-0.9-0.8-1.4c-0.2-0.9,0.1-2.6,0.2-4c0.2-2.8,0.4-4.9,0.7-7.5
		c0.3-2.8,0.5-5.3,0.2-8.3c-0.2-1.4-0.8-3.2-0.5-4.3c0.2-0.8,1.1-1.3,2.1-1.9c1.4-0.7,4.1-2.6,5.4-0.6c0.6,0.9,0.4,2.8,0.4,4.6
		c0,4.8-0.6,9.7-1.3,13.9c-2.2,14.6-6.2,27.2-11.5,38.7c-1,2.3-2,5-3.4,6.7C202.2,223,201.2,223.7,200,224z"/>
	<path fill="#FFFFFF" d="M135.8,189.4c-1.3-1.1,0.1-2.1,0.6-3.1c1-1.8,2.9-5.2,3.7-7.7c1-3.2,1.7-7.6,1.7-11.5c0-1.3-0.4-2.7-0.2-4
		c0.1-0.8,0.6-2.2,0.9-3.1c0.2-0.6,1-2.6,2-2.5c2.3,0.3,2.5,5.2,2.6,8.1c0.2,7.3-1.3,12.8-4,17.5
		C141.5,186.1,139.9,189.1,135.8,189.4z"/>
	<path fill="#FFFFFF" d="M205.1,161c4.6-0.5,4.5,2.3,4.5,7.2c0,9.7-1.3,18.5-4.3,25.3c-0.7,1.7-1.7,3.2-2.4,4.9
		c-1,2.6-1.9,5.4-2.9,8.2c-0.3,0.9-0.5,1.9-0.8,2.8c-0.7,1.9-1.9,3.7-2.8,5.5c-1,1.8-1.9,3.7-2.9,5.4c-2,3.5-4.1,7.3-6.7,9.8
		c-1.1,1.1-2.8,1.6-3.7,2.9c-0.6,0.7-0.7,1.6-1.1,2.5c-0.8,1.7-1.9,3.1-3,4.8c-3.1,4.6-6.9,8.6-11.3,12.1c-2.9,2.3-5.9,4.3-9.9,5.7
		c-1.8,0.7-3.7,1-6.1,1.7c-1,0.3-5.6,1.7-6.2,0.3c-0.5-1.1,1-2.6,1.4-3.1c1-1,1.7-1.7,2.4-2.2c2-1.6,4-2.2,5.9-3.5
		c7.4-5.2,13.9-11,19.9-17.5c1.4-1.5,2.8-3.4,4.1-5.3c1.3-1.7,2.8-3.8,4.7-4.6c0.5-0.2,1.9-0.4,2.2-0.5c2.4-1.1,2.5-4.7,3.5-7.3
		c0.5-1.3,1.2-2.5,1.9-3.5s1.8-2.2,2.2-3.2c0.4-1.4,0.1-3.8,0.2-5.7c0.2-2.9,1.8-6,2.9-8.5c2.9-6.4,4.1-15.2,4.1-24.5
		c0-0.9,0.1-1.9,0-2.9c-0.1-2.3-0.2-4.4,1.3-5.6C203,161.3,204.2,161,205.1,161z"/>
	<path fill="#FFFFFF" d="M187.9,181.1c-0.8,1.6-0.7,3.5-1,5.3c-1.1,5-3.1,9.1-5.2,13.5c-1.3,2.8-2.6,5.5-4,8.4
		c-1.3,2.8-2.7,5.9-4.9,7.5c-0.9,0.6-2.2,1.2-3.5,1.3c-1.6,0-3.7-0.7-4.1-1.8c-0.7-2,1.7-4.5,2.3-5.5c6.4-9.5,10.7-21,12.1-35.4
		c0.1-1.1,0.2-2.4,0.2-3.7c0.1-1.6-0.2-3.4,0.3-4.5c0.5-1.2,2.3-2.2,4.1-2.4c1-0.1,2.3-0.1,3,0.1c1.3,0.4,1,2.1,2.9,1.9
		c1.2-0.1,1-1.1,1.6-2c2.5-0.6,5.9-1.3,7.2,0.9c1.2,2.1,0.3,6.5,0,9.5c-1.6,14.3-5.8,26.9-11.3,37.3c-1,1.8-1.9,3.8-3,5
		c-0.5,0.5-1.3,0.8-1.6,1.4c-0.2,0.4-0.1,1.1-0.3,1.7c-0.3,1.1-1.2,2.2-1.9,3.2c-1.8,2.5-3.5,4.8-5.5,7.2c-0.4,0.5-0.8,1.1-1.1,1.3
		c-1.1,0.6-3.3,0.4-3.8-0.3c-0.6-0.9,0-3.1,0.2-4c0.8-2.9,3.2-6.2,5.3-7.9c0.7-0.6,2.1-1,2.2-1.9c0.1-0.7-0.5-1.5-0.5-2.2
		c0-2.3,1.6-3.7,2.4-5.4c1.6-3.2,2.9-6.7,4.4-10.2c1.4-3.4,2.9-6.8,3.7-10.9C188.6,185.8,189.3,183.1,187.9,181.1z"/>
	<path fill="#FFFFFF" d="M130.7,164.5c3.7-0.4,4,2.3,4.2,5.6c0.2,3.1-0.5,5.6-1.3,7.7c-0.7,2.2-1.6,4.3-2.6,6.4
		c-1.9,4.1-4.3,7.3-7.9,9.9c-3.4,2.5-7.1,4.6-12.4,5.3c-2.2,0.3-5.6,0.5-8.4,0.5c-1.4,0-2.8,0.1-3.8-0.6c-0.8-0.6-1.7-2.3-0.5-3.2
		c1-0.7,2.2,0.1,2.9,0.2c0.6,0.1,1.4,0.2,1.9,0.1c0.7-0.1,1.5-0.7,2.3-1c8.9-3.1,15.5-8.3,19.6-16.3c1.5-2.9,2.9-6.2,3.2-9.8
		C128.2,166.8,128,164.8,130.7,164.5z"/>
	<path fill="#FFFFFF" d="M115.1,172.4c2.6-0.5,1.9-3.2,2.9-4.9c0.5-0.9,1.6-1.9,3-1.9c2-0.1,4.1,1,4.8,2.4c0.3,0.6,0.6,1.7,0.5,2.9
		c-0.2,1.7-1.1,3.9-2,5.6c-2.6,4.9-6.1,8.5-11,11.5c-3.4,2-7.4,3.3-11.9,2.6c-3.2-0.5-5.8-1.7-7.8-3.5c-0.6-0.5-1.4-1.2-1.4-2.2
		c0.6-0.8,1.7-0.2,2.6,0c0.9,0.2,1.9,0.5,2.9,0.4c0.9-0.1,1.1-0.8,1.9-1.3c5.6-0.2,9.7-2.5,12.8-5.6c0.2-0.2,3.2-3,1.6-3.8
		c-0.9-0.4-1.9,0.8-2.2,1.3c-0.6,0.9-0.9,1.7-1.4,2.2c-2.2,2.3-8.1,4.4-11.9,2.6c-2.7-1.3-4.4-4.2-6.2-6.7c-0.6-0.8-1.3-1.6-2.1-2.5
		c-0.7-0.8-1.6-1.8-1.4-3.2c0.2-1,1.3-1.8,2.2-1.9c1.1-0.1,2.2,0.8,2.8,1.3c2,1.6,4,4.7,6.8,5.4c4.6,1.3,5.5-4.3,7.7-5.6
		c1.1-0.7,5.2-1.1,6.4-0.2C115.6,168.4,115,170.6,115.1,172.4z"/>
	<path fill="#FFFFFF" d="M100.3,167.5c1.6-0.3,3.2,0.4,3.2,1.9c0,2.5-4.4,2.6-4.9,0.5C98.3,168.7,99,167.8,100.3,167.5z"/>
	<path fill="#FFFFFF" d="M94,206.1c1.3-0.9,2.1,0.1,3,0.2c1.9,0.4,4.3,0.2,6.4,0c2.2-0.2,4.3-0.3,6-0.7c3.5-0.7,7.4-2.5,9.7-4.8
		c0.4-0.4,0.7-1.1,1.1-1.6c0.2-0.2,0.7-0.5,0.9-0.7c0.8-0.7,1.7-1.5,2.6-2.3c1.1-1.1,2.5-2,3.3-3.1c0.7-0.8,0.8-1.7,1.7-2.2
		c2.5-1.6,5.9,1.5,6,4c0,0.8-0.4,1.7-0.8,2.6c-1.6,4-5.1,6.1-8.9,7.7c-1.5,0.6-3.2,1.4-4.9,1.7c-1,0.2-2,0.2-3,0.4
		c-2.7,0.5-5.6,1-8.2,1.9c-0.9,0.3-1.8,0.9-2.9,1.1c-2.2,0.5-4.7,0.6-7.3,0.2c-1.1-0.2-2.3-0.4-3.1-0.8
		C94.9,208.9,94.2,207.7,94,206.1z"/>
	<path fill="#FFFFFF" d="M136,206.6c-1,0.9-0.7,1.4-1.1,2.6c-0.4,1.1-1.4,2.3-2.3,3.2c-0.9,1-1.8,1.8-3.2,2.3
		c-1.6,0.5-3.2,0.4-4.9,0.6c-1.5,0.2-3.1,0.5-4.4,1.1c-0.7,0.3-1.3,0.8-2,1.1c-1.6,0.7-7.5,1.3-5.6-1.6c0.7-1,2-1,3.2-1.4
		c1.9-0.7,3.8-1.7,5.9-2.8c1.6-0.8,4.1-2,5.1-3.5c1-1.3,1.2-3.1,2.9-3.7c0.5-0.2,1.1-0.1,1.6-0.3c2.5-0.8,3-3.8,5.6-4.2
		c1.7-0.2,3.1,1.1,3.2,2.3C140.5,204.4,138.3,206.6,136,206.6z"/>
	<path fill="#FFFFFF" d="M104.8,216.7c1.3-0.1,3.2,0.4,3.2,1.6c0.2,2.4-5.8,2.3-5.8,0.1C102.2,217.2,103.6,216.8,104.8,216.7z"/>
	<path fill="#FFFFFF" d="M123.8,221.4c1.5-0.7,2.8-1.2,5.1-1.3c1.1,0,5.2,0.2,5.4,1.3c0.1,0.8-1.1,1.7-1.7,2.2
		c-0.8,0.7-1.4,1.3-2,1.8c-1.8,1.3-4.9,2.5-7.3,2.2c-1.1-0.1-2-0.8-3.2-0.7c-0.7,0.1-1.1,0.7-1.9,0.8c-1.1,0.2-2.4-0.4-2.5-1.1
		c-0.1-1.3,2.6-2.2,3.5-2.5C121.3,223.4,123.4,223.3,123.8,221.4z"/>
	<path fill="#FFFFFF" d="M159.6,221.7c1.4-0.1,4-0.1,4.3,1.1c0.4,1.6-1.5,3.8-2.2,4.5c-0.7,0.8-2.1,1.9-3.3,2.6
		c-1.1,0.7-2.7,1.8-3.8,2c-1.6,0.3-3.3-0.4-3.7-1.3c-0.2-0.5-0.1-1.4,0.1-1.9c0.1-0.7,0.1-1.4,0.3-1.9c0.6-1.6,3.5-2.8,5.1-4
		c0.5-0.3,0.8-0.8,1.3-1C158.3,221.8,158.9,221.8,159.6,221.7z"/>
	<path fill="#FFFFFF" d="M152,222.7c0.2,2-2.2,3.7-4.2,4.1c-1.3,0.3-3.7,0.1-4-0.8c-0.3-1.1,1-2.8,1.6-3.2
		C147.1,221.6,150.6,221.6,152,222.7z"/>
	<path fill="#FFFFFF" d="M141.5,227.6c-0.5,1.3-1.9,2.4-3,3.1c-2.3,1.4-5.3,2.2-6.9,4.3c-0.4,0.6-0.6,1.4-1.1,1.7
		c-0.7,0.3-2.5,0-3.7,0c-1.1,0-2.5,0.1-3.5,0.5c-0.5,0.2-0.9,0.7-1.3,0.8c-1.5,0.3-3.7-1.1-3.5-2.1c0.2-1.3,4.1-1,5.3-1.4
		c0.4-0.2,0.6-0.5,1-0.7c1.1-0.5,2.5-0.7,3.7-1.1c2.8-1,5.7-2.2,8.2-3.8c0.5-0.3,0.9-0.8,1.4-1C139,227.4,140.4,227.3,141.5,227.6z"
		/>
	<path fill="#FFFFFF" d="M138.1,238.3c2.2-0.2,5.6,0.2,5.9,2.6c0.2,1.6-1.3,2.6-2.6,3.2c-1.4,0.7-2.9,0.8-4.3,1.4
		c-0.5,0.2-0.8,0.7-1.3,0.9c-1.6,0.8-7,1.9-9.1,0.7c-0.4-0.2-1.9-1.8-1.4-2.6c0.3-0.7,1.5-0.3,2.3-0.5c1-0.2,2.6-1.7,2.9-2.6
		c0.3-0.7,0.2-1.3,0.6-1.7c0.5-0.5,1.3-0.4,2.2-0.5c0.7-0.1,1.4-0.5,2.1-0.6C136.4,238.4,137.3,238.3,138.1,238.3z"/>
	<path fill="#FFFFFF" d="M158.8,238.7c1.8-0.2,3.8,1,3.7,2.9c-0.1,1.1-1.2,2-2,2.6c-5,4.1-10.6,8.2-17.8,9.8c-1.3,0.3-2.5,0.3-4,0.5
		c-0.9,0.1-1.5,0.7-2.6,0.8c-1.2,0.1-2.9-0.8-2.9-1.7c0.1-0.8,1.3-1.1,2.1-1.6c0.6-0.4,1.4-1.1,1.7-1.7c0.8-1.3,0.8-2.6,2.2-3.2
		c0.4-0.2,0.8-0.2,1.3-0.3c1.5-0.5,2.9-1.1,4.3-1.9c0.5-0.2,0.8-0.7,1.3-0.9c1.6-0.7,3.2-0.7,4.7-1c1.6-0.4,4.4-1.5,5.6-2.5
		C157.3,239.8,157.2,238.9,158.8,238.7z"/>
</g>
</svg>
