<?xml version="1.0" encoding="utf-8"?>
<!-- Generator: Adobe Illustrator 18.0.0, SVG Export Plug-In . SVG Version: 6.00 Build 0)  -->
<!DOCTYPE svg PUBLIC "-//W3C//DTD SVG 1.0//EN" "http://www.w3.org/TR/2001/REC-SVG-20010904/DTD/svg10.dtd">
<svg version="1.0" id="Layer_1" xmlns="http://www.w3.org/2000/svg" xmlns:xlink="http://www.w3.org/1999/xlink" x="0px" y="0px"
	 viewBox="0 0 508.7 224.4" enable-background="new 0 0 508.7 224.4" xml:space="preserve">
<g>
	<path fill-rule="evenodd" clip-rule="evenodd" fill="#FFFFFF" d="M495.3,97.2c1.2,0,2.4,0.3,3.6,0.9c1.2,0.6,2.1,1.5,2.8,2.7
		c0.7,1.2,1,2.4,1,3.7c0,1.3-0.3,2.5-1,3.7c-0.6,1.2-1.6,2.1-2.7,2.7c-1.2,0.7-2.4,1-3.7,1c-1.3,0-2.5-0.3-3.7-1
		c-1.2-0.6-2.1-1.6-2.7-2.7c-0.7-1.2-1-2.4-1-3.7c0-1.3,0.3-2.5,1-3.7c0.7-1.2,1.6-2.1,2.8-2.7C492.9,97.5,494.1,97.2,495.3,97.2
		 M495.3,98.4c-1,0-2,0.3-3,0.8c-1,0.5-1.7,1.3-2.3,2.3c-0.6,1-0.8,2-0.8,3.1c0,1.1,0.3,2.1,0.8,3.1c0.5,1,1.3,1.7,2.3,2.3
		c1,0.5,2,0.8,3.1,0.8c1.1,0,2.1-0.3,3.1-0.8c1-0.5,1.7-1.3,2.3-2.3c0.5-1,0.8-2,0.8-3.1c0-1.1-0.3-2.1-0.8-3.1
		c-0.6-1-1.3-1.7-2.3-2.3C497.4,98.7,496.4,98.4,495.3,98.4 M492.1,108.6v-7.9h2.7c0.9,0,1.6,0.1,2,0.2c0.4,0.1,0.8,0.4,1,0.8
		c0.3,0.4,0.4,0.8,0.4,1.2c0,0.6-0.2,1.1-0.6,1.5c-0.4,0.4-1,0.7-1.7,0.7c0.3,0.1,0.5,0.3,0.7,0.4c0.3,0.3,0.7,0.8,1.2,1.6l1,1.6
		h-1.6l-0.7-1.3c-0.6-1-1-1.6-1.3-1.8c-0.2-0.2-0.6-0.3-1-0.3h-0.7v3.4H492.1z M493.4,104.2h1.6c0.7,0,1.2-0.1,1.5-0.3
		c0.3-0.2,0.4-0.5,0.4-0.9c0-0.2-0.1-0.4-0.2-0.6c-0.1-0.2-0.3-0.3-0.5-0.4c-0.2-0.1-0.7-0.1-1.3-0.1h-1.5V104.2z"/>
	<g>
		<path d="M353.8,60c4.4,1.6,8.4,3.9,11.8,7c0.2,0.1,0.5,0.3,0.7,0.4c7.8-6.4,17.9-10,29.3-10h0c3.1,0,6.4,0.4,9.6,1.1l0-2.1l0-14.5
			l14.3-1.5l16.2-1.7l17.7-1.8v4.4l5.1-0.5l0,15.8l2.3,0.7l16.7,5.1l23.2,7.1l-1.6,1.9l6.9,2.1L490.3,92l-9.7,11.5l12.6,15.4
			l15.5,19.6l-24.2,6.2l-18.2,4.3l-10.1,2.4l-3.3-4.4c-2.6,0.6-5.6,0.3-8.6,0.6l-16.2,1.7l-17.7,1.8l0-1.9c-3.4,0.7-6.7,1-9.6,1
			c-6.4,0-12.2-1.1-17.3-3c-0.9-0.3-1.8-0.7-2.7-1.1l-13.8,1.6l-14.1,1.7l-17.8,2.1V150c-4.3-0.2-8.1-1.1-11.6-2.5
			c-3.3-1.3-6.2-3.1-8.8-5.3c-6.5,3.9-14.9,6.2-25.5,6.2v0.1h-24.2h-13.4l-24.9,2.3l-2.5-3.3l-1.3,0.3l-1.2-1.6l-7.3,0.7l-16.4,1.7
			l-17.6,1.8l0-2c-3.5,0.7-7,1.1-10,1.1v0.1c-6.1,0-11.7-1-16.8-2.8c-1.9-0.7-3.8-1.5-5.6-2.5l0,1.2l-14.4,1.5l-16.4,1.7l-17.5,1.8
			l0-3.2l-3.8,0.4l0-17.7v-1.1l-12.2,10.5l-13.3,11.5l-0.3-0.4l-3.6,3.1L56.3,139L8.4,71.7L0,59.8l11-9.5l15.4-13.3l13.3-11.5L40,26
			l3.6-3.1l0.2,0.2l0-1.3l3.9-1.4l0-1.3l10.2-3.8l19.3-7.1L99.4,0l-0.7,23.7L98,49.2l9.2-9.4l9.7-9.9l11.2,8.2l12.1,8.8l-0.1,0.1
			l3.8,2.7l11.6,8.5c3.5-0.8,7.3-1.2,11.2-1.2V57h0v0.1c3.3,0,6.7,0.4,10,1.1l0-2.4l0-14.4l14.3-1.5l16.4-1.7l17.6-1.8l0,3.2
			l3.7-0.4l0,16.6l4,1.2l11,3.4v-2.9l0-16l16,0l20.1,0c6.7,0,13.3,0.7,19.3,2.6c5.4,1.7,10.3,4.3,14.4,8c3.2,2,6.1,4.4,8.4,7.3
			c1.8-0.5,3.7-0.8,5.5-1.1c3.4-0.5,6.9-0.9,10.1-0.9C343.5,57.5,349,58.3,353.8,60"/>
		<path fill="#FFDD00" d="M399,103.9l1.6-1.4c-0.7,0-1.3,0.3-1.8,0.7c-0.3,0.3-0.6,0.8-0.6,1.3C398.4,104.4,398.7,104.2,399,103.9
			 M169.3,104.1l2.6-2.4c-0.1,0-0.2-0.1-0.3-0.1c-0.8-0.3-1.5-0.4-2.2-0.4c-0.9,0-1.6,0.3-2.2,0.8c-0.4,0.4-0.6,0.9-0.6,1.6
			c0,0.6,0,1.1,0.1,1.6c0.4,0,0.8-0.1,1.1-0.2C168.3,104.8,168.8,104.5,169.3,104.1 M248.5,143.7l-18.9,2.3l-4.3-4.5l-1.4,0.3
			l-1.6-2.1v0.9l-9.6,1l-16.4,1.7l-11.7,1.2v-3.1l-0.3,0.1c-5,1.8-10.6,2.6-15,2.6c-5.5,0-10.5-0.9-15-2.5
			c-4.7-1.7-8.9-4.1-12.3-7.1c-0.1-0.1-0.3-0.2-0.4-0.3l0,6.3l-9.6,1l-16.4,1.7l-11.7,1.2l0-3.2l-3.8,0.4l0-11.8l0-12.7l-5.6,4.8
			l-15.4,13.3l-8.9,7.7l-0.3-0.4l-3.5,3l-6.8-9.5L11.8,68.6l-5.6-7.9l7.3-6.3l15.4-13.3l8.8-7.6l0.3,0.4l3.6-3.1l6.1,8.6l0.1-6.6
			l0.1-7.3l3.9-1.4l0-1.2l6.8-2.5l19.3-7.1l14.8-5.5l-0.5,15.8l-1.1,36.6l1.8,0.6l6.6-6.7L110,43.6l6.5-6.6l7.5,5.4l12.1,8.8l0,0.1
			l3.8,2.8l10.2,7.4l-8,7.8c6.6-4.5,14.7-7,23.7-7c4.6,0,9.3,0.8,13.8,2.3c0.5,0.2,1,0.4,1.6,0.6l0-9.6l0-9.6l9.6-1l16.4-1.7
			l11.7-1.2l0,3.2l3.8-0.4l0,11.8l0,4.1l0.8-1l7,2.1l16.9,5.2l1.9,0.6l0-10.4l0-10.7l10.6,0l20.1,0c6.1,0,12.3,0.7,17.7,2.4
			c4.8,1.5,9.2,3.9,12.7,7.2c3.9,2.3,7.1,5.3,9.5,9.1l0,0.1c2.6-0.9,5.5-1.6,8.5-2.1c3.1-0.5,6.4-0.8,9.3-0.8
			c5.3,0,10.2,0.7,14.5,2.2c4,1.4,7.4,3.5,10.3,6.2c1.5,0.9,3,1.9,4.3,3c0.1-0.1,0.2-0.2,0.3-0.3c7.2-7.1,17.2-11.2,28.6-11.2h0
			c4.5,0,9.1,0.8,13.6,2.4c0.5,0.2,0.9,0.3,1.3,0.5l0-9.2l0-9.6l9.6-1l16.2-1.7l11.8-1.2v4.4l5.2-0.5l0,11.8v2l6.1,1.9l16.7,5.1
			l15.5,4.7l-1.6,1.9l6.8,2.1l-10.5,12.3l-12.6,14.9l15.4,18.8l10,13l-15.8,4.1l-18.2,4.3l-6.8,1.6l-3.3-4.4l-1.9,0.4l-0.1-0.1
			l-9.4,1l-16.2,1.7l-11.8,1.2l0-3l-0.1,0c-5,1.8-10.5,2.6-14.8,2.6c-5.7,0-10.8-1-15.4-2.7c-3.5-1.3-6.7-3.1-9.5-5.2v4.2l-9.5,1.1
			l-14.1,1.6l-11.8,1.4l0-0.6c-0.9,0.1-1.9,0.1-2.8,0.1c-4.5,0-8.6-0.8-12.1-2.2c-3.3-1.4-6.2-3.3-8.7-5.6c-0.7-0.4-1.3-0.8-2-1.3
			c-0.9,0.7-1.9,1.4-2.9,2c-5.7,3.4-13.2,5.4-22.8,5.4v0h-24.2h-10.7v-4L248.5,143.7z"/>
		<path fill="#FEBF50" d="M410.4,108.6l0.4,0.5l1.3-1.2l3.5,4.5l0.2,0.3l0-14.5l-0.2,0.4l-3.4,4.7l-4.4-3.8c-0.9-0.8-2-1.4-3.1-1.8
			c-1.3-0.4-2.6-0.7-3.8-0.7l0,0h0v0c-2.2,0-4.2,0.8-5.7,2.2c-1.4,1.3-2.3,3.2-2.3,5.3h0v0h0c0,1.4,0.2,2.6,0.6,3.8
			c0.2,0.6,0.4,1.2,0.7,1.7l0.1,0c0.5,0.1,1.1,0.2,1.7,0.2c1.3,0,2.5-0.2,3.6-0.6c1.1-0.4,2.1-1,3.1-1.9l4.3-3.9L410.4,108.6z
			 M132.4,71.2l3.9-0.4l0,5.9l0,5.7c1.2-1.7,2.5-3.3,4-4.8c6.3-6.3,15.1-9.8,25.3-9.8c4,0,8.1,0.7,12,2.1c3.1,1.1,6,2.5,8.6,4.4
			l0-18.4l0-4.8l4.8-0.5l16.4-1.7l5.9-0.6l0,3.2l3.8-0.4l0,5.9l0,19.7l5.8-7.5l2.3-2.9l3.5,1.1l16.9,5.2l7.7,2.4l-1.1,1.3l2.2,0.7
			l0-19.2l0-5.3l5.3,0l20.1,0c5.6,0,11.2,0.6,16.1,2.2c4.3,1.4,8.1,3.4,11.1,6.4c3.4,1.9,6.2,4.4,8.1,7.6c1.2,1.9,2,4.1,2.5,6.5
			l0.5-2.9l3-1.1c2.3-0.8,5.1-1.5,8-1.9c2.9-0.5,5.8-0.7,8.4-0.7c4.7,0,9,0.6,12.7,1.9c3.5,1.2,6.5,3.1,8.9,5.5
			c3.1,1.7,5.7,3.9,7.6,6.9c1.1-1.7,2.4-3.3,3.9-4.7c6.2-6.1,14.9-9.6,24.9-9.6h0c3.9,0,8,0.7,11.9,2c3,1,5.8,2.5,8.4,4.2l0-18
			l0-4.8l4.8-0.5l16.2-1.7l5.9-0.6v4.4l5.2-0.5l0,5.9l0,16.1l4.1-5.3l2.2-2.9l3.5,1.1l16.7,5.1l7.7,2.4l-1.6,1.9l6.8,2.1l-5.2,6.2
			l-15.5,18.2l18.2,22.3l4.4,6.8l-7.3,1.8l-18.2,4.3l-3.4,0.8l-2.1-2.8l-1.2-1.6l-1.9,0.4l-2.1-2.8l-5.2-6.9l0,5.9l0,4.8l-4.8,0.5
			l-16.2,1.7l-5.9,0.6l0-4.4l-2.4,0.2c-1.5,0.8-3.1,1.5-4.8,2.1c-4.4,1.6-9.3,2.3-13,2.3c-5,0-9.5-0.9-13.6-2.4
			c-4.2-1.6-7.8-3.8-10.8-6.6c-2.2-1.3-4.2-2.9-5.9-4.6v5.7v4.8l-4.7,0.6l-14.1,1.6l-5.9,0.7c0-1.7-6.1,0.2-8.2,0.2
			c-3.8,0-7.1-0.6-10.1-1.8c-2.9-1.2-5.3-2.8-7.3-4.9c-2.1-1.1-3.9-2.5-5.4-4.2c-1.5,1.7-3.3,3.3-5.5,4.6c-4.9,3-11.5,4.7-20,4.7v0
			h-24.2h-5.3l-3.7,0l-1.2-7.1l-2.9,2.8l-18.5,4.4l-3.4,0.8l-2.1-2.8l-0.3-0.4l-1.4,0.3l-2.1-2.8l-7-9.2l0,7.1l0,4.8l-4.8,0.5
			l-16.4,1.7l-5.9,0.6v-3.2l-3.8,0.4v-0.8c-1.2,0.6-2.4,1.1-3.6,1.5c-4.5,1.6-9.4,2.4-13.2,2.4c-4.8,0-9.2-0.8-13.2-2.2
			c-4.2-1.5-7.8-3.7-10.8-6.3c-3.6-2.4-6.6-5.3-9-8.7l0,9.3l0,4.8l-4.8,0.5l-16.4,1.7l-5.9,0.6l0-3.2l-3.8,0.4l0-5.9l0-22L84,99.5
			l8,11.3l2.8,4l-3.7,3.2l-15.4,13.3l-4.5,3.9l-0.3-0.4l-3.5,3.1l-3.4-4.8L16.2,65.5l-2.8-4l3.7-3.2l15.4-13.3l4.4-3.8l0.3,0.4
			l3.6-3.1l3.4,4.8l8.7,12.3L53.3,33l0.1-3.7l3.4-1.3l0.4-0.2l0-1.2l3.4-1.3l19.3-7.1l7.4-2.7l-0.2,7.9l-1.2,40.5l19.6,6.9v-0.1
			l4.6-0.5l-2.2-1.6l-4.5-3.3l0,0l-4.3-3.1l4.3-4.4l10.3-10.5L117,44l3.7,2.7l12.1,8.8l0,0l3.8,2.8l5.1,3.7l-4.5,4.4L132.4,71.2z
			 M254.4,80.7l-2.5,3l-15.7,18.6l18.2,22.3L254.4,80.7z M172.8,108.1l4.3-3.8l2.8,3.7l1-0.9l3.5,4.5l1.9,2.5l0-19.3l-1.9,2.7
			l-3.4,4.7l-4.4-3.8c-0.9-0.8-2-1.4-3.2-1.8c-1.3-0.5-2.7-0.7-3.9-0.7c-2.3,0-4.4,0.9-5.9,2.3c-1.4,1.3-2.2,3.2-2.2,5.4
			c0,1.6,0.2,3,0.7,4.3c0.3,0.8,0.7,1.6,1.2,2.3c0.2,0.1,0.5,0.2,0.8,0.2c0.6,0.1,1.3,0.2,2,0.2v0c1.4,0,2.6-0.2,3.7-0.6
			C170.8,109.6,171.8,109,172.8,108.1 M314.4,95.7l0.6-3.9c-0.7,1.1-1.4,2.1-2.3,3c0.4,0.4,0.9,0.8,1.3,1.3
			C314.1,95.9,314.3,95.8,314.4,95.7"/>
		<polygon points="478,81.7 478.1,81.6 476.3,81.1 476.9,80.4 480.1,76.7 475.4,75.2 458.7,70.1 456.6,69.5 455.2,71.2 444.1,85.6 
			444.2,59.2 442.6,59.3 442.6,58.6 442.1,58.7 442.1,55.3 442.1,51.7 438.6,52.1 419.7,53.9 419.5,130 419.5,133.5 423.1,133.2 
			426.4,132.8 426.4,133.3 427.9,133.2 427.9,133.9 444.1,132.2 444.1,115.8 456.4,131.9 457.6,133.6 459.6,133.1 461.9,132.6 
			462.5,133.3 463.5,133.1 464.1,133.9 482.3,129.5 481.1,128 482.9,127.6 479.6,123.6 462.4,102.6 479.7,82.2 		"/>
		<path d="M296.9,106.2c0.1,0.5,0.1,1,0.1,1.6h0c0,4.2-1.8,6.9-4.7,8.6c-2.3,1.3-5.2,1.8-8.2,1.9l0,0.7l4.7,0
			c5.4,0,10.1-1.5,10.2-7.2C299,109.1,298.2,107.4,296.9,106.2 M284.1,104.2l4.5,0h0.1c0.1,0.1,0.2,0.1,0.3,0.2
			c0.9,0.5,1.5,1.5,1.5,3.5h0c0,1.6-0.6,2.5-1.5,3c-1.2,0.7-3,1-5,1L284.1,104.2z M266.5,118.1l0,7.7l-2,0L266.5,118.1z
			 M266.5,132.3v0.7l24.3,0c18.1,0,25.8-8.5,25.8-19.8c0-4-1.1-7.5-2.9-10.4c-0.6-2.2-1.5-4.1-2.7-5.9c-0.8-1.2-1.7-2.3-2.6-3.3
			c3.8-2.9,6.2-7.6,6.2-13.1c0-3.9-1-7-2.7-9.5c-1.4-5.5-4.9-9.4-9.6-12c-5.7-3.1-13.2-4.3-20.7-4.3v0h0v0L258,54.9l0.1,74.1l0,3.2
			h3.2L266.5,132.3z M291.5,62.1c-1.6-0.1-3.2-0.2-4.9-0.2h-5.4l0.2-0.7v0h0v0C284.9,61.2,288.4,61.5,291.5,62.1 M284.1,75.9h2.4
			c0.2,0.1,0.4,0.2,0.5,0.3c0.8,0.5,1.4,1.4,1.4,2.7h0v0v0h0c0,1.3-0.3,2.3-1,3c-0.7,0.6-1.8,1-3.3,1.1L284.1,75.9z M294.8,78
			c1.2,1.1,2,2.6,2,4.9c0,4.4-2.7,7.3-8.3,7.3l-4.5,0v-0.7c3.3-0.1,5.8-1.1,7.7-2.9c2-1.9,3.1-4.5,3.1-7.6h0v0v0h0
			C294.9,78.6,294.9,78.3,294.8,78"/>
		<path d="M339.6,91.4c0.6,0,1.2-0.1,1.8-0.1h0.1c0.2,0.1,0.4,0.2,0.6,0.3l0,0c0.2,0.2,0.4,0.4,0.6,0.7c-0.3-0.1-0.6-0.2-0.9-0.3
			C341,91.8,340.3,91.6,339.6,91.4 M333.3,134c1.8,0.5,3.7,0.7,5.8,0.7c2.9,0,5.6-0.4,8-1.5l0.6-0.1l4.8-0.6l0,1.3l14.1-1.7l0-35.6
			c0-4.4-1-7.9-2.8-10.6c-1.1-4-3.2-7.2-6.1-9.6c-4.6-3.8-11.1-5.5-18.7-5.5c-2.5,0-5.3,0.3-8.1,0.7c-2.7,0.4-5.4,1.1-7.6,1.8
			l-1.8,0.6l-0.3,1.9l-2.7,17.3l4.8,0.1c-1.6,0.8-3.1,1.8-4.5,3c-4.2,3.6-6.8,8.8-6.8,15.2h0v0c0,6.7,2,12.3,5.9,16.4
			C321.7,131.6,326.8,133.8,333.3,134 M335.7,114.5c0.3-3.3,2.8-5.5,6.1-6.1c0.1,0.1,0.2,0.2,0.3,0.3c0.7,0.6,1.2,1.5,1.2,2.6h0v0v0
			c0,1.2-0.5,2.1-1.2,2.7c-0.9,0.7-2.1,1.1-3.6,1.1v0h0h0v0C337.4,115.1,336.4,114.9,335.7,114.5"/>
		<path fill="#FFFFFF" d="M407.6,92.2c-2.9-2.5-6.7-3.7-10.5-3.7c-7.2,0-13.3,5.4-13.3,12.8c0,8.3,5.2,14.9,13.6,14.9
			c3.8,0,7.2-1.1,10.3-3.8l8.8,11.5c-4.3,4.6-13.5,6.8-19.4,6.8c-18.3,0-29.4-13.2-29.4-27.5c0-17.5,12.2-29.3,29.4-29.3
			c6.6,0,13.7,2.3,18.8,6.5L407.6,92.2z"/>
		<path d="M401.7,92.5l-0.2-0.1c-6.8,0.4-12.5,5.6-12.5,12.8c0,1.4,0.1,2.8,0.4,4.1c0.2,0.2,0.4,0.5,0.6,0.7
			c1.7,1.9,4.3,3.1,7.4,3.1v0c1.5,0,3-0.2,4.3-0.7c1.3-0.5,2.6-1.2,3.8-2.3l2.6-2.3l2.1,2.7l8.8,11.5l1.6,2.2l-1,1.1l2,2.6
			c-4.2,4.6-13.5,6.8-19.4,6.8c-2.6,0-5.1-0.3-7.4-0.8c-9.1-0.5-16.5-4-21.7-9.2c-5.7-5.7-8.8-13.3-8.8-21.3h0v0h0
			c0-9.6,3.4-17.7,9.1-23.4c5.8-5.8,14-9.1,23.5-9.1c3.7,0,7.5,0.6,11.1,1.9c3.5,1.2,6.9,3,9.7,5.3l2.3,1.9l-1.8,2.4l-0.1,0.1
			c0.9,0.6,1.8,1.2,2.7,1.9l-8.4,11.7c-0.9-0.7-1.8-1.4-2.9-1.9l-1.8,2.5C406.1,95.1,404.2,93.4,401.7,92.5"/>
		<polygon fill="#993F98" points="422.8,56.9 438.9,55.3 438.9,97.3 439.1,97.3 457.8,73.2 474.5,78.3 456.1,99.9 477.1,125.6 
			458.9,130 439.1,104 438.9,104 438.9,128.3 422.7,130 		"/>
		<path fill="#993F98" d="M278.9,100.3l4.5,0c5.4,0,10.4,0.9,10.4,7.6c0,5.8-4.8,7.3-10.2,7.3l-4.7,0L278.9,100.3z M261.3,58l0,71.1
			l24.3,0c18.1,0,25.8-8.5,25.8-19.8c0-8.5-5-14.9-11.4-17.5v-0.2c5.6-2.4,9.3-8.1,9.3-14.9c0-14.5-13.8-18.7-27.9-18.7L261.3,58z
			 M278.9,72l3.8,0c4.1,0,8.9,1.6,8.9,6.9c0,4.5-2.7,7.4-8.3,7.4l-4.5,0L278.9,72z"/>
		<path fill="#993F98" d="M322.3,90.7c4.3-2,9.2-3.2,14-3.2c6.9,0,10.3,1.6,10.4,8.9c0,0.6,0,1.1-0.1,1.6c-3.4-2.5-8-4-12-4
			c-10.3,0-19.1,6.7-19.1,17.5c0,11.4,6.5,19.3,18.5,19.3c5.5,0,10.2-1.3,13.3-6.1l0.2,0l0,5.3l14.1-1.7l0-35.7
			c0-13.1-9.1-18.6-22.4-18.7c-4.5,0-10.5,0.9-14.6,2.4L322.3,90.7z M330.4,111.3c0-4.4,3.6-7,8.1-6.9c4.3,0,8,2.6,8,6.9
			c0,4.4-3.6,7-8,7C334,118.3,330.4,115.7,330.4,111.3"/>
		<path fill="#993F98" d="M407.6,92.2c-2.9-2.5-6.7-3.7-10.5-3.7c-7.2,0-13.3,5.4-13.3,12.8c0,8.3,5.2,14.9,13.6,14.9
			c3.8,0,7.2-1.1,10.3-3.8l8.8,11.5c-4.3,4.6-13.5,6.8-19.4,6.8c-18.3,0-29.4-13.2-29.4-27.5c0-17.5,12.2-29.3,29.4-29.3
			c6.6,0,13.7,2.3,18.8,6.5L407.6,92.2z"/>
		<polygon points="193.2,52.5 209.6,50.9 213.1,50.5 213.1,54 213.1,56.9 213.7,56.9 213.6,86.9 226.5,70.3 227.9,68.5 230,69.2 
			246.9,74.3 251.5,75.8 248.4,79.5 248.2,79.7 249.7,80.2 232.5,100.6 251.2,123.4 254.4,127.4 252.1,127.9 252.4,128.3 
			233.9,132.7 233.7,132.3 230.9,133 228.9,133.4 227.6,131.8 213.6,113.4 213.6,131 213.1,131 213.1,131.1 210.2,131.3 193.8,133 
			190.3,133.4 190.3,129.8 190.3,55.7 190.3,52.8 		"/>
		<path d="M172.2,91.8c-1.4-0.5-2.8-0.8-4.2-0.8c-5.7,1.4-10.1,6.3-10.1,12.6c0,0.5,0,1,0.1,1.5c0.5,1.7,1.3,3.2,2.4,4.4
			c1.8,2,4.3,3.2,7.5,3.2c1.6,0,3-0.2,4.4-0.7c1.4-0.5,2.6-1.3,3.8-2.3l2.6-2.3l2.1,2.7l8.9,11.7l1.6,2.1l-1.3,1.4l0.9,1.2
			c-4,4.3-12.3,6.6-18.2,6.9c-1.8,0.3-3.6,0.4-5.2,0.4v0h0v0c-10.2,0-18.5-3.7-24.2-9.4c-5.7-5.8-8.9-13.5-8.9-21.6h0v0v0h0
			c0-9.8,3.5-18,9.3-23.8c5.9-5.8,14.1-9.1,23.7-9.1h0v0c3.8,0,7.7,0.7,11.3,1.9c3.6,1.2,7,3.1,9.8,5.4l2.3,1.9l-1.7,2.4l0,0
			c0.4,0.3,0.8,0.6,1.2,0.9l-8.5,11.9c-0.4-0.3-0.7-0.6-1.1-0.9l-1.5,2.1C177.2,94.3,174.5,92.6,172.2,91.8"/>
		<linearGradient id="SVGID_1_" gradientUnits="userSpaceOnUse" x1="163.362" y1="65.3709" x2="163.362" y2="128.8172">
			<stop  offset="0" style="stop-color:#F9B94C"/>
			<stop  offset="0.9864" style="stop-color:#BF2426"/>
		</linearGradient>
		<path fill="url(#SVGID_1_)" d="M138.6,102.8c0,14.5,11.2,27.9,29.8,27.9c6,0,15.3-2.3,19.7-6.9l-8.9-11.7c-3,2.7-6.5,3.9-10.4,3.9
			c-8.5,0-13.8-6.7-13.8-15.2c0-7.6,6.2-13,13.5-13c3.8,0,7.7,1.3,10.6,3.8l8.5-11.9c-5.3-4.3-12.4-6.6-19.1-6.6
			C151,73.1,138.6,85,138.6,102.8"/>
		<linearGradient id="SVGID_2_" gradientUnits="userSpaceOnUse" x1="222.0183" y1="47.3823" x2="222.0183" y2="133.9679">
			<stop  offset="0" style="stop-color:#F9B94C"/>
			<stop  offset="0.9864" style="stop-color:#BF2426"/>
		</linearGradient>
		<polygon fill="url(#SVGID_2_)" points="194.4,55.7 194.4,129.8 194.4,129.8 210.8,128.2 210.8,103.5 211,103.4 231.1,129.8 
			249.6,125.5 228.3,99.4 246.9,77.4 230,72.2 211,96.7 210.8,96.7 210.8,54 		"/>
		<polygon points="127,70.9 128.8,70.7 132.4,70.3 132.4,73.9 132.4,76.7 132.9,76.7 132.9,131 129.4,131.3 129.4,131.3 113,133 
			109.5,133.3 109.5,129.8 109.6,75.6 109.6,72.7 112.4,72.4 117.9,71.8 107.3,64.2 104.3,62 106.9,59.3 117.2,48.8 119.2,46.9 
			121.4,48.5 136.4,59.6 134.1,61.8 135.3,62.7 		"/>
		<linearGradient id="SVGID_3_" gradientUnits="userSpaceOnUse" x1="121.0086" y1="43.1572" x2="122.5896" y2="129.4804">
			<stop  offset="0" style="stop-color:#F9B94C"/>
			<stop  offset="0.9864" style="stop-color:#BF2426"/>
		</linearGradient>
		<path fill="url(#SVGID_3_)" d="M113.7,75.6l0,54.2l16.4-1.7l0-54.2L113.7,75.6z M110.1,61.6l11.9,8.6l10.5-10.3l-12.1-8.8
			L110.1,61.6z"/>
		<polygon points="39.3,45.2 41.2,47.7 42.6,46.5 57.6,67.6 58.2,33 58.3,30.8 60.3,30 79.6,22.9 84.1,21.3 84,23.5 84.6,23.2 
			83.3,67.7 128.7,83.6 128.2,84.1 130.3,84.8 127.2,88.3 113,105 111.5,106.8 109.4,106 75.5,92.8 90.4,113.8 89.3,114.8 90.9,117 
			88.7,118.9 73.3,132.2 70.6,134.5 68.6,131.6 20.7,64.3 19.1,61.9 21.3,60 		"/>
		<linearGradient id="SVGID_4_" gradientUnits="userSpaceOnUse" x1="39.1143" y1="15.9077" x2="100.4974" y2="118.5316">
			<stop  offset="0" style="stop-color:#F9B94C"/>
			<stop  offset="0.9864" style="stop-color:#BF2426"/>
		</linearGradient>
		<path fill="url(#SVGID_4_)" d="M61.4,33.1l-0.8,45.8l-0.5,0.4L38.7,49.2L23.4,62.4l47.8,67.3l15.4-13.3L64.7,85.7l0.5-0.3
			l45.3,17.6c0.1,0.2,14.4-16.2,14.3-16.7L79.5,70.3l1.3-44.4L61.4,33.1z"/>
	</g>
	<path fill="#FFFFFF" d="M468.5,205.8c0.8,0,1.9-0.4,3.4-1.2c1.7-0.8,2.5-1.6,2.5-2.3c0-0.1,0-0.2-0.1-0.3c-1.8-1.8-4.6-3.1-8.4-3.8
		c-2.9-0.5-5.8-0.9-8.7-1.4c-2.7-0.6-4.1-1.7-4.1-3.3c0-2,2.1-3.5,6.2-4.5c2.8-0.7,5.7-1,8.7-1c1.8,0,3.5,0.2,5.3,0.6
		c2.7,0.5,4.1,1.4,4.1,2.5c0,0.7-0.3,1.1-1,1.1c-0.3,0-0.6-0.1-0.8-0.3c-1.3-1.1-3.8-1.6-7.5-1.6c-3,0-5.9,0.3-8.6,1
		c-2.8,0.7-4.2,1.4-4.2,2.2c0,0.6,0.8,1,2.5,1.3c0.3,0.1,1.4,0.2,3.1,0.4c3.4,0.4,6,0.8,7.9,1.4c2.9,0.9,5.2,2.2,6.9,3.9
		c0.5,0.5,0.8,1.1,0.8,1.8c0,1.4-1,2.7-3.1,3.9c-1.9,1.2-3.7,1.8-5.2,1.8c-1,0-1.9-0.2-2.7-0.6c-1-0.5-1.5-1.2-1.5-2.1
		c0-0.5,0.2-1,0.5-1.7c0.3-0.6,0.7-0.9,1.2-0.9c0.7,0,1,0.2,1,0.6c0,0.1-0.1,0.4-0.2,0.8c-0.1,0.4-0.2,0.6-0.2,0.8
		C466.5,205.4,467.2,205.8,468.5,205.8L468.5,205.8z M415.8,199v-2.1c1.2,0.3,3,0.4,5.2,0.4c0.6,0,0.9,0.3,0.9,1c0,0.7-0.3,1-0.9,1
		C418.6,199.3,416.8,199.2,415.8,199L415.8,199z M415.8,196.1V194l0.5-0.1c1.4-0.3,2.1-0.9,2.1-1.9c0-1.2-0.4-1.8-1.2-1.8
		c-0.5,0-0.9,0.1-1.4,0.4v-2.2c0.5-0.2,0.9-0.2,1.4-0.2c1,0,1.8,0.4,2.3,1.1c0.6,0.8,0.9,1.6,0.9,2.7
		C420.4,194.2,418.9,195.6,415.8,196.1L415.8,196.1z M451.9,202.5c-1.9,0-3.5-0.6-4.7-1.7c-0.4-0.3-1.5-1.7-3.2-3.9
		c-0.2,0.2-0.7,1.3-1.4,3.2c-0.5,1.3-1.2,2-1.9,2c-1,0-1.7-0.8-2.3-2.3c-0.4-1.4-0.8-2.9-1.2-4.3c-0.5-1.6-1.1-2.4-1.9-2.4
		c-0.9,0-1.9,0.7-3,2.2c-0.2,0.3-1.1,1.6-2.6,4c-0.9,1.4-1.6,2.2-2,2.2c-0.4,0-0.7-0.2-0.9-0.5c-0.2-0.3-0.4-0.6-0.4-1V190
		c0-0.7,0.4-1.1,1.1-1.1s1.1,0.4,1.1,1.1v6.5c2.4-3.9,4.7-5.8,6.6-5.8c1.8,0,3,1,3.8,3.1c0.5,1.8,0.9,3.5,1.4,5.3
		c1-3.2,2.2-4.8,3.5-4.8c0.6,0,1.3,0.5,2,1.6c1.1,1.6,1.8,2.5,2.1,2.8c1.1,1,2.3,1.5,3.8,1.5c0.7,0,1.1,0.4,1.1,1.2
		C453,202.1,452.6,202.5,451.9,202.5z M415.8,188.5v2.2c-0.4,0.2-0.8,0.6-1.2,1c-0.9,1-1.3,1.9-1.4,2.8c0.9-0.1,1.7-0.3,2.6-0.5v2.1
		c-0.5,0.1-1,0.1-1.6,0.2c0.4,0.3,0.9,0.5,1.6,0.6v2.1c-0.1,0-0.2,0-0.3-0.1c-2.1-0.5-3.5-1.5-4.1-3.2c-0.1-0.4-0.2-0.8-0.2-1.2
		c0-0.6,0.1-1.2,0.4-1.9l-2.5,0c-2.7,0-4.3,0-4.7,0c0.3,4.3,0.3,7.4,0,9.3c-0.1,0.7-0.5,1-1.2,0.9c-0.7-0.1-1-0.5-0.9-1.2
		c0.3-1.7,0.3-4.7,0-9c-4,0-7.6-0.1-10.9-0.4c-1.9-0.2-2.9-0.3-2.9-0.3c-0.7-0.3-1.2-0.8-1.4-1.4c-0.1-0.3,0-0.5,0.2-0.7
		c0.2-0.2,0.4-0.3,0.7-0.3c0.5,0,0.8,0,0.9,0.1c0.5,0.3,2.6,0.5,6.2,0.7c1.9,0.1,4.3,0.1,7.2,0.1c-0.2-2.4-0.5-6.1-1-11.1
		c-0.6-6.7-0.9-10.9-0.9-12.6c0-1.1,0.1-1.9,0.3-2.4c0.3-0.6,0.7-0.7,1.4-0.5c0.6,0.3,0.8,0.8,0.6,1.5c-0.1,0.2-0.1,0.6-0.1,1.2
		c0,1.6,0.3,5.8,0.9,12.5c0.5,5.1,0.8,8.8,1,11.3c0.9,0,2.5,0,4.8,0h2.7c0.4,0,0.7,0.1,0.9,0.4c0.2-0.2,0.3-0.4,0.5-0.6
		C414.1,189.4,415,188.8,415.8,188.5L415.8,188.5z M364.2,221.7v-4c0.5-1.1,0.7-2.4,0.7-3.8c0-1-0.2-2-0.7-3.3v-4.7c2,3,3,5.7,3,8
		c0,2.9-0.8,5.3-2.5,7.3C364.5,221.4,364.3,221.6,364.2,221.7L364.2,221.7z M364.2,196.5c0.3,0.1,0.7,0.2,1.1,0.3
		c2.9,0.5,5.8,0.9,8.7,1.4c3.8,0.7,6.6,2,8.4,3.8c0.1,0.1,0.1,0.2,0.1,0.3c0,0.7-0.8,1.5-2.5,2.3c-1.5,0.8-2.7,1.2-3.4,1.2
		c-1.3,0-1.9-0.3-1.9-1c0-0.2,0.1-0.4,0.2-0.8c0.1-0.4,0.2-0.6,0.2-0.8c0-0.4-0.3-0.6-1-0.6c-0.5,0-0.9,0.3-1.2,0.9
		c-0.3,0.6-0.5,1.2-0.5,1.7c0,0.9,0.5,1.6,1.5,2.1c0.8,0.4,1.7,0.6,2.7,0.6c1.6,0,3.3-0.6,5.2-1.8c2.1-1.3,3.1-2.6,3.1-3.9
		c0-0.6-0.3-1.2-0.8-1.8c-1.7-1.7-4-3-6.9-3.9c-1.9-0.6-4.5-1-7.9-1.4c-1.8-0.2-2.8-0.3-3.1-0.4c-0.8-0.1-1.3-0.3-1.8-0.5V196.5
		L364.2,196.5z M364.2,192.4V190c0.9-0.4,2-0.7,3.2-1c2.8-0.7,5.7-1,8.7-1c1.8,0,3.5,0.2,5.3,0.6c2.7,0.5,4.1,1.4,4.1,2.5
		c0,0.7-0.3,1.1-1,1.1c-0.3,0-0.6-0.1-0.8-0.3c-1.3-1.1-3.8-1.6-7.5-1.6c-3,0-5.9,0.3-8.6,1C366,191.6,364.9,192,364.2,192.4z
		 M364.2,190v2.4c-0.5,0.3-0.8,0.7-0.8,1c0,0.3,0.3,0.6,0.8,0.8v2.2c-2-0.6-3-1.7-3-3C361.2,192.1,362.2,190.9,364.2,190L364.2,190z
		 M364.2,205.9c-0.6-0.9-1.2-1.7-1.9-2.7c-2.6-3.1-5.3-6.2-7.9-9.3c0.1-0.4,0.2-0.7,0.2-1.1c0-1.1-0.5-1.7-1.6-1.7
		c-1.1,0-1.6,0.5-1.6,1.6c0,0.3,0.1,0.7,0.2,1c-1,0.7-1.9,1-2.8,1c-1.2,0-1.7-0.7-1.7-2c0-0.1,0-0.4,0-0.7c0-0.3,0-0.6,0-0.8
		c0-0.9-0.4-1.3-1.1-1.3c-0.8,0-1.2,0.8-1.2,2.3c0,3.1,1.2,4.7,3.7,4.7c1.6,0,3.1-0.4,4.4-1.3c2.5,2.8,5,5.7,7.5,8.6
		c1.9,2.4,3.3,4.6,4,6.4V205.9L364.2,205.9z M364.2,217.7v4c-1.7,1.8-3.9,2.7-6.5,2.7c-3.5,0-6.7-1.1-9.4-3.3
		c-3-2.4-4.4-5.3-4.4-8.8c0-2,1-4,3-5.8c2-1.8,4-2.7,6.1-2.7c0.5,0,1,0.1,1.4,0.4c0.4,0.3,0.5,0.5,0.5,0.9c0,0.7-0.6,1-1.9,1
		c-1.4,0-2.9,0.7-4.5,2c-1.6,1.4-2.3,2.8-2.3,4.2c0,2.8,1.3,5.2,3.8,7.1c2.3,1.8,5,2.7,7.9,2.7c2.2,0,4-0.8,5.3-2.5
		C363.5,219.1,363.9,218.4,364.2,217.7L364.2,217.7z M212.3,200.4v-1.7c0.6-0.2,1.3-0.4,2.1-0.6c2.3-0.7,3.4-1.1,3.3-1.1l-0.4-2.1
		c-1.3,0.1-2.9,0.4-5,0.8v-2.2c1.4-0.4,2.9-0.6,4.4-0.8c-0.7-3.9-2-12-3.7-24.2c-0.2-1.5-0.4-2.8-0.7-3.9v-2.8
		c0.2-0.1,0.4-0.2,0.7-0.2c0.3,0,0.5,0.1,0.7,0.3c0.3,0.3,1.1,4.2,2.2,11.7c1.2,8.3,2.2,14.7,3,19c3.4,0.2,5.1,1.3,5.1,3.3
		c0,0.4-0.1,0.8-0.3,1.2c-0.2,0.4-0.6,0.6-1,0.6c-0.7,0-1-0.4-1-1.1c0-0.3,0.1-0.5,0.2-0.7c0-0.6-0.8-0.9-2.5-1
		c0.4,2,0.8,3.6,1.1,4.9c0.3,0.2,0.6,0.6,0.8,1.1c0.2,0.6,0.3,1.1,0.3,1.6c0,0.9-0.4,1.4-1.1,1.4c-1,0-1.9-1.8-2.6-5.3
		c-0.7,0.5-2.1,1-4.1,1.4C213.3,200.2,212.8,200.3,212.3,200.4L212.3,200.4z M277.9,180.6c-0.1,0.4-0.1,0.7-0.1,1.1
		c0,1.1,0.4,2.2,1.2,3.1c2,2.6,6.7,4.4,14,5.5c4.7,0.7,10,1.1,16,1.1c8.9,0,16.2,0.7,22.2,2.1c5.9,1.4,8.9,3.1,8.9,5.2
		c0,1.5-1,3.1-3,4.7s-4.9,3.3-8.5,4.8c-4,1.7-8.3,3-12.8,3.9c-4.2,0.9-7.9,1.3-11.1,1.3c-2.6,0-4.4-0.3-5.4-0.9
		c1.5-1.1,5.6-2.6,12.5-4.5c6.9-1.9,11.6-2.9,14.2-2.9c0.4,0,0.7,0,0.9,0.1c0.7,0.2,1.1,0,1.3-0.6c0.2-0.6,0-1-0.7-1.2
		c-0.3-0.1-0.7-0.2-1.2-0.2c-3.3,0-8.7,1.1-16.2,3.2c-7.8,2.2-12.1,4.1-13,5.5c-0.4,0.7-0.3,1.3,0.2,1.9c1.2,1.2,3.7,1.8,7.4,1.8
		c3.4,0,7.4-0.5,12-1.5c4.6-1,8.8-2.3,12.7-4c8.5-3.5,12.8-7.3,12.8-11.4c0-3.2-3.5-5.6-10.5-7.2c-5.9-1.4-13.4-2.1-22.5-2.1
		c-5.8,0-11.3-0.4-16.6-1.2c-9.1-1.4-13.2-3.8-12.5-7.1c0.3-1.1,2-2.7,5.2-4.6c3.3-2,7.2-3.8,11.5-5.3c4.9-1.8,9.5-2.8,13.8-3.2
		c0.9-0.1,1.9-0.1,2.8-0.1c6.9,0,11.3,2.3,13.2,6.8c0.1,0.2,0.1,0.4,0.1,0.7c0,0.6-0.3,1.4-0.8,2.2c-0.5,0.8-1.2,1.6-2,2.2
		c-0.7,0.6-1.2,0.9-1.6,0.9c-0.7,0-1,0.4-1,1s0.3,1,1,1c0.7,0,1.6-0.4,2.7-1.2c1-0.8,1.9-1.7,2.5-2.7c0.8-1.2,1.2-2.3,1.2-3.4
		c0-0.5-0.1-1-0.3-1.5c-2.2-5.4-7.2-8.1-15-8.1c-2.7,0-6.8,0.7-12.1,2.1c-5.8,1.6-10.8,3.3-14.9,5.4
		C281.2,175.8,278.5,178.2,277.9,180.6L277.9,180.6z M242.4,205.8c0.8,0,1.9-0.4,3.4-1.2c1.7-0.8,2.5-1.6,2.5-2.3
		c0-0.1,0-0.2-0.1-0.3c-1.8-1.8-4.6-3.1-8.4-3.8c-2.9-0.5-5.8-0.9-8.7-1.4c-2.7-0.6-4.1-1.7-4.1-3.3c0-2,2.1-3.5,6.2-4.5
		c2.8-0.7,5.7-1,8.7-1c1.8,0,3.5,0.2,5.3,0.6c2.7,0.5,4.1,1.4,4.1,2.5c0,0.7-0.3,1.1-1,1.1c-0.3,0-0.6-0.1-0.8-0.3
		c-1.3-1.1-3.8-1.6-7.5-1.6c-3,0-5.9,0.3-8.6,1c-2.8,0.7-4.2,1.4-4.2,2.2c0,0.6,0.8,1,2.5,1.3c0.3,0.1,1.4,0.2,3.1,0.4
		c3.4,0.4,6,0.8,7.9,1.4c2.9,0.9,5.2,2.2,6.9,3.9c0.5,0.5,0.8,1.1,0.8,1.8c0,1.4-1,2.7-3.1,3.9c-1.9,1.2-3.7,1.8-5.2,1.8
		c-1,0-1.9-0.2-2.7-0.6c-1-0.5-1.5-1.2-1.5-2.1c0-0.5,0.2-1,0.5-1.7c0.3-0.6,0.7-0.9,1.2-0.9c0.7,0,1,0.2,1,0.6
		c0,0.1-0.1,0.4-0.2,0.8c-0.1,0.4-0.2,0.6-0.2,0.8C240.5,205.4,241.1,205.8,242.4,205.8z M212.3,161.9v2.8c-0.1-0.5-0.2-1-0.3-1.4
		c0-0.1,0-0.2,0-0.4C211.9,162.4,212,162.1,212.3,161.9L212.3,161.9z M212.3,193.6v2.2c-0.3,0.1-0.6,0.2-0.9,0.2
		c-3.1,0.8-4.6,1.6-4.4,2.4c0.1,0.6,0.8,0.9,1.9,0.9c0.9,0,2.1-0.2,3.5-0.6v1.7c-1.1,0.2-2.1,0.3-2.9,0.3c-2.1,0-3.4-0.4-4-1.3V197
		c0.6-1,2.1-1.9,4.4-2.7C210.6,194,211.5,193.8,212.3,193.6L212.3,193.6z M205.4,191v-1.5c0.2,0.2,0.3,0.4,0.3,0.7
		C205.7,190.6,205.6,190.9,205.4,191z M205.4,189.6v1.5c-0.1,0.1-0.2,0.1-0.4,0.2c-2.1,0.6-3.7,1.1-4.8,1.7c-1.8,0.9-3,2.1-3.6,3.5
		c0.3,1.1,0.4,2,0.4,2.6c0,1.2-0.4,1.8-1.2,1.8c-0.9,0-1.4-0.8-1.4-2.5c0-0.8,0.1-1.4,0.3-2c-0.5-1.8-1-3-1.6-3.6
		c-0.2-0.2-0.3-0.4-0.3-0.7c0-0.6,0.3-0.9,0.9-0.9c0.6,0,1.3,1,2.1,3c1.8-2.2,4.8-3.8,8.8-4.6C204.9,189.3,205.2,189.4,205.4,189.6
		L205.4,189.6L205.4,189.6z M205.4,197c-0.2,0.4-0.3,0.8-0.3,1.2c0,0.5,0.1,0.9,0.3,1.2V197L205.4,197z M128.9,205v-2.3
		c1.4,0.2,2.7,0.3,3.8,0.3c0.6,0,1.2,0,1.7-0.1c0.8-0.1,1.2,0.3,1.3,1.1c0.1,0.8-0.3,1.2-1.1,1.3c-0.5,0-1,0-1.6,0
		C131.8,205.2,130.4,205.2,128.9,205L128.9,205z M128.9,199v-2.1c1.2,0.3,3,0.4,5.2,0.4c0.6,0,0.9,0.3,0.9,1c0,0.7-0.3,1-0.9,1
		C131.6,199.3,129.9,199.2,128.9,199L128.9,199z M128.9,196.1V194l0.5-0.1c1.4-0.3,2.1-0.9,2.1-1.9c0-1.2-0.4-1.8-1.2-1.8
		c-0.5,0-0.9,0.1-1.4,0.4v-2.2c0.5-0.2,0.9-0.2,1.4-0.2c1,0,1.8,0.4,2.3,1.1c0.6,0.8,0.9,1.6,0.9,2.7
		C133.5,194.2,131.9,195.6,128.9,196.1L128.9,196.1z M128.9,179.8v-6.2c1,1,1.4,2.1,1.4,3.3C130.3,177.9,129.8,178.9,128.9,179.8
		L128.9,179.8z M170.6,197.1c0.4,0.3,1.2,0.5,2.5,0.5c1.9,0,4.1-0.3,6.6-0.8c2.4-0.5,4.6-1.1,6.4-1.9c0.1-0.1,0.3-0.1,0.4-0.1
		c0.6,0,0.9,0.3,0.9,0.9c0,0.9-2.1,1.8-6.3,2.7c-3.5,0.7-6.1,1.1-7.8,1.1c-3.1,0-4.6-0.8-4.6-2.5c0-3.8,5.3-5.8,15.9-6
		c-2.8-0.5-7.6-0.8-14.4-0.8c-0.7,0-1-0.3-1-1c0-0.6,0.3-0.9,1-1c0.3-0.1,2.2-0.1,5.5-0.1c2.6,0,5.1,0.2,7.2,0.5
		c3.7,0.6,5.6,1.6,5.6,3c0,0.9-1.5,1.4-4.5,1.5c-4.9,0.2-7.7,0.4-8.4,0.5C172.5,194.2,170.8,195.3,170.6,197.1L170.6,197.1z
		 M158.5,199.9c-1.6,0-3.4-0.4-5.2-1.3c-1.6-0.9-3.1-1.7-4.7-2.6c-0.2,1-0.4,2-0.6,2.9c-0.4,1.2-1.1,1.8-2,1.8
		c-0.5,0-0.9-0.1-1.5-0.4c-3-1.6-4.5-4.7-4.5-9.4c0-0.8,0-1.4,0-1.6c0.1-0.6,0.5-0.9,1-0.9c0.5,0,0.9,0.3,1,0.9c0,0,0,0.5,0,1.5
		c0,3.8,1.3,6.4,3.8,7.7c0.2-1,0.4-2,0.6-3c0.4-1.3,0.9-1.9,1.7-1.9c0.5,0,1.9,0.7,4.2,2.1c2.3,1.4,4.3,2.1,6,2.1
		c1.7,0,2.5-0.4,2.5-1.1c0-1-0.7-2.4-2.2-4.2c-1.5-1.8-2.2-2.9-2.2-3.1c0-0.7,0.3-1.1,1-1.1c0.3,0,0.5,0.1,0.7,0.3
		c1.1,1.1,2.1,2.3,3,3.7c1.1,1.7,1.7,3.2,1.7,4.4C163,198.8,161.5,199.9,158.5,199.9z M128.9,173.7v6.2c-1,1-2.6,2.1-4.7,3.1
		c-3,1.4-8.3,3.4-15.8,5.9c-1.8,0.6-3.3,1.1-4.4,1.5c0.1,2.1,0.1,3.9,0.1,5.5c4.5,1.8,9.3,3.3,14.5,4.7c4,1,7.5,1.7,10.3,2.1v2.3
		c-2.7-0.3-5.9-0.9-9.6-1.8c-5.5-1.3-10.6-2.9-15.2-4.7c0,2.7,0,4.6-0.1,5.8c-0.1,0.8-0.5,1.2-1.3,1.1s-1.2-0.5-1.1-1.3
		c0.1-1.3,0.1-3.5,0-6.6c-0.7-0.3-1.3-0.6-1.9-0.9V194c0.5,0.3,1.2,0.6,1.9,0.9v-3.7c-0.7,0.3-1.3,0.5-1.9,0.7v-2.6
		c0.5-0.2,1.1-0.4,1.7-0.6c-0.2-5.6-0.4-9.7-0.5-12.3l-0.2-5.6c0-0.7,0.4-1.1,1.2-1.1c0.3,0,0.6,0.1,0.8,0.4
		c0.2,0.3,0.4,0.6,0.4,0.9l0.2,5.4c0.2,4.9,0.3,8.8,0.4,11.6l3.8-1.2c14.1-4.6,20.8-7.9,20.3-9.9c-0.9-3.4-7.8-5.9-20.5-7.5
		c-2.4-0.3-4.9-0.6-7.7-0.8V166c12.2,1,20.7,2.7,25.7,5.2C126.9,172,128.1,172.8,128.9,173.7L128.9,173.7z M128.9,188.5
		c-0.9,0.3-1.7,0.9-2.6,1.8c-1.3,1.4-2,2.8-2,4.2c0,0.4,0.1,0.8,0.2,1.2c0.6,1.7,2,2.7,4.1,3.2c0.1,0,0.2,0,0.3,0.1v-2.1
		c-0.7-0.2-1.2-0.4-1.6-0.6c0.6,0,1.1-0.1,1.6-0.2V194c-0.9,0.2-1.7,0.3-2.6,0.5c0.1-0.9,0.6-1.8,1.4-2.8c0.4-0.4,0.8-0.8,1.2-1
		V188.5z M99.7,166v2.4c-8.5-0.7-18.5-1.1-30.1-1.1c-11.6,0-21,0.3-28.3,0.8c0.2,0.2,0.3,0.5,0.3,0.8c0,0.9-0.5,1.3-1.3,1.2
		c-1.9-0.1-3.2-0.4-4-0.9c-0.4-0.3-0.6-0.6-0.7-1.1c-0.1-0.8,0.4-1.4,1.5-1.9c0.7-0.3,4.1-0.5,10.4-0.8c7.1-0.3,14.6-0.5,22.5-0.5
		C81.6,164.9,91.5,165.3,99.7,166L99.7,166z M99.7,189.3v2.6c-0.9,0.4-1.5,0.7-1.9,0.9c0.4,0.3,1,0.7,1.9,1.2v2.7
		c-3.1-1.5-4.7-2.9-4.7-4c0-0.7,0.5-1.3,1.5-1.9C97.2,190.3,98.3,189.8,99.7,189.3z"/>
</g>
</svg>
