<?xml version="1.0" encoding="UTF-8" standalone="no"?>
<!-- Created with Inkscape (http://www.inkscape.org/) -->

<svg
   xmlns:dc="http://purl.org/dc/elements/1.1/"
   xmlns:cc="http://creativecommons.org/ns#"
   xmlns:rdf="http://www.w3.org/1999/02/22-rdf-syntax-ns#"
   xmlns:svg="http://www.w3.org/2000/svg"
   xmlns="http://www.w3.org/2000/svg"
   xmlns:sodipodi="http://sodipodi.sourceforge.net/DTD/sodipodi-0.dtd"
   xmlns:inkscape="http://www.inkscape.org/namespaces/inkscape"
   id="svg2985"
   version="1.1"
   inkscape:version="0.48.2 r9819"
   width="1000"
   height="350.57999"
   sodipodi:docname="cats-crop.png">
  <metadata
     id="metadata2991">
    <rdf:RDF>
      <cc:Work
         rdf:about="">
        <dc:format>image/svg+xml</dc:format>
        <dc:type
           rdf:resource="http://purl.org/dc/dcmitype/StillImage" />
        <dc:title></dc:title>
      </cc:Work>
    </rdf:RDF>
  </metadata>
  <defs
     id="defs2989" />
  <sodipodi:namedview
     pagecolor="#ffffff"
     bordercolor="#666666"
     borderopacity="1"
     objecttolerance="10"
     gridtolerance="10"
     guidetolerance="10"
     inkscape:pageopacity="0"
     inkscape:pageshadow="2"
     inkscape:window-width="1360"
     inkscape:window-height="715"
     id="namedview2987"
     showgrid="false"
     inkscape:zoom="1.2"
     inkscape:cx="500"
     inkscape:cy="175.28999"
     inkscape:window-x="-4"
     inkscape:window-y="-4"
     inkscape:window-maximized="1"
     inkscape:current-layer="svg2985" />
  <path
     style="fill:#d44834;fill-opacity:1"
     d="m 94.282544,349.56002 c -12.213399,-2.05 -25.148185,-7.8 -28.575448,-12.69 -1.453322,-2.08 -1.751995,-6.81 -1.751995,-27.76 l 0,-25.26 6.095977,4.05 c 15.12407,10.04 32.590952,9.76 38.625642,-0.62 2.25912,-3.89 2.31127,-5.81 2.62597,-96.61 l 0.3211,-92.629994 29.42459,0 29.4246,0 0,52.749994 0,52.75 3.6828,1.53 c 6.34452,2.66 22.09069,4.38 33.27126,3.64 31.14336,-2.04 56.15337,-20.94 63.35412,-47.88 2.3089,-8.63 2.36758,-27.93 0.11769,-38.7 -3.38673,-16.22 -14.58694,-33.709994 -28.16101,-43.969994 -30.38415,-22.98 -83.0838,-29.79 -123.46811,-15.96 -15.27811,5.23 -27.778156,12.95 -38.828808,23.97 -16.419073,16.389994 -23.348197,33.009994 -23.440378,56.239994 -0.07637,19.24 3.434058,31.37 11.963217,41.33 l 3.938985,4.61 -21.608113,18.49 c -17.58079,15.05 -21.952226,18.28 -23.454404,17.33 -3.721823,-2.35 -14.012144,-17.06 -18.8720898,-26.98 -8.11895696,-16.58 -9.02340196,-21.9 -8.96569096,-52.69 0.0474,-25.3 0.203177,-27.2 3.10990996,-37.97 3.637808,-13.469994 13.0367358,-33.169994 21.0831678,-44.189994 23.735941,-32.51 58.374348,-52.26 106.616544,-60.7899992 12.93127,-2.28999994 49.76266,-1.96999994 65.15722,0.55 44.29591,7.2799996 74.48664,21.2499992 99.29372,45.9699992 17.20552,17.15 27.90825,35.25 33.55005,56.749994 4.07865,15.55 4.88245,43.54 1.69267,58.95 -4.63612,22.4 -14.30168,39.43 -32.47177,57.21 -16.51832,16.17 -35.89493,27.48 -58.43766,34.1 -10.93692,3.22 -43.38583,2.87 -55.52529,-0.6 -4.67432,-1.33 -9.59773,-2.71 -10.94093,-3.05 -2.44008,-0.64 -2.44253,-0.62 -2.88359,25.82 -0.42196,25.29 -0.57774,26.85 -3.52858,35.33 -7.54063,21.66 -20.05601,32.72 -41.32846,36.51 -9.51389,1.7 -22.63724,1.9 -31.106906,0.47 z m 327.562296,0.1 c -38.01454,-6.95 -65.17572,-35.26 -72.27338,-75.33 -1.71265,-9.67 -1.46606,-32.06 0.45235,-41.08 6.50179,-30.56 23.72046,-53.73 48.78273,-65.65 12.73672,-6.05 20.72997,-7.71 37.39458,-7.74 15.51886,0 25.28093,2.01 36.2477,7.58 5.63916,2.87 17.20089,11.84 18.02712,14 0.33701,0.88 1.13868,1.59 1.78149,1.59 0.71629,0 1.16873,-3.94 1.16873,-10.19 l 0,-10.2 26.58499,0 26.58501,0 0.32776,63.94 c 0.32033,62.49 0.38071,64.01 2.66044,67.14 1.28297,1.76 4.59749,4.38 7.3656,5.82 6.65334,3.47 15.47296,3.01 23.6418,-1.23 l 5.80188,-3.01 -0.3071,22.33 -0.30711,22.33 -6.95647,3.47 c -16.99802,8.47 -39.59008,9.54 -54.39537,2.59 -6.88583,-3.24 -18.18529,-13.88 -22.50267,-21.2 -1.86973,-3.17 -3.65447,-5.77 -3.96609,-5.78 -0.31162,0 -1.79076,1.79 -3.28697,3.98 -7.52906,11.06 -22.35798,21.07 -36.94053,24.95 -7.96859,2.12 -28.30218,3.07 -35.88649,1.69 z m 47.09483,-49.17 c 9.55472,-4.72 16.88342,-11.99 21.56318,-21.38 2.7785,-5.58 2.92331,-6.77 2.92331,-24.12 0,-17.2 -0.16383,-18.58 -2.83225,-23.94 -1.55773,-3.12 -4.66294,-7.82 -6.90046,-10.43 -19.63777,-22.94 -55.41665,-20.64 -72.20399,4.65 -17.29928,26.07 -8.65171,61.98 18.17834,75.49 7.13417,3.59 12.36329,4.6 22.07987,4.23 7.41294,-0.28 10.03586,-0.97 17.192,-4.5 z m 224.49082,48.66 c -23.84274,-4.62 -38.15513,-18.91 -44.85203,-44.77 -1.94994,-7.52 -2.17449,-12.64 -2.17449,-49.57 l 0,-41.18 -24.36313,0 -24.36313,0 0,-25.5 0,-25.49 24.36313,0 24.36313,0 0,-43.06 0,-43.059994 26.62948,0 26.62947,0 0,43.059994 0,43.06 23.79655,0 23.79655,0 0,25.49 0,25.5 -23.79655,0 -23.79655,0 0.0228,29.18 c 0.0254,32.45 0.88394,41.26 4.76313,48.9 5.38162,10.61 19.47065,13.28 34.26871,6.5 3.60031,-1.64 7.00532,-2.99 7.56671,-2.99 0.5808,0 0.88806,9.4 0.71294,21.81 l -0.30775,21.81 -5.49479,3.68 c -3.02214,2.02 -8.1214,4.48 -11.33169,5.46 -8.04283,2.47 -26.64232,3.07 -36.43246,1.17 z m 253.82986,0.1 c -16.72384,-4.29 -29.94656,-17.44 -37.72589,-37.52 -1.45514,-3.76 -1.92423,-12.31 -2.5222,-45.98 -0.52651,-29.64 -1.15344,-42.48 -2.21325,-45.32 -4.15823,-11.16 -12.61255,-16.53 -24.49432,-15.58 -12.6037,1.01 -21.72587,8.68 -27.86334,23.42 -2.61785,6.29 -2.63546,6.66 -2.95737,62.13 l -0.32384,55.81 -26.58893,0 -26.58893,0 0,-171.11 0,-171.1099932 26.44849,0 26.44849,0 0.74496,26.3499992 c 0.40973,14.49 0.74613,54.11 0.74757,88.059994 l 0.002,61.71 4.81597,-4.6 c 7.10177,-6.77 11.20594,-9.27 20.37108,-12.43 33.76526,-11.62 67.47545,4.59 81.07931,38.99 2.9982,7.59 3.0013,7.63 3.6092,48.02 0.68985,45.84 0.36099,44.27 10.30669,49.45 6.65334,3.47 15.47296,3.01 23.64184,-1.23 l 5.8018,-3.01 -0.3071,22.33 -0.3071,22.33 -6.9564,3.47 c -3.82609,1.91 -9.69024,4.11 -13.03148,4.9 -9.06627,2.14 -25.54239,2.61 -32.13786,0.92 z"
     id="path2995"
     inkscape:connector-curvature="0" />
</svg>
