<?xml version="1.0" encoding="utf-8"?>
<!-- Generator: Adobe Illustrator 18.1.1, SVG Export Plug-In . SVG Version: 6.00 Build 0)  -->
<!DOCTYPE svg PUBLIC "-//W3C//DTD SVG 1.1 Tiny//EN" "http://www.w3.org/Graphics/SVG/1.1/DTD/svg11-tiny.dtd">
<svg version="1.1" baseProfile="tiny" id="Layer_1" xmlns="http://www.w3.org/2000/svg" xmlns:xlink="http://www.w3.org/1999/xlink"
	 x="0px" y="0px" viewBox="0 0 447.9 72" xml:space="preserve">
<g>
	<g>
		<g>
			<path fill="#D1282D" d="M34.6,70.9L15.3,37.9v32.9H0V1.2h25c3.6,0,6.9,0.5,9.9,1.6c3,1,5.5,2.5,7.6,4.3c2.1,1.8,3.7,4,4.8,6.6
				c1.1,2.5,1.7,5.3,1.7,8.3c0,5.2-1.4,9.5-4.3,12.8c-2.9,3.3-6.6,5.6-11.2,6.9l18.5,29.1H34.6z M33.7,22c0-2.4-0.8-4.3-2.5-5.8
				c-1.7-1.4-3.7-2.1-6.2-2.1h-9.7v16.8H25c2.7,0,4.8-0.8,6.3-2.4C32.9,26.9,33.7,24.8,33.7,22z"/>
		</g>
		<g>
			<path fill="#D1282D" d="M59,70.9V1.2h40.6v12.9H74.3v16.3h23.5v12.9H74.3V58H101v12.9H59z"/>
		</g>
		<g>
			<path fill="#D1282D" d="M168.1,35.9c0,5.7-1,10.8-3,15.1c-2,4.4-4.7,8-8.1,10.9c-3.4,2.9-7.2,5.1-11.6,6.6
				c-4.3,1.5-8.8,2.3-13.5,2.3h-21.1V1.2h21.1c5,0,9.6,0.7,14,2.2c4.4,1.5,8.2,3.7,11.5,6.7c3.3,3,5.9,6.6,7.8,10.9
				C167.1,25.4,168.1,30.3,168.1,35.9z M152.4,35.9c0-3.1-0.5-5.9-1.5-8.6c-1-2.7-2.4-5-4.2-6.9c-1.8-1.9-4-3.5-6.5-4.6
				c-2.5-1.1-5.3-1.7-8.3-1.7H126V58h5.8c3.2,0,6.1-0.6,8.7-1.8c2.5-1.2,4.7-2.8,6.4-4.8c1.8-2,3.1-4.3,4-7
				C151.9,41.7,152.4,38.9,152.4,35.9z"/>
		</g>
	</g>
	<g>
		<path d="M221.8,46.9h24.6c-0.6,2.8-1.8,5.5-3.4,7.9c-1.7,2.5-3.7,4.8-6.2,6.6c-2.4,1.9-5.2,3.3-8.2,4.3c-3,1-6.2,1.6-9.5,1.6
			c-4.5,0-8.7-0.7-12.5-2.2c-3.8-1.5-7.2-3.6-10-6.3c-2.8-2.7-5-6-6.6-9.8c-1.6-3.8-2.4-8.2-2.4-12.9c0-4.4,0.8-8.6,2.4-12.4
			c1.6-3.8,3.8-7.2,6.6-10c2.8-2.8,6.1-5.1,9.9-6.7c3.8-1.6,8-2.4,12.4-2.4c2.4,0,4.6,0.2,6.6,0.5c2,0.3,3.9,0.9,5.7,1.6
			c1.8,0.7,3.5,1.7,5.2,2.9c1.6,1.2,3.3,2.7,5,4.5l0.2,0.2l3.3-3.4l-0.2-0.2c-3.1-3.4-6.8-6.1-11-8C229.5,1,224.6,0,219.2,0
			c-5.1,0-9.9,0.9-14.3,2.8c-4.4,1.9-8.3,4.5-11.6,7.7c-3.3,3.2-5.9,7.1-7.8,11.5c-1.9,4.4-2.9,9.2-2.9,14.2
			c0,5.3,0.9,10.1,2.8,14.5c1.9,4.3,4.5,8.2,7.8,11.3c3.3,3.1,7.2,5.6,11.6,7.4c4.4,1.7,9.3,2.6,14.4,2.6c4.4,0,8.6-0.8,12.5-2.3
			c3.8-1.6,7.3-3.7,10.2-6.4c2.9-2.7,5.3-5.8,7-9.3c1.7-3.5,2.7-7.3,2.9-11.2l0-0.3h-30V46.9z"/>
		<rect x="263.5" y="1.1" width="4.8" height="69.7"/>
		<path d="M307.4,0h-2.8l-25.7,70.4l-0.2,0.4h5.2l9.5-26.5h25.1l9.4,26.3l0.1,0.2h5.2L307.5,0.2L307.4,0z M316.9,40h-22l11-30.8
			L316.9,40z"/>
		<path d="M393.2,61.6c0,0.6,0,1.2,0.1,1.7c0,0.1,0,0.2,0,0.4L349.4,1.3l-0.1-0.1h-5.8v69.7h4.9V12.1c0-0.7,0-1.3,0-2
			c0-0.6,0-1.1,0-1.7c0-0.1,0-0.2,0-0.4l44.2,62.7l0.1,0.1h5.4V1.1h-4.9V61.6z"/>
		<polygon points="408.2,1.1 408.2,5.5 425.8,5.5 425.8,70.9 430.6,70.9 430.6,5.5 447.9,5.5 447.9,1.1 		"/>
	</g>
</g>
</svg>
