<?xml version="1.0" encoding="utf-8"?>
<!-- Generator: Adobe Illustrator 19.1.0, SVG Export Plug-In . SVG Version: 6.00 Build 0)  -->
<svg version="1.1" id="Layer_1" xmlns="http://www.w3.org/2000/svg" xmlns:xlink="http://www.w3.org/1999/xlink" x="0px" y="0px"
	 viewBox="77 -18.8 370.5 36.6" style="enable-background:new 77 -18.8 370.5 36.6;" xml:space="preserve">
<style type="text/css">
	.st0{enable-background:new    ;}
	.st1{fill:#FFFFFF;}
</style>
<g class="st0">
	<path class="st1" d="M128.9,13.1v-24h-9v-3.2h21.6v3.2h-9v24H128.9z"/>
	<path class="st1" d="M144.7,13.1v-27.2h3.3v9.8c1.6-1.8,3.5-2.7,5.9-2.7c1.5,0,2.7,0.3,3.8,0.9s1.8,1.4,2.3,2.4
		c0.5,1,0.7,2.5,0.7,4.4v12.5h-3.3V0.6c0-1.7-0.4-2.9-1.1-3.6c-0.7-0.8-1.7-1.1-3.1-1.1c-1,0-1.9,0.3-2.8,0.8
		c-0.9,0.5-1.5,1.2-1.9,2.1c-0.4,0.9-0.6,2.1-0.6,3.6v10.8H144.7z"/>
	<path class="st1" d="M179.3,6.8l3.5,0.4c-0.5,2-1.6,3.6-3,4.7c-1.5,1.1-3.4,1.7-5.6,1.7c-2.9,0-5.2-0.9-6.9-2.7
		c-1.7-1.8-2.5-4.3-2.5-7.5c0-3.3,0.9-5.9,2.6-7.7c1.7-1.8,3.9-2.7,6.6-2.7c2.6,0,4.8,0.9,6.5,2.7c1.7,1.8,2.5,4.3,2.5,7.6
		c0,0.2,0,0.5,0,0.9h-14.7c0.1,2.2,0.7,3.8,1.8,5c1.1,1.2,2.5,1.7,4.1,1.7c1.2,0,2.3-0.3,3.1-1C178.1,9.2,178.8,8.2,179.3,6.8z
		 M168.4,1.4h11c-0.1-1.7-0.6-2.9-1.3-3.7c-1.1-1.3-2.4-1.9-4.1-1.9c-1.5,0-2.8,0.5-3.9,1.5C169.1-1.7,168.5-0.4,168.4,1.4z"/>
	<path class="st1" d="M197.8,13.1v-27.2H208c2.1,0,3.7,0.3,5,0.8c1.3,0.6,2.2,1.4,3,2.5c0.7,1.1,1.1,2.3,1.1,3.6
		c0,1.2-0.3,2.3-0.9,3.3c-0.6,1-1.6,1.9-2.9,2.5c1.6,0.5,2.9,1.3,3.8,2.5c0.9,1.2,1.3,2.5,1.3,4.1c0,1.3-0.3,2.5-0.8,3.6
		c-0.5,1.1-1.2,1.9-2,2.5c-0.8,0.6-1.8,1-3,1.3c-1.2,0.3-2.7,0.5-4.4,0.5H197.8z M201.4-2.7h5.9c1.6,0,2.7-0.1,3.4-0.3
		c0.9-0.3,1.6-0.7,2.1-1.4c0.5-0.6,0.7-1.4,0.7-2.4c0-0.9-0.2-1.7-0.6-2.4c-0.4-0.7-1.1-1.2-1.9-1.4c-0.8-0.3-2.2-0.4-4.1-0.4h-5.4
		V-2.7z M201.4,9.9h6.8c1.2,0,2,0,2.4-0.1c0.8-0.1,1.5-0.4,2.1-0.7s1-0.9,1.4-1.5c0.4-0.7,0.5-1.4,0.5-2.3c0-1-0.3-1.9-0.8-2.6
		c-0.5-0.7-1.2-1.3-2.2-1.6c-0.9-0.3-2.2-0.5-4-0.5h-6.3V9.9z"/>
	<path class="st1" d="M236.4,6.8l3.5,0.4c-0.5,2-1.6,3.6-3,4.7c-1.5,1.1-3.4,1.7-5.6,1.7c-2.9,0-5.2-0.9-6.9-2.7
		c-1.7-1.8-2.5-4.3-2.5-7.5c0-3.3,0.9-5.9,2.6-7.7c1.7-1.8,3.9-2.7,6.6-2.7c2.6,0,4.8,0.9,6.5,2.7c1.7,1.8,2.5,4.3,2.5,7.6
		c0,0.2,0,0.5,0,0.9h-14.7c0.1,2.2,0.7,3.8,1.8,5c1.1,1.2,2.5,1.7,4.1,1.7c1.2,0,2.3-0.3,3.1-1C235.2,9.2,235.9,8.2,236.4,6.8z
		 M225.4,1.4h11c-0.1-1.7-0.6-2.9-1.3-3.7c-1.1-1.3-2.4-1.9-4.1-1.9c-1.5,0-2.8,0.5-3.9,1.5C226.1-1.7,225.5-0.4,225.4,1.4z"/>
	<path class="st1" d="M242.7,7.2l3.3-0.5c0.2,1.3,0.7,2.3,1.5,3c0.8,0.7,2,1.1,3.6,1.1c1.5,0,2.7-0.3,3.4-0.9
		c0.7-0.6,1.1-1.4,1.1-2.2c0-0.8-0.3-1.3-1-1.8c-0.5-0.3-1.6-0.7-3.4-1.1c-2.4-0.6-4.1-1.2-5.1-1.6c-0.9-0.5-1.7-1.1-2.2-1.9
		c-0.5-0.8-0.7-1.7-0.7-2.6c0-0.9,0.2-1.7,0.6-2.4c0.4-0.7,0.9-1.4,1.6-1.9c0.5-0.4,1.2-0.7,2.1-1c0.9-0.3,1.9-0.4,2.9-0.4
		c1.5,0,2.9,0.2,4.1,0.7c1.2,0.4,2,1,2.6,1.8s0.9,1.8,1.2,3.1L255-1.1c-0.1-1-0.6-1.8-1.3-2.4c-0.7-0.6-1.7-0.9-3-0.9
		c-1.5,0-2.6,0.3-3.3,0.8c-0.7,0.5-1,1.1-1,1.8c0,0.4,0.1,0.8,0.4,1.2c0.3,0.4,0.7,0.7,1.3,0.9c0.3,0.1,1.3,0.4,3,0.9
		c2.4,0.6,4,1.1,4.9,1.5c0.9,0.4,1.7,1,2.2,1.8c0.5,0.8,0.8,1.7,0.8,2.9c0,1.1-0.3,2.2-1,3.1c-0.7,1-1.6,1.7-2.8,2.3
		c-1.2,0.5-2.6,0.8-4.2,0.8c-2.6,0-4.5-0.5-5.9-1.6C243.9,10.9,243.1,9.3,242.7,7.2z"/>
	<path class="st1" d="M270.3,10.1l0.5,3c-0.9,0.2-1.8,0.3-2.5,0.3c-1.2,0-2.2-0.2-2.8-0.6s-1.1-0.9-1.4-1.5
		c-0.3-0.6-0.4-1.9-0.4-3.9V-4h-2.4v-2.6h2.4v-4.9l3.3-2v6.9h3.4V-4H267V7.5c0,1,0.1,1.6,0.2,1.8c0.1,0.3,0.3,0.5,0.6,0.6
		c0.3,0.2,0.6,0.2,1.1,0.2C269.2,10.2,269.7,10.2,270.3,10.1z"/>
	<path class="st1" d="M304,3.6l3.6,0.9c-0.8,3-2.1,5.2-4.1,6.8c-2,1.6-4.4,2.3-7.2,2.3c-2.9,0-5.3-0.6-7.2-1.8
		c-1.8-1.2-3.2-2.9-4.2-5.2c-1-2.3-1.4-4.7-1.4-7.3c0-2.8,0.5-5.3,1.6-7.4c1.1-2.1,2.6-3.7,4.6-4.8c2-1.1,4.2-1.6,6.6-1.6
		c2.7,0,5,0.7,6.9,2.1c1.9,1.4,3.1,3.3,3.9,5.8l-3.5,0.8c-0.6-2-1.5-3.4-2.7-4.3c-1.2-0.9-2.7-1.4-4.5-1.4c-2.1,0-3.8,0.5-5.2,1.5
		c-1.4,1-2.4,2.3-3,4c-0.6,1.7-0.9,3.4-0.9,5.2c0,2.3,0.3,4.3,1,6.1c0.7,1.7,1.7,3,3.1,3.9c1.4,0.9,3,1.3,4.6,1.3
		c2,0,3.7-0.6,5.1-1.7C302.5,7.6,303.5,5.9,304,3.6z"/>
	<path class="st1" d="M324.4,10.7c-1.2,1.1-2.4,1.8-3.6,2.2c-1.1,0.4-2.4,0.6-3.7,0.6c-2.2,0-3.8-0.5-5-1.6
		c-1.2-1.1-1.7-2.4-1.7-4.1c0-1,0.2-1.8,0.7-2.6c0.4-0.8,1-1.4,1.7-1.9c0.7-0.5,1.5-0.8,2.4-1.1c0.7-0.2,1.6-0.3,3-0.5
		c2.7-0.3,4.7-0.7,6-1.2c0-0.5,0-0.7,0-0.9c0-1.4-0.3-2.3-0.9-2.9c-0.9-0.8-2.1-1.1-3.8-1.1c-1.6,0-2.7,0.3-3.5,0.8
		c-0.7,0.6-1.3,1.5-1.7,2.9L311-1c0.3-1.4,0.8-2.5,1.5-3.4c0.7-0.9,1.7-1.5,3-2c1.3-0.5,2.8-0.7,4.5-0.7c1.7,0,3,0.2,4.1,0.6
		c1.1,0.4,1.8,0.9,2.3,1.5c0.5,0.6,0.8,1.4,1,2.3c0.1,0.6,0.2,1.6,0.2,3.1v4.5c0,3.1,0.1,5.1,0.2,5.9c0.1,0.8,0.4,1.6,0.8,2.4h-3.5
		C324.8,12.4,324.5,11.6,324.4,10.7z M324.2,3.2c-1.2,0.5-3,0.9-5.5,1.3c-1.4,0.2-2.3,0.4-2.9,0.7c-0.6,0.2-1,0.6-1.3,1.1
		c-0.3,0.5-0.5,1-0.5,1.6c0,0.9,0.3,1.6,1,2.2c0.7,0.6,1.7,0.9,3,0.9c1.3,0,2.4-0.3,3.4-0.8c1-0.6,1.7-1.3,2.2-2.3
		c0.4-0.8,0.5-1.9,0.5-3.3V3.2z"/>
	<path class="st1" d="M346.2,6.8l3.5,0.4c-0.5,2-1.6,3.6-3,4.7c-1.5,1.1-3.4,1.7-5.6,1.7c-2.9,0-5.2-0.9-6.9-2.7
		c-1.7-1.8-2.5-4.3-2.5-7.5c0-3.3,0.9-5.9,2.6-7.7c1.7-1.8,3.9-2.7,6.6-2.7c2.6,0,4.8,0.9,6.5,2.7c1.7,1.8,2.5,4.3,2.5,7.6
		c0,0.2,0,0.5,0,0.9h-14.7c0.1,2.2,0.7,3.8,1.8,5c1.1,1.2,2.5,1.7,4.1,1.7c1.2,0,2.3-0.3,3.1-1C345,9.2,345.7,8.2,346.2,6.8z
		 M335.2,1.4h11c-0.1-1.7-0.6-2.9-1.3-3.7c-1.1-1.3-2.4-1.9-4.1-1.9c-1.5,0-2.8,0.5-3.9,1.5C335.9-1.7,335.3-0.4,335.2,1.4z"/>
	<path class="st1" d="M352.5,7.2l3.3-0.5c0.2,1.3,0.7,2.3,1.5,3c0.8,0.7,2,1.1,3.6,1.1c1.5,0,2.7-0.3,3.4-0.9
		c0.7-0.6,1.1-1.4,1.1-2.2c0-0.8-0.3-1.3-1-1.8c-0.5-0.3-1.6-0.7-3.4-1.1c-2.4-0.6-4.1-1.2-5.1-1.6c-0.9-0.5-1.7-1.1-2.2-1.9
		c-0.5-0.8-0.7-1.7-0.7-2.6c0-0.9,0.2-1.7,0.6-2.4c0.4-0.7,0.9-1.4,1.6-1.9c0.5-0.4,1.2-0.7,2.1-1c0.9-0.3,1.9-0.4,2.9-0.4
		c1.5,0,2.9,0.2,4.1,0.7c1.2,0.4,2,1,2.6,1.8s0.9,1.8,1.2,3.1l-3.3,0.4c-0.1-1-0.6-1.8-1.3-2.4c-0.7-0.6-1.7-0.9-3-0.9
		c-1.5,0-2.6,0.3-3.3,0.8c-0.7,0.5-1,1.1-1,1.8c0,0.4,0.1,0.8,0.4,1.2c0.3,0.4,0.7,0.7,1.3,0.9c0.3,0.1,1.3,0.4,3,0.9
		c2.4,0.6,4,1.1,4.9,1.5c0.9,0.4,1.7,1,2.2,1.8c0.5,0.8,0.8,1.7,0.8,2.9c0,1.1-0.3,2.2-1,3.1c-0.7,1-1.6,1.7-2.8,2.3
		c-1.2,0.5-2.6,0.8-4.2,0.8c-2.6,0-4.5-0.5-5.9-1.6C353.7,10.9,352.9,9.3,352.5,7.2z"/>
	<path class="st1" d="M385.7,10.7c-1.2,1.1-2.4,1.8-3.6,2.2c-1.1,0.4-2.4,0.6-3.7,0.6c-2.2,0-3.8-0.5-5-1.6
		c-1.2-1.1-1.7-2.4-1.7-4.1c0-1,0.2-1.8,0.7-2.6c0.4-0.8,1-1.4,1.7-1.9c0.7-0.5,1.5-0.8,2.4-1.1c0.7-0.2,1.6-0.3,3-0.5
		c2.7-0.3,4.7-0.7,6-1.2c0-0.5,0-0.7,0-0.9c0-1.4-0.3-2.3-0.9-2.9c-0.9-0.8-2.1-1.1-3.8-1.1c-1.6,0-2.7,0.3-3.5,0.8
		c-0.7,0.6-1.3,1.5-1.7,2.9L372.3-1c0.3-1.4,0.8-2.5,1.5-3.4c0.7-0.9,1.7-1.5,3-2c1.3-0.5,2.8-0.7,4.5-0.7c1.7,0,3,0.2,4.1,0.6
		c1.1,0.4,1.8,0.9,2.3,1.5c0.5,0.6,0.8,1.4,1,2.3c0.1,0.6,0.2,1.6,0.2,3.1v4.5c0,3.1,0.1,5.1,0.2,5.9c0.1,0.8,0.4,1.6,0.8,2.4h-3.5
		C386,12.4,385.8,11.6,385.7,10.7z M385.4,3.2c-1.2,0.5-3,0.9-5.5,1.3c-1.4,0.2-2.3,0.4-2.9,0.7c-0.6,0.2-1,0.6-1.3,1.1
		c-0.3,0.5-0.5,1-0.5,1.6c0,0.9,0.3,1.6,1,2.2c0.7,0.6,1.7,0.9,3,0.9c1.3,0,2.4-0.3,3.4-0.8c1-0.6,1.7-1.3,2.2-2.3
		c0.4-0.8,0.5-1.9,0.5-3.3V3.2z"/>
	<path class="st1" d="M393.9,13.1V-6.6h3v3c0.8-1.4,1.5-2.3,2.1-2.8c0.7-0.4,1.4-0.7,2.1-0.7c1.1,0,2.3,0.4,3.4,1.1l-1.2,3.1
		c-0.8-0.5-1.6-0.7-2.4-0.7c-0.7,0-1.4,0.2-2,0.7c-0.6,0.4-1,1-1.2,1.8c-0.4,1.2-0.6,2.5-0.6,3.9v10.3H393.9z"/>
</g>
</svg>
