<svg id="Layer_1" data-name="Layer 1" xmlns="http://www.w3.org/2000/svg" viewBox="0 0 1182.12 177.17"><defs><style>.cls-1{fill:#fff;}</style></defs><title>thermodo.com</title><path class="cls-1" d="M1041.35,442.91H960.19q-3.85,0-3.84-3.85V305q0-3.85,3.84-3.85h81.16c12.53,0,34,7.54,34,32.63v76.47C1075.4,423.32,1065.46,442.91,1041.35,442.91ZM992,408.49h47.58V335.6H992v72.89Z" transform="translate(-117.6 -265.75)"/><path class="cls-1" d="M222.08,301.18a3.8,3.8,0,0,1,3.85,3.85v30.31a3.81,3.81,0,0,1-3.85,3.85H193.33a3.89,3.89,0,0,0-2.73,1,3.39,3.39,0,0,0-1.11,2.63v96.23a3.93,3.93,0,0,1-1,2.74,3.4,3.4,0,0,1-2.63,1.11H157.69a3.8,3.8,0,0,1-3.85-3.85V342.83a3.47,3.47,0,0,0-3.65-3.64H121.45a3.81,3.81,0,0,1-3.85-3.85V305q0-3.85,3.85-3.85H222.08Z" transform="translate(-117.6 -265.75)"/><path class="cls-1" d="M353.78,301.18a3.8,3.8,0,0,1,3.84,3.85v134a3.8,3.8,0,0,1-3.84,3.85H325.63a3.81,3.81,0,0,1-3.85-3.85V392.3a3.48,3.48,0,0,0-3.64-3.65H278.05a3.92,3.92,0,0,0-2.73,1,3.39,3.39,0,0,0-1.11,2.63v46.77q0,3.85-3.85,3.85H242.42q-3.85,0-3.85-3.85V305q0-3.85,3.85-3.85h27.94q3.84,0,3.85,3.85v45.35q0,3.85,3.85,3.84h40.09a3.38,3.38,0,0,0,2.63-1.11,3.88,3.88,0,0,0,1-2.73V305a3.81,3.81,0,0,1,3.85-3.85h28.15Z" transform="translate(-117.6 -265.75)"/><path class="cls-1" d="M484.14,439.06a3.8,3.8,0,0,1-3.85,3.85H379.67q-3.85,0-3.85-3.85V305a3.8,3.8,0,0,1,3.85-3.85H480.29a3.81,3.81,0,0,1,3.85,3.85v25.51a3.38,3.38,0,0,1-1.12,2.63,3.89,3.89,0,0,1-2.73,1H412.46a0.9,0.9,0,0,0-1,1v22.07a0.82,0.82,0,0,0,1,.81h57.91a3.41,3.41,0,0,1,2.63,1.11,4,4,0,0,1,1,2.74v20.24a3.93,3.93,0,0,1-1,2.74,3.4,3.4,0,0,1-2.63,1.11H412.46a0.9,0.9,0,0,0-1,1V408.9a0.9,0.9,0,0,0,1,1h67.83a3.81,3.81,0,0,1,3.85,3.84v25.31Z" transform="translate(-117.6 -265.75)"/><path class="cls-1" d="M624.12,439.67a2.14,2.14,0,0,1,.2,2.33,2.47,2.47,0,0,1-2.23.91H589.9a6.5,6.5,0,0,1-3.24-.91,6.11,6.11,0,0,1-2.43-2.33l-21.46-38.46a1.46,1.46,0,0,0-1.41-.82h-24.1a0.9,0.9,0,0,0-1,1v37.66q0,3.85-3.85,3.85H504.46q-3.85,0-3.85-3.85V305q0-3.85,3.85-3.85H596a22.59,22.59,0,0,1,9.21,1.92,23.81,23.81,0,0,1,12.55,12.56,22.53,22.53,0,0,1,1.93,9.21v53.25a23.42,23.42,0,0,1-16.2,22.27l-0.61.21c-0.95.27-1.15,0.68-.61,1.22l0.2,0.4ZM583.83,334.18H535v34.42h48.79V334.18Z" transform="translate(-117.6 -265.75)"/><path class="cls-1" d="M798.31,301.18a4.9,4.9,0,0,1,2.13,1.42,3.48,3.48,0,0,1,.91,2.43v134a3.8,3.8,0,0,1-3.85,3.85H770.37a3.39,3.39,0,0,1-2.63-1.11,3.9,3.9,0,0,1-1-2.74V368l-29.36,71.47a6.12,6.12,0,0,1-5.26,3.44H708.62a5.58,5.58,0,0,1-3.14-1,5.52,5.52,0,0,1-2.12-2.43L674.2,368v71.06q0,3.85-3.85,3.85H643.42q-3.85,0-3.85-3.85V305a3.45,3.45,0,0,1,1.82-3.24,2.5,2.5,0,0,1,1.82-.61h30.37a5.61,5.61,0,0,1,3.14,1,5.69,5.69,0,0,1,2.13,2.43l41.5,95,41.51-95a6.12,6.12,0,0,1,5.26-3.44h31.18Z" transform="translate(-117.6 -265.75)"/><path class="cls-1" d="M914.92,301.18a22.58,22.58,0,0,1,9.21,1.92,23.81,23.81,0,0,1,12.55,12.56,22.59,22.59,0,0,1,1.92,9.21v94.35a22.6,22.6,0,0,1-1.92,9.21,25.91,25.91,0,0,1-5.06,7.59,22.35,22.35,0,0,1-7.49,5.06,23.68,23.68,0,0,1-9.21,1.82H843.25a23.66,23.66,0,0,1-9.21-1.82,23.56,23.56,0,0,1-14.48-21.87V324.87a23.59,23.59,0,0,1,1.82-9.21,22.24,22.24,0,0,1,5.06-7.49A25.74,25.74,0,0,1,834,303.1a22.56,22.56,0,0,1,9.21-1.92h71.67ZM902.78,335.6H855.2v72.89h47.58V335.6Z" transform="translate(-117.6 -265.75)"/><path class="cls-1" d="M1187,301.18a22.58,22.58,0,0,1,9.21,1.92,23.81,23.81,0,0,1,12.55,12.56,22.53,22.53,0,0,1,1.93,9.21v94.35a22.54,22.54,0,0,1-1.93,9.21,25.76,25.76,0,0,1-5.06,7.59,22.36,22.36,0,0,1-7.49,5.06,23.68,23.68,0,0,1-9.21,1.82h-71.67a23.69,23.69,0,0,1-9.21-1.82,23.56,23.56,0,0,1-14.48-21.87V324.87a23.59,23.59,0,0,1,1.82-9.21,22.32,22.32,0,0,1,5.06-7.49,25.74,25.74,0,0,1,7.59-5.07,22.59,22.59,0,0,1,9.21-1.92H1187Zm-12.15,34.42h-47.58v72.89h47.58V335.6Z" transform="translate(-117.6 -265.75)"/><path class="cls-1" d="M1264.29,336.61a35.43,35.43,0,1,1,35.43-35.43A35.48,35.48,0,0,1,1264.29,336.61Zm0-50.91a15.48,15.48,0,1,0,15.48,15.48A15.5,15.5,0,0,0,1264.29,285.7Z" transform="translate(-117.6 -265.75)"/></svg>