<?xml version="1.0" encoding="utf-8"?>
<!-- Generator: Adobe Illustrator 18.1.1, SVG Export Plug-In . SVG Version: 6.00 Build 0)  -->
<!DOCTYPE svg PUBLIC "-//W3C//DTD SVG 1.1//EN" "http://www.w3.org/Graphics/SVG/1.1/DTD/svg11.dtd">
<svg version="1.1" id="Layer_2" xmlns="http://www.w3.org/2000/svg" xmlns:xlink="http://www.w3.org/1999/xlink" x="0px" y="0px"
	 viewBox="-292 370 1334 342" enable-background="new -292 370 1334 342" xml:space="preserve">
<g>
	<g>
		<g>
			
				<linearGradient id="SVGID_1_" gradientUnits="userSpaceOnUse" x1="-523.2202" y1="416.2501" x2="-523.2202" y2="349.8505" gradientTransform="matrix(5.1506 0 0 5.1506 2692.875 -1431.9388)">
				<stop  offset="0" style="stop-color:#528E44"/>
				<stop  offset="0.98" style="stop-color:#66A156"/>
				<stop  offset="1" style="stop-color:#7FB870"/>
			</linearGradient>
			<path fill="url(#SVGID_1_)" d="M288,597.1c0,29.4-23.7,52.5-52.5,52.5h-56.7l18.5,62.3l-93.2-62.3h-343.5
				c-28.8,0-52.5-23.7-52.5-52.5V422.5c0-28.8,23.7-52.5,52.5-52.5h474.4c29.4,0,52.5,23.7,52.5,52.5L288,597.1L288,597.1z"/>
		</g>
	</g>
	<g>
		<path fill="#FFFFFF" d="M-240.5,441.1c0-11.8,7.2-18.5,17.5-18.5c10.3,0,18,6.7,18,18.5v83.4c0,22.1,13.9,39.7,37.1,39.7
			c21.6,0,36.6-18.5,36.6-39.7v-83.4c0-11.8,7.7-18.5,18-18.5c10.3,0,18,6.7,18,18.5v85.5c0,40.2-33,70.6-72.6,70.6
			c-40.2,0-72.6-29.9-72.6-70.6L-240.5,441.1L-240.5,441.1z"/>
		<path fill="#FFFFFF" d="M-1.5,504.4c-6.7,0-19.6-10.3-30.9-10.3c-6.2,0-11.8,3.1-11.8,9.8c0,16,59.7,13.9,59.7,53.1
			c0,23.2-19.6,40.7-48.9,40.7c-19.6,0-47.9-10.8-47.9-26.8c0-5.2,5.2-15.5,14.9-15.5c13.4,0,19.6,11.8,35.5,11.8
			c10.3,0,13.4-3.6,13.4-9.8c0-16-59.7-13.4-59.7-53.1c0-23.7,19.6-40.2,46.9-40.2c17,0,43.3,7.7,43.3,24.7
			C12.9,496.7,6.7,504.4-1.5,504.4z"/>
		<path fill="#FFFFFF" d="M61.8,542c2.6,17,16.5,24.7,32.4,24.7c17.5,0,29.9-13.9,39.1-13.9c7.2,0,13.9,7.2,13.9,14.9
			c0,14.9-30.9,29.4-56.1,29.4c-38.6,0-64.9-28.3-64.9-66.4c0-35,25.2-67,61.8-67c37.6,0,61.8,34,61.8,62.8
			c0,10.3-4.6,15.5-14.9,15.5H61.8L61.8,542z M115.9,519.4c-2.1-14.9-11.3-26.3-27.3-26.3c-15.5,0-25.8,11.8-27.3,26.3H115.9z"/>
		<path fill="#FFFFFF" d="M169,482.8c0-11.3,8.2-17,16.5-17c9.3,0,17,3.6,17,14.4h0.5c6.7-9.8,13.4-14.4,24.2-14.4
			c8.2,0,17,6.2,17,18.5c0,11.3-10.3,11.8-20.6,17c-10.3,4.6-20.6,9.3-20.6,23.2v53.1c0,11.3-7.2,19.1-17,19.1
			c-10.3,0-17-7.7-17-19.1L169,482.8L169,482.8z"/>
		<path fill="#FFFFFF" d="M352.9,457h-26.3c-11.3,0-16.5-8.2-16.5-16.5c0-8.2,6.2-16.5,16.5-16.5h88.1c10.3,0,16.5,8.2,16.5,16.5
			c0,8.2-4.6,16.5-16.5,16.5h-26.3v120c0,11.8-7.7,18.5-18,18.5c-10.3,0-18-6.7-18-18.5V457H352.9z"/>
		<path fill="#FFFFFF" d="M445,542c2.6,17,16.5,24.7,32.4,24.7c17.5,0,29.9-13.9,39.1-13.9c7.2,0,13.9,7.2,13.9,14.9
			c0,14.9-30.9,29.4-56.1,29.4c-38.6,0-64.9-28.3-64.9-66.4c0-35,25.2-67,61.8-67c37.6,0,61.8,34,61.8,62.8
			c0,10.3-4.6,15.5-14.9,15.5H445L445,542z M499.1,519.4c-2.1-14.9-11.3-26.3-27.3-26.3c-15.5,0-25.8,11.8-27.3,26.3H499.1z"/>
		<path fill="#FFFFFF" d="M624.3,504.4c-6.7,0-19.6-10.3-30.9-10.3c-6.2,0-11.8,3.1-11.8,9.8c0,16,59.7,13.9,59.7,53.1
			c0,23.2-19.6,40.7-48.9,40.7c-19.6,0-47.9-10.8-47.9-26.8c0-5.2,5.2-15.5,14.9-15.5c13.4,0,19.6,11.8,35.5,11.8
			c10.3,0,13.4-3.6,13.4-9.8c0-16-59.7-13.4-59.7-53.1c0-23.7,19.6-40.2,46.9-40.2c17,0,43.3,7.7,43.3,24.7
			C638.7,496.7,632.5,504.4,624.3,504.4z"/>
		<path fill="#FFFFFF" d="M668.6,497.2h-7.7c-9.3,0-14.9-5.7-14.9-14.9c0-8.8,6.7-14.9,14.9-14.9h7.7v-20.6c0-11.3,7.2-19.1,17-19.1
			c10.3,0,17,7.7,17,19.1v20.6h9.8c8.8,0,16.5,4.1,16.5,14.9c0,10.8-7.7,14.9-16.5,14.9h-9.8v79.3c0,11.3-7.2,19.1-17,19.1
			c-10.3,0-17-7.7-17-19.1V497.2z"/>
		<path fill="#FFFFFF" d="M776.7,432.8c0,10.8-8.8,20.1-19.6,20.1c-10.3,0-19.6-9.3-19.6-20.1c0-9.8,9.3-19.1,19.6-19.1
			S776.7,422.5,776.7,432.8z M740.2,484.9c0-11.3,7.2-19.1,17-19.1c10.3,0,17,7.7,17,19.1v92.2c0,11.3-7.2,19.1-17,19.1
			c-10.3,0-17-7.7-17-19.1V484.9z"/>
		<path fill="#FFFFFF" d="M792.2,484.9c0-11.3,7.2-19.1,17-19.1c8.8,0,14.4,4.6,16,12.9c6.7-9.3,17-13.9,33.5-13.9
			c27.3,0,47.4,17,47.4,46.4v65.9c0,11.3-7.2,19.1-17,19.1c-10.3,0-17-7.7-17-19.1v-60.8c0-16-10.3-23.7-22.7-23.7
			c-13.9,0-22.1,10.3-22.1,23.7v60.3c0,11.3-7.2,19.1-17,19.1c-10.3,0-17-7.7-17-19.1v-91.7L792.2,484.9L792.2,484.9z"/>
		<path fill="#FFFFFF" d="M1042,584.3c0,41.2-27.3,62.3-66.4,62.3c-13.9,0-54.6-6.7-54.6-25.8c0-6.7,7.2-14.9,13.9-14.9
			c10.8,0,23.2,10.8,43.3,10.8c17,0,29.4-9.8,29.4-27.3v-8.2h-0.5c-7.2,10.3-19.1,16.5-34.5,16.5c-36.1,0-53.1-31.9-53.1-65.9
			c0-34.5,22.1-67,56.7-67c11.8,0,25.2,5.2,31.4,16c2.1-9.3,7.7-14.4,17-14.4c10.3,0,17,7.7,17,19.1v98.9L1042,584.3L1042,584.3z
			 M980.2,495.7c-18,0-26.8,18.5-26.8,34.5c0,18.5,8.8,35,26.8,35c18.5,0,27.3-17,27.3-34C1007.5,514.7,999.2,495.7,980.2,495.7z"/>
	</g>
</g>
<g>
	<path fill="#FFFFFF" d="M1051.3,484.3v-16h-5.7v-3.1h14.4v3.1h-5.7v16H1051.3z"/>
	<path fill="#FFFFFF" d="M1079.1,484.3v-13.9l-5.7,13.9h-1.5l-5.7-13.9v13.9h-3.1v-18.5h4.6l5.2,12.4l5.2-12.4h4.6v18.5H1079.1z"/>
</g>
</svg>
