<?xml version="1.0" encoding="utf-8"?>
<!-- Generator: Adobe Illustrator 19.1.0, SVG Export Plug-In . SVG Version: 6.00 Build 0)  -->
<!DOCTYPE svg PUBLIC "-//W3C//DTD SVG 1.1//EN" "http://www.w3.org/Graphics/SVG/1.1/DTD/svg11.dtd">
<svg version="1.1" id="Motion_Start_Point" xmlns="http://www.w3.org/2000/svg" xmlns:xlink="http://www.w3.org/1999/xlink" x="0px"
	 y="0px" viewBox="478 29.8 1915.6 502.2" style="enable-background:new 478 29.8 1915.6 502.2;" xml:space="preserve">
<style type="text/css">
	.st0{fill:none;stroke:#000000;stroke-miterlimit:10;}
	.st1{fill:none;stroke:#000000;stroke-linejoin:bevel;stroke-miterlimit:10;}
</style>
<g>
	<path class="st0" d="M1568.7,215.7c0,0,28.9-10.1,104.2-11.3c64.8-1,704-12,704-12s-5.5,13.5-9.1,17.5c5,3.8,7.2,6.6,5.6,24.7
		s-14.9,13-14.3,16.7c1.2,7.3,15.6,29.8,14.3,58.6c-1.3,30-15.1,28.9-14.3,47.9c0.7,16.5,22,37.4,33.6,65.6"/>
	<path class="st0" d="M616.7,193.7c48.2-19.6,121.4-20.6,121.4-20.6l3.6-2.7l-11.1-2.1v-4.5l3.9-3.6l40.4-2.6l5.1,4.5l3-0.6l1.2,3.6
		l79.1-5.3v3.6c0,0,135.2-6.8,185.8-6.8L1224,50.7c32.9-27.8,450.1-33.7,583.4,29.5c0,0,1.3,8.4-22.2,7.4
		c0.2,1.6,80.7,59.2,80.7,59.2l314.7-7.1v6.6h15.6l-12.5,20.4l2.3,14.8l17.7,8l148.3-1.9v6.1"/>
	<path class="st0" d="M1033.4,158.8c-73.5,56.5,135,50.8,345.9,44.8c267.1-7.5,646,16.6,502-44.6c-7.8-7.4-15.4-12.2-15.4-12.2"/>
	<path class="st0" d="M1039.2,158.8c-49.2,38.6,37.9,35,135.1,39.5c30.7,1.4,11.1-43.4,10.7-79.3c-0.2-21.3,25.8-37,25.8-37
		s-1.1-8.1,2.8-24.9"/>
	<path class="st0" d="M616.7,193.7l-6.9,6.6c0,0-13.6,2.2-25.7,9c-65.8-6-75.9,10.1-43.6,14.4c0.8,2.1-79.1,24.7-16,32.1
		c0.2,2-34.4,14.1-7.2,68.2c4.1,0.8,11.4,2.3,11.4,2.3l-18.2,10.9l-0.5,4.4c-1.7-1.5-63.4,26.4-8.1,44.4c2.6,9.5,15.9,60.2,31.7,63
		c15.7,2.8,82.4,3.3,88.5,3.8c20.7-104.3,13.1-136,126.2-138.5c144.3-3.2,208.6,134,247.1,137.2c26.5,0.2,743.7,3.6,755.2,3.6
		c2.5-5,13.7-19.6,31.3-19.5c88,0.4,279.7-2.4,331-6.4c38.3,0,280.5-5.9,280.5-5.9"/>
	<line class="st0" x1="593" y1="209.3" x2="1135.1" y2="213.9"/>
	<path class="st0" d="M509.4,241.9c0,0,260.8,3.8,563.3,8.6"/>
	<path class="st0" d="M526.2,295.9c414.2,8.6,1081.9,7.6,1466.1,33.8c297.5,20.3,408.4,103.8,128.2,93.6"/>
	<line class="st0" x1="1554.2" y1="290.2" x2="2373.1" y2="297.3"/>
	<path class="st0" d="M880.9,355.7c11.4,18.2,18,39.8,18,62.9c0,81.2-53.1,112.2-118.6,112.2s-118.6-32.7-118.6-112.2
		c0-44,23.9-82.3,59.4-102.8"/>
	<path class="st0" d="M1989.1,433.5c-6.1,70.3-56.6,97.6-118,97.6c-56.6,0-104-24.5-115.8-82.5"/>
	<path class="st0" d="M1207.2,207.2c-4.9-46.6-11.6-79.1-7.9-99.1c8.6-46,175.6-34.5,585.9-20.6"/>
	<path class="st0" d="M1790.6,92c-48.1,12.3-139.7-5.6-135.7,3.9c5.8,13.9,32.9,41.7,44.3,59.4c16.6,25.7,28.4,40.8,45.4,39.7
		s225,11.4,137-33.8"/>
	<line class="st0" x1="1617" y1="81.6" x2="1702.2" y2="204.4"/>
	<path class="st0" d="M772.3,335.8c-50.3,0.1-91.1,40.1-91.1,89.3c0,49.3,40.9,89.3,91.3,89.3s91.3-40,91.3-89.3
		s-40.8-89.3-91.2-89.3"/>
	<path class="st0" d="M773.3,356.5c-37.2,0.2-67.3,30.9-67.3,68.7c0,37.9,30.3,68.7,67.7,68.7c37.4,0,67.7-30.7,67.7-68.7
		c0-37.8-30.1-68.5-67.4-68.7"/>
	<path class="st0" d="M775.1,370.4c-31,0.1-56,24.3-56,54.1c0,29.9,25.2,54.1,56.3,54.1s56.3-24.2,56.3-54.1
		c0-29.8-25.1-54-56.1-54.1"/>
	<path class="st0" d="M1783.2,435.6c4.5,42.8,39.7,76.9,85.3,76.9c46.7,0,88.5-30.3,96.2-78.5"/>
	<path class="st0" d="M1801.5,435.7c9.6,29.7,36.9,53.4,69.8,53.4c33.1,0,59.7-24.6,69.2-54.6"/>
	<path class="st0" d="M1811.7,435.7c9.2,23.7,33.6,43.2,60.5,43.2c27.1,0,48.6-19.7,57.6-43.7"/>
	<path class="st0" d="M1123,206.5c-1.4,18.4-33.1,8-35.2,55.7c-2.2,49.6-5,148.7,4.4,189.8"/>
	<path class="st0" d="M1088.6,429.4c0,0,281.6,1.5,316.8,1.5c28.6,0,39.4-13.8,40.3-29.5c0.5-8.4-4.5-140.6-5.4-159.5
		c-0.9-18.6-3.5-38-3.5-38"/>
	<path class="st0" d="M1445.7,397.9c0,0,2.9,33.6,50.6,34.3c57.1,0.9,227-0.8,227-0.8c1.1-15.8,5.5-32.6,25.4-53.5
		c0.6-21.5,1.4-64,1.4-63.5c0-0.3,0.3-11.9,0.6-21.4c0.3-9.1,0.4-18.8,0.4-18.8s-0.1-23.8-1.5-43.1c-1.4-18.6-2-27.2-2-27.2"/>
	<path class="st1" d="M1369,235.4c0,0-9.5,0.9-8.4,2.8c1.1,1.9,7.2,5.6,7.2,5.6l3-1.4l35.1,0.8c0,0,2.7,9.6,11.9,9.6
		c9.3,0,10.3-9.1,10.3-9.1s-2.5-7.6-12.3-7.1c-9.8,0.4-4.6,2.2-4.6,2.2l-40.8-1.4L1369,235.4z"/>
	<path class="st0" d="M1418.2,242.9c0,0-5.8,1.2-5.4,2.2c0.4,1,1.8,5,5.9,4.1c4.1-0.9,5.1-3.1,5.1-3.1L1418.2,242.9z"/>
	<path class="st1" d="M1679.5,238.9c0,0-9.5,0.9-8.4,2.8c1.1,1.9,7.2,5.6,7.2,5.6l3-1.4l35.1,0.8c0,0,2.7,9.6,11.9,9.6
		c9.3,0,10.3-9.1,10.3-9.1s-2.5-7.6-12.3-7.1c-9.8,0.4-4.6,2.2-4.6,2.2l-40.8-1.4L1679.5,238.9z"/>
	<path class="st0" d="M1728.7,246.4c0,0-5.8,1.2-5.4,2.2s1.8,5,5.9,4.1s5.1-3.1,5.1-3.1L1728.7,246.4z"/>
	<path class="st0" d="M1416.4,255.4c3,0.1,5.5,2.4,5.5,5.4s-2.5,5.4-5.6,5.4s-5.6-2.4-5.6-5.4c0-2.9,2.4-5.3,5.5-5.4"/>
	<line class="st1" x1="1416.3" y1="258.1" x2="1416.3" y2="263.3"/>
	<path class="st0" d="M1730.9,455c9.2-61.1,32.5-164.9,403.8-26.2"/>
	<path class="st0" d="M510.5,337.3c54.6,1.3,109.9-3.8,135.6,16.4"/>
	<path class="st0" d="M510,341.7l2.3,3.6V356c0,0,112.7-1.1,126.9,16.4"/>
	<polyline class="st0" points="2373.5,304.2 2288.7,304.2 2286.6,329.6 2341.1,424.6 	"/>
	<path class="st0" d="M2283.3,296.5l-2.9,34.3l52.6,86.7c0,0,4.4,7.1-7.8,7.4"/>
	<path class="st0" d="M1879.7,157.4c151.1,4.1,243.3,14.2,319.2,38"/>
</g>
</svg>
