<?xml version="1.0" encoding="utf-8"?>
<!-- Generator: Adobe Illustrator 19.1.0, SVG Export Plug-In . SVG Version: 6.00 Build 0)  -->
<!DOCTYPE svg PUBLIC "-//W3C//DTD SVG 1.1//EN" "http://www.w3.org/Graphics/SVG/1.1/DTD/svg11.dtd">
<svg version="1.1" id="Non-Expanded_copy" xmlns="http://www.w3.org/2000/svg" xmlns:xlink="http://www.w3.org/1999/xlink" x="0px"
	 y="0px" viewBox="0 0 590 232.2" style="enable-background:new 0 0 590 232.2;" xml:space="preserve">
<style type="text/css">
	.st0{fill:none;stroke:#000000;stroke-miterlimit:10;}
</style>
<path class="st0" d="M5.9,173.5h64.5v18.2H5.9V173.5z"/>
<path class="st0" d="M520.5,115.9H585v18.2h-64.5V115.9z"/>
<path class="st0" d="M435.2,116.3h64.5v18.2h-64.5V116.3z"/>
<path class="st0" d="M435.4,80.1h64.5v18.2h-64.5V80.1z"/>
<path class="st0" d="M435.4,151.9h64.5v18.2h-64.5V151.9z"/>
<path class="st0" d="M435.4,188h64.5v18.2h-64.5V188z"/>
<path class="st0" d="M348.8,119.4h64.5v18.2h-64.5V119.4z"/>
<path class="st0" d="M263.2,116.3h64.5v18.2h-64.5V116.3z"/>
<path class="st0" d="M263.9,165.8h64.5V184h-64.5V165.8z"/>
<path class="st0" d="M349.6,57.1H414v18.2h-64.5V57.1z"/>
<path class="st0" d="M264.2,75.6h64.5v18.2h-64.5V75.6z"/>
<path class="st0" d="M178.2,75.3h64.5v18.2h-64.5V75.3z"/>
<path class="st0" d="M177.8,113.8h64.5V132h-64.5V113.8z"/>
<path class="st0" d="M92.3,39.4h64.5v18.2H92.3V39.4z"/>
<path class="st0" d="M92.3,75.4h64.5v18.2H92.3V75.4z"/>
<path class="st0" d="M6.2,2.9h64.5v18.2H6.2V2.9z"/>
<path class="st0" d="M6.2,39.2h64.5v18.2H6.2V39.2z"/>
<path class="st0" d="M6.2,88.9h64.5v18.2H6.2V88.9z"/>
<path class="st0" d="M6.2,125.1h64.5v18.2H6.2V125.1z"/>
<path class="st0" d="M5.9,209.8h64.5V228H5.9V209.8z"/>
<path class="st0" d="M92.6,125.4h64.5v18.2H92.6V125.4z"/>
<path class="st0" d="M92.3,160h64.5v18.2H92.3V160z"/>
<path class="st0" d="M92.3,196h64.5v18.2H92.3V196z"/>
<path class="st0" d="M178.2,199.4h64.5v18.2h-64.5V199.4z"/>
<path class="st0" d="M348.9,155.6h64.5v18.2h-64.5V155.6z"/>
<path class="st0" d="M349.9,184h64.5v18.2h-64.5V184z"/>
<polyline class="st0" points="520.4,125.4 510.2,125.4 510.2,89.1 499.9,89.1 "/>
<polyline class="st0" points="499.4,125.4 510.2,125.4 510.2,197.1 499.8,197.1 "/>
<line class="st0" x1="510.2" y1="161" x2="499.9" y2="161"/>
<polyline class="st0" points="435.4,91.2 423.8,91.2 423.8,66.2 414,66.2 "/>
<polyline class="st0" points="423.8,91.2 423.8,128.6 413.2,128.6 "/>
<polyline class="st0" points="423.8,128.6 423.8,164.7 413.4,164.7 "/>
<line class="st0" x1="435.4" y1="193.1" x2="414.4" y2="193.1"/>
<path class="st0" d="M424.9,193.1"/>
<line class="st0" x1="348.8" y1="125.4" x2="327.7" y2="125.4"/>
<polyline class="st0" points="338.2,125.4 338.2,174.9 328.3,174.9 "/>
<polyline class="st0" points="349.6,65.7 338.7,65.7 338.7,84.7 328.7,84.7 "/>
<polyline class="st0" points="263.9,174.9 252.5,174.9 252.5,122.9 242.3,122.9 "/>
<polyline class="st0" points="252.5,174.9 252.5,208.5 242.6,208.5 "/>
<polyline class="st0" points="178.2,84.7 167.4,84.7 167.4,48.5 156.7,48.5 "/>
<polyline class="st0" points="156.7,84.7 167.4,84.7 167.4,134.5 157.1,134.5 "/>
<polyline class="st0" points="167.4,134.5 167.4,169.1 156.7,169.1 "/>
<polyline class="st0" points="167.4,169.1 167.4,205.1 156.7,205.1 "/>
<polyline class="st0" points="92.3,169.5 81.1,169.5 81.1,182.6 70.4,182.6 "/>
<polyline class="st0" points="81.1,182.6 81.1,218.9 70.4,218.9 "/>
<polyline class="st0" points="92.3,48.3 81.2,48.3 81.2,12 70.7,12 "/>
<polyline class="st0" points="70.7,48.3 81.2,48.3 81.2,98 70.7,98 "/>
<polyline class="st0" points="81.2,98 81.2,134.2 70.7,134.2 "/>
<line class="st0" x1="264.2" y1="84.7" x2="242.6" y2="84.7"/>
</svg>
