<?xml version="1.0" encoding="utf-8"?>
<!-- Generator: Adobe Illustrator 19.1.0, SVG Export Plug-In . SVG Version: 6.00 Build 0)  -->
<!DOCTYPE svg PUBLIC "-//W3C//DTD SVG 1.1//EN" "http://www.w3.org/Graphics/SVG/1.1/DTD/svg11.dtd">
<svg version="1.1" id="Layer_2" xmlns="http://www.w3.org/2000/svg" xmlns:xlink="http://www.w3.org/1999/xlink" x="0px" y="0px"
	 viewBox="0 0 1920 1080" style="enable-background:new 0 0 1920 1080;" xml:space="preserve">
<style type="text/css">
	.st0{fill:none;stroke:#000000;stroke-width:2;stroke-miterlimit:10;}
</style>
<path id="XMLID_1_" class="st0" d="M1867.7,826.4L1818,44c-1-16.5-18.2-28.5-34.5-25.8L687.1,201.7c-16.5,2.8-28.6,17.1-28.5,33.8
	l2,642.1c0,15.9,13.2,28.5,29.1,28l1143.7-42.1C1853.4,862.7,1869,846.5,1867.7,826.4z"/>
<path id="XMLID_2_" class="st0" d="M1002.5,1080c0,0-3.5-7.1,3.8-7.9c7.2-0.8,135.4-15.2,135.4-15.2c27-2.9,40.4-25.1,39.2-52.3
	l-5-116.6"/>
<path id="XMLID_7_" class="st0" d="M1289.8,1080l9.2-0.7l124.5-8.8c20.8-1.3,25.7-36.7,20.8-56.5L1410,879.6"/>
<path id="XMLID_9_" class="st0" d="M1833.3,863.4l19.2-0.3c12.6-0.2,26.6-17.2,26-29.8l-50.7-779.6c-1-15.6-13.5-33.9-38.1-35.7"/>
<polygon id="XMLID_8_" class="st0" points="1807,793 1763,79.7 704.3,247.7 707,845.7 "/>
<polyline id="XMLID_6_" class="st0" points="0,277.3 216,231 192,822 0,838.4 "/>
<polyline id="XMLID_10_" class="st0" points="192,822 230,825 251,242 216,231 "/>
<line id="XMLID_11_" class="st0" x1="0" y1="844.7" x2="230" y2="825"/>
<polyline id="XMLID_12_" class="st0" points="0,297.9 194,258.3 177,799 0,815 "/>
<path id="XMLID_4_" class="st0" d="M658.9,338.7L365,387c0,0-9,141-11,211s-4,238.8-4,238.8l310.3-19.3"/>
</svg>
