<?xml version="1.0" encoding="utf-8"?>
<!-- Generator: Adobe Illustrator 19.0.0, SVG Export Plug-In . SVG Version: 6.00 Build 0)  -->
<!DOCTYPE svg PUBLIC "-//W3C//DTD SVG 1.1//EN" "http://www.w3.org/Graphics/SVG/1.1/DTD/svg11.dtd">
<svg version="1.1" id="Layer_2" xmlns="http://www.w3.org/2000/svg" xmlns:xlink="http://www.w3.org/1999/xlink" x="0px" y="0px"
	 viewBox="0 0 1920 1080" style="enable-background:new 0 0 1920 1080;" xml:space="preserve">
<style type="text/css">
	.st0{fill:none;stroke:#000000;stroke-width:1.5317;stroke-miterlimit:10;}
	.st1{fill:none;stroke:#000000;stroke-width:1.9317;stroke-miterlimit:10;}
</style>
<path class="st0" d="M214.3,190.2L510.7,130c29.8-2.6,59.3,13.3,65.5,43.3L660.6,568l67.9,316c8.3,30.6-11.7,64.2-33.4,69.6
	l-314.1,77.2c-27.3,6.7-54.6-10.7-60-38.3c0,0-36.8-192.1-52.4-267.9c-15.7-75.8-42.1-214.9-42.1-214.9l-1.5-2.6l-10.7-54.7l0.3-3.5
	l-2.7-13.6l-2.6-2.9L198.8,378l1.3-3.7l-7.6-38.6l-2.5-2.4l-5.5-28l1.4-3.1l-10.5-53.8C170.2,221.6,187.6,195.6,214.3,190.2z"/>
<path class="st0" d="M352.6,1029.2c0,0,10.4,7.8,37.4,3c12.3-2.2,196.4-45.3,296-69.1c35.1-8.4,57.1-43.1,49.6-78.4
	c0,0-55.6-252.8-77.6-367.3s-73.1-345.7-73.1-345.7c-6.1-29-33.8-48.1-63.1-43.5l-12,2"/>
<polygon class="st0" points="200,290 330,937 701.5,848.5 567,217 "/>
<line class="st0" x1="271.5" y1="645" x2="640.7" y2="563"/>
<line class="st0" x1="441.1" y1="607.3" x2="499.5" y2="896.6"/>
<line class="st0" x1="605.3" y1="570.8" x2="664.8" y2="857.2"/>
<line class="st0" x1="298" y1="703" x2="379" y2="684.5"/>
<line class="st0" x1="308.5" y1="754.5" x2="441.1" y2="724.5"/>
<line class="st0" x1="309.9" y1="768" x2="435.8" y2="739.5"/>
<line class="st0" x1="311.3" y1="781.5" x2="408.4" y2="759.5"/>
<polygon class="st0" points="286.5,651 294.8,690.5 334.5,682 326.2,642.5 "/>
<line class="st0" x1="456.1" y1="617.5" x2="587.2" y2="588.8"/>
<polygon class="st0" points="457.5,626.2 462.2,650.2 487.8,644.5 483,620.2 "/>
<line class="st0" x1="465.7" y1="666.5" x2="542.3" y2="648.7"/>
<polygon class="st0" points="480,741.7 499.5,836 641.7,803.7 622.7,709.7 "/>
<line class="st0" x1="507.3" y1="845.7" x2="565" y2="832.7"/>
<line class="st0" x1="630.3" y1="629.2" x2="653.7" y2="624.3"/>
<line class="st0" x1="640.7" y1="680.3" x2="664.8" y2="674.8"/>
<line class="st0" x1="644.2" y1="691.5" x2="667" y2="686.3"/>
<line class="st0" x1="646.5" y1="703.2" x2="669.5" y2="698.1"/>
<line class="st0" x1="649.3" y1="714" x2="671.8" y2="708.9"/>
<polyline class="st0" points="642.9,573.2 618.8,578.3 626.3,616.7 651,611.5 "/>
<line class="st0" x1="230" y1="316.8" x2="330" y2="297"/>
<line class="st0" x1="236.3" y1="345.6" x2="324" y2="329"/>
<line class="st0" x1="1206.1" y1="346.8" x2="1192.5" y2="359"/>
<path class="st0" d="M1330.9,491.9c0,0-64.6,49.1-67.2,54.4c-2.7,5.3-7.3,12.7-7.3,16.7s30.9,47.3,47.3,59.3
	c25.8,18.9,74.3,54.7,108.8,64.7"/>
<line class="st0" x1="1511" y1="386.9" x2="1432.7" y2="418.9"/>
<polyline class="st0" points="1603,507.8 1594.3,536.7 1585.5,550 "/>
<path class="st1" d="M1824.8,391.4c0,178-132.5,322.4-312.1,322.4c-150.7,0-325.1-144.3-325.1-322.4S1281,60.1,1512.7,60.1
	C1691.2,60.1,1824.8,233,1824.8,391.4z"/>
<path class="st0" d="M1506.2,714.1c-58.1,1.6-124.4-5.1-182.5-5.1c-119.5,0-256.6-109.7-256.6-250.9c0-89.6,29.8-171.4,98.7-219.1
	c36-37.4,138.6-135.4,207.7-155.9"/>
<path class="st0" d="M1362.6,86.9l-20-26.8c0,0-156.8,134.3-227.6,172.9S855.1,427.6,855.1,427.6S1050,693,1077,737
	s177.1,218.6,177.1,218.6l296.6-244"/>
<path class="st0" d="M1474,223.5c-37.3-42.5-74.6-83.6-78.5-88.5c-7.5-9.5-16.5-39-16.5-39"/>
<path class="st0" d="M1601.8,693.8c0,0,7.8-10.8,21.2-21.8s109.6-89.9,109.6-89.9S1660,502.5,1617.5,453
	c-35.1-40.9-57.6-121.4-66.8-136.5"/>
<path class="st0" d="M1301.7,290c0,0,41.9,83.2,43.6,91.7c1.7,8.5,39,82,39,82c3.4,7.3-0.9,15.8-8.8,17.3l-79.1,15.1
	c-12,2.3-34-3.1-39.3-14.1l-54.1-124.5c-3.6-7.4,4.8-12.1,11.5-17l75.8-55.9C1294,281.8,1299.6,285.6,1301.7,290z"/>
<path class="st0" d="M1222.5,334.6c0,0-1.5-16.6,21.5-28.6c18.4-9.6,84.8-56.7,110-73.4c5.4-3.6,12.6-1.7,15.6,4
	c0,0,36.2,65.8,41.7,81c8.7,24.1,35.7,69.3,35.7,69.3c4.5,8.5,4.7,20.1-3.5,25.2l-64.5,40.4"/>
<path class="st0" d="M1358,230.8l141.5-9.3c4.5-0.2,27.1,13.4,29,17.5l26.4,49.5c5.2,10.9,4.8,19.8-4.2,28c0,0-35,25.7-46.7,37
	s-60.5,58.6-60.5,58.6"/>
<path class="st0" d="M1281.4,551.9c0,0,159.3-110.3,173.8-125c14.5-14.8,51-36.7,51-36.7c4.8-3.5,7.4-5.8,11.1-1.1l85.7,118.8
	l-12.6,13.8c-3.5,3.8-5.4,8.8-5.3,14l0.3,14.5l-173,137c0,0-89-48.5-101.5-66c-8.5-11.9-26.6-37.2-33.7-51
	C1274.1,563.8,1275.8,556.1,1281.4,551.9z"/>
<line class="st0" x1="1226.5" y1="517.5" x2="1375.4" y2="481"/>
<path class="st0" d="M1202,520.5l-72.5,13c0,0-19.5-36-22-56s-5.5-57-3.5-58.5s78-52,78-52"/>
</svg>
