<?xml version="1.0" encoding="utf-8"?>
<!-- Generator: Adobe Illustrator 19.1.0, SVG Export Plug-In . SVG Version: 6.00 Build 0)  -->
<!DOCTYPE svg PUBLIC "-//W3C//DTD SVG 1.1//EN" "http://www.w3.org/Graphics/SVG/1.1/DTD/svg11.dtd">
<svg version="1.1" id="Layer_2" xmlns="http://www.w3.org/2000/svg" xmlns:xlink="http://www.w3.org/1999/xlink" x="0px" y="0px"
	 viewBox="0 0 590 332" style="enable-background:new 0 0 590 332;" xml:space="preserve">
<style type="text/css">
	.st0{fill:none;stroke:#000000;stroke-width:1.1352;stroke-miterlimit:10;}
</style>
<path class="st0" d="M373.3,133.4c0,0,4.2-16.4,3.5-20.9s-0.3-11.9-5.2-13.3c-4.9-1.4-7.3-0.7-10.1-1.7c-2.8-1-9.4-4.2-14.3-3.8
	s-13.3,1.7-16.7,3.8c-3.5,2.1-5.9,7.3-6.3,9.4c-0.3,2.1-0.3,7.7,0,10.8c0.3,3.1-1.9,8.4-0.3,13.3c1.7,4.9,5.1,5.6,7.2,6.6
	c2.1,1,7.3,3.1,9.8,3.1s4.2-5.6,7.7-5.2c3.5,0.3,8.4,0.3,10.5-0.3c2.1-0.7,5.2-4.2,7.3-3.8S373.3,133.4,373.3,133.4z"/>
<path class="st0" d="M476.6,134.7c0,0-4.2-10.1-3.1-12.9c1-2.8,5.9-7,9.8-7.7c3.8-0.7,3.5-6.3,7-7c3.5-0.7,17.8-0.3,23.4,2.1
	c5.6,2.4,12.2,6,13.6,11.5c1.4,5.6,2.1,10.8,0,18.8c-2.1,8-4.5,14.3-10.5,15.3c-5.9,1-17.1-1.4-20.2-3.1
	C493.3,150.1,477.9,138.1,476.6,134.7z"/>
<path class="st0" d="M429.8,32.2c0,0-4.5,3.1-8,4.5c-3.5,1.4-14,2.4-19.5,9.4S396,63.6,396,63.6s-1,23.4,0,24.8
	c1,1.4,3.1,3.1,3.1,3.1s-1.4,2.8,3.1,4.9c4.5,2.1,9.7,0.3,10.4,0c0.8-0.3,6-2.1,7.4-1s5.2,1.7,7.3,2.1c2.1,0.4,9.4-2.1,10.5-2.1
	c1,0,5.6,0.7,7,0c1.4-0.7,9.1-0.4,10.5-1.8c1.4-1.4,6.6-8.3,6.3-11.1c-0.3-2.8-1.7-9.1,0-10.8s0-9.4,0-9.4s-2.1-3.5-2.1-4.5
	c0-1-2.4-8-3.5-9.1c-1-1-5.9-6.6-7.7-7c-1.7-0.3-10.1,0.3-13.3-0.3"/>
<path class="st0" d="M395.5,52.4c0,0-8.6,3.1-8.3,5.6c0.3,2.4,2.1,5.2,2.4,6.8s1.3,5.8,1.7,7.1c0.4,1.4,4.1,1.4,4.1,1.4"/>
<path class="st0" d="M464,67.8c0,0-1.4-4.2,0-4.9s5.6-0.3,5.9,1.9c0.3,2.3,1.4,6.8,0,8.5s-0.6,3.5-2.9,4.9s-5.4,4.2-5.4,4.2
	s0-7.3,0-9.1C461.6,71.6,464,67.8,464,67.8z"/>
<path class="st0" d="M419.7,118.7c-0.3-1.7-5.2-4.2-7.3-4.2c-2.1,0-5.9-1-7-1.7c-1-0.7-5.2-4.5-8-5.9c-2.8-1.4-4.2-2.1-6-3.9
	c-1.8-1.7,0.8-5.9,0-8c-0.8-2.1-4.1,1.4-5.9,2.4c-1.7,1.1-8.6,5.6-8.6,5.6"/>
<path class="st0" d="M405.1,156.7c-1.3-2.1-5.5-10.5-6.8-14s-0.5-10.2,0-11.7c0.5-1.5-0.8-6.4,0-7.1c0.8-0.7,5-2.4,10.3-3.5
	c5.2-1,21.3-1,27.6,2.4s8.4,5.2,8,8.2s2.5,8.2,0,12.1s-4.2,8-4.2,10.1c0,2.1-0.3,6.3-0.3,6.3s-4.5,1.7-7.7,3.1
	c-3.1,1.4-14,2.1-17.1,1.7C411.7,164,407.3,160.2,405.1,156.7z"/>
<path class="st0" d="M485.7,108.6c0,0-7.7,1-12.4,0c-4.7-1-10.9-7-10.9-7l-0.8,5.3c0,0-14.3,6.6-16.4,9c-2.1,2.4-10.5-1.7-11.5,0
	c-1,1.7-12.3,3.9-12.3,3.9"/>
<path class="st0" d="M387.3,170.3c0,0,2.8,7.7,2.1,10.5s-2.5,4.2-2.1,6.3c0.4,2.1,10.5,14,12.9,14c2.4,0,17.3,1,21.2,0
	c3.9-1,21.7-3.5,22.4-5.2c0.7-1.7,9.7-17.1,9.7-21.6"/>
<path class="st0" d="M399.8,170.3c0,0,2.8,5.6,2.8,8.4c0,2.8,2.4,9.8,3.8,10.8c1.4,1,7,5.6,10.1,5.6c3.1,0,11.5-3.8,12.4-4.2
	c0.9-0.3,4.7-1.7,6.1-1.4s5.9-0.9,6.3-3.6s2.1-17.8,3.8-21.4"/>
<path class="st0" d="M364.6,167.4c0,0-1.4-11,0-13.4c1.4-2.4,1.7-9.1,2.8-10.1c1-1-6.5-9.8-5.4-10.5"/>
<path class="st0" d="M337.1,140.7c0,0-2.8,8.4-2.8,11.9"/>
<path class="st0" d="M323.3,208.7c0,0,2.3,0.7,5.1,0c2.8-0.7,3.8-1.5,5.9,0.3s23.4-1,25.5-2.8c2.1-1.7,6.8,1.4,7.8,0
	c0.9-1.4,2.9-33,0-35.9c-2.9-3-17.4,2.4-17.4,2.4s-4.7-1.1-5.7-3.3c-1-2.3-7-12.2-10.1-14.2c-3.1-2-7-5.7-9.4-4.9
	c-2.4,0.8-7,15.8-7.3,20C317.2,174.5,321.4,205.6,323.3,208.7z"/>
<path class="st0" d="M361.9,207.7c0,0,1.7,1,1.5,3.5c-0.2,2.4,1.9,12.6,1.3,13.6c-0.6,1-7.8,1.9-9.3,0.9c-1.6-1-3.3-6.5-3.7-7.8
	c-0.3-1.4-0.3-4.2-1.6-4s-3.1,2.8-2.6,4.5c0.5,1.7,2.2,6.1,2.6,8.5s2,11.9,0,12.2s-7.1,0.9-8.1,0s-1.9-3.5-2.8-3.5
	c-0.9,0-7,0.9-7.3-0.2c-0.3-1-4-7.9-4.9-11.8c-0.9-3.9-4.4-9.7-4.7-12.8"/>
<path class="st0" d="M404.9,158.3c0,0-0.5,1.2-3.3,1.9c-2.8,0.7-6.6,4.9-8.4,5.1c-1.7,0.2-12-3.8-13.3-5.1
	c-1.2-1.2-11.7-9.5-12.5-12.2"/>
<path class="st0" d="M378.9,106.5c0,0,1.9,4.7,1.2,6.6c-0.7,1.9-1.1,4.9-0.5,5.6c0.5,0.7,8.2,4.7,10.3,5.2c2.1,0.5,5.5,0.9,6.8,1.2"
	/>
<path class="st0" d="M445.2,127.6c0,0,4.2-2.6,6.8-2.4c2.6,0.2,9.4,0.3,10.4,1.2s6.2,2.4,7.2,2.3s3.7-0.7,3.7-0.7"/>
<path class="st0" d="M478.3,139.5c0,0-3,6.1-3,8.5c0,2.4-2.3,5.7-3.1,7.2c-0.9,1.5-3.5,7.8-5.4,7.8c-1.9,0-9.4-0.7-11,0
	c-1.6,0.7-4.4,2.6-5.8,2.3c-1.4-0.4-3.5-3.7-4.9-4.5c-1.4-0.9-5.5-2.1-5.5-2.1"/>
<path class="st0" d="M484.3,144.7c0,0-1,4-1,5.6c0,1.7,1,8,1,9.4c0,1.4-0.2,16.4-0.5,17.1"/>
<path class="st0" d="M507.1,151.3c0,0,2.8,4.4,2.8,5.3s1.9,5.7,2.6,6.5c0.7,0.9,2.3,4.2,2.3,4.2"/>
<path class="st0" d="M489,211c0,0-4.2-0.7-5.8,0s-4.5,4-8,2.6c-3.5-1.4-3.5-8.5-3.5-8.5s-0.9-8-0.9-8.5s3.3-11.2,4.4-13.1
	s6.5-9.6,7.2-9.2s4.5,2.8,4.9,4c0.3,1.2,0.7,4,1.7,4c1,0,4.7-0.3,4.9-2.4c0.2-2.1,0.5-7.2,1.6-7.5c1-0.3,5.6-1.7,6.8-1.9
	c1.2-0.2,2.3-4.7,3.7-5.1c1.4-0.4,7.7-0.9,10.3,3c2.6,3.8,2.1,10.1,2.1,10.1s2.3,4.1,2.3,7.6s0.3,18.4,0,19.3s-6.3,0.9-8.2,2.4
	c-1.9,1.6-5.8,6.1-6.5,6.3s-5.1,2.6-7.7,1.2c-2.6-1.4-1.6-3-1.6-3"/>
<path class="st0" d="M479.6,210.8l-4.2,9.4c0,0-4.7,3.8-4.5,5.4c0.2,1.6-0.2,4.4,1.4,4.9c1.6,0.5,3.8,1.7,6.1,1.6s4.7-3.5,4.9-4.2
	c0.2-0.7,0-4.9,1-4.3s2.1,2.6,1.4,4.1c-0.7,1.6-4.2,12-4.2,12.9c0,0.9,0.9,2.6,1.7,2.6s5.4,0.7,6.6,1.2s4.2,2.4,5.1,2.4
	c0.9,0,4.5-1.4,6-1.6s6.6,0,6.2-0.7s2.3-4.5,2.1-6.5c-0.2-1.9,2.4-13.5,2.4-14.6"/>
<path class="st0" d="M479.7,217.2c0,0-0.7,1.2,4.5,2.1c5.2,0.9,12,1,14,1.2c1.9,0.2,7.8,2.1,9.8,1.9s4.9-0.3,5.6-1.2
	c0.7-0.9,6.4-13.3,6.3-14.5"/>
<path class="st0" d="M456.2,160.7c0,0,2.5,7,2.8,8.7c0.3,1.7,0.9,2.8,0.2,4.7c-0.6,1.9-4.9,5.4-5.7,7.8c-0.8,2.4,0,3.9,0,3.9"/>
<path class="st0" d="M392.3,228.1c0,0,1.2,0.3,3.2,0c2-0.3,5.2-2.1,6.9-1.9c1.7,0.2,4.7,2.8,4.2,4.4c-0.5,1.6-2.6,5.6-3,6.8
	c-0.3,1.2,0.9,4.2-1.2,4.4c-2.1,0.2-4.8-0.8-6.9-2.1c-2.2-1.3-7.6-6.8-7.7-9.7c-0.2-3,6-6.7,7.7-6.2c1.7,0.5,1.4-9.7,1.7-11.9
	c0.3-2.3,4-10.6,4-10.6"/>
<path class="st0" d="M410,239.5c0,0,2.6-0.7,2.6-3.3s0.3-16.7,0-18.1c-0.3-1.4-0.7-1.9-0.7-3.5s0.3,0,0.9-5.1
	c0.5-5.1,1.1-8.1,1.1-8.1"/>
<path class="st0" d="M425.8,231.6c0-1.2-1.2-11.5,0-14.5s3.6-11,3.1-12.6c-0.5-1.6-0.8-4.8-0.8-4.8"/>
<path class="st0" d="M438,197.8c0,0,1.2,6.5,1.7,9c0.5,2.4,0,20.2,0,20.2"/>
<path class="st0" d="M427.2,241c-0.5-0.2-3.4-3.1-3.4-4.7c0-1.6,1.5-5.9,5.3-6.5s10.4-4.2,12.5-2.8c2.1,1.4,4.6,11.6,3.7,12.5
	c-0.9,0.9-2.3,1.4-5.3,1.4S429.5,241.8,427.2,241z"/>
<path class="st0" d="M376.9,269.9c0,0,0.3-8.4,2-10.1c1.7-1.7,8.1-10.5,8.3-12c0.2-1.6,2.2-9.8,2.5-10.5c0.3-0.7,1.6-1.6,1.6-1.6"/>
<path class="st0" d="M404.9,235.7c0,0,0.3,2.8,1.8,4.9c1.5,2.1,5.2,7.8,5.2,12.2c0,4.4,3.5,13.8,3.5,15.7s1.2,22.8,0,23.9
	c-1.2,1-3.5,1-3.5,1"/>
<path class="st0" d="M370.7,284.8c0,0,0.7-1.6,4.9-1c4.2,0.5,11.3,0.2,12.2,0.5c0.9,0.2,10.5-1.2,10.5-1.2l7.3,0.9c0,0-7-4.7-8-5.2
	c-0.9-0.5-1.8-3.8-3.7-4.5c-1.9-0.7-19.5-1-21.8,0c-2.3,1-2.7,1-3.1,3.1c-0.4,2.1-0.7,5.6-1.5,6.5c-0.8,0.9-2.5,1.9-2.7,2.8
	c-0.2,0.9,0.7,5.9,0,7s-1.6,3.5-1.4,4.2c0.2,0.7,4.7,0.2,4.1,1.2s0.5,4,1.5,4c1,0,5.2,0.3,5.7,0c0.5-0.3,0.2-3.8,0.9-4.4
	c0.7-0.5,2.6-2.4,3.3-1.7s0.2,4.2,1.6,4.5s7.8,0.7,8.7,0.7c0.9,0,0.7-2.3,1.4-2.6c0.7-0.3,5.8-0.3,6.1,0.2c0.3,0.5,1.9,2.6,3.1,2.6
	c1.2,0,3.8-0.5,5.1-1.2s4.9-1.4,5.1-1.4c0.2,0,2.3-2.3,1.9-3.5c-0.3-1.2,1.2-6.1,0-6.6c-1.2-0.5-1.4-1.6-1.9-2.3
	c-0.5-0.7,2.1-2.6,1.9-3.5c-0.2-0.9-2.3-4.4-3-4.4"/>
<path class="st0" d="M419.7,291c0,0-1.7-7.7-1-8.7c0.7-1,4.2-3.7,3.8-5.4s-1.7-1.5-2-3.5c-0.3-2,2.5-6,2-7.7
	c-0.5-1.7-1.3-7.8-1.1-9.6c0.2-1.7,6-11.9,5.7-15.2"/>
<path class="st0" d="M455,273.5c0,0-4.2,1-6.1,1s-5.1-1.6-6.8-2.3c-1.7-0.7-5.9-1.6-7.5-1.6c-1.6,0-7.5,2.6-7.4,3.8
	c0.1,1.2,0.1,3.1,0,4.4s-4.5,6.1-4.6,7.3c-0.2,1.2-3.8,4.4-4,7.3c-0.2,3-1.6,6.5-0.9,7.2s8.9,3.3,9.5,3c0.6-0.3,0.9-4.7,1.8-5.1
	s5.8-2.3,7.2-1.4c1.5,0.9,1.3,4.4,1.8,5.1s9.1,1.9,9.3,0.9c0.2-1-0.3-4.7,0.7-5s3.3-0.7,3.5-0.2c0.2,0.5-0.9,4.5-0.2,5.2
	s2.6,1,3.7,0.6c1-0.4,5.6-4.9,5.9-6.3s-0.2-9,0-10.1"/>
<path class="st0" d="M444.5,241c0,0,0.7,3,0.9,5.9c0.2,3,1.2,8,1.2,8l3.8,11.1l7.8,14.9l2.6,7.8c0,0-2.6,1.2-3.5,2.3
	c-0.9,1-0.9,1-0.9,1s-10.8,0.5-12.9,0s-6.8-2.1-7.8-1.9c-1,0.2-4,0.3-5.9,0.9c-1.9,0.5-1.9,0.5-1.9,0.5l-5.4-4.3"/>
<path class="st0" d="M325.2,162.8c0,0-0.3,5.3,0,10.5c0.3,5.2,0.3,26.7,0,28.2"/>
<path class="st0" d="M334.3,157.4c0,0,2.3,10.7,1.4,15.9c-0.9,5.2,0.4,13.9-0.6,15c-1,1-1.3,8.5-0.8,11.4"/>
<path class="st0" d="M422.8,166.3c0,0,0.2,1.4,0.9,4c0.7,2.6,1.5,10.3,1.5,10.3s-2.6,8.7-2.4,9.7"/>
<path class="st0" d="M391.3,179.8c0,0,2.4,3.6,3.8,4.3s4.2,2,4.7,1.8c0.5-0.2,3.7-2.9,4.4-3"/>
<path class="st0" d="M439.9,179.9c0,0,3.6,2.8,5.5,2.3c1.9-0.5,3.7-2.1,5.9-1.1"/>
<path class="st0" d="M507.8,170.3c0,0-1,8.6,0,10.7c1,2.2,2.4,9.7,2.1,11.9s-1.5,5.1-1.3,6.7s1.3,5,1.3,5"/>
<path class="st0" d="M339.8,104.7c0,0-0.7-0.7-2.1,0c-1.4,0.7-2.8,0.2-3.7,2.1c-1,1.9-2.4,2.5-2,3.8s1.4,3.1,2.9,4.1
	c1.6,1,3,0.4,4,1s2.8,0.3,4.3,0s2.9-2.2,2.5-3.6s-0.3-1.9-2.3-3.3C341.6,107.5,339.8,104.7,339.8,104.7z"/>
<path class="st0" d="M410,59.2c0,0,1-3.3,2.8-3c1.7,0.3,3.1,1.5,3.1,1.5s1.2,1.8,0,2.5s-2.7,0.9-2.7,0.9s-1-0.9-1.3-1.2
	c-0.3-0.3,0.9-0.9,1.3-1.2c0.4-0.3,1.5,0,1.5,0"/>
<path class="st0" d="M411.9,62.9c0,0,0.2,4.5,0,6.6c-0.2,2.1-1.2,7.3-1,8.9c0.2,1.6,1.4,5.9,1.1,7.2"/>
<path class="st0" d="M417.3,75.3c0,0,0.2,1.7,0.9,1.7s2.5-1.2,4.7-0.9c2.1,0.3,5,2.6,6.2,2.3s2.2-3,3.1-4.2"/>
<path class="st0" d="M425.3,47.4c0,0,3.9-1,5.6,0c1.7,1,3,2.3,3.7,2.4"/>
<path class="st0" d="M438,49.8c2.5,2.1,5.6,4.7,5.6,4.7"/>
<path class="st0" d="M424.1,64.8c0,0-2.2,0.7-2.6,1.4c-0.5,0.7,0.8,1.6,1.1,1.7s0.8-0.3,1.5-1.6"/>
<path class="st0" d="M438,61.1c0,0-1.7,0.3-2.6,0c-0.9-0.3-1.6-1.9,0-1.9s4.7,1.4,5.4,1.9s1.8,3.3,0.9,3.7c-0.9,0.3-1.3,4.4-2,4.7
	c-0.8,0.3-4.7,0.9-5.1,1.4c-0.4,0.5-0.1-6.1-0.1-6.1"/>
<path class="st0" d="M443.6,58.7c0,0-1,4.2,0,6.1c1,1.9,6.6,7.7,7.7,8.5"/>
<path class="st0" d="M451.3,66c-0.9,1.9-3,9.1-3,9.1l-1.1,1.2v5.2L439,70.9"/>
<path class="st0" d="M31,279.4c35,0.6,32-4.4,47.9-4.4s62.1,3.8,68.8,4.4c6.8,0.6,70.7-0.6,73.8,0c3.1,0.6,4.9-6.3,8.6-6.9
	s12.3-3.8,12.3-3.8s4.9,3.9,6.1,5.1c1.2,1.2,22.7,5.7,22.7,5.7s36.7,5.3,53.7,5s33,0,33,0"/>
<path class="st0" d="M470.7,280.6c11.5,0,18.3-1.8,36.7,0c18.4,1.8,55.9,3.7,67,4"/>
</svg>
