<?xml version="1.0" encoding="utf-8"?>
<!-- Generator: Adobe Illustrator 19.1.0, SVG Export Plug-In . SVG Version: 6.00 Build 0)  -->
<svg version="1.1" id="Layer_1" xmlns="http://www.w3.org/2000/svg" xmlns:xlink="http://www.w3.org/1999/xlink" x="0px" y="0px"
	 viewBox="0 0 750 422" style="enable-background:new 0 0 750 422;" xml:space="preserve">
<style type="text/css">
	.st0{fill:none;stroke:#231F20;stroke-width:1.5317;stroke-miterlimit:10;}
	.st1{fill:none;stroke:#231F20;stroke-width:1.5317;stroke-linejoin:round;stroke-miterlimit:10;}
</style>
<path class="st0" d="M623.8,111.7l8.2,177.9c-1.2,17.6-13.1,33.3-31.1,34.2l-237.3,13.4l-190,10.9c-18.5,2.1-36.3-12.6-37.4-25.7
	l-16.4-189.7c-1.4-16.5,11.2-30.8,27.7-31.4c0,0,115.1-4,160.6-6.2c45.5-2.2,128.9-5,128.9-5l1.6-0.6l32.8-1.3l2,0.5l8.2-0.3
	l1.9-1.2l32.6-1.3l2,1.1l23.2-0.9l1.6-1.2l16.8-0.7l1.7,1.1l32.2-1.3C609.5,83.2,623,95.7,623.8,111.7z"/>
<path class="st0" d="M123.1,116.2c0,0-5.5,5.3-5.1,21.5c0.2,7.3,8.6,118.4,13.4,178.5c1.7,21.2,19.9,37.1,41.1,36
	c0,0,152.1-9.5,220.7-11.9S601,329,601,329c17.4-0.9,31-15.3,31-32.8l-0.1-7.2"/>
<polygon class="st0" points="567,94.3 178.8,111.4 196.6,335.5 576.2,314.5 "/>
<path class="st0" d="M368.3,326"/>
<path class="st0" d="M354,103.8"/>
<line class="st0" x1="568.2" y1="122.3" x2="180.8" y2="140.1"/>
<path class="st0" d="M194.9,313.4"/>
<path class="st0" d="M575.4,294.6"/>
<line class="st0" x1="307.8" y1="105.9" x2="320.9" y2="300.6"/>
<path class="st0" d="M353.1,298.5"/>
<path class="st0" d="M340.1,103.8"/>
<line class="st0" x1="555.7" y1="296.2" x2="556.1" y2="306.6"/>
<line class="st0" x1="561.5" y1="295.8" x2="561.9" y2="306.2"/>
<line class="st0" x1="575" y1="287.8" x2="194.5" y2="306.5"/>
<line class="st0" x1="438.6" y1="99.3" x2="448.6" y2="293.4"/>
<path class="st0" d="M476.6,293.4"/>
<path class="st0" d="M466.5,99.3"/>
<line class="st0" x1="427.2" y1="295" x2="428.6" y2="322.1"/>
<polygon class="st1" points="208.9,125.5 208.3,117.7 279.7,114.7 280.7,128 202.9,131.1 "/>
<polygon class="st1" points="232.6,320.4 231.9,312.2 353,306.4 354,319.8 226.5,326.8 "/>
<polygon class="st1" points="342.9,119.8 342.5,111.9 413.9,108.9 414.6,122.3 336.8,125.4 "/>
<polygon class="st1" points="346.2,221.9 345.1,202.3 416.5,199.3 417.9,224.4 340.1,227.8 "/>
<polygon class="st1" points="469.1,114 468.7,106.1 540.2,103.1 540.8,116.5 463,119.6 "/>
</svg>
