<?xml version="1.0" encoding="utf-8"?>
<!-- Generator: Adobe Illustrator 19.1.0, SVG Export Plug-In . SVG Version: 6.00 Build 0)  -->
<svg version="1.2" baseProfile="tiny" id="Layer_1" xmlns="http://www.w3.org/2000/svg" xmlns:xlink="http://www.w3.org/1999/xlink"
	 x="0px" y="0px" viewBox="0 0 750 422" xml:space="preserve">
<path fill="none" stroke="#231F20" stroke-width="1.5317" stroke-linecap="round" stroke-linejoin="round" stroke-miterlimit="10" d="
	M-77.9,95l8.2,177.9c-1.2,17.6-13.1,33.3-31.1,34.2l-237.3,13.4l-190,10.9c-18.5,2.1-36.3-12.6-37.4-25.7L-582,115.9
	c-1.4-16.5,11.2-30.8,27.7-31.4c0,0,115.1-4,160.6-6.2s128.9-5,128.9-5l1.6-0.6l32.8-1.3l2,0.5l8.2-0.3l1.9-1.2l32.6-1.3l2,1.1
	l23.2-0.9l1.6-1.2l16.8-0.7l1.7,1.1l32.2-1.3C-92.2,66.5-78.7,79-77.9,95z"/>
<path fill="none" stroke="#231F20" stroke-width="1.5317" stroke-linecap="round" stroke-linejoin="round" stroke-miterlimit="10" d="
	M-578.6,99.5c0,0-5.5,5.3-5.1,21.5c0.2,7.3,8.6,118.4,13.4,178.5c1.7,21.2,19.9,37.1,41.1,36c0,0,152.1-9.5,220.7-11.9
	c68.6-2.4,207.8-11.2,207.8-11.2c17.4-0.9,31-15.3,31-32.8l-0.1-7.2"/>
<polygon fill="none" stroke="#231F20" stroke-width="1.5317" stroke-linecap="round" stroke-linejoin="round" stroke-miterlimit="10" points="
	-134.7,77.7 -522.9,94.7 -505.1,318.9 -125.5,297.8 "/>
<path fill="none" stroke="#231F20" stroke-width="1.5317" stroke-linecap="round" stroke-linejoin="round" stroke-miterlimit="10" d="
	M-333.4,309.3"/>
<path fill="none" stroke="#231F20" stroke-width="1.5317" stroke-linecap="round" stroke-linejoin="round" stroke-miterlimit="10" d="
	M-347.7,87.1"/>
<line fill="none" stroke="#231F20" stroke-width="1.5317" stroke-linecap="round" stroke-linejoin="round" stroke-miterlimit="10" x1="-133.5" y1="105.7" x2="-520.9" y2="123.4"/>
<path fill="none" stroke="#231F20" stroke-width="1.5317" stroke-linecap="round" stroke-linejoin="round" stroke-miterlimit="10" d="
	M-506.8,296.7"/>
<path fill="none" stroke="#231F20" stroke-width="1.5317" stroke-linecap="round" stroke-linejoin="round" stroke-miterlimit="10" d="
	M-126.3,278"/>
<line fill="none" stroke="#231F20" stroke-width="1.5317" stroke-linecap="round" stroke-linejoin="round" stroke-miterlimit="10" x1="-393.9" y1="89.3" x2="-380.8" y2="284"/>
<path fill="none" stroke="#231F20" stroke-width="1.5317" stroke-linecap="round" stroke-linejoin="round" stroke-miterlimit="10" d="
	M-348.6,281.8"/>
<path fill="none" stroke="#231F20" stroke-width="1.5317" stroke-linecap="round" stroke-linejoin="round" stroke-miterlimit="10" d="
	M-361.6,87.1"/>
<line fill="none" stroke="#231F20" stroke-width="1.5317" stroke-linecap="round" stroke-linejoin="round" stroke-miterlimit="10" x1="-146" y1="279.5" x2="-145.6" y2="289.9"/>
<line fill="none" stroke="#231F20" stroke-width="1.5317" stroke-linecap="round" stroke-linejoin="round" stroke-miterlimit="10" x1="-140.2" y1="279.2" x2="-139.8" y2="289.6"/>
<line fill="none" stroke="#231F20" stroke-width="1.5317" stroke-linecap="round" stroke-linejoin="round" stroke-miterlimit="10" x1="-126.7" y1="271.1" x2="-507.2" y2="289.8"/>
<line fill="none" stroke="#231F20" stroke-width="1.5317" stroke-linecap="round" stroke-linejoin="round" stroke-miterlimit="10" x1="-263.1" y1="82.6" x2="-253.1" y2="276.8"/>
<path fill="none" stroke="#231F20" stroke-width="1.5317" stroke-linecap="round" stroke-linejoin="round" stroke-miterlimit="10" d="
	M-225.1,276.8"/>
<path fill="none" stroke="#231F20" stroke-width="1.5317" stroke-linecap="round" stroke-linejoin="round" stroke-miterlimit="10" d="
	M-235.2,82.6"/>
<line fill="none" stroke="#231F20" stroke-width="1.5317" stroke-linecap="round" stroke-linejoin="round" stroke-miterlimit="10" x1="-274.5" y1="278.4" x2="-273.1" y2="305.4"/>
<polygon fill="none" stroke="#231F20" stroke-width="1.5317" stroke-linecap="round" stroke-linejoin="round" stroke-miterlimit="10" points="
	-492.8,108.8 -493.4,101 -422,98 -421,111.3 -498.8,114.5 "/>
<polygon fill="none" stroke="#231F20" stroke-width="1.5317" stroke-linecap="round" stroke-linejoin="round" stroke-miterlimit="10" points="
	-469.1,303.7 -469.8,295.6 -348.7,289.7 -347.7,303.1 -475.2,310.1 "/>
<polygon fill="none" stroke="#231F20" stroke-width="1.5317" stroke-linecap="round" stroke-linejoin="round" stroke-miterlimit="10" points="
	-358.8,103.1 -359.2,95.3 -287.8,92.3 -287.1,105.6 -364.9,108.7 "/>
<polygon fill="none" stroke="#231F20" stroke-width="1.5317" stroke-linecap="round" stroke-linejoin="round" stroke-miterlimit="10" points="
	-355.5,205.2 -356.6,185.7 -285.2,182.7 -283.8,207.7 -361.6,211.1 "/>
<polygon fill="none" stroke="#231F20" stroke-width="1.5317" stroke-linecap="round" stroke-linejoin="round" stroke-miterlimit="10" points="
	-232.6,97.3 -233,89.5 -161.5,86.4 -160.9,99.8 -238.7,102.9 "/>
<path fill="none" stroke="#000000" stroke-width="1.5317" stroke-linecap="round" stroke-linejoin="round" stroke-miterlimit="10" d="
	M487.4,44.6L486.5,68l-1.5-0.1l-0.5,14.4l1.4,0l-0.7,18.3l-1.2,0l-1,26.9l1.2,0.1l-0.3,7.5l-1.3,0l-1,27.5l1.3,0l-7.6,204.7
	c-0.4,11.8,8.7,21.8,20.5,22.4l132.6,6.5c9.5,0.5,17.6-6.7,18.3-16.2l15.2-243l1.1,0.1l1.9-27l-1.4,0l3.6-56.9
	c0.9-12.9-8.9-24-21.8-24.7l-132.7-7.1C499.3,20.6,487.9,31.1,487.4,44.6z"/>
<polygon fill="none" stroke="#000000" stroke-width="1.5317" stroke-linecap="round" stroke-linejoin="round" stroke-miterlimit="10" points="
	495,65.3 484.1,347.9 640.4,356.3 657.2,73.4 "/>
<line fill="none" stroke="#000000" stroke-width="1.5317" stroke-linecap="round" stroke-linejoin="round" stroke-miterlimit="10" x1="490.1" y1="191.7" x2="649.7" y2="199.7"/>
<path fill="none" stroke="#000000" stroke-width="1.5317" stroke-linecap="round" stroke-linejoin="round" stroke-miterlimit="10" d="
	M497.8,196.3l66.7,3.2c1.8,0.1,3.1,1.6,3,3.4l-3.3,65.9c-0.1,1.8-1.6,3.1-3.4,3l-66.1-3.4c-1.8-0.1-3.1-1.6-3-3.3l2.7-65.7
	C494.5,197.6,496,196.2,497.8,196.3z"/>
<path fill="none" stroke="#000000" stroke-width="1.5317" stroke-linecap="round" stroke-linejoin="round" stroke-miterlimit="10" d="
	M494.8,272.5l66.1,3.4c1.8,0.1,3.1,1.6,3,3.4l-3.5,65c-0.1,1.8-1.6,3.1-3.4,3l-65.3-3.2c-1.8-0.1-3.1-1.6-3-3.3l2.8-65.2
	C491.5,273.8,493,272.4,494.8,272.5z"/>
<path fill="none" stroke="#000000" stroke-width="1.5317" stroke-linecap="round" stroke-linejoin="round" stroke-miterlimit="10" d="
	M574.8,200.2l66.7,3.2c1.8,0.1,3.1,1.6,3,3.4l-3.6,66.1c-0.1,1.8-1.6,3.1-3.4,3l-66.2-3.4c-1.8-0.1-3.1-1.6-3-3.3l3.1-66
	C571.5,201.4,573,200.1,574.8,200.2z"/>
<path fill="none" stroke="#000000" stroke-width="1.5317" stroke-linecap="round" stroke-linejoin="round" stroke-miterlimit="10" d="
	M571.3,276.4l65.9,3.5c1.8,0.1,3.1,1.6,3,3.4l-3.7,65.6c-0.1,1.8-1.6,3.1-3.4,3l-65.7-3.8c-1.8-0.1-3.1-1.6-3-3.3l3.4-65.2
	C568,277.7,569.5,276.3,571.3,276.4z"/>
<line fill="none" stroke="#000000" stroke-width="1.5317" stroke-linecap="round" stroke-linejoin="round" stroke-miterlimit="10" x1="490.9" y1="172.3" x2="650.8" y2="180.7"/>
<line fill="none" stroke="#000000" stroke-width="1.5317" stroke-linejoin="round" stroke-miterlimit="10" x1="494.7" y1="191.9" x2="495.5" y2="172.6"/>
<line fill="none" stroke="#000000" stroke-width="1.5317" stroke-linejoin="round" stroke-miterlimit="10" x1="500.8" y1="192.3" x2="501.7" y2="173"/>
<line fill="none" stroke="#000000" stroke-width="1.5317" stroke-linejoin="round" stroke-miterlimit="10" x1="505.5" y1="192.3" x2="506.3" y2="173"/>
<line fill="none" stroke="#000000" stroke-width="1.5317" stroke-linejoin="round" stroke-miterlimit="10" x1="519.6" y1="193.2" x2="520.4" y2="173.8"/>
<line fill="none" stroke="#000000" stroke-width="1.5317" stroke-linejoin="round" stroke-miterlimit="10" x1="526.5" y1="193.2" x2="527.4" y2="173.8"/>
<line fill="none" stroke="#000000" stroke-width="1.5317" stroke-linejoin="round" stroke-miterlimit="10" x1="535.7" y1="194.3" x2="536.5" y2="174.9"/>
<line fill="none" stroke="#000000" stroke-width="1.5317" stroke-linejoin="round" stroke-miterlimit="10" x1="544.5" y1="194.8" x2="545.3" y2="175.4"/>
<line fill="none" stroke="#000000" stroke-width="1.5317" stroke-linejoin="round" stroke-miterlimit="10" x1="612" y1="197.7" x2="612.8" y2="178.3"/>
<line fill="none" stroke="#000000" stroke-width="1.5317" stroke-linejoin="round" stroke-miterlimit="10" x1="623.7" y1="198.4" x2="624.6" y2="179.1"/>
<line fill="none" stroke="#000000" stroke-width="1.5317" stroke-linejoin="round" stroke-miterlimit="10" x1="575.5" y1="195.8" x2="576.3" y2="176.5"/>
<line fill="none" stroke="#000000" stroke-width="1.5317" stroke-linecap="round" stroke-linejoin="round" stroke-miterlimit="10" x1="493.9" y1="93.1" x2="655.5" y2="101.4"/>
<path fill="none" stroke="#000000" stroke-width="1.5317" stroke-linecap="round" stroke-linejoin="round" stroke-miterlimit="10" d="
	M515.8,102.6l-0.4,8.8c-0.1,1.2,0.9,2.2,2.1,2.3l112.4,5.9c1.2,0.1,2.3-0.9,2.3-2.1l0.3-8.8c0-1.2-0.9-2.2-2.1-2.3l-112.4-5.9
	C516.9,100.4,515.8,101.4,515.8,102.6z"/>
<path fill="none" stroke="#000000" stroke-width="1.5317" stroke-linecap="round" stroke-linejoin="round" stroke-miterlimit="10" d="
	M750,238c0,0-10-12-11-13.5s-6-13.5-9.5-15.7c-3.5-2.3-34-22.3-35-25.3c-1-3-10.1-29.2-14.2-32.8c-5.2-4.5-16.5,0.9-19.3,3.6"/>
<path fill="none" stroke="#000000" stroke-width="1.5317" stroke-linecap="round" stroke-linejoin="round" stroke-miterlimit="10" d="
	M657.4,212.5c0,0,5.5,16.7,9,20.8c3.5,4.2,9.5,10.5,14,14.5c-0.2,4.8,0.2,14,3.3,21.2c2.9,6.5,10.5,19,17.2,26.5
	c1,5.5,2.2,22.2,6.2,28.3"/>
<path fill="none" stroke="#000000" stroke-width="1.5317" stroke-linecap="round" stroke-linejoin="round" stroke-miterlimit="10" d="
	M701.8,302.2c0,0-6.8-1-10,1.5s-13.5,12.5-17.5,19"/>
<path fill="none" stroke="#000000" stroke-width="1.5317" stroke-linecap="round" stroke-linejoin="round" stroke-miterlimit="10" d="
	M652.7,287.3c0,0,0.3,2.3,3.6,5.4"/>
<line fill="none" stroke="#000000" stroke-width="1.5317" stroke-linecap="round" stroke-linejoin="round" stroke-miterlimit="10" x1="656.8" y1="221.8" x2="663.3" y2="228.1"/>
<path fill="none" stroke="#000000" stroke-width="1.5317" stroke-linecap="round" stroke-linejoin="round" stroke-miterlimit="10" d="
	M482,188.8c0,0-5.8-2.5-14.5,0c-8.8,2.5-14-1.3-21,13s1,24.8,4.8,27s12.4,7.9,17.6,9.9c5.8,2.1,6.9,2.1,11.2,2.1"/>
<path fill="none" stroke="#000000" stroke-width="1.5317" stroke-linecap="round" stroke-linejoin="round" stroke-miterlimit="10" d="
	M479.2,265c0,0-11,7.2-15.6,14.7c-4.6,4.4-19.8,8.9-21,19.1s-0.2,17.2,9.6,21.4s16.7,6.1,24.9,0.5"/>
<path fill="none" stroke="#000000" stroke-width="1.5317" stroke-linecap="round" stroke-linejoin="round" stroke-miterlimit="10" d="
	M476.9,328.5c0,0-9-1.4-19.4-2.1s-14.4-3.8-25,3.5s-8.8,21.9-5.1,26.4s2.8,6.6,12.6,10.2s13,6.8,31.6,7c3.8,1.1,5,1.9,5,1.9"/>
<path fill="none" stroke="#000000" stroke-width="1.5317" stroke-linecap="round" stroke-linejoin="round" stroke-miterlimit="10" d="
	M543.5,392.1c0,0,3.7,7.7,7.2,10.7c1.8,4.8,6.1,17.5,13.8,20.2"/>
<path fill="none" stroke="#000000" stroke-width="1.5317" stroke-linecap="round" stroke-linejoin="round" stroke-miterlimit="10" d="
	M676.9,265.7c0,0-15.1,14.4-22.4,30.6"/>
<path fill="none" stroke="#000000" stroke-width="1.5317" stroke-linecap="round" stroke-linejoin="round" stroke-miterlimit="10" d="
	M650.8,396.2c0,0,2.6,21.8,6.5,26.8"/>
<path fill="none" stroke="#000000" stroke-width="1.5317" stroke-linecap="round" stroke-linejoin="round" stroke-miterlimit="10" d="
	M564.6,45.2"/>
</svg>
