<?xml version="1.0" encoding="utf-8"?>
<!-- Generator: Adobe Illustrator 19.1.0, SVG Export Plug-In . SVG Version: 6.00 Build 0)  -->
<svg version="1.1" baseProfile="tiny" id="Layer_1" xmlns="http://www.w3.org/2000/svg" xmlns:xlink="http://www.w3.org/1999/xlink"
	 x="0px" y="0px" viewBox="0 0 750 395" xml:space="preserve">
<path id="XMLID_1_" fill="none" stroke="#000000" stroke-miterlimit="10" d="M428.3,11.9c0,0-50.3,3.4-69.9,2.6
	c-19.5-0.9-64.2-1.6-73.8-1.5c-9.5,0.2-76.4-2-86.8-1.6s-55.6,0.9-67.7,1.6C118,13.6,75,13.4,59,14.6S3.9,18.8,1.7,21
	s-0.9,10,0,13.9S3,44,5.2,45.3s11.7,2.2,16.1,2.2s30.4-2.6,36-2.2s13.5-0.9,21.3,0s26,0.4,34.3,2.2s63.4,9.5,75.1,9.5
	s53.8-1.7,72.5-3.5s76.4-10,91.1-12.6c14.8-2.6,81.6-10.9,91.1-12.6s62.9-11.3,70.7-13.5c7.8-2.2,30.8-3.6,39.5-3.5
	c8.7,0.1,36,1.4,44.3,2.7s21.3,2.2,31.2,0.9c10-1.3,24.3-2.4,33.4,1c10.1,3.7,27.3,14.6,29.5,18.3c2.2,3.7,17.8,19.8,22.1,26.3
	S733,85.2,733,88.7v7c0,0.4-0.5,0.5-0.7,0.2l-11.9-18c0,0-2.6-5.6-3.9-7.8c-1.3-2.2-11.7-13.1-14.3-15.9s-12.6-13.2-18.7-18
	c-6.1-4.8-14.3-10-20-12.6s-19.1-6.1-22.1-6.1s-19.1-0.4-25.6,0c-6.5,0.4-14.8,0.4-22.1-0.4c-7.4-0.9-23-3-29.1-3
	c-6.1,0-48.6,3.7-53.4,3.9s-12.8,0.1-12.8,0.1"/>
<path id="XMLID_5_" fill="none" stroke="#000000" stroke-miterlimit="10" d="M153.4,31.7c0,0,35.3,1.5,49.2,1.5s48.6-0.3,56.9-1.2"
	/>
<path id="XMLID_6_" fill="none" stroke="#000000" stroke-miterlimit="10" d="M460,25.2c0,0,12.6,0.4,30.2-0.2
	c17.6-0.6,51.5-2.9,59.9-2.6s29.5-0.6,38.2,0c8.7,0.6,28.6,1.5,37,1.3s9.3-2.2,23.1,1.5s24.9,12.8,24.9,12.8s23.7,17.6,27.5,23.4
	S713.3,80,715,83.8c1.7,3.8,6.7,9.8,6.9,11.6c0.3,1.7,3.5,15.6,6.4,17.4c2.9,1.7,6.4-1.4,7.2-1.4c0.9,0,4.1-0.3,4.1-0.3
	s2.6-4.3,2.6-8.7s-2-18.5-5.5-23.4c-3.5-4.9-25.8-29.8-28.6-33c-2.9-3.2-17.9-17.9-21.1-20.3s-17.1-11.3-21.7-12.7
	S643,9.7,633.2,9.7c-9.8,0-29.2-6.1-41.7-7.2c-12.4-1.2-42.5-2.6-63.9,0c-21.4,2.6-37.9,4.9-44,6.1c-6.1,1.2-9-0.3-14.5,0
	c-5.5,0.3-68.6,5.2-99,9.8S225.8,36,219.1,36s-31.5,0-41.4-1.2c-9.8-1.2-51.5-6.9-61.6-8.7c-10.1-1.7-37-6.1-48-5.5
	c-11,0.6-33,2.3-39.1,2.3s-22,0.4-23.1,0.3c-2.7-0.3-3.8,0.2-2.2-3.1"/>
<path id="XMLID_14_" fill="none" stroke="#000000" stroke-miterlimit="10" d="M732,112.9c0,0,2.4,15.9,2.1,17.5
	c-0.3,1.6-0.8,5.9,0,8.5c0.8,2.6,8.1,0.9,9.5,0c1.4-0.9-1-24.4-1.4-25c-0.4-0.6-1.6-3-2.6-2.9"/>
<path id="XMLID_7_" fill="none" stroke="#000000" stroke-miterlimit="10" d="M716.2,174.7c0.2,0.7,1.5,3.2,3.1,2.8
	c1.6-0.4,5.8-4.6,5.9-6.4c0.1-1.7,0.6-6.2,0-8c-0.6-1.7-2.7-3.9-2.7-3.9l1.7-36.2c0,0-0.6-3.6-2.9-3.2c-2.3,0.4-6.1,0.6-7.7,3.3
	c-1.6,2.7-2,4.5-2,4.5"/>
<path id="XMLID_8_" fill="none" stroke="#000000" stroke-miterlimit="10" d="M712.9,170.9c-0.1-1.3,2.5-8.8,2.5-9.6
	c0-0.7-1.7-14.9-2.3-19.7c-0.1-1,5.5-1.2,5.5-1.2"/>
<path id="XMLID_9_" fill="none" stroke="#000000" stroke-miterlimit="10" d="M718.5,170.6c0,0-7.7-1.2-9.5,5.6s0.1,11.6,2.6,13.6
	s3.3,2.9,5.6,2.7s5.9-1.4,6.9-3.6c1-2.2,1.3-3.9,2.7-4.6c1-0.5,1.7-0.6,2.5-0.6c1.4,0.1,1.6-0.5,1.7-1c0-0.5-0.6-1.1-1.5-1.2"/>
<path id="XMLID_11_" fill="none" stroke="#000000" stroke-miterlimit="10" d="M716.2,174.7c0,0,0.2-0.3,1.2-1.7s3.8-6.5,3.8-7.8
	c0-1.3-3.4-3.8-3.5-5.1c-0.1-1.3,2-36.2,1.4-37s-3.7-1.2-4.5-1"/>
<path id="XMLID_12_" fill="none" stroke="#000000" stroke-miterlimit="10" d="M716.3,128.8c0,0,1.7-5.4,2.7-5.6"/>
<path id="XMLID_10_" fill="none" stroke="#000000" stroke-miterlimit="10" d="M729.8,181.6c0,0-3.8-0.7-5.1,0c-1.6,1-2.8,1.6-4,3.4
	c-0.9,1.3-1.3,3-2.6,3.2c-1.3,0.1-4.8-0.2-5.9-3.4c-1.2-3.2-1-5.1-0.6-6c0.4-0.9,1.6-4.4,4.8-4.1"/>
<path id="XMLID_13_" fill="none" stroke="#000000" stroke-miterlimit="10" d="M735.3,136.6"/>
<path id="XMLID_16_" fill="none" stroke="#000000" stroke-miterlimit="10" d="M724.9,187c0,0,4.7,5,7.1,3.6c2.4-1.4,5.9-4.1,5.3-8.9
	c-0.6-4.8-3.3-5.7-5.3-5.4c-1.9,0.3-4,0.5-4.7,1.4c-0.7,0.9-3.5-4-3.5-4"/>
<path id="XMLID_15_" fill="none" stroke="#000000" stroke-miterlimit="10" d="M726.9,184.3c0,0,1.6,3.2,3.7,2.3
	c2.1-0.9,2.9-2.2,2.9-3.3c0-1.2-1.2-3.2-2.2-3.2c-1,0-3.8,1.2-3.8,1.2"/>
<path id="XMLID_17_" fill="none" stroke="#000000" stroke-miterlimit="10" d="M734.4,139.3c0,0-4.4,15.5-4.6,23
	c-0.2,7.5,0,14.3,0,14.3"/>
<path id="XMLID_19_" fill="none" stroke="#000000" stroke-miterlimit="10" d="M743.9,138.5c0,0,5.4,12.1,5.3,15
	c-0.1,2.9,1.6,10.1-1.8,18.1c-3.4,8-3.8,13.4-10.5,13.8"/>
<path id="XMLID_18_" fill="none" stroke="#000000" stroke-miterlimit="10" d="M741.4,139.7c0,0-4.6,10.1-4.8,13.4
	c-0.2,3.3-1.4,13.5-1.2,13.8"/>
<path id="XMLID_21_" fill="none" stroke="#000000" stroke-miterlimit="10" d="M731,176.3c0,0,0-4.4,1.6-6.6c1.2-1.6,2.6-2.7,4.2-2.8
	c1.6-0.1,4.9,2.1,5.1,2.5"/>
<path id="XMLID_20_" fill="none" stroke="#000000" stroke-miterlimit="10" d="M733.6,175.7c0,0,0.8-3.3,1.7-4.5
	c0.9-1.2,4.4-2.7,6.7-1.9"/>
<path id="XMLID_23_" fill="none" stroke="#000000" stroke-miterlimit="10" d="M737.6,149.1c0,0,3.6,15.5,4.2,18.5
	c0.6,3.2-0.1,7.5-0.9,8.6c-0.9,1.1-4.6,1.4-5.5-4.6"/>
<path id="XMLID_22_" fill="none" stroke="#000000" stroke-miterlimit="10" d="M725.2,163.2l6.8-24.1c0.6-1.8-0.4-4.6-2.1-5.3
	l-6.1-2.2"/>
<path id="XMLID_29_" fill="none" stroke="#000000" stroke-miterlimit="10" d="M718.6,139.8l-8-2.8c-0.6-0.2-1.3,0.2-1.4,0.8
	c-0.5,2.6-0.8,8.4,4.9,11.8"/>
<line id="XMLID_41_" fill="none" stroke="#000000" stroke-miterlimit="10" x1="720.9" y1="176.5" x2="716.9" y2="188.2"/>
<path id="XMLID_24_" fill="none" stroke="#000000" stroke-miterlimit="10" d="M719,130.2l-140.2-49c-3.6-1.3-6.7-0.7-7.9,2.9
	l-85,243.9c-1.1,3.2,0.5,6.7,3.7,7.9l156.2,57.6c4,1.5,8.4-0.7,9.6-4.7l60.3-196.2"/>
<path id="XMLID_25_" fill="none" stroke="#000000" stroke-miterlimit="10" d="M654.6,183.7l32.5-31.5c0.9-0.8,2.3-0.7,3,0.2l0.4,0.5
	c0.7,0.9,0.6,2.1-0.2,2.8l-32.2,31.1c-0.9,0.8-2.2,0.9-3.1,0.2l-0.1-0.1C653.8,186.2,653.7,184.6,654.6,183.7z"/>
<path id="XMLID_26_" fill="none" stroke="#000000" stroke-miterlimit="10" d="M604.7,179.2L635,215c0.6,0.7,1.6,0.9,2.4,0.4l0,0
	c1-0.6,1.2-1.9,0.5-2.8l-29.4-36.1c-0.8-1-2.2-1.1-3.2-0.4l-0.3,0.2C604.1,177,603.9,178.3,604.7,179.2z"/>
<path id="XMLID_27_" fill="none" stroke="#000000" stroke-miterlimit="10" d="M570.7,177l1.3,45.7c0,1.4,1.2,2.5,2.6,2.5l0,0
	c1,0,1.8-0.8,1.7-1.8l-1.3-47c0-1-0.8-1.8-1.8-1.8h-0.3C571.7,174.7,570.7,175.8,570.7,177z"/>
<path id="XMLID_28_" fill="none" stroke="#000000" stroke-miterlimit="10" d="M538,251.1L538,251.1c0,1,0.7,1.8,1.7,1.9l47.8,5
	c1.4,0.1,2.6-0.9,2.6-2.3v0c0-1.3-1-2.4-2.3-2.6l-47.1-4.5C539.2,248.5,538,249.6,538,251.1z"/>
<path id="XMLID_35_" fill="none" stroke="#000000" stroke-miterlimit="10" d="M615,121c8.1,0,14.8,5.7,16.1,13.1
	c0.1,0.7,0.6,1.2,1.3,1.3l0.6,0.1c1,0.1,2.7-0.8,2.6-1.8c-1-10.2-10.8-17.9-21.8-17.9c-9,0-15.1,5.5-18,13.1
	c-0.3,0.9,0.3,1.9,1.2,2.1l1.4,0.2c0.7,0.1,1.3-0.3,1.6-0.9C602.7,124.8,608.4,121,615,121z M615,152.1c-8.4,0-15.2-6-16.2-13.7
	c-0.1-0.7-0.6-1.3-1.3-1.3l-1.1-0.2c-1-0.1-1.9,0.7-1.7,1.7c1.3,10,10.2,17.7,21,17.7c8.5,0,15.9-4.8,19.2-11.7
	c0.5-0.9-0.5-2.6-1.5-2.8l-1.4-0.2c-0.7-0.1-1.9,0.7-2.1,1.4C627.3,148.4,621.6,152.1,615,152.1z"/>
<path id="XMLID_31_" fill="none" stroke="#000000" stroke-miterlimit="10" d="M643.5,281.8c-0.7,0.1-1.4,0.5-1.6,0.9
	c-0.2,0.4-0.5,0.6-0.3,2.2c0.2,1.7,1,2.3,2,2.3c8.1,0,16.5-4,19.6-12.5c3.8-10.3,0-22.1-9.2-26.6c-0.9-0.4-2.4,0.9-2.6,1.8l-0.1,0.6
	c-0.1,0.7,0.2,1.3,0.8,1.7c6.5,3.7,9.5,12,6.7,19.6C656.3,278.2,649.5,281.3,643.5,281.8z M643.1,249.6c0.7-0.1,2-0.1,2.1-0.7
	l0.3-1.4c0.2-1-1-2.3-2.1-2.4c-7.5-0.8-16.7,4.1-19.6,12.1c-3.7,10.2,1.4,22.1,10.3,26.7c0.9,0.5,2-0.1,2.2-1l0.2-1.1
	c0.2-0.7-0.2-1.4-0.8-1.7c-6.9-3.6-11.4-12.2-8.5-20C629.5,253.9,637.1,250.2,643.1,249.6z"/>
<line id="XMLID_34_" fill="none" stroke="#000000" stroke-miterlimit="10" x1="601.5" y1="340.4" x2="650.8" y2="358.1"/>
<line id="XMLID_40_" fill="none" stroke="#000000" stroke-miterlimit="10" x1="586.3" y1="348.4" x2="646.4" y2="370.3"/>
<path id="XMLID_30_" fill="none" stroke="#000000" stroke-miterlimit="10" d="M620.4,338.9l9-11c0.3-0.4,0.9-0.2,0.9,0.3v14.4"/>
<line id="XMLID_37_" fill="none" stroke="#000000" stroke-miterlimit="10" x1="624" y1="334.5" x2="630.4" y2="336.7"/>
<path id="XMLID_36_" fill="none" stroke="#000000" stroke-miterlimit="10" d="M634,344.2l4.6-13.5l5.1,1.7c0,0,1.9,0.7,0.6,4.6
	s-3.3,3-3.3,3l-5-1.8"/>
<path id="XMLID_39_" fill="none" stroke="#000000" stroke-miterlimit="10" d="M645.5,348.4l4.6-13.5l5.1,1.7c0,0,1.9,0.7,0.6,4.6
	s-3.3,3-3.3,3l-5-1.8"/>
<path id="XMLID_42_" fill="none" stroke="#000000" stroke-miterlimit="10" d="M725.5,181.4c-0.9-0.4-2.4-4.9-3.6-5.6"/>
</svg>
