<?xml version="1.0" encoding="utf-8"?>
<!-- Generator: Adobe Illustrator 18.0.0, SVG Export Plug-In . SVG Version: 6.00 Build 0)  -->
<!DOCTYPE svg PUBLIC "-//W3C//DTD SVG 1.1//EN" "http://www.w3.org/Graphics/SVG/1.1/DTD/svg11.dtd">
<svg version="1.1" id="Layer_1_copy" xmlns="http://www.w3.org/2000/svg" xmlns:xlink="http://www.w3.org/1999/xlink" x="0px"
	 y="0px" viewBox="0 0 503.1 86" enable-background="new 0 0 503.1 86" xml:space="preserve">
<g>
	<g>
		<path fill="#34AD00" d="M495.9,71.7c-4,0-7.2,3.2-7.2,7.2c0,3.9,3.3,7.2,7.2,7.2c4,0,7.2-3.2,7.2-7.2
			C503.1,74.8,499.9,71.7,495.9,71.7z"/>
		<path fill="#34AD00" d="M495.9,43c-4,0-7.2,3.2-7.2,7.2c0,3.9,3.3,7.2,7.2,7.2c4,0,7.2-3.2,7.2-7.2C503.1,46.1,499.9,43,495.9,43z
			"/>
		<path fill="#34AD00" d="M495.9,14.3c-4,0-7.2,3.2-7.2,7.2c0,3.9,3.3,7.2,7.2,7.2c4,0,7.2-3.2,7.2-7.2
			C503.1,17.5,499.9,14.3,495.9,14.3z"/>
	</g>
	<linearGradient id="SVGID_1_" gradientUnits="userSpaceOnUse" x1="0" y1="43" x2="467.2314" y2="43">
		<stop  offset="0" style="stop-color:#69C1ED"/>
		<stop  offset="0.4429" style="stop-color:#93D4EF"/>
		<stop  offset="0.7362" style="stop-color:#AADFF0"/>
		<stop  offset="0.9939" style="stop-color:#DAF0F8"/>
	</linearGradient>
	<path fill="url(#SVGID_1_)" d="M136.8,0c-26.5,0-38.8,7.8-38.8,24.4c0,13.2,6,20.5,38.9,23.4c24.8,2.2,29.8,4.6,29.8,13.9
		c0,6-3.4,12.9-29.6,12.9c-21.3,0-27.1-5.1-29.6-13.4c-1.1-3.7-1.2-6-1.2-6l-0.1-1.5l-10.8,0l0,1.6c0,0.2,0.1,3.8,0.8,6.4
		c3.2,12.4,6.2,24.2,40.8,24.2c28.3,0,41.4-7.7,41.4-24.3c0-17.4-8.5-22.7-41.3-25.4c-18.2-1.5-28-3.9-28-11.9
		c0-6.1,3.2-13.1,27.9-13.1c22.9,0,27.5,7.7,29,13.4l0.7,3h10.3c0,0-0.2-3-0.3-3.5C174.9,13,168.8,0,136.8,0L136.8,0z M332.1,0
		c-26.5,0-38.8,7.8-38.8,24.4V84h11.1V24.4c0-6.1,3.1-13.1,27.6-13.1c24.7,0,27.9,7,27.9,13.1V76l3.2,8h7.9V24.4
		C371,7.8,358.6,0,332.1,0L332.1,0z M12.5,24.8c1.5-5.7,6.1-13.4,29-13.4c16.8,0,27.7,4.9,27.7,12.4c0,6.2-9.9,10.5-27.8,12
		C13.1,38.2,0,46.4,0,61.7C0,77.8,13.1,86,38.9,86c9.6,0,23.9-4.1,31-8.6l2.7,6.8h7.9V23.9C80.4,12.3,70.2,0,41.6,0l0,0
		C17.4,0,4.4,7.9,1.7,24.3c-0.2,1.2-0.3,3.5-0.3,3.5h10.3C11.8,27.8,12.1,26.1,12.5,24.8z M38.9,74.6c-17.5,0-27.1-4.6-27.1-12.9
		c0-5.5,3.4-12.1,29.8-14.4c12.9-1.1,20.9-2.4,28-6.1v21.3C69,65.4,55.5,74.6,38.9,74.6L38.9,74.6z M205.6,24.8
		c1.5-5.7,6.1-13.4,29-13.4c16.8,0,27.7,4.9,27.7,12.4c0,6.2-9.9,10.5-27.8,12c-28.2,2.4-41.3,10.6-41.3,25.9
		c0,16.1,13.1,24.3,38.9,24.3c9.6,0,23.9-4.1,31-8.6l2.7,6.6h7.9V23.9c0-11.6-10.2-23.9-38.8-23.9l0,0c-24.1,0-37.2,7.9-39.8,24.3
		c-0.2,1.2-0.3,3.5-0.3,3.5h10.3C204.8,27.8,205.2,26.1,205.6,24.8z M232,74.6c-17.5,0-27.1-4.6-27.1-12.9c0-5.5,3.4-12.1,29.8-14.4
		c12.9-1.1,20.9-2.4,28-6.1v21.3C262.1,65.4,248.6,74.6,232,74.6L232,74.6z M399.3,24.8c1.5-5.7,6.1-13.4,29-13.4
		c16.8,0,27.7,4.9,27.7,12.4c0,6.2-9.9,10.5-27.8,12c-28.2,2.4-41.3,10.6-41.3,25.9c0,16.1,13.1,24.3,38.9,24.3
		c9.6,0,23.9-4.1,31-8.6l2.7,6.6h7.9V23.9C467.2,12.3,457,0,428.4,0l0,0c-24.1,0-37.2,7.9-39.8,24.3c-0.2,1.2-0.3,3.5-0.3,3.5h10.3
		C398.6,27.8,398.9,26.1,399.3,24.8z M425.7,74.6c-17.5,0-27.1-4.6-27.1-12.9c0-5.5,3.4-12.1,29.8-14.4c12.9-1.1,20.9-2.4,28-6.1
		v21.3C455.8,65.4,442.3,74.6,425.7,74.6L425.7,74.6z"/>
	<path fill="#1F8DD6" d="M136.8,0c-26.5,0-38.8,7.8-38.8,24.4c0,13.2,6,20.5,38.9,23.4c24.8,2.2,29.8,4.6,29.8,13.9
		c0,6-3.4,12.9-29.6,12.9c-21.3,0-27.1-5.1-29.6-13.4c-1.1-3.7-1.2-6-1.2-6l-0.1-1.5l-10.8,0l0,1.6c0,0.2,0.1,3.8,0.8,6.4
		c3.2,12.4,6.2,24.2,40.8,24.2c28.3,0,41.4-7.7,41.4-24.3c0-17.4-8.5-22.7-41.3-25.4c-18.2-1.5-28-3.9-28-11.9
		c0-6.1,3.2-13.1,27.9-13.1c22.9,0,27.5,7.7,29,13.4l0.7,3h10.3c0,0-0.2-3-0.3-3.5C174.9,13,168.8,0,136.8,0L136.8,0z M332.1,0
		c-26.5,0-38.8,7.8-38.8,24.4V84h11.1V24.4c0-6.1,3.1-13.1,27.6-13.1c24.7,0,27.9,7,27.9,13.1V76l3.2,8h7.9V24.4
		C371,7.8,358.6,0,332.1,0L332.1,0z M12.5,24.8c1.5-5.7,6.1-13.4,29-13.4c16.8,0,27.7,4.9,27.7,12.4c0,6.2-9.9,10.5-27.8,12
		C13.1,38.2,0,46.4,0,61.7C0,77.8,13.1,86,38.9,86c9.6,0,23.9-4.1,31-8.6l2.7,6.8h7.9V23.9C80.4,12.3,70.2,0,41.6,0l0,0
		C17.4,0,4.4,7.9,1.7,24.3c-0.2,1.2-0.3,3.5-0.3,3.5h10.3C11.8,27.8,12.1,26.1,12.5,24.8z M38.9,74.6c-17.5,0-27.1-4.6-27.1-12.9
		c0-5.5,3.4-12.1,29.8-14.4c12.9-1.1,20.9-2.4,28-6.1v21.3C69,65.4,55.5,74.6,38.9,74.6L38.9,74.6z M205.6,24.8
		c1.5-5.7,6.1-13.4,29-13.4c16.8,0,27.7,4.9,27.7,12.4c0,6.2-9.9,10.5-27.8,12c-28.2,2.4-41.3,10.6-41.3,25.9
		c0,16.1,13.1,24.3,38.9,24.3c9.6,0,23.9-4.1,31-8.6l2.7,6.6h7.9V23.9c0-11.6-10.2-23.9-38.8-23.9l0,0c-24.1,0-37.2,7.9-39.8,24.3
		c-0.2,1.2-0.3,3.5-0.3,3.5h10.3C204.8,27.8,205.2,26.1,205.6,24.8z M232,74.6c-17.5,0-27.1-4.6-27.1-12.9c0-5.5,3.4-12.1,29.8-14.4
		c12.9-1.1,20.9-2.4,28-6.1v21.3C262.1,65.4,248.6,74.6,232,74.6L232,74.6z M399.3,24.8c1.5-5.7,6.1-13.4,29-13.4
		c16.8,0,27.7,4.9,27.7,12.4c0,6.2-9.9,10.5-27.8,12c-28.2,2.4-41.3,10.6-41.3,25.9c0,16.1,13.1,24.3,38.9,24.3
		c9.6,0,23.9-4.1,31-8.6l2.7,6.6h7.9V23.9C467.2,12.3,457,0,428.4,0l0,0c-24.1,0-37.2,7.9-39.8,24.3c-0.2,1.2-0.3,3.5-0.3,3.5h10.3
		C398.6,27.8,398.9,26.1,399.3,24.8z M425.7,74.6c-17.5,0-27.1-4.6-27.1-12.9c0-5.5,3.4-12.1,29.8-14.4c12.9-1.1,20.9-2.4,28-6.1
		v21.3C455.8,65.4,442.3,74.6,425.7,74.6L425.7,74.6z"/>
</g>
</svg>
