<?xml version="1.0" encoding="utf-8"?>
<!-- Generator: Adobe Illustrator 19.1.0, SVG Export Plug-In . SVG Version: 6.00 Build 0)  -->
<!DOCTYPE svg PUBLIC "-//W3C//DTD SVG 1.1//EN" "http://www.w3.org/Graphics/SVG/1.1/DTD/svg11.dtd">
<svg version="1.1" id="Layer_1" xmlns="http://www.w3.org/2000/svg" xmlns:xlink="http://www.w3.org/1999/xlink" x="0px" y="0px"
	 viewBox="0 0 951 191" enable-background="new 0 0 951 191" xml:space="preserve">
<rect x="-3503.6" y="-7926.3" display="none" fill="#272938" width="16.7" height="24"/>
<rect x="-3577.8" y="-7926.3" display="none" fill="#272938" width="8.3" height="24"/>
<rect x="-3637.8" y="-7926.3" display="none" fill="#272938" width="12.2" height="24"/>
<rect x="-3429.9" y="-7926.3" display="none" fill="#272938" width="10.4" height="24"/>
<g>
	<g>
		<path fill="#FFFFFF" d="M358.6,145.6c0.6,6.6,5.8,14.9,14.9,14.9h5.3c2.1,0,3.7-1.7,3.7-3.7V39.9h0c-0.1-2-1.7-3.5-3.7-3.5h-16.5
			c-2,0-3.6,1.6-3.7,3.5h0v9.5c-10.1-12.4-26-17.6-42-17.6c-36.3,0-65.7,29.4-65.7,65.7c0,36.3,29.4,65.7,65.7,65.7v0
			C332.6,163.2,350,157,358.6,145.6L358.6,145.6z M316.7,140.2c-23.1,0-41.8-19.1-41.8-42.7c0-23.6,18.7-42.7,41.8-42.7
			s41.8,19.1,41.8,42.7C358.5,121.1,339.8,140.2,316.7,140.2z"/>
		<path fill="#FFFFFF" d="M627,145.6c0.6,6.6,5.8,14.9,14.9,14.9h5.3c2.1,0,3.7-1.7,3.7-3.7V39.9h0c-0.1-2-1.7-3.5-3.7-3.5h-16.5
			c-2,0-3.6,1.6-3.7,3.5h0v9.5c-10.1-12.4-26-17.6-42-17.6c-36.3,0-65.7,29.4-65.7,65.7c0,36.3,29.4,65.7,65.7,65.7v0
			C601,163.2,618.4,157,627,145.6L627,145.6z M585.1,140.2c-23.1,0-41.8-19.1-41.8-42.7c0-23.6,18.7-42.7,41.8-42.7
			c23.1,0,41.8,19.1,41.8,42.7C626.9,121.1,608.2,140.2,585.1,140.2z"/>
		<path fill="#FFFFFF" d="M927,145.6c0.6,6.6,5.8,14.9,14.9,14.9h5.3c2.1,0,3.8-1.7,3.8-3.7V39.9h0c-0.1-2-1.7-3.5-3.7-3.5h-16.5
			c-2,0-3.6,1.6-3.7,3.5h0v9.5c-10.1-12.4-26-17.6-42-17.6c-36.3,0-65.7,29.4-65.7,65.7c0,36.3,29.4,65.7,65.7,65.7v0
			C901,163.2,918.4,157,927,145.6L927,145.6z M885.1,140.2c-23.1,0-41.8-19.1-41.8-42.7c0-23.6,18.7-42.7,41.8-42.7
			c23.1,0,41.8,19.1,41.8,42.7C926.9,121.1,908.2,140.2,885.1,140.2z"/>
		<path fill="#FFFFFF" d="M798.6,149.6l0-60.5h0c0-34.1-21.5-57.1-55.8-57.1c-16.4,0-31.3,9.4-34.5,17.6c-1-6.4-4.4-13-14.9-13H688
			c-2.1,0-3.7,1.7-3.7,3.8v105.5c0,0,0,0,0,0V157v0.2h0c0.1,2,1.7,3.5,3.7,3.5h11.2h5.3c0.3,0,0.5,0,0.7-0.1c0.1,0,0.2-0.1,0.3-0.1
			c0.1,0,0.3-0.1,0.4-0.1c0.1-0.1,0.3-0.1,0.4-0.2c0.1,0,0.1-0.1,0.2-0.1c0.2-0.1,0.3-0.2,0.5-0.4c0,0,0.1,0,0.1-0.1
			c0.2-0.2,0.3-0.3,0.4-0.5c0,0,0,0,0,0c0.4-0.6,0.7-1.2,0.7-2h0V157v-7.4v-1.9V88.2c0-18.3,14.8-33.1,33.1-33.1
			c18.3,0,33.1,14.8,33.1,33.1l0,57.7l0,0c0,0.1,0,0.1,0,0.2v11v0.2h0c0.1,2,1.7,3.5,3.7,3.5h11.2h5.3l0,0c0.3,0,0.5,0,0.7-0.1
			c0.1,0,0.2-0.1,0.3-0.1c0.1,0,0.3-0.1,0.4-0.1c0.1-0.1,0.3-0.1,0.4-0.2c0.1,0,0.2-0.1,0.2-0.1c0.2-0.1,0.3-0.2,0.4-0.3
			c0,0,0.1-0.1,0.1-0.1c0.2-0.2,0.3-0.3,0.4-0.5c0,0,0,0,0,0c0.4-0.6,0.7-1.2,0.7-2c0,0,0,0,0,0h0V157L798.6,149.6L798.6,149.6z"/>
		<path fill="#FFFFFF" d="M421.9,128.9c11,7.6,23,11.3,34.5,11.3c11,0,22.3-5.7,22.3-15.6c0-13.2-24.8-15.3-40.3-20.6
			c-15.6-5.3-29-16.2-29-33.9c0-27.1,24.1-38.3,46.6-38.3c14.3,0,29,4.7,38.5,11.4c3.3,2.5,1.3,5.4,1.3,5.4l-9.1,13
			c-1,1.5-2.8,2.7-5.4,1.1c-2.6-1.6-11.6-8-25.3-8c-13.7,0-22,6.3-22,14.2c0,9.4,10.8,12.4,23.4,15.6c22,5.9,45.9,13,45.9,39.9
			c0,23.9-22.3,38.6-47,38.6c-18.7,0-34.6-5.3-48-15.1c-2.8-2.8-0.8-5.4-0.8-5.4l9.1-12.9C418.6,127.3,420.9,128.2,421.9,128.9z"/>
	</g>
	<g>
		<path fill="#FFFFFF" d="M147.9,45.1c0,24.8-20.1,44.8-44.8,44.8c-24.8,0-44.8-20.1-44.8-44.8c0-24.8,20.1-44.8,44.8-44.8
			C127.8,0.2,147.9,20.3,147.9,45.1z"/>
		<circle fill="#FFFFFF" cx="44.8" cy="145.9" r="44.8"/>
		<circle fill="#FFFFFF" cx="161.3" cy="145.9" r="44.8"/>
	</g>
</g>
</svg>
