<?xml version="1.0" encoding="utf-8"?>
<!-- Generator: Adobe Illustrator 18.0.0, SVG Export Plug-In . SVG Version: 6.00 Build 0)  -->
<!DOCTYPE svg PUBLIC "-//W3C//DTD SVG 1.1//EN" "http://www.w3.org/Graphics/SVG/1.1/DTD/svg11.dtd">
<svg version="1.1" id="Layer_1" xmlns="http://www.w3.org/2000/svg" xmlns:xlink="http://www.w3.org/1999/xlink" x="0px" y="0px"
	 viewBox="0 0 378.4 61" enable-background="new 0 0 378.4 61" xml:space="preserve">
<g id="Logo">
	<path fill="#DDDDDD" d="M30.5,0C13.7,0,0,13.7,0,30.5C0,47.3,13.7,61,30.5,61S61,47.3,61,30.5C61,13.7,47.3,0,30.5,0z M47.7,53.7
		L30.8,41.4L13.9,53.7l6.5-19.9L3.4,21.6l20.9,0l6.4-19.9l6.4,19.9l20.9,0L41.2,33.8L47.7,53.7z"/>
	<path fill="#DDDDDD" d="M94.4,9.3c4.1,0,9.2,2.3,9.2,7.7v26.8c0,5.4-5.2,7.7-9.2,7.7h-11V9.3H94.4z M93.7,44.1
		c0.9,0,1.4-0.5,1.4-1.7V18.5c0-1.2-0.5-1.7-1.4-1.7h-1.9v27.3H93.7z"/>
	<path fill="#DDDDDD" d="M113,51.5h-7.5l5.6-42.2h10.1l5.7,42.2h-8.8l-0.5-6.6h-3.8L113,51.5z M116.1,23.5l-1.6,13.9h2.6L116.1,23.5
		z"/>
	<path fill="#DDDDDD" d="M139.9,9.3c4.1,0,9,2.3,9,7.7v9.4c0,2-1.4,3.5-3.5,4.6c2.2,1.1,3.7,2.6,3.7,4.6v8.7c0,2.7,0.6,5,1.1,7.1
		H142c-0.6-1.8-1.1-4.3-1.1-6.5v-8.9c0-0.9-0.6-1.6-1.7-1.6H138v17h-8.4V9.3H139.9z M139.3,27.5c0.9,0,1.4-0.5,1.4-1.7v-7.3
		c0-1.2-0.5-1.7-1.4-1.7H138v10.7H139.3z"/>
	<path fill="#DDDDDD" d="M153,51.5V9.3h8.4v42.2H153z"/>
	<path fill="#DDDDDD" d="M180.1,9.3h7.1v42.2h-7.4L172.7,30v21.5h-7.1V9.3h7.7l6.8,21.8V9.3z"/>
	<path fill="#DDDDDD" d="M210.8,51.5h-5.1L205,50c-1.1,1-3.2,2-5.4,2c-5.3,0-9-3.5-9-8.3V17.1c0-4.3,4.4-8.3,9.9-8.3
		c5.6,0,10,4,10,8.3v8.7h-8.3v-8.4c0-0.7-0.7-1.3-1.7-1.3c-0.9,0-1.6,0.5-1.6,1.3v26.8c0,0.7,0.7,1.3,1.6,1.3c0.9,0,1.7-0.6,1.7-1.3
		V37h-1.7v-6.1h10.3V51.5z"/>
	<path fill="#DDDDDD" d="M222.4,9.3h16.6v7h-8.2v10.4h6.1v7.2h-6.1v17.6h-8.4V9.3z"/>
	<path fill="#DDDDDD" d="M242.1,51.5V9.3h8.4v42.2H242.1z"/>
	<path fill="#DDDDDD" d="M265,9.3c4.1,0,9,2.3,9,7.7v9.4c0,2-1.4,3.5-3.5,4.6c2.2,1.1,3.7,2.6,3.7,4.6v8.7c0,2.7,0.6,5,1.1,7.1H267
		c-0.6-1.8-1.1-4.3-1.1-6.5v-8.9c0-0.9-0.6-1.6-1.7-1.6h-1.1v17h-8.4V9.3H265z M264.3,27.5c0.9,0,1.4-0.5,1.4-1.7v-7.3
		c0-1.2-0.5-1.7-1.4-1.7h-1.2v10.7H264.3z"/>
	<path fill="#DDDDDD" d="M294.3,16.3h-8.2v9.6h5.4v7.5h-5.4V44h8.2v7.5h-16.6V9.3h16.6V16.3z"/>
	<path fill="#DDDDDD" d="M307.7,9.3c4.1,0,8.7,2.3,8.7,7.7v8.4c0,2-1.1,3.5-3.3,4.6c2.2,1.1,3.3,2.6,3.3,4.6v9.1
		c0,5.4-4.6,7.7-8.7,7.7h-10.3V9.3H307.7z M307.1,26.4c0.9,0,1.4-0.5,1.4-1.6v-6.3c0-1.2-0.5-1.7-1.4-1.7h-1.2v9.6H307.1z
		 M307.1,44.1c0.9,0,1.4-0.5,1.4-1.7v-6.8c0-1.2-0.5-1.7-1.4-1.7h-1.2v10.2H307.1z"/>
	<path fill="#DDDDDD" d="M325.7,51.5h-7.5l5.6-42.2h10.1l5.7,42.2h-8.8l-0.5-6.6h-3.8L325.7,51.5z M328.8,23.5l-1.6,13.9h2.6
		L328.8,23.5z"/>
	<path fill="#DDDDDD" d="M350.8,44h8.1v7.5h-16.6V9.3h8.5V44z"/>
	<path fill="#DDDDDD" d="M370.3,44h8.1v7.5h-16.6V9.3h8.5V44z"/>
</g>
</svg>
