<?xml version="1.0" encoding="utf-8"?>
<!-- Generator: Adobe Illustrator 18.0.0, SVG Export Plug-In . SVG Version: 6.00 Build 0)  -->
<!DOCTYPE svg PUBLIC "-//W3C//DTD SVG 1.1//EN" "http://www.w3.org/Graphics/SVG/1.1/DTD/svg11.dtd">
<svg version="1.1" id="Layer_1" xmlns="http://www.w3.org/2000/svg" xmlns:xlink="http://www.w3.org/1999/xlink" x="0px" y="0px"
	 viewBox="68 134.6 712.7 157.4" enable-background="new 68 134.6 712.7 157.4" xml:space="preserve">
<g>
	<g id="Back_fill">
		
			<radialGradient id="SVGID_1_" cx="390.125" cy="418.875" r="72.125" gradientTransform="matrix(1 0 0 1 -246 -203)" gradientUnits="userSpaceOnUse">
			<stop  offset="0.19" style="stop-color:#FFF200"/>
			<stop  offset="0.4782" style="stop-color:#FFCE16"/>
			<stop  offset="1" style="stop-color:#F68B33"/>
		</radialGradient>
		<circle fill="url(#SVGID_1_)" cx="144.1" cy="215.9" r="72.1"/>
	</g>
	<g id="Tip">
		<circle fill="none" stroke="#000000" stroke-width="4" cx="144.1" cy="215.9" r="72.1"/>
		<g>
			<g>
				<g>
					<defs>
						<circle id="SVGID_2_" cx="144.1" cy="215.9" r="72.1"/>
					</defs>
					<clipPath id="SVGID_3_">
						<use xlink:href="#SVGID_2_"  overflow="visible"/>
					</clipPath>
					<path clip-path="url(#SVGID_3_)" stroke="#000000" stroke-width="3.5" stroke-linejoin="round" d="M203.6,155.9
						c-13.6,61.7-87,97-87,97s7.3-14,11.5-31.5c4-16.5,5-45,18.5-85C163.8,142.5,186.3,143,203.6,155.9z"/>
				</g>
			</g>
		</g>
		<path fill="#FFFFFF" d="M125.6,241.1c0,0,28-35.8,44.5-94.8c-9.9-2.5-5.8,2.8-14-4.8c-11.2,26-16.1,55.4-20.2,73.2
			C134.1,222.4,129.9,231.6,125.6,241.1z"/>
	</g>
	<g id="Circle">
		<circle fill="none" stroke="#000000" stroke-width="8" cx="144.1" cy="215.9" r="72.1"/>
	</g>
	<g id="text">
		<g enable-background="new    ">
			<path d="M285.3,192.5c-2.9-0.7-5.2-1-7-1c-2,0-3.6,0.7-4.8,2c-1.1,1.3-1.7,3.2-1.7,5.7v1.9h9.6V214h-9.6v38h-19v-38H244v-12.9
				h8.8v-0.9c0-3.8,0.7-7.3,2.2-10.7c1.5-3.4,3.9-6.1,7.3-8.3c3.4-2.2,7.9-3.3,13.5-3.3c3.2,0,6.3,0.3,9.5,1V192.5z"/>
			<path d="M343.3,229.7h-37.8c0.7,3.3,2.5,5.9,5.4,8c2.9,2.1,6.2,3.1,9.8,3.1c6.4,0,13.5-1.8,21.2-5.4v11.8
				c-2.8,1.4-6.1,2.8-10.1,3.9s-9,1.8-15.1,1.8c-6.6,0-12.2-1.2-16.9-3.7c-4.6-2.5-8.1-5.8-10.4-10c-2.3-4.2-3.5-9-3.5-14.3
				c0-5.3,1.2-10,3.5-14.2c2.3-4.2,5.8-7.4,10.4-9.8c4.6-2.4,10.3-3.6,16.9-3.6c4.4,0,8.6,0.9,12.6,2.8c4.1,1.9,7.4,5,10,9.2
				c2.6,4.3,3.9,9.8,3.9,16.5L343.3,229.7L343.3,229.7z M325.5,220.4c0-3.4-0.9-6.2-2.6-8.3c-1.7-2.1-4.2-3.1-7.4-3.1
				c-3.2,0-5.7,1-7.7,3.1c-2,2.1-2.9,4.8-2.9,8.2L325.5,220.4L325.5,220.4z"/>
			<path d="M371.7,252h-19v-73.1h19V252z"/>
			<path d="M426.1,248.9c-2,0.9-4.7,1.9-8.1,2.7c-3.5,0.9-6.8,1.3-9.9,1.3c-13.7,0-20.5-6.7-20.5-20v-21.4h-8.6v-3.3l25.5-25.9h2.2
				v16.1h18.1v13.2h-18.1v17.2c0,2,0.1,3.6,0.4,4.9c0.2,1.2,0.9,2.3,2.1,3.1c1.1,0.8,2.9,1.2,5.2,1.2c3,0,7-1.3,11.9-3.8
				L426.1,248.9L426.1,248.9z"/>
			<path d="M506.9,248.9c-2,0.9-4.7,1.9-8.1,2.7s-6.8,1.3-9.9,1.3c-13.7,0-20.5-6.7-20.5-20v-21.4h-8.6v-3.3l25.5-25.9h2.2v16.1
				h18.1v13.2h-18.1v17.2c0,2,0.1,3.6,0.4,4.9c0.2,1.2,0.9,2.3,2.1,3.1c1.1,0.8,2.9,1.2,5.2,1.2c3,0,7-1.3,11.9-3.8L506.9,248.9
				L506.9,248.9z"/>
			<path d="M534.3,252h-19v-53.7h19V252z M532.7,185.9c0,2.2-0.8,4.1-2.4,5.6c-1.6,1.5-3.5,2.3-5.6,2.3c-1.5,0-2.8-0.4-4-1.1
				c-1.2-0.7-2.2-1.7-2.9-2.9s-1.1-2.6-1.1-4c0-2.2,0.8-4.1,2.3-5.6s3.4-2.4,5.6-2.4c2.2,0,4.1,0.8,5.6,2.4S532.7,183.7,532.7,185.9
				z"/>
			<path d="M605.3,224.8c0,3.6-0.5,7-1.5,10.4c-1,3.3-2.6,6.4-4.7,9s-4.8,4.8-8.1,6.4s-7.1,2.3-11.5,2.3c-3.5,0-6.3-0.4-8.3-1.1
				s-4-1.7-6-3v27.5h-19v-78.1h19v4.9c1.9-1.7,4-3,6.3-4.1s5.4-1.7,9.4-1.7c3.9,0,7.7,1,11.5,2.9c3.8,1.9,6.9,4.9,9.3,9
				C604.1,213.4,605.3,218.6,605.3,224.8z M585.3,225.2c0-3.2-0.5-5.9-1.5-7.9c-1-2-2.3-3.5-4-4.4c-1.6-0.9-3.3-1.3-5-1.3
				c-2.2,0-4.1,0.4-5.5,1.1c-1.4,0.7-2.8,1.6-4.1,2.7v20.5c0.7,0.4,1.4,0.7,2.1,1.2s1.5,0.8,2.3,1.1s1.6,0.6,2.4,0.8
				s1.8,0.3,2.8,0.3c3,0,5.5-1.3,7.5-3.8S585.3,229.6,585.3,225.2z"/>
		</g>
		<g enable-background="new    ">
			<path d="M650,183.1c1.6,0,2.9,0.5,4.1,1.6s1.7,2.4,1.7,4c0,1.5-0.6,2.9-1.7,4c-1.1,1.1-2.5,1.7-4.1,1.7c-1.5,0-2.8-0.6-3.9-1.7
				c-1.1-1.1-1.7-2.5-1.7-4c0-1.5,0.6-2.8,1.7-3.9C647.3,183.6,648.6,183.1,650,183.1z M645.3,203.5h9.6V252h-9.6V203.5z"/>
			<path d="M677.4,203.5v6.2c4.3-4.7,9.2-7.1,14.6-7.1c3,0,5.8,0.8,8.4,2.3s4.6,3.7,5.9,6.4c1.4,2.7,2,7,2,12.9V252h-9.6v-27.6
				c0-5-0.8-8.5-2.3-10.6c-1.5-2.1-4-3.2-7.6-3.2c-4.5,0-8.4,2.3-11.5,6.8V252h-9.8v-48.5L677.4,203.5L677.4,203.5z"/>
			<path d="M757.2,240.7v9.5c-4.8,1.8-9.5,2.7-14.1,2.7c-7.6,0-13.7-2.2-18.2-6.8c-4.5-4.5-6.8-10.5-6.8-18.1
				c0-7.6,2.2-13.8,6.6-18.5c4.4-4.7,10.2-7,17.3-7c2.5,0,4.7,0.2,6.7,0.7s4.4,1.4,7.4,2.7v10.2c-4.9-3.1-9.4-4.6-13.5-4.6
				c-4.3,0-7.9,1.5-10.7,4.6c-2.8,3-4.2,6.9-4.2,11.6c0,5,1.5,8.9,4.5,11.8c3,2.9,7.1,4.4,12.2,4.4
				C748.2,243.9,752.4,242.8,757.2,240.7z"/>
			<path d="M774.3,240.2c1.8,0,3.3,0.6,4.6,1.8c1.3,1.2,1.9,2.7,1.9,4.5c0,1.8-0.6,3.2-1.9,4.4c-1.2,1.2-2.8,1.8-4.6,1.8
				c-1.8,0-3.3-0.6-4.5-1.8s-1.8-2.7-1.8-4.4c0-1.8,0.6-3.3,1.8-4.5C771,240.9,772.5,240.2,774.3,240.2z"/>
		</g>
	</g>
</g>
</svg>
