<?xml version="1.0" encoding="utf-8"?>
<!-- Generator: Adobe Illustrator 18.0.0, SVG Export Plug-In . SVG Version: 6.00 Build 0)  -->
<!DOCTYPE svg PUBLIC "-//W3C//DTD SVG 1.1//EN" "http://www.w3.org/Graphics/SVG/1.1/DTD/svg11.dtd">
<svg version="1.1" id="Layer_1" xmlns="http://www.w3.org/2000/svg" xmlns:xlink="http://www.w3.org/1999/xlink" x="0px" y="0px"
	 viewBox="0 0 404.9 93.5" enable-background="new 0 0 404.9 93.5" xml:space="preserve">
<g>
	<polygon fill="#FFFFFF" points="0,92 18.8,92 18.8,88.6 18.8,1.5 0,1.5 	"/>
	<path fill="#FFFFFF" d="M252,0c-25.8,0-46.8,20.9-46.8,46.8c0,25.8,20.9,46.8,46.8,46.8c25.8,0,46.8-20.9,46.8-46.8
		C298.8,20.9,277.9,0,252,0z M252,75.4c-15.8,0-28.6-12.8-28.6-28.6c0-15.8,12.8-28.6,28.6-28.6c15.8,0,28.6,12.8,28.6,28.6
		C280.6,62.6,267.8,75.4,252,75.4z"/>
	<path fill="#FFFFFF" d="M129.5,40.1H83.1v18.8h25.9c-4.6,9.7-14.4,16.5-25.9,16.5c-15.8,0-28.6-12.8-28.6-28.6
		c0-15.8,12.8-28.6,28.6-28.6c9,0,17,4.2,22.3,10.7l1.7,2.2l16.2-8.5l-2.3-3.2C112.5,7.7,98.7,0,83.1,0C57.2,0,36.3,20.9,36.3,46.8
		c0,25.8,20.9,46.8,46.8,46.8c25.8,0,46.8-20.9,46.8-46.8c0-1.2-0.1-2.3-0.1-3.5L129.5,40.1z"/>
	<path fill="#FFFFFF" d="M358.1,0c-25.8,0-46.8,20.9-46.8,46.8c0,25.8,20.9,46.8,46.8,46.8c25.8,0,46.8-20.9,46.8-46.8
		C404.9,20.9,383.9,0,358.1,0z M358.1,75.4c-15.8,0-28.6-12.8-28.6-28.6c0-15.8,12.8-28.6,28.6-28.6c15.8,0,28.6,12.8,28.6,28.6
		C386.7,62.6,373.9,75.4,358.1,75.4z"/>
	<polygon fill="#FFFFFF" points="166.1,1.5 147.3,1.5 147.3,73.2 147.3,92 166.1,92 194.3,92 194.3,73.2 166.1,73.2 	"/>
</g>
</svg>
