<?xml version="1.0" encoding="utf-8"?>
<!-- Generator: Adobe Illustrator 18.1.1, SVG Export Plug-In . SVG Version: 6.00 Build 0)  -->
<!DOCTYPE svg PUBLIC "-//W3C//DTD SVG 1.1 Tiny//EN" "http://www.w3.org/Graphics/SVG/1.1/DTD/svg11-tiny.dtd">
<svg version="1.1" baseProfile="tiny" id="Layer_1" xmlns="http://www.w3.org/2000/svg" xmlns:xlink="http://www.w3.org/1999/xlink"
	 x="0px" y="0px" viewBox="0 0 841.9 257.4" xml:space="preserve">
<path fill="#65B9E8" d="M91.3,50V229c0,18.8-9.4,28.3-28.1,28.4l-35.1-0.1L0,215.3h28.1c9.4,0,14-4.7,14-14.2V50H91.3z M91.3,36.2
	H42.1V1.1h49.2L91.3,36.2L91.3,36.2z M262.5,201.2H143.1c-18.7,0-28.1-9.4-28.1-28.1V131c0-16.4,9.4-24.6,28.1-24.6h70.2
	c0-9.4-4.7-20.4-14-20.4H115V50.2h121.1c17.6,0,26.4,9.4,26.4,28.1V201.2z M213.3,139.6h-42.1c-4.7,0-7,4.2-7,12.5
	c0,8.3,1.2,12.5,3.5,12.5h45.6L213.3,139.6L213.3,139.6z M673.4,78.5v94.7c-0.1,18.7-9.5,28.1-28.2,28.1H575v56.2h-49.2V50.2h119.4
	C664,50.2,673.4,59.6,673.4,78.5 M610.1,92.4H575v66.7h35c9.4,0,14.1-4.7,14.2-14v-38.5C624.2,97.1,619.5,92.4,610.1,92.4
	 M841.9,78.5v94.7c-0.1,18.7-9.5,28.1-28.2,28.1h-70.1v56.2h-49.2V50.2h119.4C832.5,50.2,841.9,59.6,841.9,78.5 M778.7,92.4h-35.1
	v66.7h35c9.4,0,14.1-4.7,14.2-14v-38.5C792.7,97.1,788,92.4,778.7,92.4 M476.7,0c18.6,0,28,9.4,28.1,28.1V151h-49.2V56.2
	c0-9.4-4.7-14-14.2-14h-20.9V151h-49.2l-0.1-108.9h-35V151h-49L287.1,0H476.7z"/>
<rect y="0" fill="none" width="841.9" height="257.4"/>
</svg>
