<?xml version="1.0" encoding="utf-8"?>
<!-- Generator: Adobe Illustrator 18.0.0, SVG Export Plug-In . SVG Version: 6.00 Build 0)  -->
<!DOCTYPE svg PUBLIC "-//W3C//DTD SVG 1.1//EN" "http://www.w3.org/Graphics/SVG/1.1/DTD/svg11.dtd">
<svg version="1.1" id="Layer_1" xmlns="http://www.w3.org/2000/svg" xmlns:xlink="http://www.w3.org/1999/xlink" x="0px" y="0px"
	 viewBox="0 0 162.2 205.4" enable-background="new 0 0 162.2 205.4" xml:space="preserve">
<g>
	<g id="astro_2">
		<g id="astro_1_">
			<g>
				<path fill="#F5F5F5" d="M64,148.9c-5.2-1.9-11.5-2.7-13.6-6.3c-2.1-3.6,3.5-20.5,3.5-20.5c-4,4.1-14.2,17.1-17.7,25
					c-1.7,4,21.2,12.2,22.7,10.7C61.5,155.2,66.4,149.8,64,148.9z"/>
				<path fill="#F5F5F5" d="M129.9,80.2c-3.1-8.5-21.5-19-21.5-19c-7.7-3.6-22.4-5.9-35.8,6.5c-8.8,8.2-10.8,18.5-10.8,18.5
					c-15.6-4-14.4-5.1-17.4-4.3c-4.5,1.2-9.8,15.2-5,18c0,0,8.6,5.3,17.6,6.4l0,0c1.8-2.9,6.1-4.9,11-6.2C66.8,88.8,69,83.8,69,83.8
					c0.9,8.9,3.5,15.1,3.5,15.1c5.9-1,14.1-1.4,17.5-1.4c0.3,0,0.4,0,0.4,0c-25.4,7.2-27.5,5.8-30.3,15.8c-1.1,3.9-7,21.7-6.3,25.8
					c0.7,3.8,26.4,12,28,5.1c5.1-22.2,2.3-17.1,25.5-20.6c9.4-1.4,12.5-4,10-25.1c0,0-10.7,7.3-15.5,1.9C89.3,86.1,99.5,83,99.5,83
					c-3.5,4.8,0.3,9.2,3.5,13.2c3.2,4,5.1,3.1,9.1,1.3c0,0,14.1-7.3,14.1-7.3C131,87.7,130.8,82.6,129.9,80.2z M105.2,79.7
					c0-4.8-9.4-10.8-9.4-10.8c10.6,1.4,14.3,8.8,14.3,8.8L105.2,79.7z"/>
				<path fill="#F5F5F5" d="M133.2,70.7c-0.2-0.2-0.5-0.3-0.8-0.4c-1.2,0.6-2.6,1-4,1.3c1.8,1.9,3.4,4,4.6,6.6
					c1.6-0.5,3.1-1.2,4.5-2.1C136.5,73.6,134.8,71.8,133.2,70.7z"/>
				<path fill="#F5F5F5" d="M141.5,66.4c-1.1-0.6-2.2-1-3.3-1.3c-0.5,0.7-1,1.4-1.6,2.1c-0.3,0.3-0.5,0.5-0.8,0.8
					c2,1.5,3.6,3.5,4.8,5.8c0.5-0.5,1-0.9,1.5-1.4c1-1,1.7-2.1,2.5-3.2C143.7,67.9,142.6,67,141.5,66.4z"/>
				<path fill="#F5F5F5" d="M142.4,58.5c-0.7,0.1-1.3,0.3-1.9,0.5c-0.1,0.9-0.3,1.8-0.6,2.7c1.2,0.4,2.4,0.8,3.5,1.5
					c1.2,0.7,2.2,1.5,3.1,2.4c0.9-2.1,1.4-4.4,1.6-6.7C146.3,58.3,144.4,58.1,142.4,58.5z"/>
				<path fill="#F5F5F5" d="M146.7,49.8c-2.2-0.1-4.4,0.3-6.3,1.3c-0.4,0.2-0.7,0.4-1,0.7c0.1,0.3,0.3,0.6,0.4,0.9
					c0.3,0.8,0.4,1.6,0.6,2.4c0.5-0.1,0.9-0.2,1.4-0.3c2.1-0.4,4.2-0.3,6.2,0.2c-0.2-1.6-0.5-3.2-1-4.7
					C146.8,50.1,146.8,49.9,146.7,49.8z"/>
				<path fill="#F5F5F5" d="M135.3,46c0.9,0.8,1.6,1.6,2.3,2.5c0.4-0.2,0.7-0.5,1.1-0.7c1.9-1,4.1-1.6,6.3-1.7c-0.9-1.6-2-3-3.3-4.4
					c-1.4,0.4-2.6,1-3.2,1.4C137.1,44,136,45,135.3,46z"/>
				<path fill="#F5F5F5" d="M136.4,40c0.7-0.4,1.4-0.8,2.1-1.1c-2.2-1.7-4.7-3.1-7.4-4.3c0,2.5-0.2,5.4-0.7,8c0.7,0.4,1.3,0.7,2,1.1
					C133.4,42.3,134.7,41,136.4,40z"/>
				<path fill="#F5F5F5" d="M89.7,54.7c10.3-1.8,20.5,0.6,28.5,6.1c5.7-8.1,8.2-18.4,6.3-28.9c-3.8-21-23.9-35-44.9-31.3
					c-21,3.8-35.1,23.9-31.3,44.9c1.9,10.7,8,19.6,16.4,25.2C69.6,61.7,79.2,56.6,89.7,54.7z M51.1,47c-4.6-13.2,3.3-29.9,16.7-35.6
					C87.6,2.9,101,11.7,103,24.3c3.4,20.8-15,16.1-28.1,25.1C62.7,57.7,57.6,65.8,51.1,47z"/>
			</g>
			<path fill="#F5F5F5" d="M53.8,36.6C58.6,17,83.1,10.9,83.1,10.9C52.1,14.8,53.8,36.6,53.8,36.6z"/>
		</g>
		<g id="shadow_1_">
			<path opacity="0.24" fill="#020202" d="M110.2,101.7c0.2,19.2-28.5,6.8-30.8,16.6c-2.9,12.4-2.2,22.9-10.9,20.2
				c-9.6-3-13.3-1.1-14.7,0.3c0,0,0,0.1,0,0.1c0.7,3.8,26.4,12,28,5.1c5.1-22.2,2.3-17.1,25.5-20.6c9.4-1.4,12.5-4,10-25.1
				C117.5,98.4,114.1,100.7,110.2,101.7z"/>
			<path opacity="0.24" fill="#020202" d="M118.3,60.8c5.7-8.1,8.2-18.4,6.3-28.9C122.3,19,113.8,8.7,102.8,3.6
				c27.6,21.2,9.2,46,4,51.9C110.9,56.7,114.8,58.4,118.3,60.8z"/>
			<path opacity="0.24" fill="#020202" d="M106.5,60.4c-0.6-0.2-1.2-0.4-1.9-0.7c0,0,0,0-0.1,0c-1.4-0.4-2.9-0.8-4.5-1
				c4.3,2.5,27.5,16.6,22.9,23.8c-2,3.2-14.3,7.7-14.3,7.7s3.3,7-0.8,8.8h0c1.2-0.1,2.5-0.7,4.3-1.5c0,0,14.1-7.3,14.1-7.3
				c4.9-2.5,4.6-7.6,3.8-10c-3.1-8.5-21.5-19-21.5-19c-0.5-0.3-1.1-0.5-1.7-0.7C106.6,60.4,106.6,60.4,106.5,60.4z"/>
			<path opacity="0.24" fill="#020202" d="M64,148.9c-5.2-1.9-11.5-2.7-13.6-6.3c-0.1-0.1-0.1-0.2-0.2-0.4c0-0.1-0.1-0.2-0.1-0.3
				c0,0,0-0.1,0-0.1c-0.1-0.3-0.1-0.6-0.1-1c-1.4,3.3-3.6,7.4-5.4,6.8c-4.6-1.7-7.1-1.6-8.3-0.7c0,0.1-0.1,0.1-0.1,0.2
				c-1.7,4,21.2,12.2,22.7,10.7C61.5,155.2,66.4,149.8,64,148.9z"/>
			<path opacity="0.24" fill="#020202" d="M135.5,40.6c-1.7-1.5-3.4-2.3-4.5-2.8c-0.1,1.6-0.3,3.2-0.6,4.7c0.7,0.4,1.3,0.7,2,1.1
				C133.2,42.6,134.2,41.5,135.5,40.6z"/>
			<path opacity="0.24" fill="#020202" d="M138.7,47.8c0.6-0.3,1.3-0.6,2-0.9c-0.8-1.3-1.7-2.5-2.6-3.6c-1.2,0.8-2.1,1.7-2.8,2.6
				c0.9,0.8,1.6,1.6,2.3,2.5C137.9,48.2,138.3,48,138.7,47.8z"/>
			<path opacity="0.24" fill="#020202" d="M142.4,50.3c-0.7,0.2-1.3,0.5-1.9,0.8c-0.4,0.2-0.7,0.4-1,0.7c0.1,0.3,0.3,0.6,0.4,0.9
				c0.3,0.8,0.4,1.6,0.6,2.4c0.5-0.1,0.9-0.2,1.4-0.3c0.6-0.1,1.2-0.2,1.7-0.2C143.3,53.1,142.9,51.7,142.4,50.3z"/>
			<path opacity="0.24" fill="#020202" d="M135.4,72.7c-0.7-0.8-1.4-1.5-2.1-2c-0.2-0.2-0.5-0.3-0.8-0.4c-1.2,0.6-2.6,1-4,1.3
				c0.8,0.8,1.5,1.7,2.2,2.6C131.5,74.1,133.3,73.9,135.4,72.7z"/>
			<path opacity="0.24" fill="#020202" d="M142.4,58.5c-0.7,0.1-1.3,0.3-1.9,0.5c-0.1,0.9-0.3,1.8-0.6,2.7c1,0.3,1.9,0.7,2.8,1.1
				c0,0,0,0,0,0c0.5-1.5,0.8-3,0.9-4.5C143.2,58.4,142.8,58.4,142.4,58.5z"/>
			<path opacity="0.24" fill="#020202" d="M138.3,70.3c1-1,2-2.4,2.9-4.1c-1-0.5-2-0.9-2.9-1.1c-0.5,0.7-1,1.4-1.6,2.1
				c-0.3,0.3-0.5,0.5-0.8,0.8C136.7,68.7,137.6,69.5,138.3,70.3z"/>
			<path opacity="0.24" fill="#020202" d="M57,106.3c1.8-2.9,6.1-4.9,11-6.2c-0.1-1.2-0.2-2.4-0.3-3.5l-19.9-5.2
				c-2.3,8.5-7.5,8.5-9.6,7.5c0.3,0.5,0.6,0.8,1.2,1C39.4,99.9,48,105.2,57,106.3L57,106.3z"/>
		</g>
	</g>
	<g>
		<path fill="#F5F5F5" d="M18.5,205.4c-1,0-1.9-0.8-1.9-1.9V188l-5.1,6.3c-0.3,0.4-0.9,0.7-1.4,0.7s-1.1-0.2-1.4-0.7L3.7,188v15.6
			c0,1-0.8,1.9-1.9,1.9S0,204.6,0,203.6v-20.9c0-1,0.8-1.9,1.9-1.9c0.6,0,1.1,0.3,1.5,0.7l6.9,8.6l6.9-8.6c0.3-0.4,0.9-0.7,1.5-0.7
			c1,0,1.9,0.8,1.9,1.9v20.9C20.4,204.6,19.5,205.4,18.5,205.4z"/>
		<path fill="#F5F5F5" d="M34.7,205.3H31c-3.4,0-6.2-2.3-6.2-6.2v-6.6c0-3.9,2.7-6.2,6.2-6.2h3.7c3.5,0,6.2,2.4,6.2,6.2v6.6
			C40.8,203,38.2,205.3,34.7,205.3z M37.1,192.6c0-1.7-0.9-2.5-2.5-2.5H31c-1.5,0-2.5,0.8-2.5,2.5v6.6c0,1.6,1,2.5,2.5,2.5h3.7
			c1.6,0,2.5-0.8,2.5-2.5V192.6z"/>
		<path fill="#F5F5F5" d="M55.2,205.3h-3.7c-3.4,0-6.2-2.3-6.2-6.2v-6.6c0-3.9,2.7-6.2,6.2-6.2h3.7c3.5,0,6.2,2.4,6.2,6.2v6.6
			C61.4,203,58.7,205.3,55.2,205.3z M57.7,192.6c0-1.7-0.9-2.5-2.5-2.5h-3.7c-1.5,0-2.5,0.8-2.5,2.5v6.6c0,1.6,1,2.5,2.5,2.5h3.7
			c1.6,0,2.5-0.8,2.5-2.5V192.6z"/>
		<path fill="#F5F5F5" d="M80.1,205.4c-0.9,0-1.9-0.7-1.9-1.9v-11c0-1.6-0.9-2.5-2.5-2.5h-6.2v13.4c0,1.2-0.9,1.9-1.9,1.9
			c-0.9,0-1.9-0.7-1.9-1.9v-15.3c0-1.2,0.9-1.9,1.9-1.9h8c3.5,0,6.2,2.4,6.2,6.2v11C82,204.7,81.1,205.4,80.1,205.4z"/>
		<path fill="#F5F5F5" d="M96.4,205.3h-8c-0.9,0-1.9-0.7-1.9-1.9v-20.8c0-1.2,0.9-1.9,1.9-1.9c0.9,0,1.9,0.6,1.9,1.9v3.7h6.2
			c3.4,0,6.2,2.3,6.2,6.2v6.6C102.5,203,99.8,205.3,96.4,205.3z M98.8,192.6c0-1.6-1-2.5-2.5-2.5h-6.2v11.5h6.2
			c1.5,0,2.5-0.8,2.5-2.5V192.6z"/>
		<path fill="#F5F5F5" d="M120.6,205.3h-8.2c-3.3,0-6-2.7-6-6c0-3.3,2.7-6,6-6h6.4v-0.8c0-1.6-1-2.5-2.5-2.5h-6.6
			c-1,0-1.9-0.8-1.9-1.9c0-1,0.8-1.9,1.9-1.9h6.6c3.4,0,6.2,2.3,6.2,6.2v10.9C122.4,204.7,121.4,205.3,120.6,205.3z M118.7,197.1
			h-6.4c-1.2,0-2.3,1-2.3,2.3s1,2.3,2.3,2.3h6.4V197.1z"/>
		<path fill="#F5F5F5" d="M136.3,205.3h-8.2c-1,0-1.9-0.8-1.9-1.9s0.8-1.9,1.9-1.9h8.2c1.2,0,2.3-1,2.3-2.3s-1-2.3-2.3-2.3h-4.6
			c-2.9,0-5.3-2.4-5.3-5.3c0-2.9,2.4-5.3,5.3-5.3h8.6c1,0,1.9,0.8,1.9,1.9c0,1-0.8,1.9-1.9,1.9h-8.6c-0.9,0-1.6,0.7-1.6,1.6
			s0.7,1.6,1.6,1.6h4.6c3.3,0,6,2.7,6,6C142.3,202.7,139.6,205.3,136.3,205.3z"/>
		<path fill="#F5F5F5" d="M160.3,197.1h-10.5v2.1c0,1.6,1,2.5,2.5,2.5h6.6c1,0,1.9,0.8,1.9,1.9s-0.8,1.9-1.9,1.9h-6.6
			c-3.4,0-6.2-2.3-6.2-6.2v-6.6c0-3.9,2.7-6.2,6.2-6.2h3.7c3.5,0,6.2,2.3,6.2,6.2v2.7C162.2,196.3,161.4,197.1,160.3,197.1z
			 M158.5,192.6c0-1.7-0.9-2.5-2.5-2.5h-3.7c-1.5,0-2.5,0.8-2.5,2.5v0.8h8.6V192.6z"/>
	</g>
</g>
</svg>
