<?xml version="1.0" encoding="utf-8"?>
<!-- Generator: Adobe Illustrator 18.0.0, SVG Export Plug-In . SVG Version: 6.00 Build 0)  -->
<!DOCTYPE svg PUBLIC "-//W3C//DTD SVG 1.1//EN" "http://www.w3.org/Graphics/SVG/1.1/DTD/svg11.dtd">
<svg version="1.1" id="FINAL-MOXTRA" xmlns="http://www.w3.org/2000/svg" xmlns:xlink="http://www.w3.org/1999/xlink" x="0px"
	 y="0px" viewBox="0 0 732.4 133.4" enable-background="new 0 0 732.4 133.4" xml:space="preserve">
<g>
	<g>
		<g>
			<path fill="#FFFFFF" d="M96.8,68.7c-15.5,0-28.1,12.6-28.1,28.1c0,15.5,12.6,28.1,28.1,28.1c15.5,0,28.1-12.6,28.1-28.1
				C124.9,81.3,112.3,68.7,96.8,68.7z M28.1,56.2c15.5,0,28.1-12.6,28.1-28.1C56.2,12.6,43.6,0,28.1,0C12.6,0,0,12.6,0,28.1
				C0,43.6,12.6,56.2,28.1,56.2z M96.8,56.2c15.5,0,28.1-12.6,28.1-28.1C124.9,12.6,112.3,0,96.8,0C81.3,0,68.7,12.6,68.7,28.1v9.4
				c0,17.2-14,31.2-31.2,31.2h-9.4C12.6,68.7,0,81.3,0,96.8c0,15.5,12.6,28.1,28.1,28.1c15.5,0,28.1-12.6,28.1-28.1v-9.4
				c0-17.2,14-31.2,31.2-31.2H96.8z"/>
		</g>
	</g>
	<path fill="#FFFFFF" d="M332.6,16.4c-26.5,0-48,21.6-48,48.1c0,26.5,21.5,48.1,48,48.1c26.5,0,48-21.6,48-48.1
		C380.6,38,359,16.4,332.6,16.4z M332.6,95.8c-17.3,0-31.3-14.1-31.3-31.3c0-17.3,14-31.3,31.3-31.3c17.3,0,31.3,14.1,31.3,31.3
		C363.9,81.7,349.8,95.8,332.6,95.8z"/>
	<path fill="#FFFFFF" d="M176,14.2v98.3h16.7V43.7l33.4,20.1l33.4-20.1v68.8h16.7V14.2l-50.1,30.1L176,14.2z"/>
	<path fill="#FFFFFF" d="M660.3,14.9l-58.7,79.4L588,75.7c10.2-5.2,17.2-15.8,17.2-28.1c0-17.2-14-31.2-31.2-31.2H439.2l-25.2,34.1
		l-25.2-34.1H368l35.5,48.1l-35.5,48h20.8l25.1-34l40.5,54.8h20.8l-50.9-68.9l23.2-31.4h29v79.4h16.7V33.1h33.4v79.4h16.7V33.1h30.5
		c8,0,14.5,6.5,14.5,14.5c0,8.1-6.5,14.7-14.5,14.7h-16.5l37,50.2h14.6L660.3,43l51.3,69.5h20.8L660.3,14.9z"/>
</g>
</svg>
