<?xml version="1.0" encoding="utf-8"?>
<!-- Generator: Adobe Illustrator 18.0.0, SVG Export Plug-In . SVG Version: 6.00 Build 0)  -->
<!DOCTYPE svg PUBLIC "-//W3C//DTD SVG 1.1//EN" "http://www.w3.org/Graphics/SVG/1.1/DTD/svg11.dtd">
<svg version="1.1" id="Layer_1" xmlns="http://www.w3.org/2000/svg" xmlns:xlink="http://www.w3.org/1999/xlink" x="0px" y="0px"
	 viewBox="144.6 67.6 734.8 907.8" enable-background="new 144.6 67.6 734.8 907.8" xml:space="preserve">
<path fill="#FC7E0F" stroke="#FFFFFF" stroke-width="0.8266" stroke-miterlimit="10" d="M512,802c-202.7,0-367-164.3-367-367
	S309.3,68,512,68s367,164.3,367,367S714.7,802,512,802z M434.1,759.7c19.8-15.1,38.8-32.6,56.6-52.4c-9.1-10.4-17.8-21.3-26.1-32.8
	l-33.8,84.4C431.8,759.2,432.9,759.5,434.1,759.7z M511.5,682.3c11.5-14.8,22.2-30.6,32.2-47.3L512,555.7L479.9,636
	C489.7,652.4,500.3,667.8,511.5,682.3z M530.7,705.4c18.3,20.6,38,38.8,58.5,54.5c1.4-0.3,2.7-0.7,4.1-1l-35.5-88.7
	C549.2,682.6,540.1,694.3,530.7,705.4z M553.1,766.4c-14.9-11.6-29.3-24.3-43-38.1c-13.3,13.8-27.2,26.4-41.5,37.9
	c14.2,1.8,28.7,2.8,43.4,2.8C525.9,768.9,539.6,768.1,553.1,766.4z M512,101.1c-184.4,0-333.9,149.5-333.9,333.9
	c0,147.5,95.6,272.7,228.3,316.9l85.8-257.3c-25-8.3-43-31.8-43-59.6c0-34.7,28.1-62.8,62.8-62.8s62.8,28.1,62.8,62.8
	c0,27.7-18,51.3-43,59.6l85.8,257.3C750.3,707.7,845.9,582.5,845.9,435C845.9,250.6,696.4,101.1,512,101.1z M697.9,620.9l-23.4-23.4
	c41.6-41.6,67.3-99,67.3-162.5s-25.7-120.9-67.3-162.5l23.4-23.4c47.6,47.6,77,113.3,77,185.9C774.9,507.6,745.4,573.3,697.9,620.9z
	 M602.6,525.6c23.2-23.2,37.5-55.2,37.5-90.6s-14.3-67.4-37.5-90.6L626,321c29.2,29.2,47.2,69.5,47.2,114s-18,84.8-47.2,114
	L602.6,525.6z M398,549c-29.2-29.2-47.2-69.5-47.2-114s18-84.8,47.2-114l23.4,23.4c-23.2,23.2-37.5,55.2-37.5,90.6
	s14.3,67.4,37.5,90.6L398,549z M326.1,620.9c-47.6-47.6-77-113.3-77-185.9c0-72.6,29.4-138.3,77-185.9l23.4,23.4
	c-41.6,41.6-67.3,99-67.3,162.5c0,63.5,25.7,120.9,67.3,162.5L326.1,620.9z"/>
<text transform="matrix(1 0 0 1 189.4436 971.3799)" fill="#FC7E0F" font-family="'Concourse-Bold'" font-size="106" letter-spacing="17">OVERCAST</text>
</svg>
