<svg width="80" height="40" viewBox="0 0 80 40" xmlns="http://www.w3.org/2000/svg"><title>Pilot</title><path d="M70.528 11.627l.586-.245c.292-.147.634-.49.78-.834l.244-.735 1.025-2.942-16.588 6.277c.195.98.293 2.01.293 3.09 0 .49-.05.98-.05 1.47l13.71-6.08zM78.09 1.43h-.098l-.195.048c-.634.147-1.707.44-2.34.588l-.733.196-20.247 5.246c.78 1.324 1.366 2.795 1.757 4.315L78.627 3.39l.292-1.128c.243-.637-.196-1.03-.83-.833zm-4 5.098l-.196.637-1.024 2.942-.244.735c-.195.54-.683 1.08-1.17 1.275l-.586.245-13.758 6.03-.44.197c-.39 2.99-1.56 5.735-3.317 8.04l.244.343 20.246-8.825c.634-.245 1.268-1.03 1.414-1.667l.39-1.52 2.635-10-4.195 1.568zm-51.914.196L5.003 2.31l-.73-.244c-.636-.147-1.71-.44-2.343-.588l-.195-.05h-.098c-.634-.146-1.024.197-.878.834L1.05 3.39l21.075 7.943v-4.61h.05zM7.882 10.548c.097.343.44.687.78.834l.586.245 12.928 5.638v-4.56L6.613 6.87l1.025 2.943.244.735zM21.835 18l-12.93-5.638-.584-.245c-.487-.245-1.024-.784-1.17-1.275l-.244-.735-1.024-2.942-.196-.637-4.195-1.57 2.635 10.003.39 1.52c.147.638.83 1.423 1.415 1.668l16.246 7.11v-7.11l-.34-.147zm32.59-5.344C52.814 5.792 46.714.694 39.444.694c-2.926 0-5.707.833-8.048 2.255H24.03v35.09h7.074v-8.812c2.39 1.57 5.27 2.45 8.342 2.45 8.49 0 15.417-6.912 15.417-15.49-.05-.933-.098-1.865-.293-2.796-.05-.245-.097-.49-.146-.736zm-14.98 11.62c-4.438 0-8.048-3.628-8.048-8.09v-.392c0-.196 0-.392.05-.588.486-4.02 3.853-7.11 7.95-7.11 4.1 0 7.514 3.09 7.953 7.11.05.294.05.588.05.882v.1c.047 4.46-3.563 8.088-7.954 8.088z" fill="#fff"/></svg>
