<?xml version="1.0" encoding="utf-8"?>
<!-- Generator: Adobe Illustrator 19.1.0, SVG Export Plug-In . SVG Version: 6.00 Build 0)  -->
<svg version="1.2" baseProfile="tiny" id="Layer_1" xmlns="http://www.w3.org/2000/svg" xmlns:xlink="http://www.w3.org/1999/xlink"
	 x="0px" y="0px" viewBox="0 0 427.9 108.7" xml:space="preserve">
<path fill="#FFFFFF" d="M87,43.5c12,0,21.8-9.8,21.8-21.8C108.7,9.8,99,0,87,0C75,0,65.2,9.8,65.2,21.8v10.6H43.5V21.8
	C43.5,9.8,33.8,0,21.8,0C9.8,0,0,9.8,0,21.8c0,12,9.8,21.8,21.8,21.8h10.6v21.7H21.8C9.8,65.2,0,75,0,87c0,12,9.8,21.8,21.8,21.8
	c12,0,21.8-9.8,21.8-21.8V76.3h21.7V87c0,12,9.8,21.8,21.8,21.8c12,0,21.8-9.8,21.8-21.8c0-12-9.8-21.8-21.8-21.8H76.3V43.5H87z
	 M76.3,21.8c0-5.9,4.8-10.6,10.6-10.6c5.9,0,10.6,4.8,10.6,10.6c0,5.9-4.8,10.6-10.6,10.6H76.3V21.8z M32.4,87
	c0,5.9-4.8,10.6-10.6,10.6c-5.9,0-10.6-4.8-10.6-10.6c0-5.9,4.8-10.6,10.6-10.6h10.6V87z M32.4,32.4H21.8c-5.9,0-10.6-4.8-10.6-10.6
	c0-5.9,4.8-10.6,10.6-10.6c5.9,0,10.6,4.8,10.6,10.6V32.4z M65.2,65.2H43.5V43.5h21.7V65.2z M87,76.3c5.9,0,10.6,4.8,10.6,10.6
	c0,5.9-4.8,10.6-10.6,10.6c-5.9,0-10.6-4.8-10.6-10.6V76.3H87z M326.1,39.5c-13.8,0-20.9,9.8-20.9,22.5c0,13.4,8.4,22,22.5,22.1
	c6.4,0,12-1.7,15-2.9l0.5-7.5c-3.7,1.9-8.4,3.3-13.7,3.3c-8.4,0-14.5-5.3-14.6-13.6h30.5V62C345.4,48.8,338.9,39.5,326.1,39.5z
	 M335.7,57h-20.8c0.3-5.2,2.9-10.8,10.7-10.8c7.8,0,10.1,6.5,10.1,10V57z M393.2,55.9c0-10.2-4.8-16.5-14.8-16.5
	c-8.5,0-13.3,4.9-15,10.4h-0.2c0.6-3.6,0.8-6.6,0.8-9.4h-15.2v6.7h5.8v29.2h-4.8v6.7h19.7v-6.7H364V61.8c0.1-8.1,3.9-14.7,11.5-14.7
	c5.8,0,8.6,4.4,8.6,10.4c0,6.2,0,18.8,0,18.8h-4.8v6.7h19.6v-6.7h-5.6C393.2,76.3,393.2,62.7,393.2,55.9z M420.9,76.8
	c-4.4,0-6.1-2-6.1-9.8c0-0.2,0-0.4,0-0.5V47.2h12.4v-6.7h-12.4V30.2l-9.3,0.6v9.6h-6.2v6.7h6.2V70l0,0c0,0.3,0,0.7,0,1
	c0,9.6,3.5,13.1,12.5,13.1c3.7,0,7.2-1,9.5-2.1l0.3-6.7C425.9,76,423.4,76.8,420.9,76.8z M286,60.6l12.7-13.4h4.5v-6.7h-18v6.7h5.6
	v0.2c-0.7,0.3-1.1,0.7-1.6,1.3l-7,7.9l-6.8-7.9c-0.5-0.5-1-1-1.6-1.5h5.2v-6.7h-20.5v6.7h4.9l12.5,14.4l-13.5,14.8h-4.7v6.7h18.5
	v-6.7h-5.9v-0.2c0.7-0.3,1.1-0.7,1.6-1.3L280,66l7.6,8.8c0.5,0.6,1,1,1.6,1.5h-5.3v6.7h20.5v-6.7h-4.7L286,60.6z M165.6,28.2
	c-3-1.8-6-2.5-13.7-2.5h-21.6v6.7h5.8v43.9h-5.8v6.7h22v-6.7h-6.9V60.3h8.4c4.8,0,7.6-0.7,11.1-2.7c4.8-2.8,8-8.9,8-15.2
	C172.9,36.1,170.1,30.9,165.6,28.2z M151.8,53.6h-6.5V32.4h5.2c4.3,0,7.1,0.4,9.5,2.5c1.8,1.6,3.2,4.4,3.2,7.8
	C163.3,49,160.1,53.6,151.8,53.6z M248.4,55.3L248.4,55.3c-0.2-9.8-4.2-15.8-16.6-15.8c-9.1,0-14.6,2.8-16.9,3.9v10.6h8.2v-6.2
	c1.4-0.6,4.5-1.5,7.7-1.5c7.5,0,9.4,3.7,9.4,8.9v3.2l-8.8,0.5c-7,0.3-18.4,1.8-18.4,13c0,5.4,3.4,12.2,13.6,12.2
	c8.9,0,12.4-5,14.2-9.8h0.2c-0.5,2.9-0.7,6.1-0.7,8.8h13.5v-6.7h-5.4V55.3z M240,66c0,5.4-3.9,10.8-11,10.8c-4.3,0-6.8-2.5-6.8-5.7
	c0-6.3,8.3-6.7,17.8-6.8V66z M192.8,52.4l-0.2-0.2c0.5-4.3,0.5-8.6,0.5-11.8H178v6.7h6.3v15.6v13.6h-5.2v6.7h20.6v-6.7h-6.1V64.1
	c0-8.6,3.6-16.3,11.7-16.3c1.9,0,3,0.2,4.2,0.7l1-8.1c-0.8-0.3-2.9-0.7-5.2-0.7C199.1,39.6,194.4,44.4,192.8,52.4z"/>
</svg>
