<?xml version="1.0" encoding="utf-8"?>
<!-- Generator: Adobe Illustrator 18.0.0, SVG Export Plug-In . SVG Version: 6.00 Build 0)  -->
<!DOCTYPE svg PUBLIC "-//W3C//DTD SVG 1.1//EN" "http://www.w3.org/Graphics/SVG/1.1/DTD/svg11.dtd">
<svg version="1.1" id="Layer_1" xmlns="http://www.w3.org/2000/svg" xmlns:xlink="http://www.w3.org/1999/xlink" x="0px" y="0px"
	 viewBox="0 0 321.9 121.8" enable-background="new 0 0 321.9 121.8" xml:space="preserve">
<g>
	<g>
		<path fill="none" stroke="#2D5F2E" stroke-width="3" stroke-miterlimit="10" d="M119.5,72.3c-0.7,2.2-1.9,3.9-3.5,5.1
			c-1.5,1.2-3.1,1.7-4.8,1.5c-1.7-0.1-3-0.9-3.8-2.4c-1.9-3.3-1.4-6.7,1.5-10.4c1.5-1.8,3.1-3.3,5-4.5c-0.5-1.4-1.2-2.7-2.2-4
			c-0.2-0.3-0.6-0.9-1.2-1.6c-0.5-0.7-0.9-1.2-1.1-1.5c-1.6-2.4-2.1-5.2-1.3-8.5c0.4-1.9,1.4-3.5,3-4.6c1.3-0.9,3-1.5,5-1.6
			c1.7-0.2,3.4,0,5,0.4c1.6,0.4,2.7,0.9,3.3,1.6c1.1,1.2,1.4,2.6,1,4.3c-0.4,1.5-1.1,2.4-2.1,2.5c-1.2,0.1-2.6-0.9-3.9-3
			c0,0-0.2-0.4-0.6-1.2c-0.3-0.7-0.6-1.2-1-1.5c-1.1-0.9-2.3,0-3.6,2.7c-1.4,2.7-1.2,5.9,0.5,9.7c0.8,1.9,1.8,3.4,3,4.7
			c1.9-0.6,4.1-1,6.4-1c4.7-0.1,8,1.4,9.9,4.5c0.7,0.8,0.8,1.3,0.3,1.8c-0.1,0.1-0.3,0.2-0.4,0.2c-0.1,0-0.2-0.1-0.2-0.2
			c-0.4-0.5-0.8-0.8-1.2-1c-3-1.7-6.1-2.3-9.1-1.7c-1.5,0.3-2.7,0.7-3.6,1.4C120.4,67,120.3,69.8,119.5,72.3z M112.9,69.5
			c-2.3,2.5-2.8,4.2-1.5,5.3c1.6,1.3,2.9,0.3,4-3.2c0.6-1.7,1-3.5,1.2-5.5C115.3,67.1,114,68.2,112.9,69.5z"/>
		<path fill="none" stroke="#2D5F2E" stroke-width="3" stroke-miterlimit="10" d="M141.6,78.6c-3,0.6-5.7-0.1-7.9-1.9
			c-3.3-2.7-3.9-6.8-1.8-12.3c1.1-2.8,2.4-5.3,4.1-7.5c0.8-1,1.6-1.6,2.5-1.9c1.4-0.5,2.7,0,3.9,1.4c1.2,1.5,1.5,2.8,0.7,4.1
			c-0.1,0.1-1.2,1.4-3.5,3.8c-1.9,2-2.9,3.8-3,5.6c-0.1,2,1.1,3.4,3.6,4.3c2.2,0.8,4.9-0.1,8-2.7c2.8-2.3,4.7-4.9,5.8-7.6
			c0.2-0.4,0.5-1.1,0.9-2.1c0.4-0.9,0.7-1.6,0.9-2.1c0.6-1.6,0.7-2.9,0.2-3.9c-2.1,1.7-4.7,2.1-7.7,1.4c-1.4-0.3-2.6-1-3.7-2.1
			c-1.5-1.5-1.6-3.2-0.2-5c1.8-2.4,4.9-3.5,9.4-3.1c1.2,0.1,2.6,0.8,4.3,2c1.5,1.1,2.3,1.9,2.4,2.4c0,0.2,0.9-0.7,2.7-2.7
			c1.9-2.2,3-3.1,3.6-2.9c1.6,0.7,1.7,2.5,0.2,5.4c-0.1,0.2-0.5,1-1.3,2.2c-1,1.6-1.8,3-2.5,4.2c-2.6,4.6-5,9.2-7.2,13.8
			c-7,14.8-11.4,28.7-13.4,41.8c-0.3,1.7-0.6,2.9-0.8,3.6c-0.5,1.7-1.6,2.8-3.2,3.3c-1.4,0.5-2.3,0.4-2.9-0.1
			c-0.4-0.4-0.4-2-0.2-4.7c0.2-2.5,0.6-4.6,1-6.5c1.9-8.2,5.4-17.6,10.7-28.1c0.7-1.5,1.8-3.6,3.3-6.5
			C147.5,76.5,144.5,78.1,141.6,78.6z M151.7,50.3c-1,0-1.5,0.4-1.5,1.1c0,0.8,0.6,1.2,1.9,1.4c1.8,0.3,3.1,0,3.8-0.6
			C154.4,51,153,50.3,151.7,50.3z"/>
		<path fill="none" stroke="#2D5F2E" stroke-width="3" stroke-miterlimit="10" d="M171.8,51c0.9-2.2,1.9-3.5,3.1-3.9
			c1.2-0.5,2.5-0.1,4,1.2c0.7,0.6,1,1.3,0.9,2.2c-0.1,0.8-0.5,1.7-1.2,2.7c-0.2,0.3-2.1,2.7-5.9,7.2c-2.2,2.7-3.6,5.2-3.9,7.5
			c-0.4,2.3,0.2,3.9,1.8,4.8c1.3,0.7,3,0.3,5.1-1.3c1.8-1.4,3.8-3.5,5.9-6.3c4.2-5.5,6.8-10.1,8-13.7c0.8-2.2,1.9-3.1,3.4-3
			c1.1,0.1,2.5,0.9,4.2,2.3c1.2,1,1.6,2,1.3,2.8c-0.1,0.3-0.9,1.2-2.4,2.8c-2,2.2-3.5,4.7-4.5,7.3c-0.9,2.4-1.1,4.5-0.7,6.3
			c0.6,2.2,2.1,3.6,4.6,4.2c3.1,0.7,6.7-0.6,10.8-4c0.8-0.6,1.8-1.3,3-2.2c1.6-1.3,2.4-2,2.4-1.9c1.6-1.2,2.5-1.7,2.8-1.6
			c0.8,0.4,0.8,1.1,0.2,2.2c-0.5,0.9-1.7,2.4-3.7,4.5c-5.9,7-12.1,9.7-18.6,8.1c-3.7-0.9-5.9-3.4-6.6-7.3c-0.4-2-0.4-3.9,0-5.7
			c-0.8,0.7-2.2,2-4,4c-2,2.2-3.6,3.7-4.7,4.7c-4,3.6-7.3,4.9-10.1,4.1c-2.9-0.9-4.4-3.4-4.5-7.4c-0.1-3.3,0.5-6,1.8-7.9
			C165.5,62,168,57.7,171.8,51z"/>
		<path fill="none" stroke="#2D5F2E" stroke-width="3" stroke-miterlimit="10" d="M212.3,57.2c0.1-0.3,0.6-1.5,1.4-3.4
			c0.8-1.8,1.2-2.9,1.4-3.3c1-2.1,1.8-3.4,2.4-3.8c1-0.8,2.3-0.5,3.9,1.1c0.7,0.7,1.1,1.2,1.3,1.7c0.2,0.4,0.2,0.8,0,1.2
			c-0.1,0.3-0.4,0.7-0.9,1.3c-0.6,0.8-1,1.4-1.4,2c-2.5,4.1-4.1,7-4.8,8.8c-1.1,2.9-1.6,5.2-1.5,6.8c0.2,2.4,1.5,3.9,4.1,4.5
			c3.2,0.6,6.3,0.1,9.3-1.6c1.9-1.1,4.9-3.2,8.9-6.5c0.4-0.3,0.7-0.4,1-0.2c0.2,0.2,0.3,0.6,0.1,1.2c-0.4,1.6-2,3.7-4.8,6.2
			c-4.8,5.4-10.8,7.2-17.8,5.5c-2.4-0.6-4.1-1.4-5.1-2.4c-1.1-1.1-1.7-2.8-1.9-5C207.8,68.8,209.2,64.1,212.3,57.2z M220.1,36.5
			c0-1.5,0.7-2.4,2.2-2.6c1.2-0.2,2.5,0,3.8,0.7c0.9,0.5,1.4,1.1,1.6,1.9c0,0.4,0,1.1-0.2,2c-1.9,1.7-3.3,2.4-4.4,2.1
			C221.1,40,220.1,38.6,220.1,36.5z"/>
		<path fill="none" stroke="#2D5F2E" stroke-width="3" stroke-miterlimit="10" d="M264.6,21.4c2.9-6.6,4.4-10.1,4.6-10.5
			c0.1-0.2,0.5-0.9,1.2-2.2c0.7-1.3,1.2-2.3,1.7-3.1c1.5-2.6,2.6-3.6,3.3-2.8c1.1,1.1,1.6,3,1.6,5.9c0,1.1-0.1,3-0.3,5.6
			C268,27.8,260.9,45.8,255.4,68c-2.2,8.8-3.3,13.9-3.3,15.4c0,0.8-0.2,2.4-0.7,4.7c-0.5,2.8-0.9,5.4-1.1,7.8
			c-0.1,2.2-0.2,5-0.2,8.5c0,0.9-0.8,0.3-2.3-1.7c-0.4-1.8-0.7-3.3-0.7-4.6c0-0.4-0.2-1.6-0.5-3.5c-0.3-1.7-0.3-3.1-0.2-4.4
			c0.2-2.2,0.6-4.8,1-7.8c-0.2-2-0.9-2.8-2-2.6c-2.2,0.4-3.8,0.6-4.9,0.6c-3.1,0-5.4-1.1-7.1-3.2c-1.5-1.9-2.2-4.4-2.1-7.4
			c0.1-6,3.5-11.5,10.3-16.5c2.4-1.7,5.3-3.3,8.9-4.7c3.2-1.3,4.7-1.7,4.7-1.3C255.4,44.3,258.5,35.7,264.6,21.4z M238.2,66.8
			c0,2.3,1.1,4.3,3.4,6c1.2,0.9,3.1,1.4,5.6,1.3c0.4-1,0.9-3.3,1.7-7.1c1-4.6,2.3-8.7,4-12.3c-5.1,1.1-8.9,2.9-11.6,5.6
			C239.3,62.4,238.3,64.6,238.2,66.8z"/>
		<path fill="none" stroke="#2D5F2E" stroke-width="3" stroke-miterlimit="10" d="M280.1,70.4c3.3-2.1,6.5-4.5,9.6-7.4
			c1.5-1.4,2.6-1.8,3.2-1.1c0.4,0.5,0,1.5-1.3,2.9c-9.6,10.9-17.9,15.5-24.7,13.7c-1.2-0.3-2.2-1.1-3-2.4c-0.7-1.2-1.2-2.7-1.4-4.6
			c-0.4-3.9,0.2-7.9,2-11.9c1.1-2.4,2.6-4.9,4.6-7.5c2-2.7,4.1-4.8,6.2-6.4c2.3-1.8,4.3-2.6,6-2.5c1.9,0.2,3.2,1.7,3.9,4.4
			c1.2,4.9-1.1,9.1-6.8,12.5c-2.9,1.7-5.8,2.9-8.9,3.7c-0.6,1.9-0.9,3.8-1,5.7c0,2.2,0.3,3.5,1.2,3.9
			C271.6,74.7,275.1,73.6,280.1,70.4z M274.9,54.5c-1.5,2-2.9,4-4.1,6.2c3.8-0.9,6.7-2.5,8.8-5c0.9-1,1.4-2.1,1.6-3.1
			c0.2-1,0.1-1.8-0.5-2.5C279.8,49.1,277.8,50.5,274.9,54.5z"/>
		<path fill="none" stroke="#2D5F2E" stroke-width="3" stroke-miterlimit="10" d="M307.4,70.4c3.3-2.1,6.5-4.5,9.6-7.4
			c1.5-1.4,2.6-1.8,3.2-1.1c0.4,0.5,0,1.5-1.3,2.9c-9.6,10.9-17.9,15.5-24.7,13.7c-1.2-0.3-2.2-1.1-3-2.4c-0.7-1.2-1.2-2.7-1.4-4.6
			c-0.4-3.9,0.2-7.9,2-11.9c1.1-2.4,2.6-4.9,4.6-7.5c2-2.7,4.1-4.8,6.2-6.4c2.3-1.8,4.3-2.6,6-2.5c1.9,0.2,3.2,1.7,3.9,4.4
			c1.2,4.9-1.1,9.1-6.8,12.5c-2.9,1.7-5.8,2.9-8.9,3.7c-0.6,1.9-0.9,3.8-1,5.7c0,2.2,0.3,3.5,1.2,3.9
			C299,74.7,302.4,73.6,307.4,70.4z M302.2,54.5c-1.5,2-2.9,4-4.1,6.2c3.8-0.9,6.8-2.5,8.8-5c0.9-1,1.4-2.1,1.6-3.1
			c0.2-1,0.1-1.8-0.5-2.5C307.1,49.1,305.2,50.5,302.2,54.5z"/>
		<path fill-rule="evenodd" clip-rule="evenodd" fill="#2C602F" d="M218,38.9c0-0.1,0.1-0.2,0.3-0.1c0.1,0,0.1,0.1,0.1,0.1
			c0.1,0,0-0.1,0.1,0c0,0,0.1,0.1,0.1,0.2c0.2,0.1,0.6,0.2,0.8,0.1c0,0,0-0.1,0.1-0.1c0.1-0.1,0.3-0.3,0.3-0.3c0,0,0-0.1,0-0.2
			c0.1-0.1,0.2-0.3,0.2-0.4c0-0.1,0-0.3,0-0.4c0,0,0.1,0,0.1,0c0-0.1-0.1-0.4-0.1-0.4c0,0,0.1,0,0.1-0.1c0,0,0,0,0-0.1
			c0-0.1,0.1-0.3,0.1-0.3c0-0.2-0.5-0.4-0.5-0.5c-0.1-0.1-0.1-0.3-0.1-0.5c0,0-0.1-0.2,0-0.3c0,0,0.2,0,0.2,0
			c0.1,0.1,0.2,0.2,0.3,0.3c0.1,0,0.4,0,0.5,0c0,0,0.1,0.1,0.2,0.1c0.1,0,0.1-0.2,0.2-0.3c0.2-0.1,0.4,0,0.6,0
			c0.1,0,0.1-0.1,0.2-0.1c0.1,0,0.2,0,0.3,0c0.1,0,0.1-0.1,0.2-0.2c0-0.1,0-0.1,0-0.2c0-0.1,0.1-0.2,0.1-0.3c0-0.2-0.1-0.3-0.2-0.5
			c0-0.1,0-0.1,0-0.1c0,0-0.1-0.1-0.1-0.2c0-0.1,0.1-0.1,0.1-0.2c0-0.2-0.1-0.4-0.1-0.5c0-0.1,0.1-0.1,0.1-0.2c0-0.1-0.1-0.2,0-0.2
			c0-0.1,0.1-0.1,0.1-0.2c0-0.1,0-0.3,0-0.5c0-0.1,0-0.2,0.1-0.2c0-0.1,0.2-0.2,0.2-0.3c0-0.1-0.1-0.4-0.1-0.6
			c0-0.3-0.2-0.6-0.2-0.8c0,0,0-0.1,0-0.1c0-0.1-0.2-0.2-0.1-0.3c0,0,0.3-0.2,0.4-0.2c0.1,0,0.4,0,0.5,0.1c0.1,0.1,0.3,0.4,0.4,0.7
			c0,0.1,0,0.1,0,0.2c0,0.1,0.1,0.2,0.1,0.3c0,0.1,0,0.2,0,0.2c0,0.1,0.1,0.1,0.1,0.1c0,0.1,0,0.1,0,0.2c0,0.1,0.1,0.1,0.1,0.2
			c0,0,0,0.1,0,0.1c0.1,0.1,0.2,0.1,0.3,0.2c0,0,0,0.1,0,0.1c0.1,0.1,0.3,0.1,0.5,0.1c0,0,0,0,0.1,0.1c0.2,0,0.4,0,0.6,0.2
			c0.1,0.1,0,0.4-0.1,0.5c-0.1,0.2-0.1,0.3-0.1,0.5c0,0.2-0.1,0.4-0.1,0.4c0,0.2,0.1,0.6,0.2,0.6c0.2,0.1,0.3,0,0.4-0.2
			c0.1-0.4,0.3-0.7,0.3-1c0-0.1,0-0.2,0.1-0.3c0-0.1,0-0.2,0-0.3c0-0.1-0.1-0.1-0.1-0.2c0-0.1,0.1-0.1,0.1-0.2c0,0,0-0.2,0-0.3
			c0-0.1,0.1-0.4,0.2-0.5c0.2-0.1,0.1,0.2,0.1,0.3c0,0.1,0,0.2,0,0.2c0,0.1-0.1,0.1-0.2,0.2c-0.1,0.3,0.1,0.8,0.3,1.1
			c0.3,0.3,0.6,0,0.9-0.3c0.1-0.1,0.2-0.1,0.2-0.2c0-0.1,0-0.5,0.2-0.4c0,0,0.1,0.1,0.1,0.2c0,0.2-0.1,0.2-0.1,0.4
			c0,0.1,0.1,0.1,0.1,0.2c0,0-0.1,0,0,0.1c0,0,0.2,0,0.3,0c0.1,0.1,0.1,0.1,0.2,0.3c0,0,0.1,0.1,0.1,0.1c0,0,0,0.1,0,0.1
			c0,0,0.1,0,0.1,0c0.1,0.1,0.1,0.3,0.3,0.3c0.2,0,0.1-0.4,0.3-0.5c0,0,0.1,0,0.1,0c0.1,0,0.1-0.1,0.1-0.1c0.1,0,0.1,0.1,0.2-0.1
			c0-0.1,0-0.2,0-0.2c0-0.1,0.3-0.3,0.4-0.3c0,0,0,0,0,0c0.1-0.1,0.3-0.1,0.3-0.3c0-0.1,0.1-0.1,0.2-0.2c0-0.1,0-0.2,0-0.2
			c0.1-0.1,0.3-0.4,0.4-0.6c0-0.1,0.1-0.4,0.2-0.5c0.1,0,0.3,0.1,0.3,0.2c0,0-0.1,0.2-0.2,0.3c-0.1,0.1-0.2,0.2-0.2,0.3
			c0,0.1-0.1,0.2-0.2,0.3c-0.1,0.1,0,0.1-0.1,0.2c0,0.1-0.2,0.3-0.3,0.4c-0.1,0.2-0.1,0.3-0.2,0.5c-0.1,0.1-0.2,0.1-0.2,0.2
			c-0.1,0.1,0.1,0.3,0.1,0.4c0,0,0,0,0,0c0,0,0,0,0.1,0.1c0,0.1-0.1,0.3-0.1,0.4c0,0.1-0.4,0.3-0.2,0.4c0.1,0.1,0.1-0.1,0.2-0.1
			c0,0,0.1,0,0.1,0c0.1,0,0.3-0.1,0.4-0.2c0.1-0.1,0-0.2,0.1-0.3c0-0.1,0.1-0.2,0.2-0.3c0-0.1,0-0.2,0-0.3c0-0.1,0.1,0,0.1,0
			c0-0.1,0-0.3,0.1-0.4c0-0.1,0.1-0.2,0.2-0.4c0-0.1,0.2-0.7,0.3-0.4c0,0.1,0,0.1,0,0.1c0,0.2-0.2,0.4-0.3,0.7
			c-0.1,0.2-0.2,0.5-0.3,0.8c0,0.1,0,0.2-0.1,0.3c-0.1,0.2-0.1,0.4-0.2,0.6c0,0-0.1,0.2-0.1,0.2c0,0.1,0.2,0.2,0.2,0.3c0,0,0,0,0,0
			c0,0,0.1,0,0.1,0c0,0,0,0.1,0,0.1c0.1,0.1,0.4,0.2,0.4,0.2c0.1,0,0.3-0.3,0.3-0.4c0.1-0.2,0.3-0.4,0.4-0.6
			c0.1-0.2,0.1-0.3,0.1-0.5c0-0.1,0.2-0.2,0.2-0.2c0.2,0,0,0.2,0,0.3c-0.1,0.2-0.2,0.4-0.3,0.5c-0.1,0.1-0.1,0.2-0.1,0.3
			c0,0.2-0.1,0.5,0,0.5c0.1,0,0.2-0.3,0.2-0.4c0.1-0.2,0.4-0.4,0.6-0.6c0.1-0.1,0.1-0.2,0.1-0.2c0,0,0,0,0.1-0.1
			c0-0.1,0.1-0.1,0.2-0.2c0-0.1,0.1-0.1,0.1-0.2c0.1-0.1,0.2-0.4,0.4-0.3c0,0,0,0,0,0.1c-0.1,0.2-0.6,0.6-0.8,0.9
			c-0.1,0.2-0.2,0.4-0.3,0.5c-0.1,0.1,0,0-0.1,0.1c0,0.1-0.3,0.3-0.4,0.4c-0.1,0.1-0.1,0.2-0.2,0.3c-0.1,0.1-0.3,0.3-0.3,0.4
			c0,0.2,0.1,0.2,0.1,0.4c0,0.2,0,0.4,0.1,0.4c0,0,0.2,0.1,0.3,0.1c0.1,0,0.1-0.1,0.1-0.2c0,0,0.2-0.1,0.2-0.1
			c0.1-0.2,0.1-0.4,0.3-0.4c0,0,0.2,0,0.2,0.1c0,0.1-0.2,0.2-0.2,0.2c-0.1,0.1-0.4,0.3,0,0.3c0.1,0,0.1,0,0.1,0
			c0.1-0.1,0.1-0.4,0.3-0.2c0,0,0.1,0.2,0.1,0.1c0,0.1-0.3,0.3-0.3,0.4c0,0,0,0,0,0.1c0,0.1-0.1,0.3-0.1,0.4c0,0.1,0.1,0,0.1,0
			c0,0,0,0.2,0.1,0.3c0.1,0.1,0.2,0.1,0.2,0.1c0,0,0,0.1,0,0.1c0.2,0.1,0.4-0.1,0.4,0.1c0,0,0,0.1,0,0.1c0,0,0.5,0.1,0.4,0.2
			c0,0-0.2,0-0.3,0c-0.1,0-0.1-0.1-0.2,0.1c-0.1,0.1-0.1,0.4-0.1,0.4c0.1,0.1,0.4,0.2,0.5,0.1c0,0,0-0.1,0-0.1
			c0.1-0.1,0.3-0.5,0.4-0.2c0,0.1-0.1,0.4-0.2,0.5c-0.1,0,0,0-0.1,0.1c0,0.1-0.1,0.1-0.2,0.2c0,0.1,0,0.1,0,0.1c0,0-0.1,0-0.1,0
			c0,0,0,0.1,0,0.1c-0.1,0-0.2,0-0.2,0.1c-0.2,0.2-0.4,0.2-0.4,0.5c0,0.1-0.2,0.3-0.2,0.4c0,0.1,0.1,0.3,0.2,0.4c0,0,0.2,0,0.2,0
			c0,0,0.2,0,0.3,0c0.1,0,0.3-0.2,0.4,0.1c0,0-0.1,0.3-0.1,0.3c-0.1,0-0.2,0-0.3,0c-0.4,0-0.6,0.4-0.8,0.6c0,0,0,0.1,0,0.1
			c0,0-0.1,0-0.1,0c0,0,0,0.1,0,0.1c-0.1,0.1-0.5,0.1-0.6,0.3c-0.2,0.3,0.3,0.3,0.5,0.4c0.1,0,0.1,0.1,0.1,0.1
			c0.1,0.3-0.6,0.2-0.7,0.3c0,0.1,0.1,0.2,0,0.3c0,0.1-0.1,0.1-0.2,0.1c-0.1,0.1-0.7,0.2-0.8,0.3c-0.2,0.2,0,0.5-0.1,0.7
			c0,0.1-0.1,0.3-0.2,0.5c-0.1,0.1-0.1,0.1-0.2,0.2c-0.1,0.2-0.5,0.4-0.8,0.4c-0.1,0-0.2,0-0.3-0.1c0,0,0,0,0-0.1
			c-0.1,0-0.2-0.1-0.2-0.2c0-0.1-0.1-0.2-0.2-0.1c-0.1,0.1,0,0.2-0.1,0.3c-0.1,0.2-0.5,0.3-0.7,0.1c0,0-0.2-0.1-0.2-0.2
			c0,0,0-0.1,0-0.1c-0.2-0.1-0.4,0-0.5,0.1c-0.1,0.2,0.2,0.5-0.1,0.5c-0.2,0-0.2-0.3-0.2-0.3c-0.1-0.4-0.4-0.3-0.7-0.1
			c-0.1,0.1-0.2,0.1-0.2,0.1c-0.1,0.1,0,0.2-0.1,0.2c-0.1,0-0.1,0-0.2,0c0,0,0,0.5-0.1,0.3c0-0.1,0-0.3,0-0.4c0-0.1,0-0.2,0-0.3
			c0-0.1,0.1-0.2,0-0.2c0,0-0.2,0-0.3,0c-0.2,0.1-0.4-0.2-0.6-0.1c-0.1,0-0.2,0.2-0.2,0.2c0,0.1-0.1,0.2-0.3,0.1
			c0,0-0.1-0.2-0.2-0.2c-0.1,0-0.1,0-0.1,0c0,0,0-0.1-0.1-0.1c-0.1,0-0.2,0-0.3,0c-0.1,0-0.2-0.1-0.3-0.1c-0.2,0-0.3,0.2-0.4,0.1
			c-0.1,0-0.2-0.2-0.1-0.3c0-0.1,0.1-0.1,0.2-0.1c0,0-0.1,0-0.1-0.1c0,0,0.1-0.1,0.1-0.2c0-0.1-0.2-0.2-0.3-0.2
			c-0.1,0-0.1,0.1-0.1,0.1c-0.1,0.1-0.4,0.1-0.5,0c0,0,0-0.2,0-0.3c0-0.1,0.2-0.3,0.1-0.4c0-0.1-0.2-0.1-0.2-0.2c0,0,0-0.1-0.1-0.1
			c-0.1,0-0.5,0.2-0.6,0.2c-0.1,0-0.4,0.2-0.5,0.2c-0.3,0-0.2-0.2-0.1-0.2c0,0,0.1,0,0.2,0c0.1-0.1,0.2-0.3,0.2-0.4c0,0,0.1,0,0.1,0
			c0.1-0.1,0.1-0.4-0.1-0.5c-0.1,0-0.3,0-0.3-0.2c-0.1-0.2,0.1-0.3,0.1-0.4c0-0.1-0.1-0.2-0.2-0.3c-0.1-0.1-0.2-0.3-0.3-0.3
			c-0.1-0.1-0.3,0-0.3,0c0,0,0-0.1,0-0.1c0,0-0.2,0-0.2-0.1c0-0.1,0.1-0.2,0.2-0.3c0,0,0,0,0.1,0c0,0,0.4-0.2,0.3-0.1
			c0.1-0.1,0.1-0.5,0.1-0.5c0,0-0.2,0.1-0.2-0.1c0-0.1,0.1,0,0.1,0c0.1-0.1-0.3-0.6-0.4-0.6c-0.1-0.1-0.6,0-0.6-0.2
			c0,0,0.1-0.1,0.1-0.1c0,0-0.1,0-0.1,0c-0.1-0.2,0.2-0.1,0.4-0.1c0.1,0,0.3-0.1,0.3-0.1c0,0,0.2-0.1,0.2-0.2c0-0.1-0.4-0.2-0.5-0.3
			c-0.1,0-0.2-0.1-0.4-0.2C218.3,39.1,217.9,39.2,218,38.9 M219.6,35.6C219.6,35.5,219.5,35.6,219.6,35.6
			C219.5,35.6,219.6,35.6,219.6,35.6 M229.9,34.2C230,34.2,229.9,34.1,229.9,34.2"/>
	</g>
	<g>
		<defs>
			<path id="SVGID_1_" d="M119.8,45.8C119.8,45.8,119.8,45.8,119.8,45.8C119.8,45.8,119.8,45.8,119.8,45.8 M112,75
				c-1.3-1.1-0.8-2.8,1.5-5.3c1.1-1.2,2.4-2.4,3.8-3.4c-0.3,1.9-0.7,3.8-1.2,5.5c-0.8,2.5-1.7,3.7-2.8,3.7
				C112.8,75.5,112.4,75.3,112,75 M116.6,40.1c-2,0.2-3.7,0.7-5,1.6c-1.6,1.1-2.6,2.6-3,4.6c-0.8,3.3-0.3,6.2,1.3,8.5
				c0.3,0.4,0.6,0.9,1.1,1.5c0.6,0.7,1,1.3,1.2,1.6c1,1.3,1.7,2.7,2.2,4c-1.9,1.1-3.5,2.6-5,4.5c-2.9,3.6-3.4,7.1-1.5,10.4
				c0.8,1.5,2.1,2.3,3.8,2.4c1.6,0.1,3.2-0.4,4.8-1.5c1.7-1.2,2.8-2.9,3.6-5.1c0.8-2.5,0.9-5.3,0.2-8.3c0.9-0.6,2.1-1.1,3.6-1.4
				c3-0.6,6.1,0,9.1,1.7c0.4,0.2,0.8,0.6,1.2,1c0.1,0.1,0.2,0.2,0.2,0.2c0.1,0,0.2-0.1,0.4-0.2c0.4-0.4,0.3-1-0.3-1.8
				c-2-3.1-5.3-4.6-10-4.5c-2.3,0-4.5,0.4-6.4,1c-1.1-1.3-2.1-2.9-3-4.7c-1.7-3.7-1.9-6.9-0.5-9.7c1.4-2.7,2.6-3.6,3.6-2.7
				c0.3,0.3,0.6,0.8,0.9,1.5c0.4,0.8,0.6,1.2,0.6,1.2c1.4,2.2,2.7,3.2,3.9,3c1-0.1,1.7-1,2.1-2.5c0.4-1.6,0.1-3.1-1-4.3
				c-0.6-0.7-1.7-1.2-3.3-1.6c-1.2-0.3-2.4-0.5-3.6-0.5C117.5,40,117,40.1,116.6,40.1"/>
		</defs>
		<clipPath id="SVGID_2_">
			<use xlink:href="#SVGID_1_"  overflow="visible"/>
		</clipPath>
		
			<linearGradient id="SVGID_3_" gradientUnits="userSpaceOnUse" x1="45.8098" y1="509.1007" x2="46.8098" y2="509.1007" gradientTransform="matrix(0 -39.1851 -39.1851 0 20069.7617 1874.2639)">
			<stop  offset="0" style="stop-color:#A5CD39"/>
			<stop  offset="1" style="stop-color:#6DBD45"/>
		</linearGradient>
		<rect x="106" y="40" clip-path="url(#SVGID_2_)" fill="url(#SVGID_3_)" width="29.2" height="39.3"/>
	</g>
	<g>
		<defs>
			<path id="SVGID_4_" d="M152.6,53.1c-1.3-0.2-1.9-0.7-1.9-1.4c0-0.7,0.5-1.1,1.5-1.1c1.2,0,2.6,0.6,4.1,1.9
				c-0.5,0.5-1.3,0.7-2.4,0.7C153.6,53.2,153.1,53.2,152.6,53.1 M163.7,48.9c-1.7,2-2.6,2.9-2.7,2.7c-0.1-0.5-0.9-1.3-2.4-2.4
				c-1.6-1.2-3.1-1.9-4.3-2c-4.5-0.3-7.6,0.7-9.4,3.1c-1.4,1.8-1.3,3.5,0.2,5c1.1,1.1,2.3,1.8,3.7,2.1c3.1,0.7,5.6,0.2,7.7-1.4
				c0.5,1,0.4,2.3-0.2,3.9c-0.2,0.5-0.5,1.2-0.9,2.1c-0.4,1-0.8,1.7-0.9,2.1c-1.1,2.7-3,5.3-5.8,7.6c-3.1,2.7-5.8,3.6-8,2.7
				c-2.5-0.9-3.6-2.3-3.6-4.3c0.1-1.7,1.1-3.6,3-5.6c2.3-2.4,3.4-3.6,3.5-3.8c0.8-1.3,0.6-2.7-0.7-4.1c-1.2-1.5-2.6-1.9-3.9-1.4
				c-0.9,0.3-1.7,0.9-2.5,1.9c-1.7,2.2-3.1,4.7-4.1,7.5c-2.1,5.5-1.5,9.6,1.8,12.3c2.2,1.8,4.8,2.4,7.9,1.9c2.9-0.5,5.9-2.1,9.1-4.6
				c-1.5,2.9-2.6,5-3.3,6.5c-5.2,10.5-8.8,19.8-10.7,28.1c-0.4,1.9-0.8,4.1-1,6.5c-0.3,2.8-0.2,4.4,0.2,4.7c0.6,0.6,1.5,0.6,2.9,0.1
				c1.6-0.5,2.6-1.6,3.2-3.3c0.2-0.7,0.5-1.8,0.8-3.6c1.9-13.1,6.4-27,13.4-41.8c2.2-4.6,4.6-9.2,7.2-13.8c0.7-1.2,1.5-2.6,2.5-4.2
				c0.7-1.2,1.1-1.9,1.3-2.2c1.5-2.9,1.4-4.7-0.2-5.4c-0.1,0-0.1,0-0.2,0C166.5,46,165.3,46.9,163.7,48.9"/>
		</defs>
		<clipPath id="SVGID_5_">
			<use xlink:href="#SVGID_4_"  overflow="visible"/>
		</clipPath>
		
			<linearGradient id="SVGID_6_" gradientUnits="userSpaceOnUse" x1="42.7246" y1="508.3145" x2="43.7247" y2="508.3145" gradientTransform="matrix(0 -74.5402 -74.5402 0 38039.5078 3305.2126)">
			<stop  offset="0" style="stop-color:#A5CD39"/>
			<stop  offset="1" style="stop-color:#6DBD45"/>
		</linearGradient>
		<rect x="130.3" y="46" clip-path="url(#SVGID_5_)" fill="url(#SVGID_6_)" width="38.6" height="74.7"/>
	</g>
	<g>
		<defs>
			<path id="SVGID_7_" d="M175.4,47.3c-1.1,0.4-2.2,1.7-3.1,3.9c-3.8,6.7-6.4,11-7.6,12.8c-1.3,1.9-1.9,4.6-1.8,7.9
				c0.1,4.1,1.6,6.5,4.5,7.4c2.7,0.9,6.1-0.5,10.1-4.1c1.1-1,2.7-2.6,4.7-4.7c1.9-2,3.2-3.3,4-4c-0.4,1.8-0.4,3.7,0,5.7
				c0.7,4,2.9,6.4,6.6,7.3c6.5,1.6,12.7-1.1,18.6-8.1c2-2.1,3.2-3.6,3.7-4.5c0.6-1,0.5-1.8-0.2-2.2c-0.3-0.2-1.2,0.4-2.8,1.6
				c0,0-0.8,0.6-2.4,1.9c-1.1,0.9-2.1,1.6-3,2.2c-4.1,3.4-7.7,4.7-10.8,4c-2.5-0.6-4-2-4.6-4.2c-0.4-1.8-0.2-3.9,0.7-6.3
				c1-2.6,2.5-5.1,4.5-7.3c1.5-1.6,2.3-2.6,2.4-2.8c0.4-0.9,0-1.8-1.3-2.8c-1.7-1.4-3.1-2.2-4.2-2.3c-1.5-0.2-2.6,0.8-3.4,3
				c-1.1,3.6-3.8,8.1-8,13.7c-2.2,2.9-4.1,5-5.9,6.3c-2.1,1.6-3.8,2-5.1,1.3c-1.6-0.9-2.2-2.5-1.8-4.8c0.4-2.3,1.7-4.8,3.9-7.5
				c3.8-4.5,5.8-6.9,5.9-7.2c0.7-1.1,1.1-2,1.2-2.7c0.1-0.9-0.2-1.6-0.9-2.2c-1.1-0.9-2.1-1.4-3-1.4
				C176.1,47.1,175.7,47.2,175.4,47.3"/>
		</defs>
		<clipPath id="SVGID_8_">
			<use xlink:href="#SVGID_7_"  overflow="visible"/>
		</clipPath>
		
			<linearGradient id="SVGID_9_" gradientUnits="userSpaceOnUse" x1="47.0494" y1="509.409" x2="48.0494" y2="509.409" gradientTransform="matrix(0 -32.9289 -32.9289 0 16963.5605 1629.3347)">
			<stop  offset="0" style="stop-color:#A5CD39"/>
			<stop  offset="1" style="stop-color:#6DBD45"/>
		</linearGradient>
		<rect x="162.9" y="47.1" clip-path="url(#SVGID_8_)" fill="url(#SVGID_9_)" width="52.8" height="34.1"/>
	</g>
	<g>
		<defs>
			<path id="SVGID_10_" d="M218.1,46.8c-0.6,0.5-1.4,1.7-2.4,3.8c-0.2,0.4-0.7,1.6-1.4,3.3c-0.8,2-1.3,3.1-1.4,3.4
				c-3.1,7-4.6,11.6-4.4,13.9c0.2,2.2,0.8,3.9,1.9,5c1,1,2.7,1.8,5.1,2.4c7.1,1.7,13-0.1,17.8-5.5c2.7-2.5,4.3-4.6,4.8-6.2
				c0.1-0.6,0.1-1-0.1-1.2c-0.3-0.2-0.6-0.1-1,0.2c-4,3.3-7,5.4-8.9,6.5c-3,1.7-6.2,2.2-9.3,1.6c-2.6-0.6-4-2.1-4.1-4.5
				c-0.1-1.6,0.4-3.9,1.5-6.8c0.7-1.8,2.3-4.7,4.8-8.8c0.3-0.6,0.8-1.2,1.4-2c0.5-0.6,0.8-1.1,0.9-1.3c0.2-0.4,0.2-0.8,0-1.2
				c-0.2-0.4-0.6-1-1.3-1.7c-1-1-1.9-1.5-2.7-1.5C218.8,46.4,218.4,46.5,218.1,46.8 M222.8,34.1c-1.5,0.2-2.2,1.1-2.2,2.6
				c0,2.1,1,3.5,3,4c1.1,0.3,2.5-0.4,4.4-2.1c0.2-1,0.3-1.6,0.2-2c-0.1-0.8-0.7-1.4-1.6-1.9c-1-0.5-1.9-0.8-2.9-0.8
				C223.4,34.1,223.1,34.1,222.8,34.1"/>
		</defs>
		<clipPath id="SVGID_11_">
			<use xlink:href="#SVGID_10_"  overflow="visible"/>
		</clipPath>
		
			<linearGradient id="SVGID_12_" gradientUnits="userSpaceOnUse" x1="44.9381" y1="508.8734" x2="45.9383" y2="508.8734" gradientTransform="matrix(0 -45.2381 -45.2381 0 23243.709 2112.1909)">
			<stop  offset="0" style="stop-color:#A5CD39"/>
			<stop  offset="1" style="stop-color:#6DBD45"/>
		</linearGradient>
		<rect x="208.3" y="34.1" clip-path="url(#SVGID_11_)" fill="url(#SVGID_12_)" width="29.9" height="46.3"/>
	</g>
	<g>
		<defs>
			<path id="SVGID_13_" d="M242.2,73.1c-2.3-1.7-3.5-3.7-3.4-6c0-2.2,1.1-4.4,3.1-6.4c2.6-2.6,6.5-4.5,11.6-5.6
				c-1.7,3.6-3,7.7-4,12.3c-0.8,3.7-1.3,6.1-1.7,7.1c-0.1,0-0.2,0-0.3,0C245.1,74.4,243.4,74,242.2,73.1 M272.6,5.8
				c-0.5,0.8-1.1,1.8-1.7,3.1c-0.7,1.3-1.1,2-1.2,2.2c-0.2,0.4-1.7,3.8-4.6,10.5C259,35.9,256,44.5,256,47.5c0-0.4-1.6,0.1-4.7,1.3
				c-3.5,1.4-6.5,3-8.9,4.7c-6.8,4.9-10.2,10.4-10.3,16.5c0,3,0.7,5.5,2.1,7.4c1.6,2.1,4,3.2,7.1,3.2c1.1,0,2.7-0.2,4.9-0.6
				c1.1-0.2,1.8,0.6,2,2.6c-0.4,3-0.8,5.7-1,7.8c-0.1,1.3,0,2.8,0.2,4.4c0.3,1.9,0.5,3.1,0.5,3.5c0,1.3,0.2,2.8,0.7,4.6
				c1.5,2,2.3,2.5,2.3,1.7c0-3.4,0.1-6.3,0.2-8.5c0.2-2.4,0.6-5,1.1-7.8c0.4-2.4,0.7-4,0.7-4.7c0-1.5,1.1-6.6,3.3-15.4
				c5.5-22.2,12.6-40.1,21.3-53.8c0.2-2.6,0.3-4.5,0.3-5.6c0-2.8-0.5-4.8-1.6-5.9c-0.1-0.1-0.3-0.2-0.5-0.2
				C274.8,2.8,273.8,3.8,272.6,5.8"/>
		</defs>
		<clipPath id="SVGID_14_">
			<use xlink:href="#SVGID_13_"  overflow="visible"/>
		</clipPath>
		
			<linearGradient id="SVGID_15_" gradientUnits="userSpaceOnUse" x1="41.7975" y1="508.0766" x2="42.7973" y2="508.0766" gradientTransform="matrix(0 -102.2235 -102.2235 0 52192.1602 4377.6392)">
			<stop  offset="0" style="stop-color:#A5CD39"/>
			<stop  offset="1" style="stop-color:#6DBD45"/>
		</linearGradient>
		<rect x="232" y="2.8" clip-path="url(#SVGID_14_)" fill="url(#SVGID_15_)" width="45.6" height="102.7"/>
	</g>
	<g>
		<defs>
			<path id="SVGID_16_" d="M275.4,54.7c3-4,4.9-5.4,5.8-4.3c0.5,0.7,0.7,1.5,0.5,2.5c-0.2,1-0.7,2-1.6,3.1c-2,2.5-5,4.1-8.8,5
				C272.5,58.8,273.9,56.7,275.4,54.7 M275.8,46c-2.1,1.6-4.2,3.7-6.2,6.4c-2,2.6-3.5,5.1-4.6,7.5c-1.8,4-2.4,8-2,11.9
				c0.2,1.9,0.7,3.4,1.4,4.6c0.8,1.3,1.7,2.1,3,2.4c6.8,1.7,15-2.9,24.7-13.7c1.3-1.4,1.7-2.4,1.3-2.9c-0.6-0.7-1.7-0.4-3.2,1.1
				c-3.1,2.8-6.3,5.3-9.6,7.4c-5,3.2-8.5,4.2-10.4,3.2c-0.8-0.4-1.2-1.8-1.2-3.9c0.1-1.9,0.4-3.8,1-5.7c3.1-0.7,6.1-1.9,8.9-3.7
				c5.7-3.4,8-7.6,6.8-12.5c-0.7-2.8-2-4.2-3.9-4.4c-0.1,0-0.3,0-0.4,0C279.8,43.6,278,44.4,275.8,46"/>
		</defs>
		<clipPath id="SVGID_17_">
			<use xlink:href="#SVGID_16_"  overflow="visible"/>
		</clipPath>
		
			<linearGradient id="SVGID_18_" gradientUnits="userSpaceOnUse" x1="46.4688" y1="509.2753" x2="47.4689" y2="509.2753" gradientTransform="matrix(0 -35.666 -35.666 0 18442.0293 1736.5724)">
			<stop  offset="0" style="stop-color:#A5CD39"/>
			<stop  offset="1" style="stop-color:#6DBD45"/>
		</linearGradient>
		<rect x="262.6" y="43.6" clip-path="url(#SVGID_17_)" fill="url(#SVGID_18_)" width="31.2" height="37"/>
	</g>
	<g>
		<defs>
			<path id="SVGID_19_" d="M302.7,54.7c3-4,4.9-5.4,5.8-4.3c0.5,0.7,0.7,1.5,0.5,2.5c-0.2,1-0.7,2-1.6,3.1c-2,2.5-5,4.1-8.8,5
				C299.9,58.8,301.2,56.7,302.7,54.7 M303.1,46c-2.1,1.6-4.2,3.7-6.2,6.4c-2,2.6-3.5,5.1-4.6,7.5c-1.8,4-2.4,8-2,11.9
				c0.2,1.9,0.7,3.4,1.4,4.6c0.8,1.3,1.7,2.1,3,2.4c6.8,1.7,15-2.9,24.7-13.7c1.3-1.4,1.7-2.4,1.3-2.9c-0.6-0.7-1.7-0.4-3.2,1.1
				c-3.1,2.8-6.3,5.3-9.6,7.4c-5,3.2-8.4,4.2-10.4,3.2c-0.8-0.4-1.2-1.8-1.2-3.9c0.1-1.9,0.4-3.8,1-5.7c3.1-0.7,6.1-1.9,8.9-3.7
				c5.7-3.4,8-7.6,6.8-12.5c-0.7-2.8-2-4.2-3.9-4.4c-0.1,0-0.3,0-0.4,0C307.1,43.6,305.3,44.4,303.1,46"/>
		</defs>
		<clipPath id="SVGID_20_">
			<use xlink:href="#SVGID_19_"  overflow="visible"/>
		</clipPath>
		
			<linearGradient id="SVGID_21_" gradientUnits="userSpaceOnUse" x1="46.4688" y1="509.2758" x2="47.4689" y2="509.2758" gradientTransform="matrix(0 -35.666 -35.666 0 18469.3633 1736.5724)">
			<stop  offset="0" style="stop-color:#A5CD39"/>
			<stop  offset="1" style="stop-color:#6DBD45"/>
		</linearGradient>
		<rect x="289.9" y="43.6" clip-path="url(#SVGID_20_)" fill="url(#SVGID_21_)" width="31.2" height="37"/>
	</g>
	<g>
		<path fill-rule="evenodd" clip-rule="evenodd" fill="#231F20" d="M214.3,38.8c-0.1-0.1,0.1-0.1,0.1-0.1
			C214.5,38.9,214.4,38.9,214.3,38.8"/>
		<path fill-rule="evenodd" clip-rule="evenodd" fill="#2C602F" d="M217,30.9c0-0.3,0.3-0.5,0.6-0.3c0.2,0.2,0.1,0.8-0.3,0.7
			C217.1,31.3,217,31.1,217,30.9"/>
		<path fill-rule="evenodd" clip-rule="evenodd" fill="#231F20" d="M216.5,43.1c0-0.1,0.2-0.1,0.3-0.1c0.3,0.1,0,0.5-0.2,0.3
			C216.5,43.2,216.4,43.2,216.5,43.1"/>
		<path fill-rule="evenodd" clip-rule="evenodd" fill="#231F20" d="M225.4,25.7c0-0.1,0.1-0.1,0.2-0.1c0,0,0,0.4,0,0.5
			c0,0.2-0.1,0.3-0.1,0.4c0.1,0.1,0,0.1,0,0.3c0,0.1,0.1,0.1,0.1,0.2c0,0.1,0,0.4,0,0.6c0,0.1-0.1,0.2-0.1,0.3c0,0.3,0.1,0.5,0,0.7
			c0,0.1,0,0,0,0.1c0,0.1,0,0.3,0,0.4c0,0.1,0,0.5-0.1,0.5c0,0-0.1-0.2-0.1-0.2c0-0.2,0-0.4,0-0.6c0-0.1,0-0.1,0-0.2
			c0-0.1,0-0.3,0-0.5c0-0.1,0-0.2,0-0.3c0-0.1-0.1-0.1-0.1-0.1c0,0,0-0.1,0-0.1c0,0,0-0.1,0-0.1c0-0.1,0.1-0.1,0.1-0.2
			c0,0,0-0.1,0-0.1c0-0.1,0.1-0.2,0.1-0.4c0,0,0-0.1,0-0.2c0-0.1,0-0.2,0-0.2c0-0.1-0.1-0.1-0.1-0.2
			C225.4,25.9,225.3,25.8,225.4,25.7"/>
		<path fill-rule="evenodd" clip-rule="evenodd" fill="#231F20" d="M226.2,27.7C226.2,27.6,226.2,27.9,226.2,27.7"/>
		<path fill-rule="evenodd" clip-rule="evenodd" fill="#231F20" d="M225.3,31.9C225.4,31.7,225.4,31.9,225.3,31.9
			C225.3,31.9,225.3,31.9,225.3,31.9"/>
		<path fill-rule="evenodd" clip-rule="evenodd" fill="#231F20" d="M226.3,29C226.3,29.2,226.2,29.2,226.3,29"/>
		<path fill-rule="evenodd" clip-rule="evenodd" fill="#231F20" d="M227.6,26.4c0-0.1,0.2-0.4,0.3-0.2
			C228.2,26.4,227.7,26.8,227.6,26.4"/>
		<path fill-rule="evenodd" clip-rule="evenodd" fill="#231F20" d="M225,44.9c0,0,0-0.2,0.1-0.2C225.2,44.7,225,45.2,225,44.9"/>
		<path fill-rule="evenodd" clip-rule="evenodd" fill="#231F20" d="M230,34.2c0.1,0.1-0.1,0.1-0.1,0.2C229.9,34.3,230,34.2,230,34.2
			"/>
		<path fill-rule="evenodd" clip-rule="evenodd" fill="#231F20" d="M230.1,34.1C230,34,230.1,34.2,230.1,34.1"/>
		<path fill-rule="evenodd" clip-rule="evenodd" fill="#231F20" d="M230.2,33.8c0-0.3,0.3-0.7,0.4-0.9c0,0,0.1-0.3,0.2-0.3
			c0.1,0-0.2,0.6-0.3,0.7C230.4,33.5,230.4,33.7,230.2,33.8"/>
		<path fill-rule="evenodd" clip-rule="evenodd" fill="#231F20" d="M226.8,44.9C226.8,44.9,226.8,44.8,226.8,44.9
			C226.9,44.9,226.8,45,226.8,44.9"/>
		<path fill-rule="evenodd" clip-rule="evenodd" fill="#231F20" d="M231.1,34.6c-0.1-0.1,0.1-0.1,0.1-0.1
			C231.2,34.6,231.1,34.7,231.1,34.6"/>
		<path fill-rule="evenodd" clip-rule="evenodd" fill="#231F20" d="M232.4,34.4C232.4,34.4,232.5,34.3,232.4,34.4
			C232.6,34.4,232.5,34.5,232.4,34.4"/>
		<path fill-rule="evenodd" clip-rule="evenodd" fill="#231F20" d="M232.6,34.3c0,0,0.3-0.3,0.3-0.2
			C232.9,34.1,232.7,34.3,232.6,34.3"/>
		<path fill-rule="evenodd" clip-rule="evenodd" fill="#2C602F" d="M228.3,48.1c0,0,0.1-0.1,0.1-0.1c0,0,0-0.1,0-0.1
			c0,0,0.1,0,0.1-0.1c0.1-0.1,0.1-0.2,0.2-0.2c0,0,0.1,0,0.1,0c0.1,0,0-0.1,0.1-0.1c0.3,0,0.5,0.1,0.6,0.3c0,0.1,0.1,0.1,0.1,0.1
			c0.1,0.1,0,0.1,0,0.3c0,0.1,0.1,0.2,0,0.3c0,0-0.1,0.1-0.1,0.1c0,0-0.1,0-0.1,0c-0.1,0.1-0.2,0.2-0.4,0.2c-0.2,0-0.6-0.1-0.7-0.3
			c0-0.1-0.1-0.1-0.1-0.3C228.3,48.4,228.3,48.3,228.3,48.1"/>
		<path fill-rule="evenodd" clip-rule="evenodd" fill="#231F20" d="M231.7,39.7C231.6,39.7,231.7,39.7,231.7,39.7
			C231.7,39.7,231.7,39.7,231.7,39.7"/>
		<path fill-rule="evenodd" clip-rule="evenodd" fill="#231F20" d="M231.7,39.7c0.4-0.1,0.9-0.2,1.4-0.2c0.1,0,0.5-0.1,0.6-0.1
			c0.1,0,0.1,0.1,0,0.1c-0.1,0-0.3,0-0.4,0c-0.1,0-0.1,0-0.2,0.1C232.6,39.7,232.2,39.7,231.7,39.7"/>
		<path fill-rule="evenodd" clip-rule="evenodd" fill="#231F20" d="M233.1,37.6c0,0,0.2,0,0.2,0C233.3,37.6,233.2,37.7,233.1,37.6"
			/>
		<path fill-rule="evenodd" clip-rule="evenodd" fill="#231F20" d="M232.3,40.1c0-0.1,0.2-0.3,0.4-0.2c0.1,0,0,0.2,0,0.3
			C232.6,40.5,232.3,40.3,232.3,40.1"/>
		<path fill-rule="evenodd" clip-rule="evenodd" fill="#2C602F" d="M235.6,34.5c0-0.1,0-0.1,0.1-0.2c0,0,0.1-0.1,0.2-0.2
			c0.1-0.1,0.4-0.1,0.5,0c0.1,0,0.2,0.4,0.1,0.5c-0.1,0.2-0.2,0.3-0.4,0.3c-0.1,0-0.1,0.1-0.1,0.1C235.7,35.1,235.6,34.7,235.6,34.5
			"/>
		<path fill-rule="evenodd" clip-rule="evenodd" fill="#231F20" d="M234.9,36.9c0-0.1,0.3-0.1,0.4-0.2c0,0,0,0,0-0.1
			c0,0,0.1,0,0.2,0c0.2-0.1,0.5-0.2,0.8-0.3c0.2-0.1,0.5-0.1,0.6-0.2c0.1,0,0.4-0.3,0.6-0.3c0,0,0.1,0.1,0.1,0.1
			c0,0-0.2,0.1-0.2,0.1c-0.3,0.1-0.6,0.2-0.9,0.4c-0.4,0.2-0.9,0.3-1.3,0.4C235.1,36.8,235,36.9,234.9,36.9"/>
		<path fill-rule="evenodd" clip-rule="evenodd" fill="#2C602F" d="M232.9,44c0-0.1,0.1-0.4,0.3-0.4c0.1,0,0.1-0.1,0.1-0.1
			c0.1,0,0.4,0.1,0.5,0.2c0,0,0.1,0.2,0.1,0.3c0,0.1-0.1,0.3-0.2,0.4c0,0-0.2,0.1-0.3,0.1c-0.1,0-0.3-0.1-0.4-0.2
			C233,44.3,232.9,44.1,232.9,44"/>
		<path fill-rule="evenodd" clip-rule="evenodd" fill="#2C602F" d="M232.9,45.5c0.1-0.3,0.3-0.3,0.5-0.3c0.2,0,0.4,0.1,0.5,0.3
			c0,0.1,0,0.1,0,0.2c0,0.1,0,0.1,0,0.2c-0.1,0.1,0,0.2-0.1,0.3c-0.1,0.1-0.5,0.2-0.6,0.1C232.9,46.1,232.7,45.9,232.9,45.5"/>
		<path fill-rule="evenodd" clip-rule="evenodd" fill="#2C602F" d="M234.2,41.7c0-0.2,0.2-0.3,0.3-0.5c0.1-0.1,0.3-0.2,0.5-0.2
			c0,0,0.1,0,0.1,0c0,0,0.1-0.1,0.2-0.1c0.1,0,0.3,0,0.3,0c0,0,0,0,0,0c0.2,0,0.2,0.2,0.3,0.3c0,0,0.1,0,0.1,0
			c0.1,0.1,0.1,0.1,0.1,0.2c0,0,0.1,0,0.1,0c0.1,0.1,0,0.1,0.1,0.3c0,0,0.1,0,0.1,0.1c0.1,0.1,0,0.5,0,0.6c0,0.1-0.1,0.2-0.2,0.3
			c0,0.1,0,0.1,0,0.2c0,0.1-0.2,0.1-0.3,0.1c0,0-0.1,0.1-0.1,0.1c-0.1,0-0.1,0-0.1,0c-0.1,0,0,0.1-0.1,0.1c0,0-0.2-0.1-0.3,0
			c0,0-0.2,0-0.3,0c-0.1,0-0.2-0.1-0.3-0.2c0,0-0.1,0-0.1,0c0,0,0-0.1,0-0.1c-0.1-0.1-0.3-0.2-0.3-0.3c0,0,0-0.1,0-0.1
			c0,0,0,0-0.1,0C234.1,42.3,234.1,41.9,234.2,41.7"/>
		<path fill-rule="evenodd" clip-rule="evenodd" fill="#231F20" d="M236.9,34.9C236.8,34.9,237,35,236.9,34.9"/>
		<path fill-rule="evenodd" clip-rule="evenodd" fill="#231F20" d="M238.5,36c0-0.1,0.3-0.1,0.4,0c0,0,0,0.1,0.1,0.1
			c0.2,0,0.5,0,0.6,0.1c0,0.1-0.2,0-0.3,0c-0.1,0-0.3,0-0.4,0C238.8,36.1,238.5,36,238.5,36"/>
		<path fill-rule="evenodd" clip-rule="evenodd" fill="#6DBD45" d="M219.3,38.7c0-0.1,0.1-0.2,0.2-0.1c0,0,0.1,0.1,0.1,0.1
			c0,0,0,0,0.1,0c0,0,0,0.1,0.1,0.1c0.2,0.1,0.5,0.2,0.7,0.1c0,0,0-0.1,0.1-0.1c0.1-0.1,0.2-0.2,0.3-0.2c0,0,0-0.1,0-0.1
			c0-0.1,0.1-0.2,0.1-0.3c0-0.1,0-0.3,0-0.3c0,0,0.1,0,0.1,0c0,0-0.1-0.3-0.1-0.3c0,0,0,0,0,0c0,0,0,0,0-0.1c0-0.1,0.1-0.2,0.1-0.2
			c0-0.1-0.4-0.3-0.4-0.4c-0.1-0.1-0.1-0.3-0.1-0.4c0,0-0.1-0.2,0-0.2c0,0,0.2,0,0.2,0c0.1,0,0.1,0.2,0.3,0.2c0.1,0,0.3,0,0.4,0
			c0,0,0.1,0.1,0.1,0c0.1,0,0.1-0.2,0.2-0.2c0.1-0.1,0.4,0,0.5,0c0,0,0.1-0.1,0.1-0.1c0.1,0,0.1,0,0.2,0c0.1,0,0.1-0.1,0.1-0.1
			c0-0.1,0-0.1,0-0.2c0-0.1,0.1-0.1,0.1-0.2c0-0.1-0.1-0.3-0.1-0.4c0,0,0-0.1,0-0.1c0,0-0.1-0.1-0.1-0.1c0-0.1,0.1-0.1,0.1-0.2
			c0-0.1-0.1-0.3-0.1-0.4c0-0.1,0.1-0.1,0.1-0.2c0-0.1,0-0.1,0-0.2c0,0,0.1-0.1,0.1-0.1c0-0.1,0-0.3,0-0.4c0-0.1,0-0.1,0-0.2
			c0-0.1,0.1-0.2,0.1-0.3c0-0.1-0.1-0.3-0.1-0.4c0-0.2-0.1-0.4-0.1-0.6c0,0,0-0.1,0,0c0-0.1-0.1-0.2-0.1-0.3c0,0,0.3-0.2,0.3-0.2
			c0.1,0,0.3,0,0.4,0.1c0.1,0.1,0.3,0.3,0.3,0.5c0,0.1,0,0.1,0,0.2c0,0.1,0.1,0.1,0.1,0.2c0,0.1,0,0.1,0,0.2c0,0.1,0.1,0.1,0.1,0.1
			c0,0.1,0,0.1,0,0.1c0,0.1,0.1,0.1,0.1,0.1c0,0,0,0.1,0,0.1c0.1,0.1,0.2,0.1,0.3,0.1c0,0,0,0,0,0.1c0.1,0.1,0.2,0,0.4,0.1
			c0,0,0,0,0.1,0.1c0.1,0,0.4,0,0.5,0.1c0.1,0.1,0,0.3,0,0.4c0,0.1,0,0.2-0.1,0.4c0,0.1-0.1,0.3-0.1,0.3c0,0.1,0.1,0.4,0.2,0.5
			c0.1,0.1,0.2,0,0.3-0.1c0.1-0.3,0.2-0.5,0.3-0.8c0-0.1,0-0.1,0-0.2c0-0.1,0-0.2,0-0.2c0-0.1,0-0.1,0-0.1c0-0.1,0-0.1,0-0.1
			c0,0,0-0.1,0-0.2c0-0.1,0.1-0.3,0.1-0.4c0.2-0.1,0.1,0.1,0.1,0.2c0,0.1,0,0.1,0,0.2c0,0.1-0.1,0.1-0.1,0.2
			c-0.1,0.2,0.1,0.6,0.2,0.8c0.2,0.2,0.5,0,0.7-0.2c0,0,0.1-0.1,0.2-0.2c0-0.1,0-0.4,0.2-0.3c0,0,0,0.1,0,0.1c0,0.1-0.1,0.2-0.1,0.3
			c0,0.1,0.1,0.1,0.1,0.1c0,0-0.1,0,0,0.1c0,0,0.2,0,0.3,0c0.1,0,0.1,0.1,0.2,0.2c0,0,0,0,0,0c0,0,0,0.1,0,0.1c0,0,0,0,0.1,0
			c0.1,0.1,0.1,0.2,0.2,0.2c0.1,0,0.1-0.3,0.2-0.4c0,0,0.1,0,0.1,0c0,0,0-0.1,0.1-0.1c0,0,0.1,0,0.2-0.1c0,0,0-0.1,0-0.2
			c0,0,0.3-0.2,0.3-0.3c0,0,0,0,0,0c0.1-0.1,0.2-0.1,0.3-0.3c0-0.1,0.1-0.1,0.1-0.1c0,0,0-0.1,0-0.2c0.1-0.1,0.3-0.3,0.3-0.4
			c0-0.1,0.1-0.3,0.2-0.4c0.1,0,0.2,0.1,0.2,0.2c0,0-0.1,0.2-0.1,0.2c-0.1,0.1-0.1,0.1-0.2,0.2c0,0.1-0.1,0.2-0.2,0.2
			c0,0.1,0,0.1-0.1,0.2c0,0.1-0.2,0.2-0.2,0.3c-0.1,0.1-0.1,0.2-0.1,0.3c0,0.1-0.2,0.1-0.2,0.1c0,0.1,0,0.2,0.1,0.3c0,0,0,0,0,0
			c0,0,0,0,0,0c0,0.1-0.1,0.2-0.1,0.3c0,0.1-0.3,0.3-0.1,0.3c0.1,0.1,0.1-0.1,0.1-0.1c0,0,0,0,0.1,0c0.1,0,0.2-0.1,0.3-0.2
			c0-0.1,0-0.2,0.1-0.2c0-0.1,0.1-0.1,0.1-0.2c0-0.1,0-0.1,0-0.2c0,0,0,0,0.1,0c0-0.1,0-0.2,0.1-0.3c0-0.1,0.1-0.2,0.1-0.3
			c0-0.1,0.2-0.6,0.2-0.3c0,0.1,0,0,0,0.1c0,0.1-0.2,0.3-0.2,0.5c-0.1,0.2-0.2,0.4-0.3,0.6c0,0.1,0,0.2,0,0.2
			c-0.1,0.1-0.1,0.3-0.2,0.4c0,0-0.1,0.1-0.1,0.2c0,0.1,0.2,0.1,0.2,0.2c0,0,0,0,0,0c0,0,0.1,0,0.1,0c0,0,0,0.1,0,0.1
			c0,0,0.3,0.2,0.3,0.2c0.1,0,0.2-0.2,0.3-0.3c0.1-0.2,0.2-0.3,0.3-0.5c0.1-0.1,0-0.3,0.1-0.4c0-0.1,0.2-0.2,0.2-0.2
			c0.2,0,0,0.2,0,0.2c-0.1,0.1-0.1,0.3-0.2,0.4c-0.1,0.1-0.1,0.1-0.1,0.2c0,0.1-0.1,0.4,0,0.4c0,0,0.2-0.3,0.2-0.3
			c0.1-0.2,0.3-0.3,0.5-0.5c0,0,0.1-0.1,0.1-0.2c0,0,0,0,0.1-0.1c0-0.1,0.1-0.1,0.1-0.1c0,0,0-0.1,0.1-0.1c0.1-0.1,0.2-0.3,0.3-0.3
			c0,0,0,0,0,0.1c-0.1,0.2-0.5,0.5-0.6,0.7c-0.1,0.1-0.2,0.3-0.3,0.4c-0.1,0,0,0-0.1,0.1c0,0.1-0.2,0.2-0.3,0.3
			c-0.1,0.1-0.1,0.1-0.2,0.3c-0.1,0.1-0.2,0.2-0.2,0.3c0,0.1,0,0.2,0.1,0.3c0,0.1,0,0.3,0.1,0.3c0,0,0.2,0.1,0.3,0.1
			c0.1,0,0.1-0.1,0.1-0.1c0,0,0.1,0,0.2-0.1c0.1-0.1,0.1-0.3,0.2-0.3c0,0,0.1,0,0.1,0.1c0,0.1-0.1,0.1-0.2,0.1
			c-0.1,0.1-0.3,0.2,0,0.2c0.1,0,0.1,0,0.1,0c0.1,0,0.1-0.3,0.3-0.1c0,0,0.1,0.1,0.1,0.1c0,0.1-0.2,0.2-0.2,0.3c0,0,0,0,0,0.1
			c0,0.1-0.1,0.2-0.1,0.3c0,0,0,0,0.1,0c0,0,0,0.1,0.1,0.2c0,0.1,0.1,0.1,0.2,0.1c0,0,0,0.1,0,0.1c0.1,0.1,0.3,0,0.4,0.1
			c0,0,0,0,0,0c0,0,0.4,0.1,0.3,0.1c0,0-0.2,0-0.3,0c-0.1,0-0.1-0.1-0.2,0c0,0.1-0.1,0.3-0.1,0.3c0.1,0.1,0.3,0.2,0.4,0.1
			c0,0,0-0.1,0-0.1c0-0.1,0.2-0.4,0.3-0.1c0,0.1-0.1,0.3-0.2,0.4c-0.1,0,0,0,0,0.1c0,0.1-0.1,0.1-0.1,0.2c0,0,0,0.1,0,0.1
			c0,0-0.1,0-0.1,0c0,0,0,0,0,0.1c0,0-0.1,0-0.2,0.1c-0.1,0.1-0.3,0.2-0.4,0.4c0,0.1-0.1,0.2-0.1,0.3c0,0.1,0.1,0.3,0.2,0.3
			c0,0,0.2,0,0.2,0c0,0,0.2,0,0.2,0c0.1,0,0.3-0.1,0.3,0c0,0-0.1,0.2-0.1,0.2c0,0-0.2,0-0.2,0c-0.3,0-0.5,0.3-0.7,0.5
			c0,0,0,0.1,0,0.1c0,0-0.1,0-0.1,0c0,0,0,0.1,0,0.1c-0.1,0.1-0.4,0.1-0.4,0.2c-0.1,0.2,0.2,0.3,0.4,0.3c0.1,0,0.1,0.1,0.1,0.1
			c0.1,0.2-0.5,0.1-0.5,0.2c0,0.1,0,0.2,0,0.2c0,0-0.1,0.1-0.2,0.1c-0.1,0-0.5,0.2-0.6,0.2c-0.1,0.2,0,0.4,0,0.5
			c0,0.1-0.1,0.3-0.2,0.4c-0.1,0.1-0.1,0.1-0.1,0.1c-0.1,0.2-0.4,0.3-0.6,0.3c-0.1,0-0.2,0-0.2-0.1c0,0,0,0,0,0c0,0-0.2-0.1-0.2-0.2
			c0,0-0.1-0.2-0.2-0.1c0,0.1,0,0.1-0.1,0.2c-0.1,0.2-0.4,0.2-0.6,0.1c0,0-0.1-0.1-0.2-0.1c0,0,0-0.1,0-0.1c-0.1-0.1-0.4,0-0.4,0.1
			c-0.1,0.1,0.2,0.4-0.1,0.4c-0.1,0-0.2-0.2-0.2-0.3c0-0.3-0.3-0.3-0.6-0.1c-0.1,0-0.2,0-0.2,0.1c0,0.1,0,0.1-0.1,0.2
			c0,0-0.1,0-0.2,0c0,0,0,0.4-0.1,0.2c0-0.1,0-0.2,0-0.3c0-0.1,0-0.2,0-0.2c0-0.1,0.1-0.1,0-0.2c0,0-0.2,0-0.3,0
			c-0.2,0.1-0.3-0.2-0.5-0.1c-0.1,0-0.1,0.1-0.2,0.2c0,0.1-0.1,0.2-0.3,0.1c0,0-0.1-0.1-0.1-0.2c0,0-0.1,0-0.1,0c0,0,0-0.1,0-0.1
			c0,0-0.2,0-0.2,0c-0.1,0-0.2-0.1-0.3-0.1c-0.1,0-0.2,0.2-0.3,0.1c-0.1,0-0.1-0.2-0.1-0.2c0-0.1,0.1,0,0.1-0.1c0,0,0,0,0,0
			c0,0,0-0.1,0-0.1c0,0-0.1-0.2-0.3-0.1c-0.1,0,0,0.1-0.1,0.1c-0.1,0-0.3,0.1-0.4,0c0,0,0-0.1,0-0.2c0,0,0.1-0.2,0.1-0.3
			c0-0.1-0.1,0-0.2-0.1c0,0,0-0.1-0.1-0.1c-0.1,0-0.4,0.2-0.5,0.2c-0.1,0-0.3,0.2-0.4,0.2c-0.3,0-0.1-0.1,0-0.1c0,0,0.1,0,0.1,0
			c0.1-0.1,0.1-0.2,0.2-0.3c0,0,0.1,0,0.1,0c0.1-0.1,0-0.3-0.1-0.4c-0.1,0-0.2,0-0.3-0.1c-0.1-0.1,0.1-0.3,0.1-0.3
			c0-0.1-0.1-0.1-0.2-0.2c-0.1-0.1-0.1-0.2-0.2-0.2c-0.1,0-0.2,0-0.3,0c0,0,0-0.1,0-0.1c0,0-0.1,0-0.1-0.1c0-0.1,0.1-0.2,0.1-0.2
			c0,0,0,0,0.1,0c0,0,0.3-0.1,0.2-0.1c0.1-0.1,0.1-0.4,0.1-0.4c0,0-0.2,0.1-0.2-0.1c0-0.1,0.1,0,0.1,0c0.1-0.1-0.3-0.4-0.3-0.5
			c-0.1-0.1-0.5,0-0.5-0.2c0,0,0.1-0.1,0.1-0.1c0,0,0,0-0.1,0c-0.1-0.2,0.2-0.1,0.3-0.1c0.1,0,0.2,0,0.2-0.1c0,0,0.1-0.1,0.1-0.1
			c0,0-0.3-0.2-0.4-0.2c-0.1,0-0.2-0.1-0.3-0.1C219.6,38.9,219.3,38.9,219.3,38.7 M220.6,36.2C220.6,36.1,220.5,36.1,220.6,36.2
			C220.5,36.2,220.6,36.2,220.6,36.2 M228.9,35.2C229,35.2,228.8,35.1,228.9,35.2"/>
		<path fill-rule="evenodd" clip-rule="evenodd" fill="#231F20" d="M232.9,34c0-0.1,0.2-0.3,0.3-0.4c0.1-0.1,0.1-0.1,0.2-0.2
			c0.1-0.1,0.2-0.3,0.4-0.3c0,0,0-0.1,0.1-0.1c0-0.1,0.1,0,0.2-0.1c0,0,0-0.1,0-0.1c0,0,0.1-0.1,0.2-0.1c0.1-0.1,0.3-0.3,0.4-0.4
			c0.1-0.1,0.4-0.3,0.3-0.1c0,0.1,0,0-0.1,0c-0.1,0-0.2,0.2-0.3,0.2c0,0,0,0.1,0,0.1c-0.1,0-0.2,0.1-0.2,0.1
			c-0.1,0.1-0.2,0.2-0.3,0.3c-0.1,0.1-0.2,0.2-0.3,0.4c0,0-0.4,0.4-0.4,0.4c0,0-0.1,0-0.1,0c0,0,0,0,0,0.1
			C233.2,33.8,232.9,34.1,232.9,34"/>
		<path fill-rule="evenodd" clip-rule="evenodd" fill="#231F20" d="M97.7,0.1c0.3-0.3,1-0.1,1,0.2C99.1,1.5,96.9,1,97.7,0.1"/>
		<path fill-rule="evenodd" clip-rule="evenodd" fill="#2C602F" d="M103.5,45.6c1.1-0.1,2.2,0.9,2.2,2.1c0,0.4-0.6,1.4-0.8,1.6
			C102.4,50.7,100.3,46,103.5,45.6"/>
		<path fill-rule="evenodd" clip-rule="evenodd" fill="#2C602F" d="M167.6,42.1c1.1-0.4,1.7,1.3,0.9,1.7
			C167.6,44.3,166.1,42.6,167.6,42.1"/>
		<path fill-rule="evenodd" clip-rule="evenodd" fill="#231F20" d="M171,43.1c0.1-0.3,0.5,0.3,0.2,0.3C171.2,43.4,171,43.2,171,43.1
			"/>
		<path fill-rule="evenodd" clip-rule="evenodd" fill="#231F20" d="M115.4,77.1c0,0,0.3-0.2,0.4-0.1C116.4,77.6,114.6,78,115.4,77.1
			"/>
		<path fill-rule="evenodd" clip-rule="evenodd" fill="#2C602F" d="M273.6,29.4c0.1-0.1,0.6,0,0.4,0.4
			C273.8,30.1,273,29.7,273.6,29.4"/>
		<path fill-rule="evenodd" clip-rule="evenodd" fill="#2C602F" d="M291.6,29.9C291.6,29.1,292.3,29.8,291.6,29.9"/>
		<path fill-rule="evenodd" clip-rule="evenodd" fill="#2C602F" d="M288,30.9c0.2-0.2,0.6-0.1,0.6,0.1
			C288.9,31.8,287.4,31.5,288,30.9"/>
		<path fill-rule="evenodd" clip-rule="evenodd" fill="#2C602F" d="M265.9,42.3c0.2-0.2,0.7-0.2,0.7-0.1
			C267.9,43.2,264.7,43.5,265.9,42.3"/>
		<path fill-rule="evenodd" clip-rule="evenodd" fill="#231F20" d="M307.8,43.6c0,0,0-0.1,0-0.1C308.5,43.3,307.3,44.1,307.8,43.6"
			/>
		<path fill-rule="evenodd" clip-rule="evenodd" fill="#2C602F" d="M262.5,100.4c0.3-0.3,0.5,0.3,0.3,0.4
			C262.6,101,262.2,100.7,262.5,100.4"/>
		<path fill-rule="evenodd" clip-rule="evenodd" fill="#231F20" d="M270.6,46.3C270.6,45.6,271.1,46.2,270.6,46.3"/>
		<path fill-rule="evenodd" clip-rule="evenodd" fill="#231F20" d="M292.6,48c1-0.4,2,1.3,1.1,1.9C292.6,50.8,291.2,48.6,292.6,48"
			/>
		<path fill-rule="evenodd" clip-rule="evenodd" fill="#2C602F" d="M244.9,105.4c0.3-0.1,1.3,0,1.8,0.4c1.2,1,1.3,3.9-0.2,4.4
			c-0.8,0.2-2.4-0.4-2.7-0.9c-0.1-0.1,0.2-0.3,0-0.4c0,0-0.2,0.3-0.3,0.2C242.5,107.5,243.6,105.6,244.9,105.4"/>
		<path fill-rule="evenodd" clip-rule="evenodd" fill="#2C602F" d="M286.1,88.6c1.6-0.6,2.9,1.7,2.2,2.9
			C286.8,93.9,283.4,89.5,286.1,88.6"/>
		<path fill-rule="evenodd" clip-rule="evenodd" fill="#2C602F" d="M187.4,107.9c1.8-0.7,1.6,2.6-0.1,1.9
			C186.8,109.7,186.4,108.3,187.4,107.9"/>
		<path fill-rule="evenodd" clip-rule="evenodd" fill="#2C602F" d="M187.7,114.1c0.3-0.3,1-0.1,1,0.2
			C189.1,115.5,186.9,115,187.7,114.1"/>
		<path fill-rule="evenodd" clip-rule="evenodd" fill="#231F20" d="M122.7,116.5c0,0,0-0.1,0-0.1
			C123.2,115.9,122.4,117.3,122.7,116.5"/>
	</g>
	<g>
		<defs>
			<rect id="SVGID_22_" x="0" y="0.8" width="109.8" height="107.3"/>
		</defs>
		<clipPath id="SVGID_23_">
			<use xlink:href="#SVGID_22_"  overflow="visible"/>
		</clipPath>
		<g clip-path="url(#SVGID_23_)">
			<defs>
				<rect id="SVGID_24_" x="0" y="0.8" width="109.8" height="107.3"/>
			</defs>
			<clipPath id="SVGID_25_">
				<use xlink:href="#SVGID_24_"  overflow="visible"/>
			</clipPath>
			<g transform="matrix(1 0 0 1 0 -5.960464e-08)" clip-path="url(#SVGID_25_)">
				
					<image overflow="visible" width="314" height="307" xlink:href="6381968DA97FA8F9.png"  transform="matrix(0.3495 0 0 0.3495 5.000000e-04 0.7808)">
				</image>
			</g>
		</g>
	</g>
</g>
</svg>
