<?xml version="1.0" encoding="utf-8"?>
<!-- Generator: Adobe Illustrator 18.0.0, SVG Export Plug-In . SVG Version: 6.00 Build 0)  -->
<!DOCTYPE svg PUBLIC "-//W3C//DTD SVG 1.1//EN" "http://www.w3.org/Graphics/SVG/1.1/DTD/svg11.dtd">
<svg version="1.1" id="Layer_1" xmlns="http://www.w3.org/2000/svg" xmlns:xlink="http://www.w3.org/1999/xlink" x="0px" y="0px"
	 viewBox="0 0 237.6 68.3" enable-background="new 0 0 237.6 68.3" xml:space="preserve">
<g>
	<g>
		<path fill="#FFFFFF" d="M60,51.8L64.2,23h0.5l11.7,23.6L87.9,23h0.5l4.1,28.8h-2.8l-2.8-20.6L76.7,51.8H76L65.7,31.1l-2.8,20.7H60
			z"/>
		<path fill="#FFFFFF" d="M116.7,22.3c4.4,0,8,1.5,11,4.4c2.9,2.9,4.4,6.5,4.4,10.7c0,4.2-1.5,7.8-4.4,10.7
			c-2.9,2.9-6.5,4.4-10.7,4.4c-4.3,0-7.9-1.5-10.8-4.4c-2.9-2.9-4.4-6.5-4.4-10.6c0-2.8,0.7-5.3,2-7.7c1.3-2.4,3.2-4.2,5.5-5.6
			C111.5,23,114,22.3,116.7,22.3z M116.9,25.1c-2.1,0-4.1,0.6-6.1,1.7c-1.9,1.1-3.4,2.6-4.5,4.5c-1.1,1.9-1.6,4-1.6,6.3
			c0,3.4,1.2,6.3,3.6,8.7c2.4,2.4,5.2,3.5,8.6,3.5c2.2,0,4.3-0.5,6.2-1.6c1.9-1.1,3.4-2.6,4.5-4.4c1.1-1.9,1.6-4,1.6-6.3
			c0-2.3-0.5-4.4-1.6-6.2c-1.1-1.8-2.6-3.3-4.5-4.4C121.1,25.7,119,25.1,116.9,25.1z"/>
		<path fill="#FFFFFF" d="M141.4,25.9V23h15.8v2.8h-6.4v26h-2.9v-26H141.4z"/>
		<path fill="#FFFFFF" d="M171.4,23h2.9v28.8h-2.9V23z"/>
		<path fill="#FFFFFF" d="M192.1,23h2.9v26H206v2.8h-14V23z"/>
		<path fill="#FFFFFF" d="M220.2,23h16.5v2.8h-13.6v9h13.5v2.8h-13.5V49h13.5v2.8h-16.4V23z"/>
	</g>
	<g>
		<path fill="#FFFFFF" d="M59.5,65.9l1.2-8.1h0.1l3.3,6.7l3.3-6.7h0.1l1.2,8.1h-0.8l-0.8-5.8l-2.9,5.8H64l-2.9-5.9l-0.8,5.9H59.5z"
			/>
		<path fill="#FFFFFF" d="M72.8,59.7c0.9,0,1.7,0.3,2.3,1c0.6,0.6,0.8,1.3,0.8,2.2c0,0.8-0.3,1.6-0.9,2.2c-0.6,0.6-1.3,0.9-2.3,0.9
			c-0.9,0-1.7-0.3-2.3-0.9c-0.6-0.6-0.9-1.4-0.9-2.2c0-0.8,0.3-1.6,0.8-2.2C71.1,60.1,71.9,59.7,72.8,59.7z M72.8,60.5
			c-0.6,0-1.2,0.2-1.7,0.7c-0.5,0.5-0.7,1.1-0.7,1.7c0,0.4,0.1,0.8,0.3,1.2c0.2,0.4,0.5,0.7,0.9,0.9c0.4,0.2,0.8,0.3,1.2,0.3
			c0.4,0,0.8-0.1,1.2-0.3c0.4-0.2,0.6-0.5,0.9-0.9c0.2-0.4,0.3-0.8,0.3-1.2c0-0.7-0.2-1.3-0.7-1.7C74,60.7,73.4,60.5,72.8,60.5z"/>
		<path fill="#FFFFFF" d="M76.1,59.9H77l2,4.4l2-4.4h0.8l-2.8,6h-0.1L76.1,59.9z"/>
		<path fill="#FFFFFF" d="M83.7,57.4c0.2,0,0.3,0.1,0.5,0.2s0.2,0.3,0.2,0.5c0,0.2-0.1,0.3-0.2,0.4s-0.3,0.2-0.5,0.2
			c-0.2,0-0.3-0.1-0.4-0.2s-0.2-0.3-0.2-0.4c0-0.2,0.1-0.3,0.2-0.5S83.5,57.4,83.7,57.4z M83.3,59.9h0.8v6h-0.8V59.9z"/>
		<path fill="#FFFFFF" d="M86.4,59.9h0.8V61c0.3-0.4,0.7-0.7,1-0.9c0.4-0.2,0.8-0.3,1.2-0.3c0.5,0,0.9,0.1,1.2,0.3
			c0.3,0.2,0.6,0.5,0.8,0.9c0.2,0.4,0.2,1,0.2,1.8v3.1h-0.8V63c0-0.7,0-1.2-0.1-1.4c-0.1-0.4-0.3-0.7-0.5-0.9
			c-0.3-0.2-0.6-0.3-1-0.3c-0.5,0-0.9,0.2-1.3,0.5c-0.4,0.3-0.6,0.7-0.7,1.2c-0.1,0.3-0.1,0.8-0.1,1.6v2.2h-0.8V59.9z"/>
		<path fill="#FFFFFF" d="M98.3,59.9H99v4.8c0,0.8-0.1,1.5-0.2,1.9c-0.2,0.6-0.6,1-1.1,1.3c-0.5,0.3-1.1,0.4-1.8,0.4
			c-0.5,0-1-0.1-1.4-0.2c-0.4-0.1-0.7-0.3-1-0.6c-0.3-0.2-0.5-0.6-0.7-1.1h0.8c0.2,0.4,0.5,0.7,0.9,0.9c0.4,0.2,0.8,0.3,1.3,0.3
			c0.5,0,1-0.1,1.3-0.3c0.4-0.2,0.6-0.4,0.8-0.7c0.2-0.3,0.2-0.8,0.2-1.4v-0.3c-0.3,0.4-0.6,0.7-1.1,0.8c-0.4,0.2-0.9,0.3-1.3,0.3
			c-0.6,0-1.1-0.1-1.6-0.4c-0.5-0.3-0.9-0.6-1.1-1.1c-0.3-0.5-0.4-1-0.4-1.5c0-0.6,0.1-1.1,0.4-1.6c0.3-0.5,0.7-0.9,1.2-1.1
			c0.5-0.3,1-0.4,1.5-0.4c0.5,0,0.9,0.1,1.3,0.3c0.4,0.2,0.8,0.5,1.1,0.9V59.9z M96,60.5c-0.4,0-0.8,0.1-1.2,0.3
			c-0.4,0.2-0.7,0.5-0.9,0.9c-0.2,0.4-0.3,0.8-0.3,1.2c0,0.7,0.2,1.2,0.7,1.6c0.4,0.4,1,0.6,1.7,0.6c0.7,0,1.3-0.2,1.7-0.6
			c0.4-0.4,0.7-1,0.7-1.7c0-0.5-0.1-0.9-0.3-1.2c-0.2-0.4-0.5-0.6-0.8-0.8C96.8,60.6,96.4,60.5,96,60.5z"/>
		<path fill="#FFFFFF" d="M110.3,57.6v8.3h-0.8v-1c-0.3,0.4-0.7,0.7-1.1,0.9c-0.4,0.2-0.8,0.3-1.3,0.3c-0.9,0-1.6-0.3-2.2-0.9
			c-0.6-0.6-0.9-1.4-0.9-2.3c0-0.9,0.3-1.6,0.9-2.2c0.6-0.6,1.3-0.9,2.2-0.9c0.5,0,0.9,0.1,1.3,0.3c0.4,0.2,0.8,0.5,1.1,0.9v-3.4
			H110.3z M107.2,60.5c-0.4,0-0.8,0.1-1.2,0.3c-0.4,0.2-0.7,0.5-0.9,0.9c-0.2,0.4-0.3,0.8-0.3,1.2c0,0.4,0.1,0.8,0.3,1.2
			c0.2,0.4,0.5,0.7,0.9,0.9c0.4,0.2,0.8,0.3,1.2,0.3c0.4,0,0.8-0.1,1.2-0.3c0.4-0.2,0.7-0.5,0.9-0.9c0.2-0.4,0.3-0.8,0.3-1.2
			c0-0.7-0.2-1.3-0.7-1.7C108.4,60.7,107.9,60.5,107.2,60.5z"/>
		<path fill="#FFFFFF" d="M117.8,59.9v6h-0.8v-1c-0.3,0.4-0.7,0.7-1.1,0.9c-0.4,0.2-0.8,0.3-1.3,0.3c-0.9,0-1.6-0.3-2.2-0.9
			c-0.6-0.6-0.9-1.4-0.9-2.3c0-0.9,0.3-1.6,0.9-2.2c0.6-0.6,1.3-0.9,2.2-0.9c0.5,0,0.9,0.1,1.3,0.3c0.4,0.2,0.8,0.5,1.1,0.9v-1.1
			H117.8z M114.7,60.5c-0.4,0-0.8,0.1-1.2,0.3c-0.4,0.2-0.7,0.5-0.9,0.9c-0.2,0.4-0.3,0.8-0.3,1.2c0,0.4,0.1,0.8,0.3,1.2
			c0.2,0.4,0.5,0.7,0.9,0.9c0.4,0.2,0.8,0.3,1.2,0.3c0.4,0,0.8-0.1,1.2-0.3c0.4-0.2,0.7-0.5,0.9-0.9c0.2-0.4,0.3-0.8,0.3-1.2
			c0-0.7-0.2-1.3-0.7-1.7C116,60.7,115.4,60.5,114.7,60.5z"/>
		<path fill="#FFFFFF" d="M120.5,57.7h0.8v2.2h1.2v0.7h-1.2v5.4h-0.8v-5.4h-1.1v-0.7h1.1V57.7z"/>
		<path fill="#FFFFFF" d="M129.9,59.9v6h-0.8v-1c-0.3,0.4-0.7,0.7-1.1,0.9c-0.4,0.2-0.8,0.3-1.3,0.3c-0.9,0-1.6-0.3-2.2-0.9
			c-0.6-0.6-0.9-1.4-0.9-2.3c0-0.9,0.3-1.6,0.9-2.2c0.6-0.6,1.3-0.9,2.2-0.9c0.5,0,0.9,0.1,1.3,0.3c0.4,0.2,0.8,0.5,1.1,0.9v-1.1
			H129.9z M126.8,60.5c-0.4,0-0.8,0.1-1.2,0.3c-0.4,0.2-0.7,0.5-0.9,0.9c-0.2,0.4-0.3,0.8-0.3,1.2c0,0.4,0.1,0.8,0.3,1.2
			c0.2,0.4,0.5,0.7,0.9,0.9c0.4,0.2,0.8,0.3,1.2,0.3c0.4,0,0.8-0.1,1.2-0.3c0.4-0.2,0.7-0.5,0.9-0.9c0.2-0.4,0.3-0.8,0.3-1.2
			c0-0.7-0.2-1.3-0.7-1.7C128,60.7,127.5,60.5,126.8,60.5z"/>
		<path fill="#FFFFFF" d="M132.6,64.4l0.7,0.4l-1.1,2.1l-0.5-0.2L132.6,64.4z"/>
		<path fill="#FFFFFF" d="M138.9,57.4c0.2,0,0.3,0.1,0.5,0.2s0.2,0.3,0.2,0.5c0,0.2-0.1,0.3-0.2,0.4s-0.3,0.2-0.5,0.2
			c-0.2,0-0.3-0.1-0.4-0.2s-0.2-0.3-0.2-0.4c0-0.2,0.1-0.3,0.2-0.5S138.7,57.4,138.9,57.4z M138.5,59.9h0.8v6h-0.8V59.9z"/>
		<path fill="#FFFFFF" d="M147.1,57.6v8.3h-0.8v-1c-0.3,0.4-0.7,0.7-1.1,0.9s-0.8,0.3-1.3,0.3c-0.9,0-1.6-0.3-2.2-0.9
			c-0.6-0.6-0.9-1.4-0.9-2.3c0-0.9,0.3-1.6,0.9-2.2c0.6-0.6,1.3-0.9,2.2-0.9c0.5,0,0.9,0.1,1.3,0.3c0.4,0.2,0.8,0.5,1.1,0.9v-3.4
			H147.1z M144,60.5c-0.4,0-0.8,0.1-1.2,0.3c-0.4,0.2-0.7,0.5-0.9,0.9c-0.2,0.4-0.3,0.8-0.3,1.2c0,0.4,0.1,0.8,0.3,1.2
			c0.2,0.4,0.5,0.7,0.9,0.9c0.4,0.2,0.8,0.3,1.2,0.3c0.4,0,0.8-0.1,1.2-0.3c0.4-0.2,0.7-0.5,0.9-0.9c0.2-0.4,0.3-0.8,0.3-1.2
			c0-0.7-0.2-1.3-0.7-1.7C145.2,60.7,144.7,60.5,144,60.5z"/>
		<path fill="#FFFFFF" d="M154.1,63.9l0.7,0.3c-0.2,0.4-0.5,0.8-0.7,1c-0.3,0.3-0.6,0.5-0.9,0.6c-0.4,0.1-0.7,0.2-1.2,0.2
			c-1,0-1.8-0.3-2.3-1c-0.6-0.6-0.8-1.4-0.8-2.2c0-0.8,0.2-1.4,0.7-2c0.6-0.8,1.4-1.1,2.4-1.1c1,0,1.8,0.4,2.5,1.2
			c0.4,0.5,0.7,1.2,0.7,2.1h-5.4c0,0.7,0.2,1.3,0.7,1.7c0.4,0.4,1,0.7,1.6,0.7c0.3,0,0.6-0.1,0.9-0.2c0.3-0.1,0.5-0.2,0.7-0.4
			C153.7,64.6,153.9,64.3,154.1,63.9z M154.1,62.3c-0.1-0.4-0.3-0.7-0.5-1c-0.2-0.2-0.5-0.4-0.8-0.6c-0.3-0.2-0.7-0.2-1-0.2
			c-0.6,0-1.1,0.2-1.5,0.6c-0.3,0.3-0.5,0.7-0.7,1.2H154.1z"/>
		<path fill="#FFFFFF" d="M162,59.9v6h-0.8v-1c-0.3,0.4-0.7,0.7-1.1,0.9c-0.4,0.2-0.8,0.3-1.3,0.3c-0.9,0-1.6-0.3-2.2-0.9
			c-0.6-0.6-0.9-1.4-0.9-2.3c0-0.9,0.3-1.6,0.9-2.2c0.6-0.6,1.3-0.9,2.2-0.9c0.5,0,0.9,0.1,1.3,0.3c0.4,0.2,0.8,0.5,1.1,0.9v-1.1
			H162z M158.9,60.5c-0.4,0-0.8,0.1-1.2,0.3c-0.4,0.2-0.7,0.5-0.9,0.9c-0.2,0.4-0.3,0.8-0.3,1.2c0,0.4,0.1,0.8,0.3,1.2
			c0.2,0.4,0.5,0.7,0.9,0.9c0.4,0.2,0.8,0.3,1.2,0.3c0.4,0,0.8-0.1,1.2-0.3c0.4-0.2,0.7-0.5,0.9-0.9c0.2-0.4,0.3-0.8,0.3-1.2
			c0-0.7-0.2-1.3-0.7-1.7C160.1,60.7,159.6,60.5,158.9,60.5z"/>
		<path fill="#FFFFFF" d="M167.4,60.6l-0.5,0.5c-0.4-0.4-0.8-0.6-1.2-0.6c-0.3,0-0.5,0.1-0.6,0.2c-0.2,0.2-0.3,0.4-0.3,0.6
			c0,0.2,0.1,0.4,0.2,0.6c0.1,0.2,0.5,0.4,0.9,0.6c0.6,0.3,1,0.6,1.2,0.9c0.2,0.3,0.3,0.6,0.3,0.9c0,0.5-0.2,0.9-0.5,1.3
			c-0.3,0.3-0.8,0.5-1.3,0.5c-0.3,0-0.7-0.1-1-0.2c-0.3-0.2-0.6-0.4-0.8-0.6l0.5-0.6c0.4,0.4,0.8,0.7,1.3,0.7c0.3,0,0.6-0.1,0.8-0.3
			c0.2-0.2,0.3-0.4,0.3-0.7c0-0.2-0.1-0.4-0.2-0.6c-0.1-0.2-0.5-0.4-1-0.6c-0.5-0.3-0.9-0.6-1.1-0.8c-0.2-0.3-0.3-0.6-0.3-0.9
			c0-0.5,0.2-0.8,0.5-1.1s0.7-0.5,1.2-0.5C166.3,59.7,166.9,60,167.4,60.6z"/>
		<path fill="#FFFFFF" d="M178.4,59.9v6h-0.8v-1c-0.3,0.4-0.7,0.7-1.1,0.9c-0.4,0.2-0.8,0.3-1.3,0.3c-0.9,0-1.6-0.3-2.2-0.9
			c-0.6-0.6-0.9-1.4-0.9-2.3c0-0.9,0.3-1.6,0.9-2.2c0.6-0.6,1.3-0.9,2.2-0.9c0.5,0,0.9,0.1,1.3,0.3c0.4,0.2,0.8,0.5,1.1,0.9v-1.1
			H178.4z M175.3,60.5c-0.4,0-0.8,0.1-1.2,0.3c-0.4,0.2-0.7,0.5-0.9,0.9c-0.2,0.4-0.3,0.8-0.3,1.2c0,0.4,0.1,0.8,0.3,1.2
			c0.2,0.4,0.5,0.7,0.9,0.9c0.4,0.2,0.8,0.3,1.2,0.3c0.4,0,0.8-0.1,1.2-0.3c0.4-0.2,0.7-0.5,0.9-0.9c0.2-0.4,0.3-0.8,0.3-1.2
			c0-0.7-0.2-1.3-0.7-1.7C176.6,60.7,176,60.5,175.3,60.5z"/>
		<path fill="#FFFFFF" d="M180.2,59.9h0.8V61c0.3-0.4,0.7-0.7,1-0.9c0.4-0.2,0.8-0.3,1.2-0.3c0.5,0,0.8,0.1,1.2,0.3
			c0.3,0.2,0.6,0.5,0.8,0.9c0.2,0.4,0.2,1,0.2,1.8v3.1h-0.8V63c0-0.7,0-1.2-0.1-1.4c-0.1-0.4-0.3-0.7-0.5-0.9
			c-0.3-0.2-0.6-0.3-1-0.3c-0.5,0-0.9,0.2-1.3,0.5c-0.4,0.3-0.6,0.7-0.7,1.2c-0.1,0.3-0.1,0.8-0.1,1.6v2.2h-0.8V59.9z"/>
		<path fill="#FFFFFF" d="M192.9,57.6v8.3h-0.8v-1c-0.3,0.4-0.7,0.7-1.1,0.9c-0.4,0.2-0.8,0.3-1.3,0.3c-0.9,0-1.6-0.3-2.2-0.9
			c-0.6-0.6-0.9-1.4-0.9-2.3c0-0.9,0.3-1.6,0.9-2.2c0.6-0.6,1.3-0.9,2.2-0.9c0.5,0,0.9,0.1,1.3,0.3c0.4,0.2,0.8,0.5,1.1,0.9v-3.4
			H192.9z M189.8,60.5c-0.4,0-0.8,0.1-1.2,0.3c-0.4,0.2-0.7,0.5-0.9,0.9c-0.2,0.4-0.3,0.8-0.3,1.2c0,0.4,0.1,0.8,0.3,1.2
			c0.2,0.4,0.5,0.7,0.9,0.9c0.4,0.2,0.8,0.3,1.2,0.3c0.4,0,0.8-0.1,1.2-0.3c0.4-0.2,0.7-0.5,0.9-0.9c0.2-0.4,0.3-0.8,0.3-1.2
			c0-0.7-0.2-1.3-0.7-1.7C191,60.7,190.4,60.5,189.8,60.5z"/>
		<path fill="#FFFFFF" d="M198.2,59.9h0.8V61c0.3-0.4,0.7-0.7,1.1-0.9c0.4-0.2,0.8-0.3,1.3-0.3c0.9,0,1.6,0.3,2.2,0.9
			c0.6,0.6,0.9,1.4,0.9,2.2c0,0.9-0.3,1.6-0.9,2.3c-0.6,0.6-1.3,0.9-2.2,0.9c-0.5,0-0.9-0.1-1.3-0.3c-0.4-0.2-0.8-0.5-1.1-0.9v3.2
			h-0.8V59.9z M201.3,60.5c-0.7,0-1.2,0.2-1.7,0.7c-0.5,0.5-0.7,1.1-0.7,1.7c0,0.5,0.1,0.9,0.3,1.2c0.2,0.4,0.5,0.7,0.9,0.9
			c0.4,0.2,0.8,0.3,1.2,0.3c0.4,0,0.8-0.1,1.2-0.3c0.4-0.2,0.7-0.5,0.9-0.9c0.2-0.4,0.3-0.8,0.3-1.2c0-0.4-0.1-0.8-0.3-1.2
			c-0.2-0.4-0.5-0.7-0.9-0.9C202.2,60.6,201.8,60.5,201.3,60.5z"/>
		<path fill="#FFFFFF" d="M211,63.9l0.7,0.3c-0.2,0.4-0.5,0.8-0.7,1c-0.3,0.3-0.6,0.5-0.9,0.6c-0.4,0.1-0.7,0.2-1.2,0.2
			c-1,0-1.8-0.3-2.3-1c-0.6-0.6-0.8-1.4-0.8-2.2c0-0.8,0.2-1.4,0.7-2c0.6-0.8,1.4-1.1,2.4-1.1c1,0,1.8,0.4,2.5,1.2
			c0.4,0.5,0.7,1.2,0.7,2.1h-5.4c0,0.7,0.2,1.3,0.7,1.7c0.4,0.4,1,0.7,1.6,0.7c0.3,0,0.6-0.1,0.9-0.2c0.3-0.1,0.5-0.2,0.7-0.4
			C210.6,64.6,210.8,64.3,211,63.9z M211,62.3c-0.1-0.4-0.3-0.7-0.5-1c-0.2-0.2-0.5-0.4-0.8-0.6c-0.3-0.2-0.7-0.2-1-0.2
			c-0.6,0-1.1,0.2-1.5,0.6c-0.3,0.3-0.5,0.7-0.7,1.2H211z"/>
		<path fill="#FFFFFF" d="M216.2,59.7c0.9,0,1.7,0.3,2.3,1c0.6,0.6,0.8,1.3,0.8,2.2c0,0.8-0.3,1.6-0.9,2.2c-0.6,0.6-1.3,0.9-2.3,0.9
			c-0.9,0-1.7-0.3-2.3-0.9c-0.6-0.6-0.9-1.4-0.9-2.2c0-0.8,0.3-1.6,0.8-2.2C214.5,60.1,215.2,59.7,216.2,59.7z M216.2,60.5
			c-0.6,0-1.2,0.2-1.7,0.7c-0.5,0.5-0.7,1.1-0.7,1.7c0,0.4,0.1,0.8,0.3,1.2c0.2,0.4,0.5,0.7,0.9,0.9c0.4,0.2,0.8,0.3,1.2,0.3
			c0.4,0,0.8-0.1,1.2-0.3c0.4-0.2,0.6-0.5,0.9-0.9c0.2-0.4,0.3-0.8,0.3-1.2c0-0.7-0.2-1.3-0.7-1.7C217.4,60.7,216.8,60.5,216.2,60.5
			z"/>
		<path fill="#FFFFFF" d="M220.8,59.9h0.8V61c0.3-0.4,0.7-0.7,1.1-0.9c0.4-0.2,0.8-0.3,1.3-0.3c0.9,0,1.6,0.3,2.2,0.9
			c0.6,0.6,0.9,1.4,0.9,2.2c0,0.9-0.3,1.6-0.9,2.3c-0.6,0.6-1.3,0.9-2.2,0.9c-0.5,0-0.9-0.1-1.3-0.3c-0.4-0.2-0.8-0.5-1.1-0.9v3.2
			h-0.8V59.9z M223.9,60.5c-0.7,0-1.2,0.2-1.7,0.7c-0.5,0.5-0.7,1.1-0.7,1.7c0,0.5,0.1,0.9,0.3,1.2c0.2,0.4,0.5,0.7,0.9,0.9
			c0.4,0.2,0.8,0.3,1.2,0.3c0.4,0,0.8-0.1,1.2-0.3c0.4-0.2,0.7-0.5,0.9-0.9c0.2-0.4,0.3-0.8,0.3-1.2c0-0.4-0.1-0.8-0.3-1.2
			c-0.2-0.4-0.5-0.7-0.9-0.9C224.7,60.6,224.3,60.5,223.9,60.5z"/>
		<path fill="#FFFFFF" d="M228.8,57.6h0.8v8.3h-0.8V57.6z"/>
		<path fill="#FFFFFF" d="M236.7,63.9l0.7,0.3c-0.2,0.4-0.5,0.8-0.7,1c-0.3,0.3-0.6,0.5-0.9,0.6c-0.4,0.1-0.7,0.2-1.2,0.2
			c-1,0-1.8-0.3-2.3-1c-0.6-0.6-0.8-1.4-0.8-2.2c0-0.8,0.2-1.4,0.7-2c0.6-0.8,1.4-1.1,2.4-1.1c1,0,1.8,0.4,2.5,1.2
			c0.4,0.5,0.7,1.2,0.7,2.1h-5.4c0,0.7,0.2,1.3,0.7,1.7c0.4,0.4,1,0.7,1.6,0.7c0.3,0,0.6-0.1,0.9-0.2c0.3-0.1,0.5-0.2,0.7-0.4
			C236.3,64.6,236.5,64.3,236.7,63.9z M236.7,62.3c-0.1-0.4-0.3-0.7-0.5-1c-0.2-0.2-0.5-0.4-0.8-0.6c-0.3-0.2-0.7-0.2-1-0.2
			c-0.6,0-1.1,0.2-1.5,0.6c-0.3,0.3-0.5,0.7-0.7,1.2H236.7z"/>
	</g>
	<g>
		<path fill="#026CB6" d="M41.6,6.9l4.3,29.9c2.1-3.6,3.3-7.8,3.3-12.2C49.2,17.6,46.3,11.3,41.6,6.9z"/>
		<path fill="#026CB6" d="M39.8,5.3C35.6,2,30.3,0,24.6,0c-5.7,0-11,2-15.2,5.3l15.3,30.8L39.8,5.3z"/>
		<path fill="#026CB6" d="M0,24.6c0,4.4,1.2,8.6,3.3,12.2L7.5,6.9C2.9,11.4,0,17.6,0,24.6z"/>
		<path fill="#026CB6" d="M25.1,43.2h-1L10,14.8L6.4,41.1c4.5,4.9,11,8,18.2,8c7.2,0,13.6-3.1,18.1-8L39.1,15L25.1,43.2z"/>
	</g>
</g>
</svg>
