<svg id="Layer_1" data-name="Layer 1" xmlns="http://www.w3.org/2000/svg" viewBox="0 0 89.42 89.42"><defs><style>.cls-1{fill:#929497;}.cls-2{fill:none;stroke:#231f20;stroke-linecap:round;stroke-linejoin:round;stroke-width:6px;}</style></defs><title>merchandise</title><rect class="cls-1" width="89.42" height="89.42" rx="24" ry="24"/><path class="cls-2" d="M44.17,67.12c-4.51-.13-10.37,1.29-12.69.55V41l-3.86.45L22,34.7s6-7.21,6.9-7.86,9.79-3.17,9.79-3.17"/><path class="cls-2" d="M44.26,67.12c4.66.1,7.45,2.21,12.69.55V41l3.86.45,5.66-6.76s-5.85-7-6.9-7.86-9.79-3.17-9.79-3.17"/><path class="cls-2" d="M49.52,24.22a22,22,0,0,1-5.22.7,24.53,24.53,0,0,1-5.4-.7"/></svg>