<?xml version="1.0" encoding="iso-8859-1"?>
<!-- Generator: Adobe Illustrator 18.1.1, SVG Export Plug-In . SVG Version: 6.00 Build 0)  -->
<!DOCTYPE svg PUBLIC "-//W3C//DTD SVG 1.1//EN" "http://www.w3.org/Graphics/SVG/1.1/DTD/svg11.dtd">
<svg version="1.1" xmlns="http://www.w3.org/2000/svg" xmlns:xlink="http://www.w3.org/1999/xlink" x="0px" y="0px"
	 viewBox="0 0 240.395 240.395" style="enable-background:new 0 0 240.395 240.395;" xml:space="preserve">
<g id="Layer_1">
	<path style="fill:none;stroke:#6D6E70;stroke-width:3.3209;stroke-linecap:round;stroke-linejoin:round;stroke-miterlimit:10;" d="
		M61.886,170.76"/>
	<g>
		<g>
			<path style="fill:none;stroke:#00B49C;stroke-width:3.5;stroke-linecap:round;stroke-linejoin:round;stroke-miterlimit:10;" d="
				M120.685,169.32c-10.495-0.295-24.113,2.99-29.516,1.283v-20.699v-48.279l-8.983,8.021L69.032,93.926
				c0,0,13.911-16.781,16.041-18.287c2.13-1.506,22.779-7.379,22.779-7.379s3.529,17.325,12.833,17.004"/>
			<path style="fill:none;stroke:#00B49C;stroke-width:3.5;stroke-linecap:round;stroke-linejoin:round;stroke-miterlimit:10;" d="
				M120.899,169.32c10.839,0.23,17.325,5.133,29.516,1.283v-68.978l8.983,8.021l13.154-15.721c0,0-13.612-16.353-16.041-18.287
				c-2.429-1.934-22.779-7.379-22.779-7.379s-3.529,17.325-12.833,17.004"/>
			<path style="fill:none;stroke:#00B49C;stroke-width:3.5;stroke-linecap:round;stroke-linejoin:round;stroke-miterlimit:10;" d="
				M133.136,69.544c0,0-5.863,1.637-12.137,1.637s-12.551-1.637-12.551-1.637"/>
		</g>
		<path style="fill:none;stroke:#00B49C;stroke-width:3.5;stroke-miterlimit:10;" d="M130.221,109.646
			c0-5.207-5.668-9.485-9.428-15.632c-4.298,6.362-9.428,10.424-9.428,15.632s4.221,9.428,9.428,9.428
			C125.999,119.074,130.221,114.853,130.221,109.646z"/>
		<circle style="fill:none;stroke:#00B49C;stroke-width:3.5;stroke-miterlimit:10;" cx="120.197" cy="120.197" r="115.784"/>
	</g>
</g>
<g id="Layer_3">
</g>
</svg>
