<?xml version="1.0" encoding="utf-8"?>
<!-- Generator: Adobe Illustrator 18.1.1, SVG Export Plug-In . SVG Version: 6.00 Build 0)  -->
<!DOCTYPE svg PUBLIC "-//W3C//DTD SVG 1.1//EN" "http://www.w3.org/Graphics/SVG/1.1/DTD/svg11.dtd">
<svg version="1.1" id="Layer_1" xmlns="http://www.w3.org/2000/svg" xmlns:xlink="http://www.w3.org/1999/xlink" x="0px" y="0px"
	 viewBox="0 0 200 200" enable-background="new 0 0 200 200" xml:space="preserve">
<g>
	<g>
		
			<path fill="none" stroke="#FFFFFF" stroke-width="3.5" stroke-linecap="round" stroke-linejoin="round" stroke-miterlimit="10" d="
			M68.19,107.473c3.275,9.16,10.199,16.458,18.893,20.315c2.226,0.987,4.567,1.749,6.993,2.259"/>
		
			<path fill="none" stroke="#FFFFFF" stroke-width="3.5" stroke-linecap="round" stroke-linejoin="round" stroke-miterlimit="10" d="
			M77.613,111.275c1.499,2.264,3.311,4.294,5.369,6.033c2.089,1.766,4.432,3.232,6.958,4.339"/>
		
			<path fill="none" stroke="#FFFFFF" stroke-width="3.5" stroke-linecap="round" stroke-linejoin="round" stroke-miterlimit="10" d="
			M85.651,110.51c1.343,1.411,2.873,2.637,4.544,3.642"/>
	</g>
	<path fill="none" stroke="#FFFFFF" stroke-width="3.5" stroke-linecap="round" stroke-linejoin="round" stroke-miterlimit="10" d="
		M93.339,96.127c0,4.105,3.328,7.433,7.433,7.433c4.105,0,7.433-3.328,7.433-7.433"/>
	<path fill="none" stroke="#FFFFFF" stroke-width="3.5" stroke-linecap="round" stroke-linejoin="round" stroke-miterlimit="10" d="
		M87.042,96.127c0,7.583,6.147,13.729,13.729,13.729c7.583,0,13.729-6.147,13.729-13.729"/>
	<path fill="none" stroke="#FFFFFF" stroke-width="3.5" stroke-linecap="round" stroke-linejoin="round" stroke-miterlimit="10" d="
		M58.944,96.127c0,23.101,18.727,41.828,41.828,41.828S142.6,119.228,142.6,96.127"/>
	<g>
		<path fill="#FFFFFF" d="M71.823,73.166c0.507-0.495,0.95-1.056,1.324-1.677c0.775-1.287,1.168-2.722,1.168-4.266
			c0-2.272-0.825-4.249-2.451-5.875c-1.627-1.626-3.618-2.451-5.918-2.451h-6.898c-0.968,0-1.644,0.676-1.644,1.644v29.061
			c0,0.968,0.676,1.644,1.644,1.644h8.882c2.616,0,4.87-0.935,6.698-2.778c1.825-1.842,2.75-4.021,2.75-6.476
			c0-2.422-0.738-4.528-2.194-6.259C74.233,74.602,73.106,73.742,71.823,73.166z M60.648,75.593h7.282
			c1.727,0,3.153,0.593,4.361,1.813c1.211,1.224,1.8,2.66,1.8,4.391s-0.588,3.167-1.799,4.391C71.084,87.407,69.657,88,67.93,88
			h-7.282V75.593z M65.946,72.263h-5.298V62.14h5.28c1.415,0.024,2.586,0.525,3.581,1.532c0.997,1.009,1.494,2.174,1.52,3.542
			c-0.026,1.413-0.521,2.583-1.515,3.577C68.523,71.781,67.356,72.263,65.946,72.263z"/>
		<path fill="#FFFFFF" d="M107.652,88H93.17V60.54c0-0.968-0.667-1.644-1.622-1.644s-1.622,0.676-1.622,1.644v29.061
			c0,0.968,0.676,1.644,1.644,1.644h16.083c0.968,0,1.644-0.667,1.644-1.622S108.62,88,107.652,88z"/>
		<path fill="#FFFFFF" d="M143.543,59.384c-0.32-0.319-0.719-0.488-1.152-0.488c-0.968,0-1.644,0.676-1.644,1.644v17.495
			c-0.025,2.737-1.013,5.094-2.936,7.003c-1.924,1.911-4.274,2.908-6.966,2.962c-2.74-0.054-5.105-1.051-7.029-2.962
			c-1.919-1.906-2.893-4.259-2.893-6.992V60.54c0-0.968-0.667-1.644-1.622-1.644s-1.622,0.676-1.622,1.644v17.505
			c0,3.646,1.296,6.79,3.853,9.346c2.556,2.557,5.686,3.853,9.303,3.853c3.616,0,6.752-1.295,9.322-3.851
			c2.572-2.557,3.876-5.702,3.876-9.348V60.54C144.035,60.107,143.865,59.708,143.543,59.384z"/>
	</g>
</g>
</svg>
