<?xml version="1.0" encoding="utf-8"?>
<!-- Generator: Adobe Illustrator 18.0.0, SVG Export Plug-In . SVG Version: 6.00 Build 0)  -->
<!DOCTYPE svg PUBLIC "-//W3C//DTD SVG 1.1//EN" "http://www.w3.org/Graphics/SVG/1.1/DTD/svg11.dtd">
<svg version="1.1" xmlns="http://www.w3.org/2000/svg" xmlns:xlink="http://www.w3.org/1999/xlink" x="0px" y="0px"
	 viewBox="0 0 241.221 241.221" enable-background="new 0 0 241.221 241.221" xml:space="preserve">
<g id="Layer_1">
	<rect x="20.981" y="-528.495" fill="none" width="200" height="200"/>
	<g>
	</g>
	
		<path fill="none" stroke="#6D6E70" stroke-width="3.3209" stroke-linecap="round" stroke-linejoin="round" stroke-miterlimit="10" d="
		M550.194-91.24"/>
	
		<line fill="none" stroke="#FFFFFF" stroke-width="3.274" stroke-linecap="round" stroke-linejoin="round" stroke-miterlimit="10" x1="1041.428" y1="54.167" x2="1049.428" y2="70.167"/>
	
		<line fill="none" stroke="#FFFFFF" stroke-width="3.274" stroke-linecap="round" stroke-linejoin="round" stroke-miterlimit="10" x1="1052.428" y1="54.167" x2="1060.428" y2="70.167"/>
	<g>
		<g>
			
				<line fill="none" stroke="#E86227" stroke-width="3.5" stroke-linecap="round" stroke-miterlimit="10" x1="125.17" y1="-387.63" x2="125.17" y2="-441.391"/>
			<polyline fill="none" stroke="#E86227" stroke-width="3.5" stroke-linecap="round" stroke-miterlimit="10" points="
				108.09,-403.593 125.17,-387.63 141.728,-403.593 			"/>
			<path fill="none" stroke="#E86227" stroke-width="3.5" stroke-linecap="round" stroke-miterlimit="10" d="M154.459-409.544
				c7.023-6.655,11.403-16.07,11.403-26.508c0-20.166-16.348-36.513-36.513-36.513c-16.09,0-29.748,10.407-34.612,24.857
				c-0.739-0.068-1.486-0.104-2.243-0.104c-13.376,0-24.22,10.844-24.22,24.22s10.844,24.22,24.22,24.22
				c0.43,0,0.858-0.011,1.283-0.033"/>
			<path fill="none" stroke="#E86227" stroke-width="3.5" stroke-linecap="round" stroke-miterlimit="10" d="M87.096-440.978
				c-7.281,2.454-12.524,9.338-12.524,17.446"/>
			<path fill="none" stroke="#E86227" stroke-width="3.5" stroke-linecap="round" stroke-miterlimit="10" d="M121.76-465.738
				c-9.315,2.652-16.793,9.665-20.088,18.69"/>
		</g>
		
			<circle fill="none" stroke="#E86227" stroke-width="3.5" stroke-linecap="round" stroke-miterlimit="10" cx="120.61" cy="-428.495" r="115.784"/>
	</g>
	<g>
		<g>
			<path fill="none" stroke="#33CC66" stroke-width="3.5" stroke-linecap="round" stroke-miterlimit="10" d="M372.809-393.143
				c9.387-2.457,17.24-8.704,21.828-17.006c1.175-2.126,2.135-4.386,2.853-6.752"/>
			<path fill="none" stroke="#33CC66" stroke-width="3.5" stroke-linecap="round" stroke-miterlimit="10" d="M377.405-402.175
				c2.38-1.293,4.554-2.917,6.461-4.81c1.936-1.923,3.597-4.123,4.916-6.536"/>
			<path fill="none" stroke="#33CC66" stroke-width="3.5" stroke-linecap="round" stroke-miterlimit="10" d="M377.344-410.228
				c1.519-1.212,2.87-2.625,4.014-4.198"/>
			<path fill="none" stroke="#33CC66" stroke-width="3.5" stroke-linecap="round" stroke-miterlimit="10" d="M356.813-426.792
				c0,4.094,3.319,7.414,7.414,7.414s7.414-3.319,7.414-7.414"/>
			<path fill="none" stroke="#33CC66" stroke-width="3.5" stroke-linecap="round" stroke-miterlimit="10" d="M350.533-426.792
				c0,7.563,6.131,13.694,13.694,13.694s13.694-6.131,13.694-13.694"/>
			<path fill="none" stroke="#33CC66" stroke-width="3.5" stroke-linecap="round" stroke-miterlimit="10" d="M322.506-426.792
				c0,23.042,18.679,41.72,41.72,41.72s41.72-18.679,41.72-41.72"/>
			<g>
				<path fill="#33CC66" d="M328.373-463.929h-5.763c-0.966,0-1.64,0.675-1.64,1.641v28.986c0,0.966,0.674,1.64,1.64,1.64h5.763
					c4.435,0,8.273-1.589,11.408-4.725c3.135-3.135,4.725-6.974,4.725-11.409c0-4.434-1.59-8.272-4.725-11.409
					C336.645-462.339,332.807-463.929,328.373-463.929z M341.268-447.847c-0.026,3.559-1.301,6.625-3.79,9.113
					c-2.491,2.491-5.557,3.781-9.105,3.833h-4.166v-25.791h4.166c3.554,0,6.617,1.267,9.103,3.767
					C339.966-454.42,341.242-451.364,341.268-447.847z"/>
				<path fill="#33CC66" d="M376.964-463.716c-0.875-0.403-1.813,0.004-2.112,0.854l-10.691,25.353l-10.659-25.368
					c-0.026-0.064-0.06-0.126-0.099-0.184c-0.301-0.451-0.771-0.72-1.323-0.758l-0.128-0.004c-0.499,0-0.936,0.191-1.263,0.554
					c-0.428,0.476-0.497,1.138-0.202,1.686l12.16,28.918l0.055,0.11c0.092,0.162,0.371,0.654,0.846,0.779
					c0.149,0.074,0.316,0.113,0.482,0.113h0.129c0.186,0,0.358-0.029,0.438-0.066c0.447-0.092,0.805-0.375,0.991-0.778
					c0.033-0.051,0.061-0.105,0.085-0.162l12.173-28.948l0.034-0.095c0.189-0.613,0.055-1.057-0.09-1.32
					C377.661-463.266,377.404-463.579,376.964-463.716z"/>
				<path fill="#33CC66" d="M402.956-459.204c-3.136-3.135-6.974-4.725-11.408-4.725h-5.763c-0.966,0-1.641,0.675-1.641,1.641
					v28.986c0,0.966,0.675,1.64,1.641,1.64h5.763c4.436,0,8.274-1.589,11.408-4.725c3.135-3.135,4.725-6.974,4.725-11.409
					C407.681-452.229,406.091-456.068,402.956-459.204z M404.443-447.847c-0.026,3.559-1.301,6.625-3.79,9.113
					c-2.491,2.491-5.557,3.781-9.105,3.833h-4.166v-25.791h4.166c3.554,0,6.617,1.267,9.103,3.767
					C403.141-454.421,404.417-451.364,404.443-447.847z"/>
			</g>
		</g>
		
			<circle fill="none" stroke="#33CC66" stroke-width="3.5" stroke-linecap="round" stroke-miterlimit="10" cx="364.558" cy="-428.495" r="115.784"/>
	</g>
	<g>
		<g>
			<g>
				<path fill="none" stroke="#00AFEF" stroke-width="3.5" stroke-linecap="round" stroke-miterlimit="10" d="M576.695-416.022
					c3.275,9.16,10.199,16.458,18.893,20.315c2.226,0.987,4.567,1.749,6.993,2.259"/>
				<path fill="none" stroke="#00AFEF" stroke-width="3.5" stroke-linecap="round" stroke-miterlimit="10" d="M586.118-412.22
					c1.499,2.264,3.311,4.294,5.369,6.033c2.089,1.766,4.432,3.232,6.958,4.339"/>
				<path fill="none" stroke="#00AFEF" stroke-width="3.5" stroke-linecap="round" stroke-miterlimit="10" d="M594.156-412.985
					c1.343,1.411,2.873,2.637,4.544,3.642"/>
			</g>
			<path fill="none" stroke="#00AFEF" stroke-width="3.5" stroke-linecap="round" stroke-miterlimit="10" d="M601.844-427.368
				c0,4.105,3.328,7.433,7.433,7.433s7.433-3.328,7.433-7.433"/>
			<path fill="none" stroke="#00AFEF" stroke-width="3.5" stroke-linecap="round" stroke-miterlimit="10" d="M595.547-427.368
				c0,7.583,6.147,13.729,13.729,13.729s13.729-6.147,13.729-13.729"/>
			<path fill="none" stroke="#00AFEF" stroke-width="3.5" stroke-linecap="round" stroke-miterlimit="10" d="M567.449-427.368
				c0,23.101,18.727,41.828,41.828,41.828s41.828-18.727,41.828-41.828"/>
			<g>
				<path fill="#00ADEE" d="M580.328-450.329c0.507-0.495,0.95-1.056,1.324-1.677c0.775-1.287,1.168-2.722,1.168-4.266
					c0-2.272-0.825-4.249-2.451-5.875c-1.627-1.626-3.618-2.451-5.918-2.451h-6.898c-0.968,0-1.644,0.676-1.644,1.644v29.061
					c0,0.968,0.676,1.644,1.644,1.644h8.882c2.616,0,4.87-0.935,6.698-2.778c1.825-1.842,2.75-4.021,2.75-6.476
					c0-2.422-0.738-4.528-2.194-6.259C582.737-448.893,581.61-449.753,580.328-450.329z M569.153-447.902h7.282
					c1.727,0,3.153,0.593,4.361,1.813c1.211,1.224,1.8,2.66,1.8,4.391s-0.588,3.167-1.799,4.391
					c-1.208,1.22-2.634,1.813-4.361,1.813h-7.282V-447.902z M574.451-451.232h-5.298v-10.123h5.28
					c1.415,0.024,2.586,0.525,3.581,1.532c0.997,1.009,1.494,2.174,1.52,3.542c-0.026,1.413-0.521,2.583-1.515,3.577
					C577.028-451.714,575.861-451.232,574.451-451.232z"/>
				<path fill="#00ADEE" d="M616.157-435.495h-14.482v-27.46c0-0.968-0.667-1.644-1.622-1.644s-1.622,0.676-1.622,1.644v29.061
					c0,0.968,0.676,1.644,1.644,1.644h16.083c0.968,0,1.644-0.667,1.644-1.622S617.125-435.495,616.157-435.495z"/>
				<path fill="#00ADEE" d="M652.048-464.111c-0.32-0.319-0.719-0.488-1.152-0.488c-0.968,0-1.644,0.676-1.644,1.644v17.495
					c-0.025,2.737-1.013,5.094-2.936,7.003c-1.924,1.911-4.274,2.908-6.966,2.962c-2.74-0.054-5.105-1.051-7.029-2.962
					c-1.919-1.906-2.893-4.259-2.893-6.992v-17.505c0-0.968-0.667-1.644-1.622-1.644s-1.622,0.676-1.622,1.644v17.505
					c0,3.646,1.296,6.79,3.853,9.346c2.556,2.557,5.686,3.853,9.303,3.853c3.616,0,6.752-1.295,9.322-3.851
					c2.572-2.557,3.876-5.702,3.876-9.348v-17.505C652.54-463.388,652.37-463.787,652.048-464.111z"/>
			</g>
		</g>
		
			<circle fill="none" stroke="#00AFEF" stroke-width="3.5" stroke-linecap="round" stroke-miterlimit="10" cx="608.505" cy="-428.495" r="115.784"/>
	</g>
	<g>
		
			<path fill="none" stroke="#884098" stroke-width="3.5" stroke-linecap="round" stroke-linejoin="round" stroke-miterlimit="10" d="
			M120.611-160.636c-37.442,0-66.63-1.04-66.63-1.04v10.426l28.335,1.75l2.62,33.295c0.215,2.658,2.434,4.705,5.101,4.705
			c0,0,11.195,0.625,29.82,0.625s32.205-0.625,32.205-0.625c2.59,0,4.746-1.989,4.955-4.571l2.631-33.429l28.335-1.833v-10.343
			c0,0-21.337,0.99-45.088,0.99"/>
		
			<line fill="none" stroke="#884098" stroke-width="3.5" stroke-linecap="round" stroke-linejoin="round" stroke-miterlimit="10" x1="83.168" y1="-143.062" x2="93.731" y2="-143.433"/>
		
			<line fill="none" stroke="#884098" stroke-width="3.5" stroke-linecap="round" stroke-linejoin="round" stroke-miterlimit="10" x1="148.626" y1="-145.315" x2="159.225" y2="-145.41"/>
		
			<path fill="none" stroke="#884098" stroke-width="3.5" stroke-linecap="round" stroke-linejoin="round" stroke-miterlimit="10" d="
			M83.487-137.5c0,0,17.66,1.355,37.494-0.135c19.833-1.49,37.197-3.115,37.197-3.115"/>
		
			<line fill="none" stroke="#884098" stroke-width="3.5" stroke-linecap="round" stroke-linejoin="round" stroke-miterlimit="10" x1="151.481" y1="-139.562" x2="151.481" y2="-131.562"/>
		
			<polyline fill="none" stroke="#884098" stroke-width="3.5" stroke-linecap="round" stroke-linejoin="round" stroke-miterlimit="10" points="
			146.499,-140.693 152.483,-156.324 124.809,-168.926 111.202,-137.901 		"/>
		
			<path fill="none" stroke="#884098" stroke-width="3.5" stroke-linecap="round" stroke-linejoin="round" stroke-miterlimit="10" d="
			M115.62-148.064c-2.382-1.362-5.141-2.141-8.081-2.141c-7.624,0-14.026,5.234-15.808,12.304"/>
		
			<path fill="none" stroke="#884098" stroke-width="3.5" stroke-linecap="round" stroke-linejoin="round" stroke-miterlimit="10" d="
			M103.283-137.573c1.1-0.991,2.556-1.594,4.154-1.594c1.416,0,2.721,0.474,3.765,1.272"/>
		
			<circle fill="none" stroke="#884098" stroke-width="3.5" stroke-linecap="round" stroke-linejoin="round" stroke-miterlimit="10" cx="120.61" cy="-141.803" r="115.784"/>
	</g>
	<g>
		<g>
			<g>
				
					<path fill="none" stroke="#FF3366" stroke-width="3.5" stroke-linecap="round" stroke-linejoin="round" stroke-miterlimit="10" d="
					M364.452-93.046c-10.37-0.292-23.826,2.954-29.164,1.268v-20.452v-47.703l-8.876,7.925l-12.997-15.533
					c0,0,13.745-16.581,15.85-18.069c2.105-1.488,22.507-7.291,22.507-7.291s3.487,17.118,12.68,16.801"/>
				
					<path fill="none" stroke="#FF3366" stroke-width="3.5" stroke-linecap="round" stroke-linejoin="round" stroke-miterlimit="10" d="
					M364.663-93.046c10.71,0.227,17.118,5.072,29.164,1.268v-68.155l8.876,7.925l12.997-15.533c0,0-13.45-16.158-15.85-18.069
					c-2.4-1.911-22.507-7.291-22.507-7.291s-3.487,17.118-12.68,16.801"/>
				
					<path fill="none" stroke="#FF3366" stroke-width="3.5" stroke-linecap="round" stroke-linejoin="round" stroke-miterlimit="10" d="
					M376.755-191.633c0,0-5.793,1.618-11.992,1.618s-12.402-1.618-12.402-1.618"/>
			</g>
			<g>
				
					<path fill="none" stroke="#FF3366" stroke-width="3" stroke-linecap="round" stroke-linejoin="round" stroke-dasharray="4.7063,4.7063" d="
					M375.374-148.37c0,1.808-1.48,3.288-3.288,3.288h-13.671c-1.808,0-3.288-1.48-3.288-3.288v-13.671
					c0-1.809,1.48-3.288,3.288-3.288h13.671c1.809,0,3.288,1.48,3.288,3.288V-148.37z"/>
			</g>
		</g>
		<circle fill="none" stroke="#EF4758" stroke-width="3.5" stroke-miterlimit="10" cx="364.558" cy="-141.803" r="115.784"/>
	</g>
	<g>
		<g>
			<g>
				<g>
					
						<line fill="none" stroke="#0090CD" stroke-width="3.5" stroke-linecap="round" stroke-linejoin="round" stroke-miterlimit="10" x1="106.993" y1="159.3" x2="106.993" y2="123.626"/>
					
						<polyline fill="none" stroke="#0090CD" stroke-width="3.5" stroke-linecap="round" stroke-linejoin="round" stroke-miterlimit="10" points="
						95.659,148.707 106.993,159.3 117.981,148.707 					"/>
				</g>
				<g>
					
						<line fill="none" stroke="#0090CD" stroke-width="3.5" stroke-linecap="round" stroke-linejoin="round" stroke-miterlimit="10" x1="146.147" y1="154.574" x2="146.147" y2="114.221"/>
					
						<polyline fill="none" stroke="#0090CD" stroke-width="3.5" stroke-linecap="round" stroke-linejoin="round" stroke-miterlimit="10" points="
						134.813,143.982 146.147,154.574 157.135,143.982 					"/>
				</g>
				<g>
					
						<line fill="none" stroke="#0090CD" stroke-width="3.5" stroke-linecap="round" stroke-linejoin="round" stroke-miterlimit="10" x1="127.051" y1="173.174" x2="127.051" y2="117.901"/>
					
						<polyline fill="none" stroke="#0090CD" stroke-width="3.5" stroke-linecap="round" stroke-linejoin="round" stroke-miterlimit="10" points="
						115.717,162.581 127.051,173.174 138.038,162.581 					"/>
				</g>
				
					<path fill="none" stroke="#0090CD" stroke-width="3.5" stroke-linecap="round" stroke-linejoin="round" stroke-miterlimit="10" d="
					M155.002,132.85c7.023-6.655,11.403-16.07,11.403-26.508c0-20.166-16.348-36.513-36.513-36.513
					c-16.09,0-29.748,10.407-34.612,24.857c-0.739-0.068-1.486-0.104-2.243-0.104c-13.376,0-24.22,10.844-24.22,24.22
					s10.844,24.22,24.22,24.22c0.43,0,0.858-0.011,1.283-0.033"/>
			</g>
			
				<path fill="none" stroke="#0090CD" stroke-width="3.5" stroke-linecap="round" stroke-linejoin="round" stroke-miterlimit="10" d="
				M88.639,101.415c-7.281,2.454-12.524,9.338-12.524,17.446"/>
			
				<path fill="none" stroke="#0090CD" stroke-width="3.5" stroke-linecap="round" stroke-linejoin="round" stroke-miterlimit="10" d="
				M123.303,76.655c-9.315,2.652-16.793,9.665-20.088,18.69"/>
		</g>
		
			<circle fill="none" stroke="#0090CD" stroke-width="3.5" stroke-linecap="round" stroke-linejoin="round" stroke-miterlimit="10" cx="120.61" cy="120.611" r="115.784"/>
	</g>
	<g>
		
			<line fill="none" stroke="#CF4E97" stroke-width="3.5" stroke-linecap="round" stroke-linejoin="round" stroke-miterlimit="10" x1="386.594" y1="110.191" x2="388.091" y2="105.259"/>
		
			<line fill="none" stroke="#CF4E97" stroke-width="3.5" stroke-linecap="round" stroke-linejoin="round" stroke-miterlimit="10" x1="393.618" y1="110.191" x2="395.114" y2="105.259"/>
		
			<line fill="none" stroke="#CF4E97" stroke-width="3.5" stroke-linecap="round" stroke-linejoin="round" stroke-miterlimit="10" x1="379.849" y1="111.032" x2="381.346" y2="106.1"/>
		
			<path fill="none" stroke="#CF4E97" stroke-width="3.5" stroke-linecap="round" stroke-linejoin="round" stroke-miterlimit="10" d="
			M401.876,110.955c0.885-1.224,1.585-2.613,2.048-4.139c2.245-7.4-1.934-15.218-9.334-17.463
			c-5.904-1.791-12.074,0.507-15.468,5.268c-0.263-0.107-0.534-0.204-0.811-0.288c-4.117-1.249-8.43,0.5-10.592,3.993"/>
		
			<path fill="none" stroke="#CF4E97" stroke-width="3.5" stroke-linecap="round" stroke-linejoin="round" stroke-miterlimit="10" d="
			M400.915,153.566h-77c-2.416,0-4.375-2.239-4.375-5v-29.678l-0.875-1.667v-5.986h87.5v5.986l-0.875,1.667v29.678
			C405.29,151.328,403.331,153.566,400.915,153.566z"/>
		
			<path fill="none" stroke="#CF4E97" stroke-width="3.5" stroke-linecap="round" stroke-linejoin="round" stroke-miterlimit="10" d="
			M399.29,117.408"/>
		
			<path fill="none" stroke="#CF4E97" stroke-width="3.5" stroke-linecap="round" stroke-linejoin="round" stroke-miterlimit="10" d="
			M357.799,108.566"/>
		<g>
			
				<path fill="none" stroke="#CF4E97" stroke-width="3.5" stroke-linecap="round" stroke-linejoin="round" stroke-miterlimit="10" d="
				M360.795,96.675V77.682c0-6.589,2-11.558,7.729-11.558c5.771,0,7.131,4.969,7.131,11.558v3.859"/>
			
				<polygon fill="none" stroke="#CF4E97" stroke-width="3.5" stroke-linecap="round" stroke-linejoin="round" stroke-miterlimit="10" points="
				375.577,76.566 376.92,82.941 373.92,82.941 			"/>
		</g>
		
			<polyline fill="none" stroke="#CF4E97" stroke-width="3.5" stroke-linecap="round" stroke-linejoin="round" stroke-miterlimit="10" points="
			323.731,110.955 318.968,96.776 347.469,86.176 356.738,110.955 		"/>
		
			<path fill="none" stroke="#CF4E97" stroke-width="3.5" stroke-linecap="round" stroke-linejoin="round" stroke-miterlimit="10" d="
			M353.719,100.963c2.299-1.498,5.007-2.436,7.943-2.607c7.611-0.444,14.306,4.409,16.497,11.363"/>
		
			<path fill="none" stroke="#CF4E97" stroke-width="3.5" stroke-linecap="round" stroke-linejoin="round" stroke-miterlimit="10" d="
			M366.645,110.719c-1.156-0.925-2.645-1.442-4.239-1.35c-1.413,0.082-2.689,0.631-3.685,1.489"/>
		
			<line fill="none" stroke="#CF4E97" stroke-width="3.5" stroke-linecap="round" stroke-linejoin="round" stroke-miterlimit="10" x1="329.981" y1="112.235" x2="329.981" y2="135.888"/>
		
			<line fill="none" stroke="#CF4E97" stroke-width="3.5" stroke-linecap="round" stroke-linejoin="round" stroke-miterlimit="10" x1="334.314" y1="112.032" x2="334.314" y2="119.721"/>
		
			<circle fill="none" stroke="#CF4E97" stroke-width="3.5" stroke-linecap="round" stroke-linejoin="round" stroke-miterlimit="10" cx="364.558" cy="120.611" r="115.784"/>
	</g>
	<g>
		<g>
			
				<path fill="none" stroke="#00B49C" stroke-width="3.5" stroke-linecap="round" stroke-linejoin="round" stroke-miterlimit="10" d="
				M608.993-92.68c-10.495-0.295-24.113,2.99-29.516,1.283v-20.699v-48.279l-8.983,8.021l-13.154-15.721
				c0,0,13.911-16.781,16.041-18.287s22.779-7.379,22.779-7.379s3.529,17.325,12.833,17.004"/>
			
				<path fill="none" stroke="#00B49C" stroke-width="3.5" stroke-linecap="round" stroke-linejoin="round" stroke-miterlimit="10" d="
				M609.207-92.68c10.839,0.23,17.325,5.133,29.516,1.283v-68.978l8.983,8.021l13.154-15.721c0,0-13.612-16.353-16.041-18.287
				c-2.429-1.934-22.779-7.379-22.779-7.379s-3.529,17.325-12.833,17.004"/>
			
				<path fill="none" stroke="#00B49C" stroke-width="3.5" stroke-linecap="round" stroke-linejoin="round" stroke-miterlimit="10" d="
				M621.444-192.456c0,0-5.863,1.637-12.137,1.637c-6.274,0-12.551-1.637-12.551-1.637"/>
		</g>
		<path fill="none" stroke="#00B49C" stroke-width="3.5" stroke-miterlimit="10" d="M618.528-152.354
			c0-5.207-5.668-9.485-9.428-15.632c-4.298,6.361-9.428,10.424-9.428,15.632s4.221,9.428,9.428,9.428
			C614.307-142.926,618.528-147.147,618.528-152.354z"/>
		<circle fill="none" stroke="#00B49C" stroke-width="3.5" stroke-miterlimit="10" cx="608.505" cy="-141.803" r="115.784"/>
	</g>
	<text transform="matrix(1 0 0 1 344.5065 -658.8652)" fill="#231F20" font-family="'MyriadPro-Regular'" font-size="12">#fc4349  #35cb60  #1f95c1  #ad51a3  #f27e18  #fecb57 </text>
	<circle fill="none" stroke="#EF4758" stroke-width="3.5" stroke-miterlimit="10" cx="-218.585" cy="-821" r="21"/>
	<circle fill="none" stroke="#D9519D" stroke-width="3.5" stroke-miterlimit="10" cx="-330.775" cy="-640" r="21"/>
	<circle fill="none" stroke="#6D58A5" stroke-width="3.5" stroke-miterlimit="10" cx="-330.775" cy="-821.817" r="21"/>
	<circle fill="none" stroke="#1F7ABC" stroke-width="3.5" stroke-miterlimit="10" cx="-274.606" cy="-942" r="21"/>
	<circle fill="none" stroke="#33B1C9" stroke-width="3.5" stroke-miterlimit="10" cx="-274.606" cy="-756" r="21"/>
	<circle fill="none" stroke="#7CC46C" stroke-width="3.5" stroke-miterlimit="10" cx="-390.934" cy="-816" r="21"/>
	<circle fill="none" stroke="#FEC65A" stroke-width="3.5" stroke-miterlimit="10" cx="-157.281" cy="-816" r="21"/>
	<circle fill="none" stroke="#F47D35" stroke-width="3.5" stroke-miterlimit="10" cx="-95.299" cy="-821" r="21"/>
	<circle fill="none" stroke="#EF4658" stroke-width="3.5" stroke-miterlimit="10" cx="-218.585" cy="-759" r="21"/>
	<circle fill="none" stroke="#48B261" stroke-width="3.5" stroke-miterlimit="10" cx="-390.934" cy="-754" r="21"/>
	<circle fill="none" stroke="#D56237" stroke-width="3.5" stroke-miterlimit="10" cx="-95.299" cy="-756" r="21"/>
	<circle fill="none" stroke="#3EA1C9" stroke-width="3.5" stroke-miterlimit="10" cx="-274.606" cy="-821" r="21"/>
	<circle fill="none" stroke="#C6406F" stroke-width="3.5" stroke-miterlimit="10" cx="-330.775" cy="-697" r="21"/>
	<circle fill="none" stroke="#EDC14C" stroke-width="3.5" stroke-miterlimit="10" cx="-157.281" cy="-759" r="21"/>
	<circle fill="none" stroke="#62ACDF" stroke-width="3.5" stroke-miterlimit="10" cx="-274.606" cy="-697" r="21"/>
	<circle fill="none" stroke="#EF4750" stroke-width="3.5" stroke-miterlimit="10" cx="-218.585" cy="-697" r="21"/>
	<circle fill="none" stroke="#FECA62" stroke-width="3.5" stroke-miterlimit="10" cx="-157.281" cy="-697" r="21"/>
	<circle fill="none" stroke="#47BA9C" stroke-width="3.5" stroke-miterlimit="10" cx="-390.934" cy="-882.125" r="21"/>
	<circle fill="none" stroke="#62BB46" stroke-width="3.5" stroke-miterlimit="10" cx="-390.934" cy="-640.256" r="21"/>
	<circle fill="none" stroke="#F8992C" stroke-width="3.5" stroke-miterlimit="10" cx="-157.281" cy="-873" r="21"/>
	<circle fill="none" stroke="#E84128" stroke-width="3.5" stroke-miterlimit="10" cx="-95.299" cy="-697" r="21"/>
	<circle fill="none" stroke="#5C3795" stroke-width="3.5" stroke-miterlimit="10" cx="-330.775" cy="-882" r="21"/>
	<circle fill="none" stroke="#2FBEEF" stroke-width="3.5" stroke-miterlimit="10" cx="-274.606" cy="-640" r="21"/>
	<circle fill="none" stroke="#FF3333" stroke-width="3.5" stroke-miterlimit="10" cx="-218.585" cy="-640" r="21"/>
	<circle fill="none" stroke="#33CC66" stroke-width="3.5" stroke-miterlimit="10" cx="-390.934" cy="-697.125" r="21"/>
	<circle fill="none" stroke="#3399CC" stroke-width="3.5" stroke-miterlimit="10" cx="-274.606" cy="-882" r="21"/>
	<circle fill="none" stroke="#996699" stroke-width="3.5" stroke-miterlimit="10" cx="-330.775" cy="-759" r="21"/>
	<circle fill="none" stroke="#FF6600" stroke-width="3.5" stroke-miterlimit="10" cx="-95.299" cy="-640" r="21"/>
	<circle fill="none" stroke="#FFCC66" stroke-width="3.5" stroke-miterlimit="10" cx="-157.281" cy="-640.256" r="21"/>
	<path fill="#231F20" d="M800.844-753.576v652.416h644v-652.416H800.844z M1247.394-308.521h-239.622v-240.646h239.622V-308.521z"/>
</g>
<g id="Layer_3">
</g>
</svg>
