<?xml version="1.0" encoding="utf-8"?>
<!-- Generator: Adobe Illustrator 18.1.1, SVG Export Plug-In . SVG Version: 6.00 Build 0)  -->
<!DOCTYPE svg PUBLIC "-//W3C//DTD SVG 1.1//EN" "http://www.w3.org/Graphics/SVG/1.1/DTD/svg11.dtd">
<svg version="1.1" id="Layer_1" xmlns="http://www.w3.org/2000/svg" xmlns:xlink="http://www.w3.org/1999/xlink" x="0px" y="0px"
	 viewBox="0 0 200 200" enable-background="new 0 0 200 200" xml:space="preserve">
<g>
	<path fill="none" stroke="#FFFFFF" stroke-width="3.5" stroke-linecap="round" stroke-linejoin="round" stroke-miterlimit="10" d="
		M108.251,130.352c9.387-2.457,17.24-8.704,21.828-17.006c1.175-2.126,2.135-4.386,2.853-6.752"/>
	<path fill="none" stroke="#FFFFFF" stroke-width="3.5" stroke-linecap="round" stroke-linejoin="round" stroke-miterlimit="10" d="
		M112.848,121.32c2.38-1.293,4.554-2.917,6.461-4.81c1.936-1.923,3.597-4.123,4.916-6.536"/>
	<path fill="none" stroke="#FFFFFF" stroke-width="3.5" stroke-linecap="round" stroke-linejoin="round" stroke-miterlimit="10" d="
		M112.786,113.267c1.519-1.212,2.87-2.625,4.014-4.198"/>
	<path fill="none" stroke="#FFFFFF" stroke-width="3.5" stroke-linecap="round" stroke-linejoin="round" stroke-miterlimit="10" d="
		M92.255,96.703c0,4.094,3.319,7.414,7.414,7.414c4.094,0,7.414-3.319,7.414-7.414"/>
	<path fill="none" stroke="#FFFFFF" stroke-width="3.5" stroke-linecap="round" stroke-linejoin="round" stroke-miterlimit="10" d="
		M85.975,96.703c0,7.563,6.131,13.694,13.694,13.694s13.694-6.131,13.694-13.694"/>
	<path fill="none" stroke="#FFFFFF" stroke-width="3.5" stroke-linecap="round" stroke-linejoin="round" stroke-miterlimit="10" d="
		M57.949,96.703c0,23.041,18.679,41.72,41.72,41.72s41.72-18.679,41.72-41.72"/>
	<g>
		<path fill="#FFFFFF" d="M63.815,59.566h-5.763c-0.966,0-1.64,0.675-1.64,1.641v28.986c0,0.966,0.674,1.64,1.64,1.64h5.763
			c4.435,0,8.273-1.589,11.408-4.725c3.135-3.135,4.725-6.974,4.725-11.409c0-4.434-1.59-8.272-4.725-11.409
			C72.087,61.156,68.25,59.566,63.815,59.566z M76.71,75.648c-0.026,3.559-1.301,6.625-3.79,9.113
			c-2.491,2.491-5.557,3.781-9.105,3.833H59.65V62.805h4.166c3.554,0,6.617,1.267,9.103,3.767
			C75.408,69.075,76.684,72.131,76.71,75.648z"/>
		<path fill="#FFFFFF" d="M112.406,59.779c-0.875-0.403-1.813,0.004-2.112,0.854L99.604,85.986L88.945,60.618
			c-0.026-0.064-0.06-0.126-0.099-0.184c-0.301-0.451-0.771-0.72-1.323-0.758l-0.128-0.004c-0.499,0-0.936,0.191-1.263,0.554
			c-0.428,0.476-0.497,1.138-0.202,1.686l12.16,28.918l0.055,0.11c0.092,0.162,0.371,0.654,0.846,0.779
			c0.149,0.074,0.316,0.113,0.482,0.113h0.129c0.186,0,0.358-0.029,0.438-0.066c0.447-0.092,0.805-0.375,0.991-0.778
			c0.033-0.051,0.061-0.105,0.085-0.162l12.173-28.948l0.034-0.095c0.189-0.613,0.055-1.057-0.09-1.32
			C113.104,60.229,112.846,59.916,112.406,59.779z"/>
		<path fill="#FFFFFF" d="M138.398,64.291c-3.136-3.135-6.974-4.725-11.408-4.725h-5.763c-0.966,0-1.641,0.675-1.641,1.641v28.986
			c0,0.966,0.675,1.64,1.641,1.64h5.763c4.436,0,8.274-1.589,11.408-4.725c3.135-3.135,4.725-6.974,4.725-11.409
			C143.124,71.266,141.534,67.427,138.398,64.291z M139.885,75.648c-0.026,3.559-1.301,6.625-3.79,9.113
			c-2.491,2.491-5.557,3.781-9.105,3.833h-4.166V62.805h4.166c3.554,0,6.617,1.267,9.103,3.767
			C138.583,69.074,139.859,72.131,139.885,75.648z"/>
	</g>
</g>
</svg>
