<?xml version="1.0" encoding="iso-8859-1"?>
<!-- Generator: Adobe Illustrator 18.1.1, SVG Export Plug-In . SVG Version: 6.00 Build 0)  -->
<!DOCTYPE svg PUBLIC "-//W3C//DTD SVG 1.1//EN" "http://www.w3.org/Graphics/SVG/1.1/DTD/svg11.dtd">
<svg version="1.1" xmlns="http://www.w3.org/2000/svg" xmlns:xlink="http://www.w3.org/1999/xlink" x="0px" y="0px"
	 viewBox="0 0 239.01 239.01" style="enable-background:new 0 0 239.01 239.01;" xml:space="preserve">
<g id="Layer_1">
	<g>
		<g>
			<path style="fill:none;stroke:#33CC66;stroke-width:3.5;stroke-linecap:round;stroke-miterlimit:10;" d="M127.756,151.857
				c9.387-2.457,17.24-8.704,21.828-17.006c1.175-2.126,2.135-4.386,2.853-6.752"/>
			<path style="fill:none;stroke:#33CC66;stroke-width:3.5;stroke-linecap:round;stroke-miterlimit:10;" d="M132.352,142.825
				c2.38-1.293,4.554-2.917,6.461-4.81c1.936-1.923,3.597-4.123,4.916-6.536"/>
			<path style="fill:none;stroke:#33CC66;stroke-width:3.5;stroke-linecap:round;stroke-miterlimit:10;" d="M132.291,134.772
				c1.519-1.212,2.87-2.625,4.014-4.198"/>
			<path style="fill:none;stroke:#33CC66;stroke-width:3.5;stroke-linecap:round;stroke-miterlimit:10;" d="M111.76,118.208
				c0,4.094,3.319,7.414,7.414,7.414c4.094,0,7.414-3.319,7.414-7.414"/>
			<path style="fill:none;stroke:#33CC66;stroke-width:3.5;stroke-linecap:round;stroke-miterlimit:10;" d="M105.48,118.208
				c0,7.563,6.131,13.694,13.694,13.694s13.694-6.131,13.694-13.694"/>
			<path style="fill:none;stroke:#33CC66;stroke-width:3.5;stroke-linecap:round;stroke-miterlimit:10;" d="M77.454,118.208
				c0,23.042,18.679,41.72,41.72,41.72s41.72-18.679,41.72-41.72"/>
			<g>
				<path style="fill:#33CC66;" d="M83.32,81.071h-5.763c-0.966,0-1.64,0.675-1.64,1.641v28.986c0,0.966,0.674,1.64,1.64,1.64h5.763
					c4.435,0,8.273-1.589,11.408-4.725c3.135-3.135,4.725-6.974,4.725-11.409c0-4.434-1.59-8.272-4.725-11.409
					C91.592,82.661,87.754,81.071,83.32,81.071z M96.215,97.153c-0.026,3.559-1.301,6.625-3.79,9.113
					c-2.491,2.491-5.557,3.781-9.105,3.833h-4.166V84.31h4.166c3.554,0,6.617,1.267,9.103,3.767
					C94.913,90.58,96.189,93.636,96.215,97.153z"/>
				<path style="fill:#33CC66;" d="M131.911,81.284c-0.875-0.403-1.813,0.004-2.112,0.854l-10.691,25.353L108.45,82.123
					c-0.026-0.064-0.06-0.126-0.099-0.184c-0.301-0.451-0.771-0.72-1.323-0.758l-0.128-0.004c-0.499,0-0.936,0.191-1.263,0.554
					c-0.428,0.476-0.497,1.138-0.202,1.686l12.16,28.918l0.055,0.11c0.092,0.162,0.371,0.654,0.846,0.779
					c0.149,0.074,0.316,0.113,0.482,0.113h0.129c0.186,0,0.358-0.029,0.438-0.066c0.447-0.092,0.805-0.375,0.991-0.778
					c0.033-0.051,0.061-0.105,0.085-0.162l12.173-28.948l0.034-0.095c0.189-0.613,0.055-1.057-0.09-1.32
					C132.608,81.734,132.351,81.421,131.911,81.284z"/>
				<path style="fill:#33CC66;" d="M157.903,85.796c-3.136-3.135-6.974-4.725-11.408-4.725h-5.763c-0.966,0-1.641,0.675-1.641,1.641
					v28.986c0,0.966,0.675,1.64,1.641,1.64h5.763c4.436,0,8.274-1.589,11.408-4.725c3.135-3.135,4.725-6.974,4.725-11.409
					C162.628,92.771,161.039,88.932,157.903,85.796z M159.39,97.153c-0.026,3.559-1.301,6.625-3.79,9.113
					c-2.491,2.491-5.557,3.781-9.105,3.833h-4.166V84.31h4.166c3.554,0,6.617,1.267,9.103,3.767
					C158.088,90.579,159.364,93.636,159.39,97.153z"/>
			</g>
		</g>
		
			<circle style="fill:none;stroke:#33CC66;stroke-width:3.5;stroke-linecap:round;stroke-miterlimit:10;" cx="119.505" cy="119.505" r="115.784"/>
	</g>
</g>
<g id="Layer_3">
</g>
</svg>
