<?xml version="1.0" encoding="iso-8859-1"?>
<!-- Generator: Adobe Illustrator 18.1.1, SVG Export Plug-In . SVG Version: 6.00 Build 0)  -->
<!DOCTYPE svg PUBLIC "-//W3C//DTD SVG 1.1//EN" "http://www.w3.org/Graphics/SVG/1.1/DTD/svg11.dtd">
<svg version="1.1" xmlns="http://www.w3.org/2000/svg" xmlns:xlink="http://www.w3.org/1999/xlink" x="0px" y="0px"
	 viewBox="0 0 240.846 240.846" style="enable-background:new 0 0 240.846 240.846;" xml:space="preserve">
<g id="Layer_1">
	<g>
		
			<line style="fill:none;stroke:#CF4E97;stroke-width:3.5;stroke-linecap:round;stroke-linejoin:round;stroke-miterlimit:10;" x1="142.459" y1="110.003" x2="143.956" y2="105.071"/>
		
			<line style="fill:none;stroke:#CF4E97;stroke-width:3.5;stroke-linecap:round;stroke-linejoin:round;stroke-miterlimit:10;" x1="149.483" y1="110.003" x2="150.979" y2="105.071"/>
		
			<line style="fill:none;stroke:#CF4E97;stroke-width:3.5;stroke-linecap:round;stroke-linejoin:round;stroke-miterlimit:10;" x1="135.715" y1="110.845" x2="137.211" y2="105.913"/>
		<path style="fill:none;stroke:#CF4E97;stroke-width:3.5;stroke-linecap:round;stroke-linejoin:round;stroke-miterlimit:10;" d="
			M157.741,110.768c0.885-1.224,1.585-2.613,2.048-4.139c2.245-7.4-1.934-15.218-9.334-17.463
			c-5.904-1.791-12.074,0.507-15.468,5.268c-0.263-0.107-0.534-0.204-0.811-0.288c-4.117-1.249-8.43,0.5-10.592,3.993"/>
		<path style="fill:none;stroke:#CF4E97;stroke-width:3.5;stroke-linecap:round;stroke-linejoin:round;stroke-miterlimit:10;" d="
			M156.78,153.379h-77c-2.416,0-4.375-2.239-4.375-5v-29.678l-0.875-1.667v-5.986h87.5v5.986l-0.875,1.667v29.678
			C161.155,151.14,159.196,153.379,156.78,153.379z"/>
		<path style="fill:none;stroke:#CF4E97;stroke-width:3.5;stroke-linecap:round;stroke-linejoin:round;stroke-miterlimit:10;" d="
			M155.155,117.221"/>
		<path style="fill:none;stroke:#CF4E97;stroke-width:3.5;stroke-linecap:round;stroke-linejoin:round;stroke-miterlimit:10;" d="
			M113.665,108.379"/>
		<g>
			<path style="fill:none;stroke:#CF4E97;stroke-width:3.5;stroke-linecap:round;stroke-linejoin:round;stroke-miterlimit:10;" d="
				M116.66,96.487V77.495c0-6.589,2-11.558,7.729-11.558c5.771,0,7.131,4.969,7.131,11.558v3.859"/>
			
				<polygon style="fill:none;stroke:#CF4E97;stroke-width:3.5;stroke-linecap:round;stroke-linejoin:round;stroke-miterlimit:10;" points="
				131.442,76.379 132.785,82.754 129.785,82.754 			"/>
		</g>
		
			<polyline style="fill:none;stroke:#CF4E97;stroke-width:3.5;stroke-linecap:round;stroke-linejoin:round;stroke-miterlimit:10;" points="
			79.596,110.768 74.833,96.589 103.334,85.989 112.603,110.768 		"/>
		<path style="fill:none;stroke:#CF4E97;stroke-width:3.5;stroke-linecap:round;stroke-linejoin:round;stroke-miterlimit:10;" d="
			M109.584,100.776c2.299-1.498,5.007-2.436,7.943-2.607c7.611-0.444,14.306,4.409,16.497,11.363"/>
		<path style="fill:none;stroke:#CF4E97;stroke-width:3.5;stroke-linecap:round;stroke-linejoin:round;stroke-miterlimit:10;" d="
			M122.51,110.532c-1.156-0.925-2.645-1.443-4.239-1.35c-1.413,0.082-2.689,0.631-3.685,1.489"/>
		
			<line style="fill:none;stroke:#CF4E97;stroke-width:3.5;stroke-linecap:round;stroke-linejoin:round;stroke-miterlimit:10;" x1="85.846" y1="112.048" x2="85.846" y2="135.7"/>
		
			<line style="fill:none;stroke:#CF4E97;stroke-width:3.5;stroke-linecap:round;stroke-linejoin:round;stroke-miterlimit:10;" x1="90.179" y1="111.845" x2="90.179" y2="119.533"/>
		
			<circle style="fill:none;stroke:#CF4E97;stroke-width:3.5;stroke-linecap:round;stroke-linejoin:round;stroke-miterlimit:10;" cx="120.423" cy="120.423" r="115.784"/>
	</g>
</g>
<g id="Layer_3">
</g>
</svg>
