<?xml version="1.0" encoding="utf-8"?>
<!-- Generator: Adobe Illustrator 18.1.1, SVG Export Plug-In . SVG Version: 6.00 Build 0)  -->
<!DOCTYPE svg PUBLIC "-//W3C//DTD SVG 1.1//EN" "http://www.w3.org/Graphics/SVG/1.1/DTD/svg11.dtd">
<svg version="1.1" id="Layer_1" xmlns="http://www.w3.org/2000/svg" xmlns:xlink="http://www.w3.org/1999/xlink" x="0px" y="0px"
	 viewBox="0 0 200 200" enable-background="new 0 0 200 200" xml:space="preserve">
<line fill="none" stroke="#FFFFFF" stroke-width="3.274" stroke-linecap="round" stroke-linejoin="round" stroke-miterlimit="10" x1="122.037" y1="89.58" x2="123.533" y2="84.648"/>
<line fill="none" stroke="#FFFFFF" stroke-width="3.274" stroke-linecap="round" stroke-linejoin="round" stroke-miterlimit="10" x1="129.06" y1="89.58" x2="130.557" y2="84.648"/>
<line fill="none" stroke="#FFFFFF" stroke-width="3.274" stroke-linecap="round" stroke-linejoin="round" stroke-miterlimit="10" x1="115.292" y1="90.422" x2="116.788" y2="85.49"/>
<path fill="none" stroke="#FFFFFF" stroke-width="3.274" stroke-linecap="round" stroke-linejoin="round" stroke-miterlimit="10" d="
	M137.319,90.345c0.885-1.224,1.585-2.613,2.048-4.139c2.245-7.4-1.934-15.218-9.334-17.463c-5.904-1.791-12.074,0.507-15.468,5.268
	c-0.263-0.107-0.534-0.204-0.811-0.288c-4.117-1.249-8.43,0.5-10.592,3.993"/>
<path fill="none" stroke="#FFFFFF" stroke-width="3.274" stroke-linecap="round" stroke-linejoin="round" stroke-miterlimit="10" d="
	M136.357,132.956h-77c-2.416,0-4.375-2.239-4.375-5V98.278l-0.875-1.667v-5.986h87.5v5.986l-0.875,1.667v29.678
	C140.732,130.717,138.773,132.956,136.357,132.956z"/>
<path fill="none" stroke="#FFFFFF" stroke-width="3.274" stroke-linecap="round" stroke-linejoin="round" stroke-miterlimit="10" d="
	M134.732,96.798"/>
<path fill="none" stroke="#FFFFFF" stroke-width="3.5" stroke-linecap="round" stroke-linejoin="round" stroke-miterlimit="10" d="
	M93.242,87.956"/>
<g>
	<path fill="none" stroke="#FFFFFF" stroke-width="3.5" stroke-linecap="round" stroke-linejoin="round" stroke-miterlimit="10" d="
		M96.237,76.065V57.072c0-6.589,2-11.558,7.729-11.558c5.771,0,7.131,4.969,7.131,11.558v3.859"/>
	
		<polygon fill="none" stroke="#FFFFFF" stroke-width="2.8577" stroke-linecap="round" stroke-linejoin="round" stroke-miterlimit="10" points="
		111.019,55.956 112.362,62.331 109.362,62.331 	"/>
</g>
<polyline fill="none" stroke="#FFFFFF" stroke-width="3.801" stroke-linecap="round" stroke-linejoin="round" stroke-miterlimit="10" points="
	59.173,90.345 54.41,76.166 82.911,65.566 92.18,90.345 "/>
<path fill="none" stroke="#FFFFFF" stroke-width="3.5" stroke-linecap="round" stroke-linejoin="round" stroke-miterlimit="10" d="
	M89.161,80.353c2.299-1.498,5.007-2.436,7.943-2.607c7.611-0.444,14.306,4.409,16.497,11.363"/>
<path fill="none" stroke="#FFFFFF" stroke-width="3" stroke-linecap="round" stroke-linejoin="round" stroke-miterlimit="10" d="
	M102.087,90.109c-1.156-0.925-2.645-1.443-4.239-1.35c-1.413,0.082-2.689,0.631-3.685,1.489"/>
<line fill="none" stroke="#FFFFFF" stroke-width="3.274" stroke-linecap="round" stroke-linejoin="round" stroke-miterlimit="10" x1="65.423" y1="91.625" x2="65.423" y2="115.277"/>
<line fill="none" stroke="#FFFFFF" stroke-width="3.274" stroke-linecap="round" stroke-linejoin="round" stroke-miterlimit="10" x1="69.756" y1="91.422" x2="69.756" y2="99.11"/>
</svg>
