<?xml version="1.0" encoding="utf-8"?>
<!-- Generator: Adobe Illustrator 18.1.1, SVG Export Plug-In . SVG Version: 6.00 Build 0)  -->
<!DOCTYPE svg PUBLIC "-//W3C//DTD SVG 1.1//EN" "http://www.w3.org/Graphics/SVG/1.1/DTD/svg11.dtd">
<svg version="1.1" id="Layer_1" xmlns="http://www.w3.org/2000/svg" xmlns:xlink="http://www.w3.org/1999/xlink" x="0px" y="0px"
	 viewBox="0 0 200 200" enable-background="new 0 0 200 200" xml:space="preserve">
<path fill="none" stroke="#FFFFFF" stroke-width="3.5" stroke-linecap="round" stroke-linejoin="round" stroke-miterlimit="10" d="
	M100,81.167c-37.442,0-66.63-1.04-66.63-1.04v10.426l28.335,1.75l2.62,33.295c0.215,2.658,2.434,4.705,5.101,4.705
	c0,0,11.195,0.625,29.82,0.625s32.205-0.625,32.205-0.625c2.59,0,4.746-1.989,4.955-4.571l2.631-33.429l28.335-1.833V80.127
	c0,0-21.337,0.99-45.088,0.99"/>
<line fill="none" stroke="#FFFFFF" stroke-width="3.5" stroke-linecap="round" stroke-linejoin="round" stroke-miterlimit="10" x1="62.558" y1="98.74" x2="73.12" y2="98.37"/>
<line fill="none" stroke="#FFFFFF" stroke-width="3.5" stroke-linecap="round" stroke-linejoin="round" stroke-miterlimit="10" x1="128.016" y1="96.487" x2="138.615" y2="96.393"/>
<path fill="none" stroke="#FFFFFF" stroke-width="3.5" stroke-linecap="round" stroke-linejoin="round" stroke-miterlimit="10" d="
	M62.876,104.303c0,0,17.66,1.355,37.494-0.135s37.197-3.115,37.197-3.115"/>
<line fill="none" stroke="#FFFFFF" stroke-width="3.5" stroke-linecap="round" stroke-linejoin="round" stroke-miterlimit="10" x1="130.87" y1="102.24" x2="130.87" y2="110.24"/>
<polyline fill="none" stroke="#FFFFFF" stroke-width="3.801" stroke-linecap="round" stroke-linejoin="round" stroke-miterlimit="10" points="
	125.888,101.109 131.873,85.479 104.199,72.876 90.592,103.902 "/>
<path fill="none" stroke="#FFFFFF" stroke-width="3.5" stroke-linecap="round" stroke-linejoin="round" stroke-miterlimit="10" d="
	M95.009,93.738c-2.382-1.362-5.141-2.141-8.081-2.141c-7.624,0-14.026,5.234-15.808,12.304"/>
<path fill="none" stroke="#FFFFFF" stroke-width="3" stroke-linecap="round" stroke-linejoin="round" stroke-miterlimit="10" d="
	M82.673,104.23c1.1-0.991,2.556-1.594,4.154-1.594c1.416,0,2.721,0.474,3.765,1.272"/>
</svg>
