<?xml version="1.0" encoding="iso-8859-1"?>
<!-- Generator: Adobe Illustrator 18.1.1, SVG Export Plug-In . SVG Version: 6.00 Build 0)  -->
<!DOCTYPE svg PUBLIC "-//W3C//DTD SVG 1.1//EN" "http://www.w3.org/Graphics/SVG/1.1/DTD/svg11.dtd">
<svg version="1.1" xmlns="http://www.w3.org/2000/svg" xmlns:xlink="http://www.w3.org/1999/xlink" x="0px" y="0px"
	 viewBox="0 0 238.395 238.395" style="enable-background:new 0 0 238.395 238.395;" xml:space="preserve">
<g id="Layer_1">
	<g>
		<path style="fill:none;stroke:#884098;stroke-width:3.5;stroke-linecap:round;stroke-linejoin:round;stroke-miterlimit:10;" d="
			M119.197,100.364c-37.442,0-66.63-1.04-66.63-1.04v10.426l28.335,1.75l2.62,33.295c0.215,2.658,2.434,4.705,5.101,4.705
			c0,0,11.195,0.625,29.82,0.625s32.205-0.625,32.205-0.625c2.59,0,4.746-1.989,4.955-4.571l2.631-33.429l28.335-1.833V99.324
			c0,0-21.337,0.99-45.088,0.99"/>
		
			<line style="fill:none;stroke:#884098;stroke-width:3.5;stroke-linecap:round;stroke-linejoin:round;stroke-miterlimit:10;" x1="81.755" y1="117.938" x2="92.317" y2="117.567"/>
		
			<line style="fill:none;stroke:#884098;stroke-width:3.5;stroke-linecap:round;stroke-linejoin:round;stroke-miterlimit:10;" x1="147.213" y1="115.685" x2="157.812" y2="115.59"/>
		<path style="fill:none;stroke:#884098;stroke-width:3.5;stroke-linecap:round;stroke-linejoin:round;stroke-miterlimit:10;" d="
			M82.074,123.5c0,0,17.66,1.355,37.494-0.135c19.833-1.49,37.197-3.115,37.197-3.115"/>
		
			<line style="fill:none;stroke:#884098;stroke-width:3.5;stroke-linecap:round;stroke-linejoin:round;stroke-miterlimit:10;" x1="150.067" y1="121.438" x2="150.067" y2="129.438"/>
		
			<polyline style="fill:none;stroke:#884098;stroke-width:3.5;stroke-linecap:round;stroke-linejoin:round;stroke-miterlimit:10;" points="
			145.085,120.307 151.07,104.676 123.396,92.074 109.789,123.099 		"/>
		<path style="fill:none;stroke:#884098;stroke-width:3.5;stroke-linecap:round;stroke-linejoin:round;stroke-miterlimit:10;" d="
			M114.206,112.936c-2.382-1.362-5.141-2.141-8.081-2.141c-7.624,0-14.026,5.234-15.808,12.304"/>
		<path style="fill:none;stroke:#884098;stroke-width:3.5;stroke-linecap:round;stroke-linejoin:round;stroke-miterlimit:10;" d="
			M101.87,123.427c1.1-0.991,2.556-1.594,4.154-1.594c1.416,0,2.721,0.474,3.765,1.272"/>
		
			<circle style="fill:none;stroke:#884098;stroke-width:3.5;stroke-linecap:round;stroke-linejoin:round;stroke-miterlimit:10;" cx="119.197" cy="119.197" r="115.784"/>
	</g>
</g>
<g id="Layer_3">
</g>
</svg>
