<?xml version="1.0" encoding="iso-8859-1"?>
<!-- Generator: Adobe Illustrator 18.1.1, SVG Export Plug-In . SVG Version: 6.00 Build 0)  -->
<!DOCTYPE svg PUBLIC "-//W3C//DTD SVG 1.1//EN" "http://www.w3.org/Graphics/SVG/1.1/DTD/svg11.dtd">
<svg version="1.1" xmlns="http://www.w3.org/2000/svg" xmlns:xlink="http://www.w3.org/1999/xlink" x="0px" y="0px"
	 viewBox="0 0 240.846 240.846" style="enable-background:new 0 0 240.846 240.846;" xml:space="preserve">
<g id="Layer_1">
	<g>
		<g>
			<g>
				<path style="fill:none;stroke:#FF3366;stroke-width:3.5;stroke-linecap:round;stroke-linejoin:round;stroke-miterlimit:10;" d="
					M120.317,169.179c-10.37-0.292-23.826,2.954-29.164,1.268v-20.452v-47.703l-8.876,7.925L69.28,94.684
					c0,0,13.745-16.581,15.85-18.069c2.105-1.488,22.507-7.291,22.507-7.291s3.487,17.118,12.68,16.801"/>
				<path style="fill:none;stroke:#FF3366;stroke-width:3.5;stroke-linecap:round;stroke-linejoin:round;stroke-miterlimit:10;" d="
					M120.529,169.179c10.71,0.227,17.118,5.072,29.164,1.268v-68.155l8.876,7.925l12.997-15.533c0,0-13.45-16.158-15.85-18.069
					s-22.507-7.291-22.507-7.291s-3.487,17.118-12.68,16.801"/>
				<path style="fill:none;stroke:#FF3366;stroke-width:3.5;stroke-linecap:round;stroke-linejoin:round;stroke-miterlimit:10;" d="
					M132.62,70.592c0,0-5.793,1.618-11.992,1.618c-6.199,0-12.402-1.618-12.402-1.618"/>
			</g>
			<g>
				
					<path style="fill:none;stroke:#FF3366;stroke-width:3;stroke-linecap:round;stroke-linejoin:round;stroke-dasharray:4.7063,4.7063;" d="
					M131.239,113.856c0,1.808-1.48,3.288-3.288,3.288H114.28c-1.808,0-3.288-1.48-3.288-3.288v-13.671
					c0-1.809,1.48-3.288,3.288-3.288h13.671c1.809,0,3.288,1.48,3.288,3.288V113.856z"/>
			</g>
		</g>
		<circle style="fill:none;stroke:#EF4758;stroke-width:3.5;stroke-miterlimit:10;" cx="120.423" cy="120.423" r="115.784"/>
	</g>
</g>
<g id="Layer_3">
</g>
</svg>
