<?xml version="1.0" encoding="utf-8"?>
<!-- Generator: Adobe Illustrator 18.1.1, SVG Export Plug-In . SVG Version: 6.00 Build 0)  -->
<!DOCTYPE svg PUBLIC "-//W3C//DTD SVG 1.1//EN" "http://www.w3.org/Graphics/SVG/1.1/DTD/svg11.dtd">
<svg version="1.1" id="Layer_1" xmlns="http://www.w3.org/2000/svg" xmlns:xlink="http://www.w3.org/1999/xlink" x="0px" y="0px"
	 viewBox="0 0 200 200" enable-background="new 0 0 200 200" xml:space="preserve">
<path fill="none" stroke="#6D6F71" stroke-width="3.3209" stroke-linecap="round" stroke-linejoin="round" stroke-miterlimit="10" d="
	M41.689,150.562"/>
<g>
	<path fill="none" stroke="#FFFFFF" stroke-width="3.5" stroke-linecap="round" stroke-linejoin="round" stroke-miterlimit="10" d="
		M100.488,149.123c-10.495-0.295-24.113,2.99-29.516,1.283v-20.699V81.429l-8.983,8.021L48.835,73.729
		c0,0,13.911-16.781,16.041-18.287c2.13-1.506,22.779-7.379,22.779-7.379s3.529,17.325,12.833,17.004"/>
	<path fill="none" stroke="#FFFFFF" stroke-width="3.5" stroke-linecap="round" stroke-linejoin="round" stroke-miterlimit="10" d="
		M100.702,149.123c10.839,0.23,17.325,5.133,29.516,1.283V81.429l8.983,8.021l13.154-15.721c0,0-13.612-16.353-16.041-18.287
		c-2.429-1.934-22.779-7.379-22.779-7.379s-3.529,17.325-12.833,17.004"/>
	<path fill="none" stroke="#FFFFFF" stroke-width="3.5" stroke-linecap="round" stroke-linejoin="round" stroke-miterlimit="10" d="
		M112.939,49.346c0,0-5.863,1.637-12.137,1.637s-12.551-1.637-12.551-1.637"/>
</g>
<path fill="none" stroke="#FFFFFF" stroke-width="3.5" stroke-linecap="round" stroke-linejoin="round" stroke-miterlimit="10" d="
	M110.023,89.448c0-5.207-5.668-9.485-9.428-15.632c-4.298,6.362-9.428,10.424-9.428,15.632c0,5.207,4.221,9.428,9.428,9.428
	S110.023,94.655,110.023,89.448z"/>
</svg>
