<?xml version="1.0" encoding="utf-8"?>
<!-- Generator: Adobe Illustrator 18.1.1, SVG Export Plug-In . SVG Version: 6.00 Build 0)  -->
<svg version="1.1" id="Ebene_1" xmlns="http://www.w3.org/2000/svg" xmlns:xlink="http://www.w3.org/1999/xlink" x="0px" y="0px"
	 viewBox="-607 865 320 320" enable-background="new -607 865 320 320" xml:space="preserve">
<path fill="none" stroke="#FFFFFF" stroke-width="17" stroke-linecap="round" stroke-miterlimit="10" stroke-dasharray="90,45" d="
	M-493.8,875h93.6c29.7,0,44.6,0,60.6,5.1c17.5,6.4,31.2,20.1,37.6,37.6c5.1,16,5.1,30.8,5.1,60.6v93.6c0,29.7,0,44.6-5.1,60.6
	c-6.4,17.5-20.1,31.2-37.6,37.6c-16,5.1-30.8,5.1-60.6,5.1h-93.6c-29.7,0-44.6,0-60.6-5.1c-17.5-6.4-31.2-20.1-37.6-37.6
	c-5.1-16-5.1-30.8-5.1-60.6v-93.6c0-29.7,0-44.6,5.1-60.6c6.4-17.5,20.1-31.2,37.6-37.6C-538.4,875-523.5,875-493.8,875L-493.8,875"
	/>
</svg>
