<?xml version="1.0" encoding="utf-8"?>
<!-- Generator: Adobe Illustrator 18.0.0, SVG Export Plug-In . SVG Version: 6.00 Build 0)  -->
<!DOCTYPE svg PUBLIC "-//W3C//DTD SVG 1.1//EN" "http://www.w3.org/Graphics/SVG/1.1/DTD/svg11.dtd">
<svg version="1.1" id="RSSicon" xmlns="http://www.w3.org/2000/svg" xmlns:xlink="http://www.w3.org/1999/xlink" x="0px" y="0px"
	 viewBox="0 0 256 256" enable-background="new 0 0 256 256" xml:space="preserve">
<title>RSS feed icon</title>
<path fill="none" stroke="#888888" stroke-width="10" stroke-miterlimit="10" d="M208,0H48C21.5,0,0,21.5,0,48v160
	c0,26.5,21.5,48,48,48h160c26.5,0,48-21.5,48-48V48C256,21.5,234.5,0,208,0z M64,224c-17.7,0-32-14.3-32-32s14.3-32,32-32
	s32,14.3,32,32S81.7,224,64,224z M128,224c0-53-43-96-96-96V96c70.7,0,128,57.3,128,128H128z M192,224c0-88.4-71.6-160-160-160V32
	c106,0,192,86,192,192H192z"/>
</svg>
