<?xml version="1.0" encoding="utf-8"?>
<!-- Generator: Adobe Illustrator 18.0.0, SVG Export Plug-In . SVG Version: 6.00 Build 0)  -->
<!DOCTYPE svg PUBLIC "-//W3C//DTD SVG 1.1//EN" "http://www.w3.org/Graphics/SVG/1.1/DTD/svg11.dtd">
<svg version="1.1" id="Kickstarter_K" xmlns="http://www.w3.org/2000/svg" xmlns:xlink="http://www.w3.org/1999/xlink" x="0px"
	 y="0px" viewBox="0 0 167 167" enable-background="new 0 0 167 167" xml:space="preserve">
<path fill="#FFFFFF" d="M157,0H10C4.5,0,0,4.5,0,10v147c0,5.5,4.5,10,10,10h147c5.5,0,10-4.5,10-10V10C167,4.5,162.5,0,157,0z
	 M119.9,124.7c-2.9,3-6.4,4.4-10.5,4.4c-4.5,0-8-1.5-10.3-4.4L76.4,96.5v15.6c0,4.4-0.8,7.9-2.3,10.3c-2.8,4.5-6.9,6.7-12.3,6.7
	c-4.9,0-8.7-1.6-11.3-4.9c-2.5-3-3.8-7.1-3.8-12.1V54.5c0-4.7,1.3-8.7,3.8-11.7c2.7-3.2,6.4-4.9,11.1-4.9c4.5,0,8.2,1.6,11.2,4.9
	c1.7,1.8,2.7,3.6,3.2,5.5c0.3,1.1,0.4,3.3,0.4,6.4V69l16.7-24.2c3.2-4.6,7.2-6.9,12.3-6.9c4.1,0,7.6,1.5,10.6,4.3
	c3,2.9,4.5,6.4,4.5,10.4c0,3-0.8,5.6-2.4,7.9L103,82.5l18.4,23.4c1.8,2.3,2.8,5.1,2.8,8.2C124.2,118.2,122.8,121.7,119.9,124.7z"/>
</svg>
