<?xml version="1.0" encoding="utf-8"?>
<!-- Generator: Adobe Illustrator 15.1.0, SVG Export Plug-In . SVG Version: 6.00 Build 0)  -->
<!DOCTYPE svg PUBLIC "-//W3C//DTD SVG 1.1//EN" "http://www.w3.org/Graphics/SVG/1.1/DTD/svg11.dtd">
<svg version="1.1" id="Layer_1" xmlns="http://www.w3.org/2000/svg" xmlns:xlink="http://www.w3.org/1999/xlink" x="0px" y="0px"
	 width="227.793px" height="25.568px" viewBox="0 0 227.793 25.568" enable-background="new 0 0 227.793 25.568"
	 xml:space="preserve">
<g>
	<path fill="#FFFFFF" d="M2.223,17.187v-9.52H0.655C0.313,7.667,0,7.354,0,7.012s0.313-0.627,0.655-0.627h1.568V2.337
		c0-0.399,0.285-0.713,0.684-0.713S3.62,1.938,3.62,2.337v4.047H8.18c0.342,0,0.656,0.313,0.656,0.655
		c0,0.342-0.313,0.627-0.656,0.627H3.62v9.377c0,2.081,1.226,2.822,2.908,2.822c0.998,0,1.454-0.285,1.653-0.285
		c0.313,0,0.627,0.285,0.627,0.627c0,0.285-0.171,0.484-0.456,0.599c-0.57,0.2-1.226,0.37-2.052,0.37
		C4.047,21.177,2.223,19.953,2.223,17.187z"/>
	<path fill="#FFFFFF" d="M12.856,0.712C12.856,0.313,13.141,0,13.54,0s0.712,0.313,0.712,0.712v8.38
		c0.969-1.71,2.594-3.05,5.245-3.05c3.677,0,5.815,2.508,5.815,5.986v8.294c0,0.428-0.285,0.713-0.684,0.713
		s-0.713-0.285-0.713-0.713v-8.038c0-2.993-1.682-4.959-4.617-4.959c-2.851,0-5.045,2.167-5.045,5.188v7.81
		c0,0.428-0.285,0.713-0.684,0.713s-0.712-0.285-0.712-0.713V0.712z"/>
	<path fill="#FFFFFF" d="M36.458,21.263c-3.819,0-7.125-3.05-7.125-7.582v-0.057c0-4.219,2.964-7.582,6.898-7.582
		c4.076,0,6.669,3.363,6.669,7.525c0,0.342-0.342,0.655-0.684,0.655H30.815c0.257,3.62,2.851,5.729,5.701,5.729
		c2.081,0,3.535-0.855,4.703-1.996c0.114-0.113,0.256-0.199,0.456-0.199c0.371,0,0.684,0.285,0.684,0.656
		c0,0.143-0.057,0.312-0.228,0.484C40.706,20.323,39.081,21.263,36.458,21.263z M41.39,12.968c-0.199-2.935-1.881-5.643-5.216-5.643
		c-2.879,0-5.102,2.423-5.359,5.643H41.39z"/>
	<path fill="#FFFFFF" d="M55.53,0.712C55.53,0.313,55.815,0,56.214,0s0.712,0.313,0.712,0.712v8.38
		c0.969-1.71,2.594-3.05,5.245-3.05c3.677,0,5.815,2.508,5.815,5.986v8.294c0,0.428-0.285,0.713-0.684,0.713
		c-0.399,0-0.713-0.285-0.713-0.713v-8.038c0-2.993-1.682-4.959-4.617-4.959c-2.851,0-5.045,2.167-5.045,5.188v7.81
		c0,0.428-0.285,0.713-0.684,0.713c-0.399,0-0.712-0.285-0.712-0.713V0.712z"/>
	<path fill="#FFFFFF" d="M85.175,20.323c0,0.399-0.285,0.713-0.684,0.713s-0.712-0.285-0.712-0.713v-2.109
		c-0.969,1.71-2.594,3.05-5.245,3.05c-3.677,0-5.815-2.508-5.815-5.985V6.983c0-0.428,0.285-0.713,0.684-0.713
		s0.712,0.285,0.712,0.713v8.038c0,2.993,1.682,4.96,4.618,4.96c2.851,0,5.045-2.167,5.045-5.188V6.983
		c0-0.428,0.285-0.713,0.684-0.713c0.399,0,0.712,0.285,0.712,0.713V20.323z"/>
	<path fill="#FFFFFF" d="M90.479,6.983c0-0.399,0.285-0.713,0.684-0.713s0.712,0.285,0.712,0.713v1.995
		c0.941-1.511,2.252-2.936,4.846-2.936c2.537,0,4.104,1.454,4.902,3.136c0.941-1.625,2.509-3.136,5.245-3.136
		c3.449,0,5.586,2.423,5.586,6.071v8.209c0,0.428-0.285,0.713-0.684,0.713s-0.712-0.285-0.712-0.713v-8.038
		c0-3.135-1.625-4.959-4.304-4.959c-2.451,0-4.589,1.881-4.589,5.131v7.866c0,0.428-0.285,0.713-0.684,0.713
		c-0.399,0-0.713-0.285-0.713-0.713v-8.124c0-3.021-1.653-4.874-4.247-4.874c-2.594,0-4.646,2.28-4.646,5.216v7.781
		c0,0.428-0.285,0.713-0.684,0.713s-0.712-0.285-0.712-0.713V6.983z"/>
	<path fill="#FFFFFF" d="M116.391,16.703v-0.057c0-3.021,2.594-4.731,6.357-4.731c2.023,0,3.42,0.256,4.816,0.627v-0.627
		c0-2.936-1.795-4.447-4.789-4.447c-1.596,0-2.935,0.399-4.132,0.969c-0.114,0.057-0.228,0.085-0.313,0.085
		c-0.342,0-0.656-0.313-0.656-0.656c0-0.342,0.256-0.57,0.399-0.627c1.482-0.656,2.936-1.083,4.789-1.083
		c1.967,0,3.535,0.542,4.59,1.596c0.969,0.969,1.481,2.309,1.481,4.104v8.465c0,0.428-0.285,0.713-0.685,0.713
		c-0.398,0-0.684-0.285-0.684-0.713v-1.824c-0.998,1.396-2.793,2.765-5.559,2.765C119.298,21.263,116.391,19.724,116.391,16.703z
		 M127.594,15.477v-1.653c-1.227-0.313-2.852-0.655-4.932-0.655c-3.079,0-4.789,1.368-4.789,3.392v0.057
		c0,2.109,1.995,3.336,4.218,3.336C125.057,19.953,127.594,18.128,127.594,15.477z"/>
	<path fill="#FFFFFF" d="M133.951,6.983c0-0.399,0.285-0.713,0.684-0.713c0.399,0,0.713,0.285,0.713,0.713v2.109
		c0.969-1.71,2.594-3.05,5.244-3.05c3.678,0,5.815,2.508,5.815,5.986v8.294c0,0.428-0.285,0.713-0.685,0.713
		c-0.398,0-0.713-0.285-0.713-0.713v-8.038c0-2.993-1.682-4.959-4.617-4.959c-2.85,0-5.045,2.167-5.045,5.188v7.81
		c0,0.428-0.285,0.713-0.684,0.713c-0.399,0-0.713-0.285-0.713-0.713V6.983z"/>
	<path fill="#FFFFFF" d="M159.037,19.326c-0.115-0.086-0.258-0.314-0.258-0.542c0-0.37,0.314-0.685,0.685-0.685
		c0.171,0,0.343,0.058,0.456,0.143c1.511,1.084,3.107,1.653,4.846,1.653c1.967,0,3.506-1.083,3.506-2.765v-0.057
		c0-1.711-1.824-2.338-3.848-2.908c-2.366-0.684-4.988-1.396-4.988-3.99v-0.057c0-2.337,1.967-4.019,4.789-4.019
		c1.566,0,3.306,0.513,4.703,1.311c0.17,0.114,0.369,0.313,0.369,0.627c0,0.371-0.312,0.685-0.684,0.685
		c-0.171,0-0.313-0.057-0.398-0.114c-1.254-0.741-2.651-1.197-4.048-1.197c-1.995,0-3.306,1.083-3.306,2.537v0.057
		c0,1.625,1.966,2.224,4.047,2.822c2.338,0.655,4.789,1.511,4.789,4.075v0.058c0,2.594-2.225,4.247-5.018,4.247
		C162.713,21.207,160.519,20.437,159.037,19.326z"/>
	<path fill="#FFFFFF" d="M174.914,17.187v-9.52h-1.567c-0.342,0-0.655-0.313-0.655-0.656s0.313-0.627,0.655-0.627h1.567V2.337
		c0-0.399,0.285-0.713,0.685-0.713s0.712,0.313,0.712,0.713v4.047h4.561c0.342,0,0.656,0.313,0.656,0.655
		c0,0.342-0.314,0.627-0.656,0.627h-4.561v9.377c0,2.081,1.227,2.822,2.908,2.822c0.998,0,1.453-0.285,1.652-0.285
		c0.314,0,0.627,0.285,0.627,0.627c0,0.285-0.17,0.484-0.455,0.599c-0.57,0.2-1.227,0.37-2.053,0.37
		C176.738,21.177,174.914,19.953,174.914,17.187z"/>
	<path fill="#FFFFFF" d="M184.551,13.71v-0.058c0-4.076,3.164-7.61,7.496-7.61c4.305,0,7.439,3.478,7.439,7.554v0.057
		c0,4.076-3.164,7.61-7.496,7.61C187.686,21.263,184.551,17.787,184.551,13.71z M197.975,13.71v-0.058
		c0-3.506-2.621-6.299-5.984-6.299c-3.449,0-5.93,2.822-5.93,6.242v0.057c0,3.506,2.623,6.3,5.986,6.3
		C195.496,19.953,197.975,17.13,197.975,13.71z"/>
	<path fill="#FFFFFF" d="M203.791,6.983c0-0.399,0.285-0.713,0.686-0.713c0.398,0,0.713,0.285,0.713,0.713v3.534
		c1.254-2.822,3.791-4.361,5.842-4.361c0.428,0,0.742,0.342,0.742,0.77c0,0.399-0.285,0.741-0.742,0.77
		c-3.078,0.285-5.842,2.594-5.842,7.269v5.358c0,0.399-0.285,0.713-0.686,0.713c-0.398,0-0.713-0.285-0.713-0.713V6.983z"/>
	<path fill="#FFFFFF" d="M214.482,25.111c-0.229-0.085-0.4-0.285-0.4-0.598c0-0.371,0.285-0.656,0.656-0.656
		c0.143,0,0.285,0.057,0.455,0.114c0.457,0.171,0.971,0.285,1.854,0.285c1.596,0,2.566-1.055,3.506-3.221l0.086-0.2l-6.498-13.425
		c-0.059-0.143-0.115-0.285-0.115-0.427c0-0.399,0.314-0.713,0.742-0.713c0.426,0,0.598,0.257,0.74,0.57l5.814,12.542l5.074-12.599
		c0.113-0.285,0.312-0.513,0.684-0.513c0.398,0,0.713,0.313,0.713,0.713c0,0.142-0.029,0.228-0.086,0.371l-5.9,14.081
		c-1.281,3.049-2.764,4.133-4.846,4.133C215.992,25.568,215.252,25.396,214.482,25.111z"/>
</g>
</svg>
