<?xml version="1.0" encoding="utf-8"?>
<!-- Generator: Adobe Illustrator 18.1.1, SVG Export Plug-In . SVG Version: 6.00 Build 0)  -->
<!DOCTYPE svg PUBLIC "-//W3C//DTD SVG 1.1//EN" "http://www.w3.org/Graphics/SVG/1.1/DTD/svg11.dtd">
<svg version="1.1" id="Ebene_1" xmlns="http://www.w3.org/2000/svg" xmlns:xlink="http://www.w3.org/1999/xlink" x="0px" y="0px"
	 viewBox="-607 865 320 320" enable-background="new -607 865 320 320" xml:space="preserve">
<path fill="#FFFFFF" d="M-403.5,881h-90.1c-4.7,0-8.5-3.8-8.5-8.5s3.8-8.5,8.5-8.5h90.1c4.7,0,8.5,3.8,8.5,8.5S-398.8,881-403.5,881
	z"/>
<path fill="#FFFFFF" d="M-403.5,1186h-90.1c-4.7,0-8.5-3.8-8.5-8.5s3.8-8.5,8.5-8.5h90.1c4.7,0,8.5,3.8,8.5,8.5
	S-398.8,1186-403.5,1186z"/>
<path fill="#FFFFFF" d="M-295.5,1078c-4.7,0-8.5-3.8-8.5-8.5v-90.1c0-4.7,3.8-8.5,8.5-8.5s8.5,3.8,8.5,8.5v90.1
	C-287,1074.2-290.8,1078-295.5,1078z"/>
<path fill="#FFFFFF" d="M-599.5,1078c-4.7,0-8.5-3.8-8.5-8.5v-90.1c0-4.7,3.8-8.5,8.5-8.5s8.5,3.8,8.5,8.5v90.1
	C-591,1074.2-594.8,1078-599.5,1078z"/>
<path fill="#FFFFFF" d="M-356.3,1183.5c-4.2,0-7.9-3.1-8.4-7.4c-0.6-4.7,2.7-8.9,7.3-9.5c5.3-0.7,10-1.7,14.8-3.2
	c15-5.5,26.7-17.3,32.3-32.3c1.6-5.3,2.7-10.5,3.4-16.6c0.5-4.7,4.7-8,9.4-7.5c4.7,0.5,8,4.7,7.5,9.4c-0.8,7.2-2.1,13.6-4.2,20
	l-0.1,0.3c-7.2,19.9-22.8,35.4-42.6,42.6l-0.3,0.1c-5.8,1.8-11.5,3.1-17.9,3.9C-355.6,1183.5-356,1183.5-356.3,1183.5z"/>
<path fill="#FFFFFF" d="M-298.7,941c-4.2,0-7.8-3.1-8.4-7.4c-0.7-5.2-1.7-9.8-3.2-14.4c-5.5-15-17.3-26.7-32.3-32.3
	c-5.4-1.7-10.7-2.8-16.9-3.5c-4.7-0.5-8-4.7-7.5-9.4c0.5-4.7,4.7-8,9.4-7.5c7.4,0.8,13.9,2.2,20.4,4.2l0.3,0.1
	c19.9,7.2,35.4,22.8,42.6,42.6l0.1,0.3c1.8,5.7,3,11.2,3.9,17.5c0.6,4.7-2.6,8.9-7.3,9.5C-297.9,941-298.3,941-298.7,941z"/>
<path fill="#FFFFFF" d="M-597,942c-0.3,0-0.7,0-1-0.1c-4.7-0.6-8-4.8-7.4-9.5c0.8-6.9,2.1-13,4.1-19.1l0.1-0.3
	c7.2-19.9,22.8-35.4,42.6-42.6l0.3-0.1c6-1.9,12-3.2,18.7-4c4.7-0.6,8.9,2.7,9.5,7.4c0.6,4.7-2.7,8.9-7.4,9.5
	c-5.6,0.7-10.6,1.7-15.5,3.3c-15,5.5-26.7,17.3-32.3,32.3c-1.6,5.1-2.6,10.1-3.3,15.8C-589.1,938.8-592.8,942-597,942z"/>
<path fill="#FFFFFF" d="M-537.5,1183.2c-0.3,0-0.7,0-1-0.1c-7.1-0.8-13.3-2.1-19.5-4.1l-0.3-0.1c-19.9-7.2-35.4-22.8-42.6-42.6
	l-0.1-0.3c-1.9-5.9-3.1-11.8-4-18.3c-0.6-4.7,2.7-8.9,7.4-9.5c4.7-0.6,8.9,2.7,9.5,7.4c0.7,5.5,1.7,10.3,3.3,15.2
	c5.5,15,17.3,26.7,32.3,32.3c5.2,1.6,10.3,2.7,16.2,3.4c4.7,0.5,8,4.8,7.5,9.4C-529.6,1180-533.2,1183.2-537.5,1183.2z"/>
</svg>
