<?xml version="1.0" encoding="utf-8"?>
<!-- Generator: Adobe Illustrator 18.1.1, SVG Export Plug-In . SVG Version: 6.00 Build 0)  -->
<!DOCTYPE svg PUBLIC "-//W3C//DTD SVG 1.1//EN" "http://www.w3.org/Graphics/SVG/1.1/DTD/svg11.dtd">
<svg version="1.1" xmlns="http://www.w3.org/2000/svg" xmlns:xlink="http://www.w3.org/1999/xlink" x="0px" y="0px"
	 viewBox="0 0 240.127 240.127" enable-background="new 0 0 240.127 240.127" xml:space="preserve">
<g id="Layer_1">
	<rect x="20.064" y="20.011" fill="none" width="200" height="200"/>
	<g>
	</g>
	
		<path fill="none" stroke="#6D6E70" stroke-width="3.3209" stroke-linecap="round" stroke-linejoin="round" stroke-miterlimit="10" d="
		M549.277,457.265"/>
	
		<line fill="none" stroke="#FFFFFF" stroke-width="3.274" stroke-linecap="round" stroke-linejoin="round" stroke-miterlimit="10" x1="1040.511" y1="602.672" x2="1048.511" y2="618.672"/>
	
		<line fill="none" stroke="#FFFFFF" stroke-width="3.274" stroke-linecap="round" stroke-linejoin="round" stroke-miterlimit="10" x1="1051.511" y1="602.672" x2="1059.511" y2="618.672"/>
	<g>
		<g>
			
				<line fill="none" stroke="#E86227" stroke-width="3.5" stroke-linecap="round" stroke-miterlimit="10" x1="124.253" y1="160.876" x2="124.253" y2="107.115"/>
			<polyline fill="none" stroke="#E86227" stroke-width="3.5" stroke-linecap="round" stroke-miterlimit="10" points="
				107.173,144.913 124.253,160.876 140.811,144.913 			"/>
			<path fill="none" stroke="#E86227" stroke-width="3.5" stroke-linecap="round" stroke-miterlimit="10" d="M153.542,138.962
				c7.023-6.655,11.403-16.07,11.403-26.508c0-20.166-16.348-36.513-36.513-36.513c-16.09,0-29.748,10.407-34.612,24.857
				c-0.739-0.068-1.486-0.104-2.243-0.104c-13.376,0-24.22,10.844-24.22,24.22c0,13.376,10.844,24.22,24.22,24.22
				c0.43,0,0.858-0.011,1.283-0.033"/>
			<path fill="none" stroke="#E86227" stroke-width="3.5" stroke-linecap="round" stroke-miterlimit="10" d="M86.179,107.528
				c-7.281,2.454-12.524,9.338-12.524,17.446"/>
			<path fill="none" stroke="#E86227" stroke-width="3.5" stroke-linecap="round" stroke-miterlimit="10" d="M120.843,82.767
				c-9.315,2.652-16.793,9.665-20.088,18.69"/>
		</g>
		
			<circle fill="none" stroke="#E86227" stroke-width="3.5" stroke-linecap="round" stroke-miterlimit="10" cx="119.694" cy="120.011" r="115.784"/>
	</g>
	<g>
		<g>
			<path fill="none" stroke="#33CC66" stroke-width="3.5" stroke-linecap="round" stroke-miterlimit="10" d="M371.892,155.363
				c9.387-2.457,17.24-8.704,21.828-17.006c1.175-2.126,2.135-4.386,2.853-6.752"/>
			<path fill="none" stroke="#33CC66" stroke-width="3.5" stroke-linecap="round" stroke-miterlimit="10" d="M376.488,146.33
				c2.38-1.293,4.554-2.917,6.461-4.81c1.936-1.923,3.597-4.123,4.916-6.536"/>
			<path fill="none" stroke="#33CC66" stroke-width="3.5" stroke-linecap="round" stroke-miterlimit="10" d="M376.427,138.278
				c1.519-1.212,2.87-2.625,4.014-4.198"/>
			<path fill="none" stroke="#33CC66" stroke-width="3.5" stroke-linecap="round" stroke-miterlimit="10" d="M355.896,121.713
				c0,4.094,3.319,7.414,7.414,7.414s7.414-3.319,7.414-7.414"/>
			<path fill="none" stroke="#33CC66" stroke-width="3.5" stroke-linecap="round" stroke-miterlimit="10" d="M349.616,121.713
				c0,7.563,6.131,13.694,13.694,13.694s13.694-6.131,13.694-13.694"/>
			<path fill="none" stroke="#33CC66" stroke-width="3.5" stroke-linecap="round" stroke-miterlimit="10" d="M321.59,121.713
				c0,23.041,18.679,41.72,41.72,41.72s41.72-18.679,41.72-41.72"/>
			<g>
				<path fill="#33CC66" d="M327.456,84.577h-5.763c-0.966,0-1.64,0.675-1.64,1.641v28.986c0,0.966,0.674,1.64,1.64,1.64h5.763
					c4.435,0,8.273-1.589,11.408-4.725c3.135-3.135,4.725-6.974,4.725-11.409c0-4.434-1.59-8.272-4.725-11.409
					C335.728,86.166,331.89,84.577,327.456,84.577z M340.351,100.659c-0.026,3.559-1.301,6.625-3.79,9.113
					c-2.491,2.491-5.557,3.781-9.105,3.833h-4.166V87.815h4.166c3.554,0,6.617,1.267,9.103,3.767
					C339.049,94.085,340.325,97.142,340.351,100.659z"/>
				<path fill="#33CC66" d="M376.047,84.789c-0.875-0.403-1.813,0.004-2.112,0.854l-10.691,25.353l-10.659-25.368
					c-0.026-0.064-0.06-0.126-0.099-0.184c-0.301-0.451-0.771-0.72-1.323-0.758l-0.128-0.004c-0.499,0-0.936,0.191-1.263,0.554
					c-0.428,0.476-0.497,1.138-0.202,1.686l12.16,28.918l0.055,0.11c0.092,0.162,0.371,0.654,0.846,0.779
					c0.149,0.074,0.316,0.113,0.482,0.113h0.129c0.186,0,0.358-0.029,0.438-0.066c0.447-0.092,0.805-0.375,0.991-0.778
					c0.033-0.051,0.061-0.105,0.085-0.162l12.173-28.948l0.034-0.095c0.189-0.613,0.055-1.057-0.09-1.32
					C376.744,85.24,376.487,84.927,376.047,84.789z"/>
				<path fill="#33CC66" d="M402.039,89.302c-3.136-3.135-6.974-4.725-11.408-4.725h-5.763c-0.966,0-1.641,0.675-1.641,1.641v28.986
					c0,0.966,0.675,1.64,1.641,1.64h5.763c4.436,0,8.274-1.589,11.408-4.725c3.135-3.135,4.725-6.974,4.725-11.409
					C406.764,96.276,405.175,92.438,402.039,89.302z M403.526,100.659c-0.026,3.559-1.301,6.625-3.79,9.113
					c-2.491,2.491-5.557,3.781-9.105,3.833h-4.166V87.815h4.166c3.554,0,6.617,1.267,9.103,3.767
					C402.224,94.085,403.5,97.141,403.526,100.659z"/>
			</g>
		</g>
		
			<circle fill="none" stroke="#33CC66" stroke-width="3.5" stroke-linecap="round" stroke-miterlimit="10" cx="363.641" cy="120.011" r="115.784"/>
	</g>
	<g>
		<g>
			<g>
				<path fill="none" stroke="#00AFEF" stroke-width="3.5" stroke-linecap="round" stroke-miterlimit="10" d="M575.778,132.484
					c3.275,9.16,10.199,16.458,18.893,20.315c2.226,0.987,4.567,1.749,6.993,2.259"/>
				<path fill="none" stroke="#00AFEF" stroke-width="3.5" stroke-linecap="round" stroke-miterlimit="10" d="M585.201,136.286
					c1.499,2.264,3.311,4.294,5.369,6.033c2.089,1.766,4.432,3.232,6.958,4.339"/>
				<path fill="none" stroke="#00AFEF" stroke-width="3.5" stroke-linecap="round" stroke-miterlimit="10" d="M593.239,135.521
					c1.343,1.411,2.873,2.637,4.544,3.642"/>
			</g>
			<path fill="none" stroke="#00AFEF" stroke-width="3.5" stroke-linecap="round" stroke-miterlimit="10" d="M600.927,121.138
				c0,4.105,3.328,7.433,7.433,7.433s7.433-3.328,7.433-7.433"/>
			<path fill="none" stroke="#00AFEF" stroke-width="3.5" stroke-linecap="round" stroke-miterlimit="10" d="M594.63,121.138
				c0,7.583,6.147,13.729,13.729,13.729s13.729-6.147,13.729-13.729"/>
			<path fill="none" stroke="#00AFEF" stroke-width="3.5" stroke-linecap="round" stroke-miterlimit="10" d="M566.532,121.138
				c0,23.101,18.727,41.828,41.828,41.828s41.828-18.727,41.828-41.828"/>
			<g>
				<path fill="#00ADEE" d="M579.411,98.177c0.507-0.495,0.95-1.056,1.324-1.677c0.775-1.287,1.168-2.722,1.168-4.266
					c0-2.272-0.825-4.249-2.451-5.875c-1.627-1.626-3.618-2.451-5.918-2.451h-6.898c-0.968,0-1.644,0.676-1.644,1.644v29.061
					c0,0.968,0.676,1.644,1.644,1.644h8.882c2.616,0,4.87-0.935,6.698-2.778c1.825-1.842,2.75-4.021,2.75-6.476
					c0-2.422-0.738-4.528-2.194-6.259C581.82,99.613,580.694,98.752,579.411,98.177z M568.236,100.603h7.282
					c1.727,0,3.153,0.593,4.361,1.813c1.211,1.224,1.8,2.66,1.8,4.391s-0.588,3.167-1.799,4.391
					c-1.208,1.22-2.634,1.813-4.361,1.813h-7.282V100.603z M573.534,97.273h-5.298V87.151h5.28c1.415,0.024,2.586,0.525,3.581,1.532
					c0.997,1.009,1.494,2.174,1.52,3.542c-0.026,1.413-0.521,2.583-1.515,3.577C576.111,96.792,574.944,97.273,573.534,97.273z"/>
				<path fill="#00ADEE" d="M615.24,113.011h-14.482v-27.46c0-0.968-0.667-1.644-1.622-1.644s-1.622,0.676-1.622,1.644v29.061
					c0,0.968,0.676,1.644,1.644,1.644h16.083c0.968,0,1.644-0.667,1.644-1.622S616.208,113.011,615.24,113.011z"/>
				<path fill="#00ADEE" d="M651.131,84.395c-0.32-0.319-0.719-0.488-1.152-0.488c-0.968,0-1.644,0.676-1.644,1.644v17.495
					c-0.025,2.737-1.013,5.094-2.936,7.003c-1.924,1.911-4.274,2.908-6.966,2.962c-2.74-0.054-5.105-1.051-7.029-2.962
					c-1.919-1.906-2.893-4.259-2.893-6.992V85.551c0-0.968-0.667-1.644-1.622-1.644s-1.622,0.676-1.622,1.644v17.505
					c0,3.646,1.296,6.79,3.853,9.346c2.556,2.557,5.686,3.853,9.303,3.853c3.616,0,6.752-1.295,9.322-3.851
					c2.572-2.557,3.876-5.702,3.876-9.348V85.551C651.623,85.118,651.453,84.719,651.131,84.395z"/>
			</g>
		</g>
		
			<circle fill="none" stroke="#00AFEF" stroke-width="3.5" stroke-linecap="round" stroke-miterlimit="10" cx="607.588" cy="120.011" r="115.784"/>
	</g>
	<g>
		
			<path fill="none" stroke="#884098" stroke-width="3.5" stroke-linecap="round" stroke-linejoin="round" stroke-miterlimit="10" d="
			M119.694,387.87c-37.442,0-66.63-1.04-66.63-1.04v10.426l28.335,1.75l2.62,33.295c0.215,2.658,2.434,4.705,5.101,4.705
			c0,0,11.195,0.625,29.82,0.625s32.205-0.625,32.205-0.625c2.59,0,4.746-1.989,4.955-4.571l2.631-33.429l28.335-1.833V386.83
			c0,0-21.337,0.99-45.088,0.99"/>
		
			<line fill="none" stroke="#884098" stroke-width="3.5" stroke-linecap="round" stroke-linejoin="round" stroke-miterlimit="10" x1="82.251" y1="405.443" x2="92.814" y2="405.073"/>
		
			<line fill="none" stroke="#884098" stroke-width="3.5" stroke-linecap="round" stroke-linejoin="round" stroke-miterlimit="10" x1="147.71" y1="403.19" x2="158.308" y2="403.096"/>
		
			<path fill="none" stroke="#884098" stroke-width="3.5" stroke-linecap="round" stroke-linejoin="round" stroke-miterlimit="10" d="
			M82.57,411.006c0,0,17.66,1.355,37.494-0.135s37.197-3.115,37.197-3.115"/>
		
			<line fill="none" stroke="#884098" stroke-width="3.5" stroke-linecap="round" stroke-linejoin="round" stroke-miterlimit="10" x1="150.564" y1="408.943" x2="150.564" y2="416.943"/>
		
			<polyline fill="none" stroke="#884098" stroke-width="3.5" stroke-linecap="round" stroke-linejoin="round" stroke-miterlimit="10" points="
			145.582,407.812 151.566,392.182 123.893,379.579 110.285,410.605 		"/>
		
			<path fill="none" stroke="#884098" stroke-width="3.5" stroke-linecap="round" stroke-linejoin="round" stroke-miterlimit="10" d="
			M114.703,400.441c-2.382-1.362-5.141-2.141-8.081-2.141c-7.624,0-14.026,5.234-15.808,12.304"/>
		
			<path fill="none" stroke="#884098" stroke-width="3.5" stroke-linecap="round" stroke-linejoin="round" stroke-miterlimit="10" d="
			M102.367,410.933c1.1-0.991,2.556-1.594,4.154-1.594c1.416,0,2.721,0.474,3.765,1.272"/>
		
			<circle fill="none" stroke="#884098" stroke-width="3.5" stroke-linecap="round" stroke-linejoin="round" stroke-miterlimit="10" cx="119.694" cy="406.703" r="115.784"/>
	</g>
	<g>
		<g>
			<g>
				
					<path fill="none" stroke="#FF3366" stroke-width="3.5" stroke-linecap="round" stroke-linejoin="round" stroke-miterlimit="10" d="
					M363.535,455.46c-10.37-0.292-23.826,2.954-29.164,1.268v-20.452v-47.703l-8.876,7.925l-12.997-15.533
					c0,0,13.745-16.581,15.85-18.069c2.105-1.488,22.507-7.291,22.507-7.291s3.487,17.118,12.68,16.801"/>
				
					<path fill="none" stroke="#FF3366" stroke-width="3.5" stroke-linecap="round" stroke-linejoin="round" stroke-miterlimit="10" d="
					M363.746,455.46c10.71,0.227,17.118,5.072,29.164,1.268v-68.155l8.876,7.925l12.997-15.533c0,0-13.45-16.158-15.85-18.069
					c-2.4-1.911-22.507-7.291-22.507-7.291s-3.487,17.118-12.68,16.801"/>
				
					<path fill="none" stroke="#FF3366" stroke-width="3.5" stroke-linecap="round" stroke-linejoin="round" stroke-miterlimit="10" d="
					M375.838,356.872c0,0-5.793,1.618-11.992,1.618c-6.199,0-12.402-1.618-12.402-1.618"/>
			</g>
			<g>
				
					<path fill="none" stroke="#FF3366" stroke-width="3" stroke-linecap="round" stroke-linejoin="round" stroke-dasharray="4.7063,4.7063" d="
					M374.457,400.136c0,1.808-1.48,3.288-3.288,3.288h-13.671c-1.808,0-3.288-1.48-3.288-3.288v-13.671
					c0-1.809,1.48-3.288,3.288-3.288h13.671c1.809,0,3.288,1.48,3.288,3.288V400.136z"/>
			</g>
		</g>
		<circle fill="none" stroke="#EF4758" stroke-width="3.5" stroke-miterlimit="10" cx="363.641" cy="406.703" r="115.784"/>
	</g>
	<g>
		<g>
			<g>
				<g>
					
						<line fill="none" stroke="#0090CD" stroke-width="3.5" stroke-linecap="round" stroke-linejoin="round" stroke-miterlimit="10" x1="106.076" y1="707.806" x2="106.076" y2="672.132"/>
					
						<polyline fill="none" stroke="#0090CD" stroke-width="3.5" stroke-linecap="round" stroke-linejoin="round" stroke-miterlimit="10" points="
						94.742,697.213 106.076,707.806 117.064,697.213 					"/>
				</g>
				<g>
					
						<line fill="none" stroke="#0090CD" stroke-width="3.5" stroke-linecap="round" stroke-linejoin="round" stroke-miterlimit="10" x1="145.23" y1="703.08" x2="145.23" y2="662.727"/>
					
						<polyline fill="none" stroke="#0090CD" stroke-width="3.5" stroke-linecap="round" stroke-linejoin="round" stroke-miterlimit="10" points="
						133.896,692.488 145.23,703.08 156.218,692.488 					"/>
				</g>
				<g>
					
						<line fill="none" stroke="#0090CD" stroke-width="3.5" stroke-linecap="round" stroke-linejoin="round" stroke-miterlimit="10" x1="126.134" y1="721.679" x2="126.134" y2="666.406"/>
					
						<polyline fill="none" stroke="#0090CD" stroke-width="3.5" stroke-linecap="round" stroke-linejoin="round" stroke-miterlimit="10" points="
						114.8,711.087 126.134,721.679 137.122,711.087 					"/>
				</g>
				
					<path fill="none" stroke="#0090CD" stroke-width="3.5" stroke-linecap="round" stroke-linejoin="round" stroke-miterlimit="10" d="
					M154.085,681.355c7.023-6.655,11.403-16.07,11.403-26.508c0-20.166-16.348-36.513-36.513-36.513
					c-16.09,0-29.748,10.407-34.612,24.857c-0.739-0.068-1.486-0.104-2.243-0.104c-13.376,0-24.22,10.844-24.22,24.22
					c0,13.376,10.844,24.22,24.22,24.22c0.43,0,0.858-0.011,1.283-0.033"/>
			</g>
			
				<path fill="none" stroke="#0090CD" stroke-width="3.5" stroke-linecap="round" stroke-linejoin="round" stroke-miterlimit="10" d="
				M87.722,649.921c-7.281,2.454-12.524,9.338-12.524,17.446"/>
			
				<path fill="none" stroke="#0090CD" stroke-width="3.5" stroke-linecap="round" stroke-linejoin="round" stroke-miterlimit="10" d="
				M122.386,625.161c-9.315,2.652-16.793,9.665-20.088,18.69"/>
		</g>
		
			<circle fill="none" stroke="#0090CD" stroke-width="3.5" stroke-linecap="round" stroke-linejoin="round" stroke-miterlimit="10" cx="119.694" cy="669.116" r="115.784"/>
	</g>
	<g>
		
			<line fill="none" stroke="#CF4E97" stroke-width="3.5" stroke-linecap="round" stroke-linejoin="round" stroke-miterlimit="10" x1="385.677" y1="658.696" x2="387.174" y2="653.764"/>
		
			<line fill="none" stroke="#CF4E97" stroke-width="3.5" stroke-linecap="round" stroke-linejoin="round" stroke-miterlimit="10" x1="392.701" y1="658.696" x2="394.197" y2="653.764"/>
		
			<line fill="none" stroke="#CF4E97" stroke-width="3.5" stroke-linecap="round" stroke-linejoin="round" stroke-miterlimit="10" x1="378.932" y1="659.538" x2="380.429" y2="654.606"/>
		
			<path fill="none" stroke="#CF4E97" stroke-width="3.5" stroke-linecap="round" stroke-linejoin="round" stroke-miterlimit="10" d="
			M400.959,659.461c0.885-1.224,1.585-2.613,2.048-4.139c2.245-7.4-1.934-15.218-9.334-17.463
			c-5.904-1.791-12.074,0.507-15.468,5.268c-0.263-0.107-0.534-0.204-0.811-0.288c-4.117-1.249-8.43,0.5-10.592,3.993"/>
		
			<path fill="none" stroke="#CF4E97" stroke-width="3.5" stroke-linecap="round" stroke-linejoin="round" stroke-miterlimit="10" d="
			M399.998,702.072h-77c-2.416,0-4.375-2.239-4.375-5v-29.678l-0.875-1.667v-5.986h87.5v5.986l-0.875,1.667v29.678
			C404.373,699.833,402.414,702.072,399.998,702.072z"/>
		
			<path fill="none" stroke="#CF4E97" stroke-width="3.5" stroke-linecap="round" stroke-linejoin="round" stroke-miterlimit="10" d="
			M398.373,665.914"/>
		
			<path fill="none" stroke="#CF4E97" stroke-width="3.5" stroke-linecap="round" stroke-linejoin="round" stroke-miterlimit="10" d="
			M356.883,657.072"/>
		<g>
			
				<path fill="none" stroke="#CF4E97" stroke-width="3.5" stroke-linecap="round" stroke-linejoin="round" stroke-miterlimit="10" d="
				M359.878,645.181v-18.993c0-6.589,2-11.558,7.729-11.558c5.771,0,7.131,4.969,7.131,11.558v3.859"/>
			
				<polygon fill="none" stroke="#CF4E97" stroke-width="3.5" stroke-linecap="round" stroke-linejoin="round" stroke-miterlimit="10" points="
				374.66,625.072 376.003,631.447 373.003,631.447 			"/>
		</g>
		
			<polyline fill="none" stroke="#CF4E97" stroke-width="3.5" stroke-linecap="round" stroke-linejoin="round" stroke-miterlimit="10" points="
			322.814,659.461 318.051,645.282 346.552,634.682 355.821,659.461 		"/>
		
			<path fill="none" stroke="#CF4E97" stroke-width="3.5" stroke-linecap="round" stroke-linejoin="round" stroke-miterlimit="10" d="
			M352.802,649.469c2.299-1.498,5.007-2.436,7.943-2.607c7.611-0.444,14.306,4.409,16.497,11.363"/>
		
			<path fill="none" stroke="#CF4E97" stroke-width="3.5" stroke-linecap="round" stroke-linejoin="round" stroke-miterlimit="10" d="
			M365.728,659.225c-1.156-0.925-2.645-1.443-4.239-1.35c-1.413,0.082-2.689,0.631-3.685,1.489"/>
		
			<line fill="none" stroke="#CF4E97" stroke-width="3.5" stroke-linecap="round" stroke-linejoin="round" stroke-miterlimit="10" x1="329.064" y1="660.741" x2="329.064" y2="684.393"/>
		
			<line fill="none" stroke="#CF4E97" stroke-width="3.5" stroke-linecap="round" stroke-linejoin="round" stroke-miterlimit="10" x1="333.397" y1="660.538" x2="333.397" y2="668.227"/>
		
			<circle fill="none" stroke="#CF4E97" stroke-width="3.5" stroke-linecap="round" stroke-linejoin="round" stroke-miterlimit="10" cx="363.641" cy="669.116" r="115.784"/>
	</g>
	<g>
		<g>
			
				<path fill="none" stroke="#00B49C" stroke-width="3.5" stroke-linecap="round" stroke-linejoin="round" stroke-miterlimit="10" d="
				M608.076,455.826c-10.495-0.295-24.113,2.99-29.516,1.283V436.41v-48.279l-8.983,8.021l-13.154-15.721
				c0,0,13.911-16.781,16.041-18.287c2.13-1.506,22.779-7.379,22.779-7.379s3.529,17.325,12.833,17.004"/>
			
				<path fill="none" stroke="#00B49C" stroke-width="3.5" stroke-linecap="round" stroke-linejoin="round" stroke-miterlimit="10" d="
				M608.29,455.826c10.839,0.23,17.325,5.133,29.516,1.283v-68.978l8.983,8.021l13.154-15.721c0,0-13.612-16.353-16.041-18.287
				c-2.429-1.934-22.779-7.379-22.779-7.379s-3.529,17.325-12.833,17.004"/>
			
				<path fill="none" stroke="#00B49C" stroke-width="3.5" stroke-linecap="round" stroke-linejoin="round" stroke-miterlimit="10" d="
				M620.527,356.049c0,0-5.863,1.637-12.137,1.637c-6.274,0-12.551-1.637-12.551-1.637"/>
		</g>
		<path fill="none" stroke="#00B49C" stroke-width="3.5" stroke-miterlimit="10" d="M617.611,396.151
			c0-5.207-5.668-9.485-9.428-15.632c-4.298,6.362-9.428,10.424-9.428,15.632c0,5.207,4.221,9.428,9.428,9.428
			C613.39,405.58,617.611,401.358,617.611,396.151z"/>
		<circle fill="none" stroke="#00B49C" stroke-width="3.5" stroke-miterlimit="10" cx="607.588" cy="406.703" r="115.784"/>
	</g>
	<text transform="matrix(1 0 0 1 343.5896 -110.3595)" fill="#231F20" font-family="'MyriadPro-Regular'" font-size="12">#fc4349  #35cb60  #1f95c1  #ad51a3  #f27e18  #fecb57 </text>
	<circle fill="none" stroke="#EF4758" stroke-width="3.5" stroke-miterlimit="10" cx="-219.502" cy="-272.494" r="21"/>
	<circle fill="none" stroke="#D9519D" stroke-width="3.5" stroke-miterlimit="10" cx="-331.692" cy="-91.494" r="21"/>
	<circle fill="none" stroke="#6D58A5" stroke-width="3.5" stroke-miterlimit="10" cx="-331.692" cy="-273.312" r="21"/>
	<circle fill="none" stroke="#1F7ABC" stroke-width="3.5" stroke-miterlimit="10" cx="-275.523" cy="-393.494" r="21"/>
	<circle fill="none" stroke="#33B1C9" stroke-width="3.5" stroke-miterlimit="10" cx="-275.523" cy="-207.494" r="21"/>
	<circle fill="none" stroke="#7CC46C" stroke-width="3.5" stroke-miterlimit="10" cx="-391.851" cy="-267.494" r="21"/>
	<circle fill="none" stroke="#FEC65A" stroke-width="3.5" stroke-miterlimit="10" cx="-158.198" cy="-267.494" r="21"/>
	<circle fill="none" stroke="#F47D35" stroke-width="3.5" stroke-miterlimit="10" cx="-96.216" cy="-272.494" r="21"/>
	<circle fill="none" stroke="#EF4658" stroke-width="3.5" stroke-miterlimit="10" cx="-219.502" cy="-210.494" r="21"/>
	<circle fill="none" stroke="#48B261" stroke-width="3.5" stroke-miterlimit="10" cx="-391.851" cy="-205.494" r="21"/>
	<circle fill="none" stroke="#D56237" stroke-width="3.5" stroke-miterlimit="10" cx="-96.216" cy="-207.494" r="21"/>
	<circle fill="none" stroke="#3EA1C9" stroke-width="3.5" stroke-miterlimit="10" cx="-275.523" cy="-272.494" r="21"/>
	<circle fill="none" stroke="#C6406F" stroke-width="3.5" stroke-miterlimit="10" cx="-331.692" cy="-148.494" r="21"/>
	<circle fill="none" stroke="#EDC14C" stroke-width="3.5" stroke-miterlimit="10" cx="-158.198" cy="-210.494" r="21"/>
	<circle fill="none" stroke="#62ACDF" stroke-width="3.5" stroke-miterlimit="10" cx="-275.523" cy="-148.494" r="21"/>
	<circle fill="none" stroke="#EF4750" stroke-width="3.5" stroke-miterlimit="10" cx="-219.502" cy="-148.494" r="21"/>
	<circle fill="none" stroke="#FECA62" stroke-width="3.5" stroke-miterlimit="10" cx="-158.198" cy="-148.494" r="21"/>
	<circle fill="none" stroke="#47BA9C" stroke-width="3.5" stroke-miterlimit="10" cx="-391.851" cy="-333.62" r="21"/>
	<circle fill="none" stroke="#62BB46" stroke-width="3.5" stroke-miterlimit="10" cx="-391.851" cy="-91.75" r="21"/>
	<circle fill="none" stroke="#F8992C" stroke-width="3.5" stroke-miterlimit="10" cx="-158.198" cy="-324.494" r="21"/>
	<circle fill="none" stroke="#E84128" stroke-width="3.5" stroke-miterlimit="10" cx="-96.216" cy="-148.494" r="21"/>
	<circle fill="none" stroke="#5C3795" stroke-width="3.5" stroke-miterlimit="10" cx="-331.692" cy="-333.494" r="21"/>
	<circle fill="none" stroke="#2FBEEF" stroke-width="3.5" stroke-miterlimit="10" cx="-275.523" cy="-91.494" r="21"/>
	<circle fill="none" stroke="#FF3333" stroke-width="3.5" stroke-miterlimit="10" cx="-219.502" cy="-91.494" r="21"/>
	<circle fill="none" stroke="#33CC66" stroke-width="3.5" stroke-miterlimit="10" cx="-391.851" cy="-148.619" r="21"/>
	<circle fill="none" stroke="#3399CC" stroke-width="3.5" stroke-miterlimit="10" cx="-275.523" cy="-333.494" r="21"/>
	<circle fill="none" stroke="#996699" stroke-width="3.5" stroke-miterlimit="10" cx="-331.692" cy="-210.494" r="21"/>
	<circle fill="none" stroke="#FF6600" stroke-width="3.5" stroke-miterlimit="10" cx="-96.216" cy="-91.494" r="21"/>
	<circle fill="none" stroke="#FFCC66" stroke-width="3.5" stroke-miterlimit="10" cx="-158.198" cy="-91.75" r="21"/>
	<path fill="#231F20" d="M799.927-205.07v652.416h644V-205.07H799.927z M1246.477,239.985h-239.622V-0.661h239.622V239.985z"/>
</g>
<g id="Layer_3">
</g>
</svg>
