<?xml version="1.0" encoding="utf-8"?>
<!-- Generator: Adobe Illustrator 15.1.0, SVG Export Plug-In . SVG Version: 6.00 Build 0)  -->
<!DOCTYPE svg PUBLIC "-//W3C//DTD SVG 1.1//EN" "http://www.w3.org/Graphics/SVG/1.1/DTD/svg11.dtd">
<svg version="1.1" id="Layer_1" xmlns="http://www.w3.org/2000/svg" xmlns:xlink="http://www.w3.org/1999/xlink" x="0px" y="0px"
	 width="95.001px" height="95px" viewBox="0 0 95.001 95" enable-background="new 0 0 95.001 95" xml:space="preserve">
<g id="Dashes">
	<g>
		<path fill="#FFFFFF" d="M22.701,51.002v-0.054c0-3.062,2.39-4.565,5.854-4.565c1.584,0,2.712,0.242,3.813,0.591v-0.349
			c0-2.015-1.235-3.089-3.518-3.089c-1.235,0-2.256,0.215-3.142,0.563c-0.188,0.055-0.349,0.081-0.51,0.081
			c-0.752,0-1.37-0.591-1.37-1.343c0-0.591,0.403-1.102,0.886-1.289c1.343-0.51,2.712-0.832,4.565-0.832
			c2.122,0,3.706,0.563,4.7,1.584c1.047,1.021,1.531,2.524,1.531,4.377v6.982c0,0.887-0.698,1.559-1.584,1.559
			c-0.94,0-1.584-0.645-1.584-1.37v-0.537c-0.967,1.155-2.444,2.067-4.619,2.067C25.064,55.379,22.701,53.849,22.701,51.002z
			 M32.422,49.982v-0.967c-0.833-0.322-1.934-0.563-3.223-0.563c-2.095,0-3.33,0.886-3.33,2.363v0.053
			c0,1.37,1.208,2.148,2.766,2.148C30.784,53.016,32.422,51.782,32.422,49.982z"/>
		<path fill="#FFFFFF" d="M39.404,42.381c0-0.912,0.698-1.638,1.611-1.638s1.638,0.726,1.638,1.638v0.887
			c1.047-1.477,2.524-2.658,4.834-2.658c3.33,0,6.58,2.631,6.58,7.357v0.055c0,4.699-3.223,7.357-6.58,7.357
			c-2.363,0-3.84-1.182-4.834-2.497v5.022c0,0.912-0.725,1.611-1.638,1.611c-0.886,0-1.611-0.699-1.611-1.611V42.381z
			 M50.765,48.022v-0.055c0-2.738-1.854-4.538-4.055-4.538c-2.203,0-4.136,1.826-4.136,4.538v0.055c0,2.712,1.934,4.538,4.136,4.538
			C48.938,52.56,50.765,50.815,50.765,48.022z"/>
		<path fill="#FFFFFF" d="M57.423,42.381c0-0.912,0.699-1.638,1.611-1.638c0.914,0,1.639,0.726,1.639,1.638v0.887
			c1.047-1.477,2.525-2.658,4.834-2.658c3.33,0,6.58,2.631,6.58,7.357v0.055c0,4.699-3.223,7.357-6.58,7.357
			c-2.363,0-3.84-1.182-4.834-2.497v5.022c0,0.912-0.725,1.611-1.639,1.611c-0.885,0-1.611-0.699-1.611-1.611V42.381z
			 M68.784,48.022v-0.055c0-2.738-1.854-4.538-4.057-4.538c-2.201,0-4.135,1.826-4.135,4.538v0.055c0,2.712,1.934,4.538,4.135,4.538
			C66.958,52.56,68.784,50.815,68.784,48.022z"/>
	</g>
	<g>
		<path fill="#FFFFFF" d="M77.179,95H65.001c-0.861,0-1.559-0.699-1.559-1.561s0.697-1.559,1.559-1.559h12.178
			c1.205,0,2.406-0.148,3.568-0.441c0.834-0.209,1.682,0.297,1.893,1.133c0.211,0.834-0.297,1.682-1.133,1.893
			C80.097,94.821,78.642,95,77.179,95z M56.919,95H40.75c-0.861,0-1.56-0.699-1.56-1.561s0.698-1.559,1.56-1.559h16.169
			c0.859,0,1.559,0.697,1.559,1.559S57.778,95,56.919,95z M32.667,95H17.822c-0.48,0-0.967-0.02-1.447-0.059
			c-0.858-0.07-1.498-0.822-1.428-1.682c0.069-0.859,0.823-1.49,1.681-1.428c0.396,0.031,0.798,0.049,1.194,0.049h14.845
			c0.86,0,1.56,0.697,1.56,1.559S33.527,95,32.667,95z M8.938,92.342c-0.294,0-0.591-0.082-0.854-0.256
			C3.021,88.762,0,83.19,0,77.178C0,76.317,0.698,75.6,1.56,75.6s1.56,0.682,1.56,1.543v0.035c0,4.957,2.496,9.557,6.677,12.301
			c0.72,0.473,0.921,1.439,0.447,2.16C9.944,92.094,9.446,92.342,8.938,92.342z M88.163,90.704c-0.422,0-0.842-0.17-1.148-0.504
			c-0.584-0.635-0.543-1.621,0.092-2.203c3.033-2.789,4.773-6.732,4.775-10.818v-2.703c0-0.861,0.697-1.561,1.559-1.561
			s1.561,0.699,1.561,1.561v2.703c-0.002,4.957-2.109,9.736-5.783,13.113C88.917,90.567,88.54,90.704,88.163,90.704z M1.56,70.62
			C0.698,70.62,0,69.92,0,69.059V52.893c0-0.861,0.698-1.561,1.56-1.561s1.56,0.699,1.56,1.561v16.166
			C3.119,69.92,2.421,70.62,1.56,70.62z M93.44,67.95c-0.861,0-1.559-0.697-1.559-1.559V50.223c0-0.861,0.697-1.559,1.559-1.559
			s1.561,0.697,1.561,1.559v16.168C95.001,67.252,94.302,67.95,93.44,67.95z M1.56,46.368c-0.861,0-1.56-0.698-1.56-1.56V28.642
			c0-0.861,0.698-1.56,1.56-1.56s1.56,0.698,1.56,1.56v16.167C3.119,45.67,2.421,46.368,1.56,46.368z M93.44,43.7
			c-0.861,0-1.559-0.699-1.559-1.56V25.974c0-0.861,0.697-1.561,1.559-1.561s1.561,0.699,1.561,1.561v16.167
			C95.001,43.001,94.302,43.7,93.44,43.7z M1.56,22.118c-0.861,0-1.56-0.699-1.56-1.561v-2.734c0-4.944,2.098-9.716,5.757-13.092
			C6.389,4.147,7.376,4.188,7.96,4.82c0.584,0.634,0.545,1.62-0.088,2.204c-3.021,2.787-4.753,6.723-4.753,10.799v2.734
			C3.119,21.419,2.421,22.118,1.56,22.118z M93.44,19.449c-0.861,0-1.559-0.698-1.559-1.56v-0.066c0-4.971-2.506-9.576-6.703-12.318
			c-0.721-0.471-0.922-1.438-0.451-2.159c0.471-0.72,1.436-0.924,2.158-0.452c5.082,3.321,8.115,8.902,8.115,14.93v0.066
			C95.001,18.751,94.302,19.449,93.44,19.449z M13.84,3.616c-0.696,0-1.331-0.471-1.511-1.176c-0.212-0.836,0.293-1.684,1.128-1.896
			C14.878,0.184,16.347,0,17.822,0h12.144c0.861,0,1.56,0.698,1.56,1.56s-0.698,1.56-1.56,1.56H17.822
			c-1.217,0-2.427,0.151-3.597,0.448C14.097,3.601,13.967,3.616,13.84,3.616z M78.468,3.171c-0.041,0-0.082-0.002-0.125-0.006
			c-0.385-0.03-0.777-0.046-1.164-0.046H62.3c-0.861,0-1.559-0.698-1.559-1.56S61.438,0,62.3,0h14.879
			c0.469,0,0.945,0.019,1.412,0.056c0.857,0.068,1.498,0.82,1.43,1.679C79.956,2.551,79.272,3.171,78.468,3.171z M54.218,3.119
			H38.049c-0.861,0-1.56-0.698-1.56-1.56S37.188,0,38.049,0h16.169c0.861,0,1.559,0.698,1.559,1.56S55.079,3.119,54.218,3.119z"/>
	</g>
</g>
</svg>
